<?xml version="1.0" encoding="UTF-8" standalone="no"?>
<!-- Created with Inkscape (http://www.inkscape.org/) -->

<svg
   xmlns:dc="http://purl.org/dc/elements/1.1/"
   xmlns:cc="http://creativecommons.org/ns#"
   xmlns:rdf="http://www.w3.org/1999/02/22-rdf-syntax-ns#"
   xmlns:svg="http://www.w3.org/2000/svg"
   xmlns="http://www.w3.org/2000/svg"
   xmlns:sodipodi="http://sodipodi.sourceforge.net/DTD/sodipodi-0.dtd"
   xmlns:inkscape="http://www.inkscape.org/namespaces/inkscape"
   width="133mm"
   height="18mm"
   viewBox="0 0 471.25962 63.779514"
   id="svg4200"
   version="1.1"
   inkscape:version="0.91 r13725"
   sodipodi:docname="logo-with-text-purple.svg">
  <defs
     id="defs4202" />
  <sodipodi:namedview
     id="base"
     pagecolor="#ffffff"
     bordercolor="#666666"
     borderopacity="1.0"
     inkscape:pageopacity="0.0"
     inkscape:pageshadow="2"
     inkscape:zoom="1.979899"
     inkscape:cx="152.70065"
     inkscape:cy="115.93898"
     inkscape:document-units="px"
     inkscape:current-layer="layer1"
     showgrid="false"
     inkscape:window-width="1920"
     inkscape:window-height="1031"
     inkscape:window-x="0"
     inkscape:window-y="25"
     inkscape:window-maximized="1" />
  <metadata
     id="metadata4205">
    <rdf:RDF>
      <cc:Work
         rdf:about="">
        <dc:format>image/svg+xml</dc:format>
        <dc:type
           rdf:resource="http://purl.org/dc/dcmitype/StillImage" />
        <dc:title></dc:title>
      </cc:Work>
    </rdf:RDF>
  </metadata>
  <g
     inkscape:label="Layer 1"
     inkscape:groupmode="layer"
     id="layer1"
     transform="translate(0,-988.58276)">
    <path
       sodipodi:nodetypes="sccscccccccsccccccscscccccsccccccccccsccccccccsccsccsccssscscssscsccsccccscccccccscssscscscccsscccccsccccccsccccccccccccscccccccccccccccccscsccccssssccccscccssccccssssccccscsscsccscsc"
       inkscape:connector-curvature="0"
       id="path4189"
       d="m 41.105953,990.79455 c -1.48448,-0.0166 -2.95952,0.13483 -4.42461,0.45706 -1.65873,0.36471 -3.28047,0.97307 -4.85629,1.62379 -3.84329,1.58729 -6.92233,4.16054 -9.33728,7.5386 -1.60515,2.2454 -2.71318,4.726 -3.59428,7.3326 -0.92102,2.7241 -1.38676,5.5136 -1.36406,8.3775 0.014,1.7258 0.20985,3.4336 0.59969,5.1324 0.51103,2.2272 1.31354,4.3228 2.32029,6.3639 0.69497,1.4092 1.62926,2.7346 1.59507,4.4315 -0.0127,0.6418 -0.0855,1.222 -0.56281,1.6403 -0.88454,0.7758 -1.89193,1.3933 -3.09181,1.4525 -1.11466,0.055 -2.09564,-0.2831 -2.74865,-1.3262 -0.51269,-0.8188 -0.51677,-1.7293 -0.59229,-2.6162 -0.21469,-2.522 -0.30322,-5.0561 -0.55924,-7.5733 -0.18115,-1.7807 -0.98238,-3.2506 -2.77812,-3.9294 -0.725979,-0.2745 -1.489069,-0.451 -2.3028094,-0.6919 0.4585905,-0.2184 0.8988204,-0.4059 1.3182604,-0.632 1.542389,-0.8315 2.494539,-2.0367 2.504109,-3.8771 0.0127,-2.5491 -0.62839,-4.9924 -1.17514,-7.4483 -0.34327,-1.5421 -0.710539,-3.0557 -0.4202,-4.6615 0.27669,-1.5302 2.25983,-2.52038 3.4495,-1.5843 0.57315,0.4509 1.00011,1.1326 1.37222,1.7792 0.26712,0.4646 0.5965,0.7273 1.08341,0.7897 1.09082,0.1397 2.51904,-0.9731 2.69878,-2.0723 0.31981,-1.95533 -0.97026,-4.0594 -2.87073,-4.62438 -2.60782,-0.77535 -5.17367,-0.76629 -7.6511189,0.50337 -2.5694302,1.31673 -4.2006003,3.53241 -3.9337403,6.50931 0.1856101,2.0695 0.7030201,4.1086 1.0610901,6.1633 0.25832,1.4827 0.53169,2.9643 0.7257197,4.4558 0.0548,0.4232 -0.0816,0.9036 -0.2396897,1.316 -0.44138,1.1535 -1.4875401,1.5455 -2.5519501,1.8531 -0.76552,0.2212 -0.8913,0.377 -0.75825,1.1642 0.0931,0.5528 0.18688,1.1101 0.21303,1.6686 0.06,1.2816 0.11226,1.3565 1.36228,1.4444 0.065,0 0.12973,0.013 0.19441,0.014 2.2473198,0.2397 2.9162698,1.2713 3.0928198,2.9276 0.25003,2.3435 0.16086,4.7212 0.32567,7.0767 0.0919,1.3226 0.27121,2.6693 0.6484205,3.9345 0.5612899,1.8828 2.1091689,2.8561 3.5836889,3.9538 1.65555,-2.2235 4.8841,-3.3504 7.41041,-1.983 2.19042,0.9496 2.80082,3.5819 4.77924,4.7713 1.56216,0.7223 3.64735,0.3284 4.81942,-0.9523 0.29544,-0.3139 0.51013,-0.6734 0.65122,-1.0569 0.76424,-1.9799 0.43959,-2.7375 0.24556,-3.653 1.11314,1.7499 1.1523,2.2207 0.96032,3.3829 -0.41332,1.4406 -1.12488,2.2211 -1.59074,2.6004 -0.44814,0.3648 -1.61383,0.8446 -2.56688,0.9613 -1.1264,0.138 -2.47719,-0.013 -3.43508,-0.7021 -0.48513,-0.3494 -1.13074,-1.098 -1.87087,-2.1283 -0.37007,-0.5152 -0.77101,-1.0815 -1.38154,-1.6353 -0.61052,-0.5539 -1.5577,-1.1185 -2.68129,-1.1663 -3.65628,-0.1558 -5.07583,3.333 -5.07583,3.333 -0.58923,1.1502 -0.12374,2.56 1.03455,3.133 1.1583,0.5732 2.56152,0.088 3.11821,-1.0783 0,0 0.36943,-0.6444 0.61219,-0.64 0.22898,0.043 0.33333,0.3711 0.61053,0.757 0.6641,0.9245 1.55132,2.3964 3.27996,3.4162 2.62249,1.547 4.73931,1.3656 5.87834,1.3437 2.07638,-0.04 3.87404,-0.7969 5.28453,-1.908 2.08365,3.1916 6.18322,4.6293 9.55899,2.8056 1.43294,-0.7743 2.55577,-1.8247 3.02649,-3.2676 0.47071,-1.4427 0.22145,-2.7221 -0.0995,-3.8385 -0.31381,-1.0911 -1.27119,-2.0806 -2.2116,-2.4327 -0.94028,-0.3522 -1.7368,-0.2865 -2.38101,-0.1831 -1.28853,0.2068 -2.24872,0.7291 -2.24872,0.7291 -1.16467,0.5637 -1.64215,1.972 -1.05994,3.1276 0.58208,1.1556 1.99844,1.6105 3.14461,1.0102 0,0 0.38245,-0.2788 0.47672,-0.048 0.0944,0.2303 -0.19594,0.4756 -1.0019,0.8271 -0.80583,0.3516 -2.93299,-0.1993 -3.62324,-1.8174 -0.30284,-0.7098 -0.36089,-1.2231 -0.33805,-1.5359 0.38116,-0.8465 0.72368,-2.6658 0.37007,-3.5721 0.5387,0.5171 1.0209,1.2695 1.79076,1.0499 0.64574,-0.2993 3.1996,-1.3871 5.35035,-0.3901 2.15088,0.9969 3.82135,3.5512 2.75962,7.2581 1.60962,1.7751 4.08924,2.668 6.0017,2.9523 2.09092,0.2965 4.42282,0.1851 6.47701,-1.0425 0.0128,0 0.014,-0.013 0.0217,-0.013 1.61154,-0.9875 2.6392,-2.3744 3.61317,-3.4368 0.31534,-0.3439 0.63247,-0.8538 0.80302,-0.7881 0.0867,0.043 0.14083,0.3626 0.14083,0.3626 0.32772,1.2491 1.61345,1.9894 2.85823,1.6453 1.24479,-0.3439 1.96796,-1.6393 1.60784,-2.8795 0,0 -0.22248,-0.8439 -0.6798,-1.7616 -0.2286,-0.4588 -0.50911,-0.9628 -1.0033,-1.481 -0.49419,-0.518 -1.37477,-1.1577 -2.56279,-1.1119 -1.24134,0.049 -2.09513,0.6124 -2.78195,1.1508 -1.68195,1.1901 -2.7947,3.2575 -4.00823,4.0357 -1.21366,0.7782 -2.7933,0.8626 -3.83513,0.7326 -1.35614,-0.1693 -2.40269,-0.651 -3.0506,-1.3162 -0.64803,-0.6653 -1.91794,-1.7796 -1.74177,-4.2452 0.16813,-1.2439 0.64037,-1.867 1.38076,-2.2229 -0.8543,2.0827 -0.27452,3.9687 0.0855,4.5814 1.11607,2.1047 4.69262,2.8278 6.39129,1.7039 1.69866,-1.124 2.48625,-3.2847 5.07047,-4.7067 2.58434,-1.4221 4.94405,-0.565 6.30645,1.2292 0.0395,0.061 0.0791,0.1238 0.11863,0.1861 0.0306,-0.02 0.0612,-0.042 0.0918,-0.062 0.49253,-0.2735 0.57251,-0.3421 1.31571,-0.8536 2.21671,-1.5255 3.08874,-3.7771 3.26848,-6.3186 0.17885,-2.5282 0.18638,-5.0679 0.28524,-7.6021 0.0459,-1.1639 0.348,-2.2893 1.44136,-2.8473 0.71475,-0.3648 1.58768,-0.474 2.40448,-0.5646 0.48322,-0.054 0.69549,-0.1714 0.74677,-0.6522 0.11608,-1.0916 0.26521,-2.1795 0.40885,-3.3313 -0.43959,-0.1199 -0.77828,-0.1913 -1.10255,-0.3038 -1.81819,-0.6328 -2.74738,-1.6074 -2.5369,-3.3084 0.25781,-2.0834 0.75264,-4.1403 1.20142,-6.1964 0.41624,-1.9076 0.81335,-3.82 0.40872,-5.7647 -0.29315,-1.4091 -0.98902,-2.59925 -2.20931,-3.47971 -1.59521,-1.15102 -3.45945,-1.44276 -5.30328,-1.78987 -1.04795,-0.19722 -1.44608,-0.81693 -0.97919,-1.7766 0.13139,-0.27031 0.25883,-0.54509 0.35808,-0.82841 0.22515,-0.64153 -0.0446,-1.37184 -0.65837,-1.65427 -1.21059,-0.55772 -2.39249,-0.47199 -3.46468,0.33677 -1.70963,1.28969 -1.8488,2.95327 -1.4235,4.58598 0.50363,1.93313 1.86309,3.23441 3.9197,3.62921 0.63503,0.1225 1.29773,0.1355 1.9131,0.3168 1.68833,0.4972 2.14821,1.7462 1.9853,3.4538 -0.11991,1.2596 -0.41063,2.5051 -0.6604,3.7499 -0.39928,1.9904 -0.84997,3.9771 -0.72547,6.0238 0.0842,1.3834 0.69498,2.5194 1.89205,3.2679 0.59624,0.3729 1.24185,0.6671 1.94436,1.0387 -0.61576,0.1332 -1.14159,0.2149 -1.64802,0.3628 -1.35641,0.3959 -2.49875,1.1469 -2.95837,2.5142 -0.36535,1.0873 -0.54522,2.257 -0.65837,3.4048 -0.23102,2.3454 -0.34034,4.7027 -0.54164,7.0514 -0.12629,1.475 -1.28994,2.834 -2.91117,2.7771 -1.30653,-0.046 -2.38879,-0.6248 -3.36046,-1.4074 -0.30896,-0.2487 -0.61231,-0.7567 -0.58565,-1.1218 0.0727,-0.9958 0.18892,-2.0284 0.53348,-2.955 0.51843,-1.3941 1.2856,-2.6933 1.87445,-4.0639 0.80902,-1.8829 1.3314,-3.858 1.5702,-5.8926 0.26521,-2.26 0.34481,-4.5116 0.0561,-6.7979 -0.24735,-1.9553 -0.63783,-3.8573 -1.29977,-5.6937 -0.88632,-2.4594 -2.09079,-4.7673 -3.68383,-6.8555 -1.88567,-2.47171 -4.11539,-4.5634 -6.78457,-6.17889 -2.41175,-1.45947 -5.01995,-2.31021 -7.78889,-2.82531 -1.16505,-0.21687 -2.32501,-0.33231 -3.47947,-0.34558 z m -10.35717,20.96335 c 2.11619,0.025 3.47667,1.1821 4.15162,2.3292 0.71513,1.2153 0.80303,2.4452 0.80303,2.4452 0.0127,0.1109 -0.0753,0.2069 -0.18536,0.2158 l -1.349,0.1084 c -0.10971,0.013 -0.20678,-0.073 -0.21686,-0.1826 0,0 -0.0816,-0.8726 -0.56588,-1.6956 -0.49075,-0.8341 -1.19759,-1.5597 -2.96794,-1.4558 -0.88543,0.052 -1.47287,0.286 -1.89052,0.6071 -0.41765,0.3209 -0.6724,0.736 -0.86247,1.1777 -0.37491,0.8708 -0.34545,1.7463 -0.34545,1.7463 0,0.111 -0.0816,0.204 -0.19198,0.2092 l -1.35181,0.064 c -0.11099,0 -0.205,-0.08 -0.211,-0.1907 0,0 -0.0702,-1.2313 0.48654,-2.5236 0.56026,-1.3016 1.89843,-2.7056 4.26362,-2.8442 0.14785,-0.013 0.29238,-0.013 0.43346,-0.013 z m 19.77188,0 c 0.14109,0 0.28562,0 0.43347,0.013 2.36519,0.1386 3.70309,1.5426 4.26336,2.8442 0.55644,1.2923 0.48679,2.5236 0.48679,2.5236 0,0.111 -0.10078,0.1959 -0.21099,0.1907 l -1.35181,-0.064 c -0.11098,0 -0.19633,-0.098 -0.19212,-0.2092 0,0 0.0293,-0.8755 -0.34532,-1.7464 -0.19007,-0.4416 -0.44482,-0.8567 -0.86247,-1.1777 -0.41764,-0.321 -1.00508,-0.5551 -1.89039,-0.607 -1.77048,-0.1034 -2.47732,0.6217 -2.96806,1.4557 -0.48437,0.8231 -0.56588,1.6956 -0.56588,1.6956 -0.0128,0.1097 -0.10716,0.1915 -0.21686,0.1827 l -1.34901,-0.1084 c -0.11098,-0.013 -0.19326,-0.1046 -0.18535,-0.2157 0,0 0.088,-1.2299 0.80302,-2.4452 0.67508,-1.1471 2.03544,-2.3035 4.15162,-2.3292 z m -13.83957,10.5492 8.51027,0 c 0.12629,0 0.22605,0.1098 0.2138,0.2354 -0.22439,2.3148 -2.15981,4.0855 -4.47066,4.0855 l -1.3e-4,0 c -2.30944,0 -4.24282,-1.772 -4.46708,-4.0855 -0.0128,-0.1263 0.0867,-0.2354 0.2138,-0.2354 z"
       style="fill:#5915c9;fill-opacity:1" />
    <g
       transform="matrix(0.20021217,0,0,0.20021217,494.03989,360.08236)"
       id="g4191"
       style="fill:#5915c9;fill-opacity:1">
      <path
         style="clip-rule:evenodd;fill:#5915c9;fill-opacity:1"
         inkscape:connector-curvature="0"
         id="path4193"
         d="m -1893.8719,3386.7307 c 18.928,0 34.7013,-6.3094 45.5173,-17.1254 11.7173,-11.7173 16.4493,-25.9131 16.4493,-46.6438 l 0,-97.1189 -51.3759,0 0,98.0203 c 0,11.041 -5.8587,18.2517 -14.6467,18.2517 -8.5627,0 -14.4213,-5.1823 -20.5053,-13.7451 l -34.476,29.0678 c 11.492,17.1254 28.8426,29.2934 59.0373,29.2934 z m 152.2931,0.2265 c 48.672,0 86.3027,-36.5041 86.3027,-82.2468 l 0,-0.4534 c 0,-45.7423 -37.18,-81.7958 -85.852,-81.7958 -48.672,0 -86.3027,36.5041 -86.3027,82.2465 l 0,0.4481 c 0,45.743 37.18,81.7962 85.852,81.7962 l 0,0 z m 0.4507,-46.6442 c -20.28,0 -33.124,-16.8997 -33.124,-35.6026 l 0,-0.4534 c 0,-18.4772 12.6186,-35.1519 32.6733,-35.1519 20.28,0 33.124,16.9002 33.124,35.6026 l 0,0.4481 c 0,18.4774 -12.6187,35.152 -32.6733,35.152 l 0,0 z m 122.9998,43.264 52.7279,0 0,-56.5585 59.488,-101.1749 -58.3613,0 -27.2653,51.8268 -27.04,-51.8268 -59.0373,0 59.488,101.8508 z"
         sodipodi:nodetypes="cssccsscccccsssssccccsssssccccccccccccc" />
      <path
         d="m -1340.9516,3386.9572 c 48.672,0 86.3027,-36.5041 86.3027,-82.247 l 0,-0.4532 c 0,-45.7425 -37.18,-81.7958 -85.852,-81.7958 -48.672,0 -86.3026,36.5041 -86.3026,82.2465 l 0,0.4481 c 0,45.7428 37.1799,81.7962 85.8519,81.7962 l 0,0 z m 0.4507,-46.6444 c -20.28,0 -33.124,-16.8997 -33.124,-35.6026 l 0,-0.4532 c 0,-18.4774 12.6187,-35.1519 32.6733,-35.1519 20.28,0 33.124,16.9 33.124,35.6026 l 0,0.4481 c 0,18.4772 -12.6186,35.152 -32.6733,35.152 l 0,0 z m 91.9038,43.2642 52.728,0 0,-51.6013 73.684,0 0,-41.0106 -73.684,0 0,-20.0549 79.3173,0 0,-45.0666 -132.0453,0 z"
         id="path4196"
         inkscape:connector-curvature="0"
         style="clip-rule:evenodd;fill:#5915c9;fill-opacity:1"
         sodipodi:nodetypes="csssssccccssssscccccccccccccc" />
      <path
         style="clip-rule:evenodd;fill:#5915c9;fill-opacity:1"
         inkscape:connector-curvature="0"
         id="path4198"
         d="m -922.45224,3386.9572 c 39.208,0 61.29066,-19.1536 74.58532,-42.5882 l -43.48935,-24.5611 c -6.53468,11.7174 -14.87202,19.8294 -29.74397,19.8294 -17.35071,0 -29.51867,-14.4215 -29.51867,-34.9269 l 0,-0.4534 c 0,-18.928 11.7173,-34.4756 29.51867,-34.4756 14.42129,0 22.75863,7.8863 28.61728,19.153 l 43.48935,-25.4625 c -13.29466,-24.1108 -36.72932,-41.0107 -71.43066,-41.0107 -47.09462,0 -83.82403,35.1521 -83.82403,82.2465 l 0,0.4481 c 0,48.8976 38.0814,81.7962 81.79606,81.7962 l 0,0 z m 154.09575,0 c 48.67203,0 86.30267,-36.5041 86.30267,-82.2468 l 0,-0.4534 c 0,-45.7423 -37.18003,-81.7958 -85.85201,-81.7958 -48.67197,0 -86.30262,36.5041 -86.30262,82.2465 l 0,0.4481 c 0,45.743 37.17998,81.7962 85.85196,81.7962 l 0,0 z m 0.45066,-46.6442 c -20.28,0 -33.12399,-16.8999 -33.12399,-35.6026 l 0,-0.4534 c 0,-18.4772 12.61869,-35.1519 32.67333,-35.1519 20.27999,0 33.12399,16.9002 33.12399,35.6026 l 0,0.4481 c 0,18.4772 -12.61863,35.152 -32.67333,35.152 l 0,0 z m 91.90381,43.264 58.58661,0 c 63.76935,0 95.76671,-33.1239 95.76671,-79.768 l 0,-0.4482 c 0,-46.6436 -31.32133,-77.5145 -93.96404,-77.5145 l -60.38928,0 0,157.7331 z m 52.72796,-45.9681 0,-65.7972 8.78801,0 c 24.11068,0 39.65866,9.9147 39.65866,32.6736 l 0,0.4531 c 0,22.7585 -15.54798,32.6732 -39.65866,32.6732 l -8.78801,0 z m 108.12783,45.9681 52.72796,0 0,-157.7334 -52.72796,0 z m 62.8358,0 52.2773,0 0,-72.7824 58.58661,72.7824 46.86937,0 0,-157.7334 -52.27735,0 0,69.6282 -56.10798,-69.6282 -49.34795,0 z m 252.34103,3.3802 c 28.61734,0 52.50265,-9.6896 69.62795,-23.6602 l 0,-73.0081 -76.38793,0 0,33.8002 27.03998,0 0,15.7733 c -4.05599,2.2533 -9.01331,3.6051 -18.02667,3.6051 -22.08266,0 -37.63065,-15.3224 -37.63065,-37.6304 l 0,-0.4479 c 0,-21.407 14.87202,-37.1804 35.37732,-37.1804 13.06935,0 24.56135,4.9574 34.92665,13.7458 l 29.5187,-35.6029 c -17.12537,-14.8718 -38.98267,-23.8852 -66.02265,-23.8852 -49.79867,0 -86.97865,35.1519 -86.97865,82.2464 l 0,0.4481 c 0,48.8975 39.43331,81.7962 88.55595,81.7962 z"
         sodipodi:nodetypes="cccssssccsssccccsssssccccsssssccccsssscccccsssscccccccccccccccccccccccccssssccssscc" />
    </g>
  </g>
</svg>
