<?xml version="1.0" encoding="utf-8"?>
<!-- Generator: Adobe Illustrator 17.0.0, SVG Export Plug-In . SVG Version: 6.00 Build 0)  -->
<!DOCTYPE svg PUBLIC "-//W3C//DTD SVG 1.1//EN" "http://www.w3.org/Graphics/SVG/1.1/DTD/svg11.dtd">
<svg version="1.1" id="Layer_1" xmlns="http://www.w3.org/2000/svg" xmlns:xlink="http://www.w3.org/1999/xlink" x="0px" y="0px"
	 width="725.556px" height="673.111px" viewBox="0 0 725.556 673.111" enable-background="new 0 0 725.556 673.111"
	 xml:space="preserve">
<g id="yIniGy_1_">
	<g>
		<path fill="#A49687" d="M5.556,499.463c1.372-2.172,1.317-4.75,2.007-7.118c4.569-15.693,14.399-26.098,30.378-30.273
			c28.713-7.503,57.661-13.946,86.909-19.006c2.416-0.418,2.998-1.034,1.64-3.527c-7.959-14.603-14.264-29.907-19.622-45.669
			c-5.367-15.79-9.183-31.951-12.042-48.293c-2.197-12.559-3.666-25.303-3.589-38.14c0.085-14.137-0.561-28.306,0.883-42.392
			c1.814-17.708,5.065-35.173,9.759-52.372c8.971-32.868,23.063-63.318,42.455-91.342c11.696-16.902,25.182-32.253,40.109-46.314
			c11.734-11.053,24.615-20.756,38.145-29.472c12.275-7.907,25.275-14.731,38.778-20.218c17.709-7.197,36.006-12.93,54.96-15.851
			c8.287-1.277,16.612-2.899,25.088-2.764c0.768,0.012,1.613,0.097,2.118-0.727c9.52,0,19.041,0,28.561,0
			c3.828,1.728,7.999,0.946,11.972,1.389c21.742,2.419,42.685,7.726,63.18,15.318c12.135,4.495,23.787,10.017,34.987,16.271
			c12.754,7.122,24.842,15.473,36.148,24.825c14.151,11.706,27.26,24.481,38.87,38.725c13.622,16.712,25.413,34.599,35.108,53.923
			c9.74,19.415,17.297,39.597,22.752,60.571c4.177,16.061,7.553,32.381,9.009,48.865c1.391,15.744,1.395,31.626,0.572,47.508
			c-1.077,20.774-4.934,41.033-9.906,61.094c-4.383,17.682-10.683,34.769-18.48,51.263c-2.808,5.94-5.818,11.784-8.927,18.058
			c9.68,1.658,19.128,3.184,28.54,4.905c24.38,4.458,48.756,8.969,72.858,14.779c16.02,3.861,25.382,14.514,29.992,30.055
			c2.637,8.89,0.903,17.514-0.34,26.242c-3.049,21.408-6.078,42.818-9.161,64.221c-2.613,18.138-4.996,36.316-8.026,54.385
			c-2.751,16.404-13.206,25.321-29.271,28.622c-7.508,1.543-14.43-0.559-21.478-1.949c-31.704-6.254-63.546-11.611-95.596-15.781
			c-28.793-3.747-57.646-6.771-86.616-8.792c-21.216-1.48-42.443-2.498-63.698-3.229c-25.644-0.882-51.291-0.881-76.92-0.288
			c-27.187,0.63-54.351,2.085-81.48,4.26c-26.316,2.11-52.555,4.854-78.711,8.327c-33.333,4.426-66.512,9.901-99.376,17.039
			c-15.131,3.286-33.082-3.885-40.001-17.358c-3.258-6.345-4.022-13.341-5.026-20.24c-3.437-23.616-6.783-47.245-10.144-70.871
			c-2.21-15.536-4.388-31.076-6.578-46.614c-0.125-0.887,0.115-1.885-0.791-2.527C5.556,505.81,5.556,502.636,5.556,499.463z
			 M611.079,290.821c0.504-6.644-0.798-17.563-2.033-28.426c-2.329-20.468-6.569-40.562-13.126-60.151
			c-5.246-15.672-11.737-30.779-19.43-45.39c-6.769-12.856-14.708-24.957-23.427-36.562c-5.785-7.699-11.965-15.091-18.573-22.068
			c-10.495-11.081-21.804-21.307-34.22-30.242c-4.908-3.532-9.708-7.248-14.833-10.436c-11.286-7.022-23.098-13.119-35.283-18.411
			c-7.112-3.089-14.376-5.982-21.81-8.145c-15.432-4.49-31.1-7.704-47.171-9.487c-22.153-2.459-44.052-0.989-65.794,2.609
			c-14.659,2.426-28.89,6.941-42.832,12.41c-16.867,6.616-32.784,14.83-47.725,25.014c-6.959,4.743-13.583,9.907-20.219,15.098
			c-8.643,6.762-16.406,14.4-23.841,22.294c-10.832,11.501-20.489,24.009-29.163,37.304c-13.201,20.233-23.557,41.794-31.216,64.634
			c-7.529,22.455-12.623,45.474-14.149,69.172c-1.343,20.846-1.565,41.716,1.084,62.469c2.745,21.505,7.687,42.54,15.182,62.93
			c4.869,13.247,10.305,26.24,17.284,38.538c3.058,5.388,6.17,10.744,9.255,16.116c0.997,1.736,1.53,2.964-1.415,3.394
			c-19.033,2.78-37.92,6.401-56.738,10.362c-16.763,3.528-33.516,7.163-49.991,11.865c-14.444,4.122-23.182,18.953-20.612,33.622
			c1.432,8.169,2.361,16.426,3.523,24.642c2.213,15.649,4.413,31.3,6.651,46.945c2.517,17.599,5.288,35.164,7.536,52.797
			c1.658,13.013,13.047,21.901,25.877,19.369c15.248-3.009,30.506-5.949,45.801-8.724c30.082-5.458,60.335-9.71,90.704-13.081
			c20.035-2.224,40.124-4.129,60.236-5.458c22.905-1.513,45.854-2.74,68.801-3.169c37.908-0.709,75.825-0.558,113.689,2.05
			c10.924,0.753,21.894,0.93,32.797,1.891c20.078,1.769,40.172,3.429,60.161,6.1c16.71,2.233,33.478,4.081,50.131,6.671
			c25.376,3.947,50.649,8.522,75.81,13.703c12.891,2.655,24.46-6.201,25.919-19.222c0.938-8.371,2.381-16.685,3.573-25.028
			c2.496-17.47,4.977-34.941,7.463-52.412c2.245-15.777,4.227-31.597,6.809-47.319c2.327-14.172-7.043-29.188-20.999-32.443
			c-6.542-1.525-13.138-2.818-19.718-4.175c-32.767-6.761-65.647-12.888-98.802-17.454c-2.002-0.276-2.126-0.767-1.064-2.443
			c3.248-5.123,6.525-10.246,9.409-15.576c10.958-20.247,19.69-41.383,25.716-63.663
			C607.234,347.717,610.733,321.687,611.079,290.821z"/>
		<path fill="#EEDECD" d="M611.079,290.821c-0.345,30.866-3.845,56.896-10.774,82.517c-6.026,22.28-14.757,43.415-25.716,63.663
			c-2.884,5.33-6.162,10.453-9.409,15.576c-1.063,1.676-0.939,2.168,1.064,2.443c33.154,4.566,66.034,10.693,98.802,17.454
			c6.58,1.358,13.177,2.65,19.718,4.175c13.955,3.254,23.326,18.27,20.999,32.443c-2.582,15.722-4.564,31.542-6.809,47.319
			c-2.486,17.471-4.967,34.943-7.463,52.412c-1.192,8.343-2.635,16.657-3.573,25.028c-1.459,13.021-13.028,21.877-25.919,19.222
			c-25.161-5.181-50.434-9.756-75.81-13.703c-16.653-2.59-33.421-4.438-50.131-6.671c-19.99-2.671-40.083-4.331-60.161-6.1
			c-10.903-0.961-21.873-1.138-32.797-1.891c-37.863-2.609-75.781-2.759-113.689-2.05c-22.947,0.429-45.895,1.656-68.801,3.169
			c-20.112,1.328-40.2,3.234-60.236,5.458c-30.369,3.371-60.622,7.623-90.704,13.081c-15.295,2.775-30.553,5.715-45.801,8.724
			c-12.83,2.532-24.219-6.356-25.877-19.369c-2.247-17.633-5.018-35.198-7.536-52.797c-2.238-15.645-4.438-31.296-6.651-46.945
			c-1.162-8.216-2.091-16.473-3.523-24.642c-2.571-14.669,6.168-29.5,20.612-33.622c16.476-4.702,33.228-8.337,49.991-11.865
			c18.818-3.961,37.705-7.583,56.738-10.362c2.944-0.43,2.412-1.658,1.415-3.394c-3.085-5.372-6.197-10.729-9.255-16.116
			c-6.979-12.298-12.415-25.291-17.284-38.538c-7.495-20.39-12.438-41.424-15.182-62.93c-2.649-20.753-2.426-41.624-1.084-62.469
			c1.526-23.698,6.62-46.717,14.149-69.172c7.659-22.84,18.015-44.401,31.216-64.634c8.674-13.295,18.331-25.804,29.163-37.304
			c7.435-7.894,15.198-15.532,23.841-22.294c6.636-5.192,13.261-10.355,20.219-15.098c14.941-10.184,30.858-18.398,47.725-25.014
			c13.942-5.469,28.173-9.984,42.832-12.41c21.742-3.598,43.641-5.068,65.794-2.609c16.071,1.784,31.739,4.998,47.171,9.487
			c7.434,2.163,14.698,5.056,21.81,8.145c12.185,5.292,23.997,11.389,35.283,18.411c5.125,3.189,9.925,6.904,14.833,10.436
			c12.416,8.935,23.725,19.161,34.22,30.242c6.608,6.977,12.788,14.369,18.573,22.068c8.719,11.605,16.658,23.706,23.427,36.562
			c7.693,14.611,14.184,29.718,19.43,45.39c6.557,19.589,10.797,39.683,13.126,60.151
			C610.281,273.258,611.583,284.178,611.079,290.821z M495.004,145.644c-0.015,0.687,0.152,1.29,0.77,1.688
			c0.752,1.382,1.366,2.862,2.278,4.129c6.244,8.679,15.04,12.44,25.442,13.207c11.552,0.851,18.623,7.565,18.115,17.414
			c-0.251,4.858-1.037,9.703-1.811,14.516c-2.448,15.221-6.167,30.222-6.958,45.73c-0.65,12.752,4.4,21.908,15.483,27.92
			c2.271,1.232,4.615,2.331,7.477,3.769c-2.346,1.174-4.248,1.44-6.148,1.8c-13.139,2.49-21.897,10.782-23.561,22.895
			c-1.148,8.353-1.582,16.801-2.478,25.191c-1.469,13.748-1.269,27.701-4.967,41.18c-3.763,6.067-8.947,9.48-16.356,9.141
			c-8.359-0.383-15.112-4.354-21.378-9.358c-1.899-1.517-2.615-3.803-2.666-6.365c-0.156-7.82,1.365-15.205,5.061-22.136
			c3.792-7.109,7.379-14.313,10.299-21.841c11.264-29.043,13.777-58.79,7.969-89.413c-7.654-40.356-27.529-73.253-60.479-97.585
			c-31.936-23.582-67.845-32.07-107.073-23.99c-35.403,7.292-64.955,24.691-86.274,54.029
			c-23.915,32.911-35.004,70.014-32.073,110.947c1.649,23.031,8.467,44.47,19.556,64.628c3.129,5.687,6.054,11.473,7.106,17.949
			c0.762,4.691,1.501,9.507-1.426,13.818c-9.631,14.187-30.419,13.962-39.319-0.394l0.001,0.051
			c-0.195-0.631-0.39-1.261-0.584-1.892c-0.902-9.403-1.805-18.807-2.707-28.21c-0.157-9.984-1.236-19.892-2.205-29.821
			c-1.767-18.097-13.297-26.939-30.272-28.143c1.222-2.92,4.28-3.203,6.605-4.435c8.111-4.299,14.257-10.123,15.437-19.7
			c0.678-5.502,0.627-11.052-0.231-16.58c-2.346-15.118-5.915-29.995-8.766-45.013c-1.32-6.953-1.767-13.901,0.647-20.71
			c3.805-10.732,16.309-12.966,23.71-4.323c1.908,2.228,3.301,4.767,4.756,7.275c3.087,5.318,6.384,6.656,12.238,4.793
			c2.536-0.807,4.826-2.095,6.792-3.947c7.128-6.713,7.371-17.106,0.593-26.632c-2.396-3.621-5.696-6.217-9.566-8.034
			c-10.427-4.894-21.348-6.34-32.764-4.744c-26.242,3.668-48.838,22.984-42.059,55.731c3.337,16.121,6.541,32.274,9.505,48.467
			c1.744,9.526,1.137,18.556-8.319,24.411l0.01-0.005c-0.362,0.206-0.724,0.411-1.086,0.617c-3.256,1.057-6.468,2.289-9.782,3.112
			c-2.412,0.599-2.733,1.816-2.38,4.01c0.795,4.936,1.414,9.904,1.985,14.873c0.778,6.758,0.73,6.763,7.545,6.92
			c12.292,0.282,19.838,7.081,21.091,19.154c0.394,3.8,0.534,7.629,0.701,11.448c0.598,13.706,0.988,27.424,1.779,41.119
			c0.784,13.572,6.039,24.996,17.212,33.294c2.965,2.202,5.842,4.524,8.759,6.791c-2.02,8.217,0.054,15.527,4.925,22.217
			c0.674,2.133,1.288,4.287,2.032,6.395c1.82,5.158,5.466,8.386,10.795,9.436c4.835,0.952,6.977-2.575,9.316-5.913
			c3.112-4.44,7.603-5.089,12.119-2.025c1.881,1.276,3.305,3.014,4.672,4.816c4.506,5.937,9.691,11.221,15.874,15.393
			c10.664,7.195,22.103,11.511,35.125,7.634c10.585-3.151,20.338-8.139,29.294-14.613c1.388-1.004,2.243-1.888,3.853-0.132
			c4.253,4.64,9.848,6.865,15.834,8.461c10.576,2.82,21.134,2.767,31.75,0.423c10.856,1.018,19.406-3.609,26.84-10.967
			c0.386,0.075,0.834,0.049,1.15,0.24c14.339,8.665,30.119,13.342,46.438,16.169c19.313,3.345,35.456-2.179,47.365-18.36
			c1.713-2.327,3.592-4.582,5.671-6.581c5.712-5.492,12.819-4.684,16.103,1.947c2.354,4.753,6.603,5.274,11.062,2.227
			c5.601-3.828,8.426-9.285,8.795-16.036c2.507-2.704,3.856-5.884,4.031-9.58c0.245-5.164,0.074-10.273-1.766-15.192
			c1.825,0.389,3.364-0.323,4.855-1.245c3.854-2.385,7.187-5.344,10.09-8.832c8.69-10.441,10.773-22.951,11.324-35.937
			c0.599-14.114,1.018-28.236,1.748-42.343c0.595-11.496,5.697-18.013,15.538-20.111c2.945-0.628,6.023-0.774,9.047-0.845
			c2.255-0.053,3.449-0.842,3.683-3.129c0.495-4.851,1.061-9.695,1.597-14.543c0.825-7.009,0.824-7.006-5.91-9.3
			c-0.998-0.34-1.997-0.683-2.973-1.08c-10.357-4.215-14.386-11.386-12.288-22.271c2.093-10.861,4.476-21.666,6.533-32.533
			c2.196-11.603,5.553-23.075,3.678-35.15c-2.179-14.028-9.371-24.127-22.549-29.715c-7.952-3.372-16.503-4.488-24.854-6.314
			c-3.492-0.764-6.125-2.24-7.359-5.719c0.525-1.616,0.908-3.296,1.607-4.833c1.359-2.988,3.005-5.869,2.287-9.351
			c-0.844-5.583-6.667-9.16-13.896-8.535c-17.428,1.506-27.654,21.847-18.655,37.106L495.004,145.644z M604.99,571.333
			c-6.778,3.571-8.484,6.024-7.604,11.334c0.676,4.08,3.275,6.872,6.7,8.874c7.666,4.482,15.969,6.038,24.761,5.016
			c4.847-0.563,9.24-2.237,12.78-5.712c7.667-7.527,5.337-18.905-4.687-22.626c-2.581-0.958-5.306-1.562-8.001-2.164
			c-3.217-0.718-6.503-1.135-9.699-1.928c-1.565-0.388-3.826-0.873-3.217-3.186c0.536-2.036,2.533-1.435,4.067-1.134
			c4.073,0.798,8.126,0.9,12.191-0.067c7.513-1.787,12.099-7.137,12.002-14.597c-0.035-2.682,0.511-3.789,3.376-3.675
			c4.552,0.182,3.664-3.585,4.099-6.246c0.541-3.312-2.183-2.223-3.709-2.508c-5.67-1.058-11.488-1.276-16.789-4.099
			c-3.168-1.687-6.865-1.915-10.435-1.948c-10.073-0.093-17.211,5.044-18.46,13.295c-0.99,6.541,2.081,11.437,6.876,15.497
			C601.281,561.16,600.434,564.41,604.99,571.333z M492.008,559.869c0.119,6.482,3.749,7.498,8.386,7.154
			c0.782-0.058,1.619-0.037,2.362,0.18c2.874,0.841,3.278-0.645,3.38-3.063c0.956-22.691,1.966-45.38,3.077-68.064
			c0.115-2.345-0.392-3.416-2.85-3.457c-3.166-0.053-6.376-0.044-9.48-0.573c-3.043-0.518-3.442,0.652-3.489,3.3
			c-0.128,7.299-0.568,14.593-0.896,22.153c-14.458-10.203-29.839-1.9-33.542,12.966c-2.035,8.17-1.804,16.255,1.354,24.087
			c3.484,8.641,10.193,12.537,19.431,11.572C484.234,565.655,487.905,563.368,492.008,559.869z M369.439,563.033
			c7.284,0.154,14.188-1.18,20.352-5.299c6.627-4.429,6.662-4.772,1.452-10.553c-3.665-4.067-4.048-4.111-8.461-0.979
			c-9.971,7.078-23.608,3.569-28.966-7.414c-2.844-5.829-3.095-12.008-2.218-18.212c2.132-15.07,18.187-22.689,31.282-14.985
			c6.259,3.682,6.338,3.668,10.855-2.117c0.488-0.624,0.873-1.358,1.452-1.877c2.36-2.115,1.623-3.611-0.669-5.25
			c-9.121-6.522-19.202-8.155-30.111-6.519c-19.71,2.955-31.898,19.126-30.384,40.551C335.4,549.881,349.639,563.01,369.439,563.033
			z M426.172,564.081c15.333,0.711,26.119-9.557,26.76-25.474c0.645-16.027-9.663-27.04-25.957-27.733
			c-15.458-0.657-26.13,9.173-26.951,24.824C399.162,552.113,409.475,563.307,426.172,564.081z M173.842,547.409
			c-0.014-15.805-9.374-25.805-24.187-25.84c-17.025-0.04-28.382,10.656-28.398,26.747c-0.016,16.255,9.452,26.545,24.434,26.554
			C162.683,574.879,173.856,563.979,173.842,547.409z M562.562,526.139c-0.418-5.244-3.406-6.44-7.475-6.231
			c-0.905,0.046-1.848-0.16-2.738-0.39c-2.858-0.739-3.919,0.173-4.064,3.262c-0.666,14.243-1.401,28.488-2.498,42.702
			c-0.325,4.217,0.674,5.973,5.001,5.776c2.351-0.107,4.776,0.149,7.081,0.646c2.536,0.547,3.092-0.262,3.217-2.712
			c0.506-9.887,1.204-19.765,1.927-29.64c0.366-4.996,4.711-8.165,9.752-7.301c4.743,0.813,6.67,4.072,6.191,10.229
			c-0.727,9.345-1.282,18.704-2.134,28.036c-0.256,2.807,0.552,3.662,3.314,3.73c3.149,0.077,6.295,0.649,9.421,1.142
			c1.639,0.259,2.374-0.051,2.5-1.897c0.792-11.586,2.319-23.141,2.167-34.766c-0.125-9.603-6.671-16.19-16.245-17.272
			C572.437,520.826,567.553,522.333,562.562,526.139z M227.6,515.489c-0.857-0.081-1.253-0.176-1.638-0.145
			c-2.5,0.2-4.996,0.456-7.497,0.639c-6.357,0.464-6.458,0.568-8.249,6.825c-2.361,8.247-4.774,16.478-7.317,25.242
			c-3.985-8.955-7.798-17.201-11.31-25.573c-1.362-3.247-3.39-4.412-6.745-3.962c-2.875,0.386-5.774,0.696-8.67,0.783
			c-2.798,0.084-3.343,0.771-1.947,3.435c6.427,12.26,12.481,24.719,19.073,36.889c2.161,3.99,2.432,7.267,0.462,11.335
			c-2.413,4.982-4.162,10.286-6.399,15.96c4.064-0.361,7.332-0.771,10.611-0.905c2.895-0.119,4.643-1.42,5.571-4.134
			c1.534-4.487,3.159-8.944,4.778-13.401C214.706,550.907,221.102,533.344,227.6,515.489z M112.912,553.014
			c-1.163-15.254-2.363-30.505-3.45-45.765c-0.171-2.403-1.466-2.372-3.194-2.128c-3.653,0.516-7.3,1.164-10.973,1.424
			c-2.71,0.192-3.076,1.282-2.851,3.797c1.348,15.105,2.66,30.218,3.631,45.351c0.576,8.987-2.697,12.255-11.641,12.662
			c-2.02,0.092-4.498-0.024-4.851,2.371c-0.509,3.45-0.806,7.033,0.213,10.497c0.079,0.27,0.938,0.432,1.438,0.439
			c9.001,0.126,17.771-0.69,24.604-7.507C111.679,568.328,113.128,560.941,112.912,553.014z M286.49,545.979
			c-0.012-10.629-6.678-17.431-17.184-17.535c-11.304-0.111-18.927,7.016-18.995,17.76c-0.069,10.893,6.981,18.072,17.676,18.001
			C279.211,564.13,286.503,556.948,286.49,545.979z M534.763,544.058c0.301-6.328,0.595-12.657,0.907-18.984
			c0.31-6.296,0.321-6.366-6.212-6.623c-2.862-0.113-6.409-2.04-8.37-0.196c-1.889,1.778-0.658,5.504-0.825,8.367
			c-0.769,13.176-1.387,26.361-2.176,39.535c-0.139,2.324,0.324,3.321,2.898,3.278c2.886-0.048,5.814,0.244,8.664,0.736
			c3.091,0.533,3.821-0.793,3.924-3.575C533.851,559.078,534.354,551.57,534.763,544.058z M298.213,563.44
			c6.572-0.272,6.576-0.272,6.515-6.277c-0.059-5.806,0.108-11.628-0.28-17.412c-0.244-3.638,0.822-5.113,4.472-4.55
			c2.59,0.4,3.56-0.435,3.638-3.37c0.1-3.712-1.547-4.014-4.496-3.865c-1.353,0.069-3.743,1.504-4.107-1.319
			c-0.336-2.608,0.212-5.074,3.15-6.106c0.733-0.257,1.538-0.361,2.318-0.421c3.379-0.261,2.788-2.829,3.014-5.002
			c0.277-2.661-1.677-2.604-3.322-2.772c-8.618-0.881-15.005,4.686-15.581,13.488c-0.078,1.195,0.53,2.782-1.639,2.891
			c-1.414,0.071-3.306-0.62-3.248,2.099c0.049,2.327,0.243,4.264,3.145,4.464c2.144,0.148,1.924,1.776,1.963,3.213
			c0.186,6.859,0.516,13.719,0.474,20.577C294.21,562.447,294.625,564.657,298.213,563.44z M528.951,494.542
			c-5.164-0.039-9.188,3.885-9.107,8.882c0.08,4.896,4.512,9.222,9.538,9.311c5.017,0.088,9.318-3.982,9.323-8.821
			C538.71,498.77,534.352,494.583,528.951,494.542z"/>
		<path fill="#6E99B2" d="M201.592,364.513c8.899,14.355,29.688,14.58,39.319,0.394c2.927-4.312,2.188-9.127,1.426-13.818
			c-1.051-6.476-3.977-12.261-7.106-17.949c-11.089-20.158-17.906-41.597-19.556-64.628c-2.931-40.934,8.158-78.037,32.073-110.947
			c21.319-29.338,50.871-46.737,86.274-54.029c39.228-8.079,75.137,0.408,107.073,23.99c32.95,24.331,52.825,57.228,60.479,97.585
			c5.808,30.623,3.295,60.369-7.969,89.413c-2.92,7.528-6.507,14.732-10.299,21.841c-3.697,6.931-5.217,14.316-5.061,22.136
			c0.051,2.562,0.767,4.848,2.666,6.365c6.266,5.004,13.02,8.975,21.378,9.358c7.409,0.34,12.592-3.074,16.356-9.139
			c0.234,1.184,0.218,2.317-0.199,3.498c-3.584,10.144-14.551,16.473-24.976,13.791c-11.902-3.062-21.626-0.277-29.084,9.574
			c-7.783,10.28-17.934,15.225-30.855,13.824c-4.474-0.485-8.313-2.431-10.801-6.481c-2.534-4.126-4.067-8.531-4.029-13.418
			c-1.326-1.012-1.415-0.113-1.42,0.918c0,0,0.012-0.017,0.012-0.017c-2.975,0.796-3.67,3.548-4.625,5.828
			c-6.008,14.34-0.822,28.935,13.321,37.931c0.525,2.432,2.48,3.596,4.334,4.822c3.006,1.988,6.182,3.749,8.958,6.815
			c-11.223,1.18-20.612-2.208-28.528-9.287c-5.243-4.688-9.826-10.114-14.705-15.209c-0.353-0.988-0.699-1.978-1.06-2.963
			c-4.808-13.113-12.465-18.304-26.504-18.522c-5.908-0.091-11.377,1.663-16.993,2.893c-3.806-2.944-8.035-5.285-11.659-8.518
			c-1.924-1.717-3.31-4.271-6.494-5.123c0.926,4.372,1.45,8.429,2.697,12.25c1.074,3.288,0.865,7.139,3.738,9.749
			c-0.846,3.657-3.522,6.562-4.222,10.278c-0.755-2.213-1.656-4.389-2.241-6.647c-3.25-12.526-11.55-21-22.085-27.687
			c-0.85-0.539-1.951-1.546-2.854-0.881c-1.145,0.843-0.319,2.143,0.057,3.258c1.303,3.861,2.931,7.657,3.779,11.618
			c2.26,10.55,1.208,20.377-7.187,28.334c-4.786,4.537-10.559,7.284-16.923,7.682c-5.326,0.333-11.054,1.86-16.112-1.599
			c2.881,0.015,5.582,1.492,8.536,0.994c12.389-2.087,20.972-9.205,25.114-20.788c3.144-8.793,3.19-17.806-4.145-25.232l0.024,0.037
			c0.042-0.263,0.028-0.524-0.04-0.782c-0.445-6.663-5.548-12.813-11.741-14.124c-0.755-0.16-1.658-0.426-2.13,0.41
			c-0.389,0.689,0.357,1.152,0.699,1.692c7.752,12.226,4.267,28.589-12.864,33.328c-8.713,2.41-16.887-0.192-24.486-4.746
			c-1.549-0.928-2.827-2.467-4.879-2.38c-7.36-9.927-17.215-14.289-29.502-13.223c-2.801-2.736-5.828-5.28-8.349-8.255
			C204.764,374.642,201.183,370.466,201.592,364.513z M333.373,309.796c10.318,16.905,34.592,17.507,45.163,1.12
			c3.055-3.562,3.947-7.916,4.533-12.383c0.203-1.544-0.194-2.628-2.012-2.562c-4.844,0.175-9.709-0.505-14.535,0.364
			c-7.125-0.001-14.249-0.001-21.374-0.002c-1.781-0.758-3.726-0.628-5.461-0.305c-3.387,0.629-8.298-2.39-9.867,1.584
			c-1.257,3.183,0.882,7.417,2.694,10.858C332.757,308.935,333.084,309.355,333.373,309.796z M418.375,230.423
			c-16.748,0.034-31.069,13.904-31.758,30.762c-0.049,1.197-0.181,2.256,1.57,2.609c5.928,1.195,8.252-0.049,10.164-5.726
			c0.548-1.626,1.071-3.269,1.751-4.841c3.385-7.823,9.748-11.251,17.897-11.48c7.679-0.216,13.509,3.108,16.876,10.213
			c1.357,2.863,2.558,5.798,3.891,8.673c1.201,2.59,8.844,4.525,11.064,2.849c0.763-0.576,0.601-1.397,0.581-2.172
			C449.969,244.424,435.41,230.389,418.375,230.423z M321.439,263.614c2.071-0.494,5.957,1.863,5.315-3.416
			c-1.565-12.872-7.916-22.198-19.963-27.304c-11.42-4.841-21.951-2.756-31.592,4.63c-7.578,5.805-11.576,13.535-11.828,23.118
			c-0.032,1.206-0.501,2.619,1.469,3.12c5.594,1.421,8.712-0.215,10.639-5.773c0.388-1.12,0.811-2.231,1.279-3.321
			c4.338-10.111,10.354-13.581,21.245-12.272c9.239,1.11,16.841,7.913,17.701,16.545
			C316.097,262.891,317.388,264.537,321.439,263.614z M318.128,150.333c0.113-8.266-6.327-14.956-14.468-15.028
			c-8.292-0.073-14.707,6.022-14.882,14.141c-0.184,8.527,5.913,15.059,14.203,15.215
			C311.299,164.818,318.017,158.464,318.128,150.333z M326.836,172.723c0.032,3.351,2.167,5.599,5.342,5.381
			c3.282-0.225,4.949-2.156,5.016-5.422c0.069-3.336-2.133-5.655-5.255-5.609C328.702,167.121,326.803,169.223,326.836,172.723z"/>
		<path fill="#608092" d="M418.7,385.872c-0.038,4.888,1.495,9.292,4.029,13.418c2.488,4.051,6.327,5.996,10.801,6.481
			c12.921,1.401,23.072-3.544,30.855-13.824c7.458-9.851,17.182-12.636,29.084-9.574c10.425,2.682,21.392-3.647,24.976-13.791
			c0.417-1.181,0.433-2.314,0.199-3.498c3.698-13.481,3.497-27.433,4.967-41.182c0.896-8.39,1.331-16.839,2.478-25.191
			c1.664-12.113,10.422-20.405,23.561-22.895c1.9-0.36,3.801-0.626,6.148-1.8c-2.862-1.438-5.206-2.537-7.477-3.769
			c-11.083-6.012-16.133-15.168-15.483-27.92c0.791-15.507,4.509-30.508,6.958-45.73c0.774-4.814,1.56-9.659,1.811-14.516
			c0.509-9.849-6.563-16.563-18.115-17.414c-10.401-0.766-19.198-4.528-25.442-13.207c-0.911-1.267-1.526-2.748-2.277-4.13
			c0.073-0.713-0.017-1.352-0.77-1.687c0,0,0.016,0.024,0.016,0.024c0.02-1.315-0.011-2.633,0.067-3.944
			c0.696-11.708,5.382-19.731,17.033-23.807c5.277-1.846,10.269-1.264,15.45-0.819c0.718,3.482-0.928,6.363-2.287,9.351
			c-0.699,1.537-1.082,3.217-1.607,4.833c-3.83,3.345-4.275,9.794-0.705,13.241c2.955,2.854,6.378,5.044,10.553,5.78
			c6.11,1.078,12.085,2.807,17.717,5.297c6.585,2.911,12.151,7.448,16.178,13.491c6.18,9.273,7,19.473,5.385,30.318
			c-2.062,13.849-6.573,27.208-7.761,41.22c-0.893,10.523,0.334,20.103,10.016,26.528c4.396,2.917,8.928,5.599,14.339,6.207
			c-0.537,4.847-1.102,9.691-1.597,14.543c-0.234,2.288-1.427,3.077-3.683,3.129c-3.024,0.071-6.102,0.217-9.047,0.845
			c-9.841,2.098-14.943,8.615-15.538,20.111c-0.73,14.107-1.149,28.229-1.748,42.343c-0.551,12.986-2.634,25.496-11.324,35.937
			c-2.903,3.488-6.236,6.447-10.09,8.832c-1.49,0.922-3.03,1.634-4.854,1.245c-2.05-0.781-3.42-2.42-4.92-3.896
			c-11.508-11.324-29.445-12.857-42.812-3.729c-6.389,4.363-10.337,10.859-14.691,16.923c-7.792,10.854-18.039,15.666-31.114,12.753
			c-13.176-2.936-19.352-7.262-21.954-20.051c-1.075-5.285-0.072-10.458,1.266-15.577c0,0-0.012,0.017-0.012,0.017
			C417.754,386.483,418.227,386.177,418.7,385.872z"/>
		<path fill="#608092" d="M201.592,364.513c-0.409,5.953,3.173,10.129,6.633,14.213c2.52,2.974,5.547,5.519,8.349,8.254
			c-5.351,1.714-10.545,3.624-15.238,6.948c-4.234,2.999-7.205,7.189-11.097,10.463c-2.918-2.267-5.794-4.589-8.76-6.791
			c-11.174-8.298-16.428-19.722-17.212-33.294c-0.791-13.695-1.181-27.413-1.779-41.119c-0.167-3.82-0.307-7.649-0.701-11.448
			c-1.253-12.072-8.799-18.872-21.091-19.154c-6.814-0.156-6.767-0.162-7.545-6.92c-0.572-4.969-1.19-9.936-1.985-14.873
			c-0.353-2.193-0.032-3.411,2.38-4.01c3.314-0.823,6.526-2.055,9.783-3.112c0.362-0.206,0.723-0.412,1.084-0.618
			c0,0-0.01,0.005-0.01,0.005c7.553,1.567,15.995-10.35,16.587-16.385c1.01-10.306-0.654-20.44-2.741-30.517
			c-2.227-10.755-5.525-21.221-6.234-32.384c-0.542-8.533,1.095-16.435,3.088-24.419c0.868-3.478,3.108-6.437,6.114-8.559
			c6.05-4.272,12.331-8.052,19.59-10.078c7.69-2.146,19.868,1.88,25.154,7.84c4.4,4.96,8.264,11.347,16.748,9.865
			c2.43-0.424,3.431-1.356,4.406-3.625c1.136-2.641-1.544-5.222,0.491-7.569c6.778,9.526,6.535,19.92-0.593,26.632
			c-1.966,1.852-4.256,3.14-6.792,3.947c-5.853,1.863-9.151,0.525-12.238-4.793c-1.456-2.508-2.849-5.047-4.756-7.275
			c-7.401-8.643-19.905-6.409-23.71,4.323c-2.414,6.809-1.966,13.756-0.647,20.71c2.85,15.018,6.419,29.895,8.766,45.013
			c0.858,5.528,0.909,11.078,0.231,16.58c-1.18,9.577-7.326,15.401-15.437,19.7c-2.325,1.232-5.383,1.515-6.605,4.435
			c0.217,0.455,0.326,1.194,0.666,1.323c11.515,4.371,18.915,13.063,24.326,23.611c2.185,4.259,4.125,8.612,4.556,13.721
			c0.544,6.453,0.946,13.03,2.929,19.309c0.902,9.403,1.805,18.806,2.706,28.211c-0.232,0.763-0.269,1.465,0.586,1.89
			L201.592,364.513z"/>
		<path fill="#608092" d="M271.986,431.795c5.058,3.459,10.786,1.933,16.112,1.599c6.364-0.398,12.137-3.145,16.923-7.682
			c8.395-7.958,9.447-17.785,7.187-28.334c-0.848-3.961-2.476-7.757-3.779-11.618c-0.376-1.115-1.201-2.415-0.057-3.258
			c0.903-0.665,2.004,0.342,2.854,0.881c10.535,6.688,18.835,15.161,22.085,27.687c0.586,2.257,1.486,4.433,2.242,6.647
			c0.25,3.515-0.609,7.096,0.916,10.535c3.597,8.112,9.704,11.908,19.16,11.767c6.16-0.092,10.305-4.382,10.431-11.767
			c-4.42,5.206-9.475,6.74-15.392,4.724c-0.276-0.313-0.553-0.625-0.829-0.938l0.024,0.034c-0.272-0.272-0.543-0.543-0.815-0.815
			c0,0,0.004,0.021,0.004,0.021c-0.155-0.633-0.384-1.259-0.453-1.901c-0.577-5.405-1.519-11.343,3.591-14.882
			c7.251-5.022,15.592-5.413,23.725-2.286c7.838,3.014,11.387,9.634,12.827,17.566c0.32,1.762-0.617,3.691,0.706,5.32
			c-1.083,4.807-3.812,8.537-7.421,11.793c-4.767,4.302-10.51,6.886-16.199,9.593c-10.616,2.344-21.173,2.397-31.75-0.423
			c-5.985-1.596-11.58-3.822-15.834-8.461c-1.61-1.756-2.464-0.871-3.853,0.132c-8.956,6.474-18.71,11.462-29.294,14.613
			c-13.022,3.877-24.461-0.438-35.125-7.634c-6.184-4.172-11.368-9.457-15.874-15.393c-1.367-1.801-2.791-3.539-4.672-4.816
			c-4.516-3.065-9.006-2.415-12.119,2.025c-2.34,3.338-4.482,6.865-9.316,5.913c-5.33-1.05-8.975-4.278-10.795-9.436
			c-0.744-2.108-1.359-4.262-2.032-6.395c0.052-6.046-0.27-12.158,3.178-17.59c5.411,4.212,7.626,4.266,13.163-0.196
			c1.986-1.601,4.055-2.06,6.511-2.287c5.567-0.516,9.415,3.001,13.664,5.462c2.574,1.491,4.888,2.39,7.764,1.073
			c2.993-1.371,2.508-3.994,2.561-6.462c1.598,1.883,3.265,3.712,4.781,5.658C253.527,420.924,260.615,429.116,271.986,431.795z"/>
		<path fill="#608092" d="M396.048,417.673c4.879,5.095,9.462,10.521,14.705,15.209c7.916,7.079,17.305,10.467,28.528,9.287
			c-2.777-3.066-5.952-4.827-8.958-6.815c-1.854-1.226-3.808-2.39-4.333-4.823c6.52,2.84,13.363,3.912,20.378,3.047
			c11.001-1.356,20.958-4.566,27.129-15.036c2.902-4.923,5.884-9.888,9.703-14.231c-0.092,0.913,0.009,1.904-0.316,2.725
			c-0.836,2.115-0.601,4.217,1.21,5.309c2.047,1.234,4.541,1.223,6.683-0.288c0.745-0.525,1.329-1.276,2.005-1.902
			c4.702-4.353,12.2-5.525,17.376-1.89c1.6,1.124,2.911,2.651,4.415,3.923c1.837,1.555,4.211,2.449,6.192,1.149
			c2.082-1.366,2.206-3.801,1.564-6.37c-0.588-2.353-2.681-3.965-2.771-6.459c0.646,0.412,1.38,0.732,1.926,1.251
			c6.739,6.399,8.21,14.566,7.767,23.363c-0.369,6.751-3.194,12.208-8.795,16.036c-4.459,3.047-8.708,2.525-11.062-2.227
			c-3.284-6.631-10.392-7.438-16.103-1.947c-2.08,1.999-3.958,4.254-5.671,6.581c-11.909,16.181-28.052,21.705-47.365,18.36
			c-16.319-2.826-32.099-7.503-46.438-16.169c-0.316-0.191-0.764-0.165-1.15-0.241c1.088-4.035,3.536-7.487,4.201-11.813
			C397.714,428.196,396.439,423.001,396.048,417.673z"/>
		<path fill="#4C5962" d="M604.99,571.333c-4.556-6.922-3.71-10.172,4.251-15.874c-4.795-4.059-7.866-8.956-6.876-15.497
			c1.248-8.25,8.387-13.388,18.46-13.295c3.57,0.033,7.266,0.261,10.435,1.948c5.301,2.823,11.119,3.041,16.789,4.099
			c1.526,0.285,4.25-0.804,3.709,2.508c-0.434,2.66,0.454,6.427-4.099,6.246c-2.865-0.114-3.411,0.993-3.376,3.675
			c0.097,7.46-4.489,12.81-12.002,14.597c-4.065,0.967-8.117,0.865-12.191,0.067c-1.534-0.301-3.531-0.901-4.067,1.134
			c-0.609,2.312,1.651,2.797,3.217,3.186c3.196,0.793,6.482,1.21,9.699,1.928c2.696,0.602,5.421,1.206,8.001,2.164
			c10.025,3.721,12.354,15.098,4.687,22.626c-3.54,3.476-7.933,5.149-12.78,5.712c-8.793,1.022-17.096-0.534-24.761-5.016
			c-3.425-2.003-6.024-4.794-6.7-8.874C596.507,577.356,598.213,574.903,604.99,571.333z M623.03,586.663
			c1.394,0,2.056,0.055,2.707-0.01c2.699-0.266,5.397-0.667,5.928-4.023c0.567-3.585-2.215-4.55-4.731-5.185
			c-3.423-0.864-7.038-0.981-10.44-1.902c-3.213-0.87-4.77,0.621-5.735,3.164c-1.119,2.95,0.524,4.754,3.041,5.925
			C616.952,586.098,620.357,586.42,623.03,586.663z M630.764,543.909c-0.062-4.345-3.293-7.009-8.368-6.899
			c-3.924,0.085-6.095,2.489-6.064,6.714c0.032,4.346,3.281,7.195,8.169,7.164C628.503,550.862,630.827,548.273,630.764,543.909z"/>
		<path fill="#4B5862" d="M492.008,559.869c-4.103,3.499-7.775,5.786-12.268,6.255c-9.238,0.966-15.947-2.93-19.431-11.572
			c-3.158-7.832-3.389-15.917-1.354-24.087c3.704-14.867,19.085-23.169,33.542-12.966c0.328-7.56,0.767-14.854,0.896-22.153
			c0.047-2.649,0.446-3.819,3.489-3.3c3.104,0.529,6.314,0.519,9.48,0.573c2.458,0.041,2.965,1.112,2.85,3.457
			c-1.11,22.684-2.12,45.373-3.077,68.064c-0.102,2.419-0.506,3.905-3.38,3.063c-0.743-0.218-1.581-0.238-2.362-0.18
			C495.757,567.367,492.128,566.351,492.008,559.869z M491.969,536.68c0-1.436-0.024-3.677,0.01-5.918
			c0.018-1.201-0.037-2.261-0.957-3.266c-3.864-4.224-12.136-3.755-14.723,1.283c-3.598,7.005-3.774,14.473-1.024,21.827
			c1.304,3.488,4.896,4.898,8.885,4.148c4.446-0.836,6.861-3.181,7.13-7C491.529,544.335,491.712,540.912,491.969,536.68z"/>
		<path fill="#4B5862" d="M369.44,563.035c-19.801-0.026-34.04-13.155-35.417-32.655c-1.513-21.425,10.674-37.596,30.384-40.551
			c10.909-1.636,20.99-0.003,30.111,6.519c2.292,1.639,3.03,3.135,0.669,5.25c-0.579,0.519-0.964,1.252-1.452,1.877
			c-4.517,5.784-4.596,5.799-10.855,2.117c-13.095-7.704-29.15-0.085-31.282,14.985c-0.877,6.203-0.626,12.383,2.218,18.212
			c5.359,10.983,18.995,14.491,28.966,7.414c4.413-3.132,4.796-3.088,8.461,0.979c5.21,5.781,5.174,6.124-1.452,10.553
			C383.628,561.853,376.724,563.187,369.44,563.035z"/>
		<path fill="#4B5862" d="M426.172,564.081c-16.697-0.774-27.01-11.968-26.148-28.382c0.821-15.652,11.493-25.482,26.951-24.824
			c16.294,0.693,26.602,11.706,25.957,27.733C452.291,554.525,441.505,564.792,426.172,564.081z M437.039,537.001
			c0.18-2.445-0.248-5.187-1.078-7.838c-1.418-4.532-4.371-6.669-9.076-6.77c-5.167-0.11-8.061,1.726-9.633,6.462
			c-1.833,5.522-1.95,11.161-0.294,16.745c1.448,4.882,4.581,7.051,9.704,7.035c4.852-0.015,7.672-2.139,9.189-7.089
			C436.664,542.891,437.081,540.151,437.039,537.001z"/>
		<path fill="#4B5862" d="M173.842,547.409c0.015,16.571-11.159,27.471-28.15,27.461c-14.982-0.009-24.451-10.299-24.434-26.554
			c0.016-16.091,11.372-26.787,28.398-26.747C164.467,521.604,173.827,531.604,173.842,547.409z M158.003,549.57
			c-0.032-3.29-0.183-6.043-0.939-8.743c-1.503-5.369-4.672-8.067-9.419-7.925c-5.328,0.159-9.181,3.063-10.097,8.305
			c-0.936,5.359-0.862,10.786,1.136,15.991c1.623,4.228,4.579,6.355,8.623,6.326c4.746-0.034,8.196-2.422,9.768-6.658
			C158.018,554.323,157.959,551.688,158.003,549.57z"/>
		<path fill="#4B5862" d="M562.562,526.139c4.991-3.806,9.875-5.313,15.418-4.686c9.574,1.082,16.12,7.669,16.245,17.272
			c0.151,11.626-1.376,23.18-2.167,34.766c-0.126,1.847-0.861,2.156-2.5,1.897c-3.126-0.494-6.272-1.065-9.421-1.142
			c-2.762-0.068-3.57-0.922-3.314-3.73c0.852-9.333,1.407-18.692,2.134-28.036c0.479-6.157-1.448-9.416-6.191-10.229
			c-5.041-0.864-9.386,2.305-9.752,7.301c-0.724,9.875-1.421,19.753-1.927,29.64c-0.125,2.45-0.682,3.259-3.217,2.712
			c-2.305-0.497-4.73-0.754-7.081-0.646c-4.326,0.197-5.326-1.558-5.001-5.776c1.097-14.214,1.832-28.459,2.498-42.702
			c0.144-3.089,1.206-4.001,4.064-3.262c0.89,0.23,1.833,0.437,2.738,0.39C559.156,519.699,562.144,520.895,562.562,526.139z"/>
		<path fill="#709AB2" d="M227.606,147.227c-2.034,2.347,0.645,4.928-0.491,7.569c-0.976,2.269-1.976,3.2-4.406,3.625
			c-8.484,1.482-12.348-4.905-16.748-9.865c-5.286-5.96-17.464-9.986-25.154-7.84c-7.259,2.026-13.54,5.806-19.59,10.078
			c-3.006,2.122-5.246,5.081-6.114,8.559c-1.993,7.984-3.629,15.886-3.088,24.419c0.708,11.163,4.007,21.629,6.234,32.384
			c2.087,10.077,3.751,20.211,2.741,30.517c-0.592,6.035-9.034,17.952-16.587,16.385c9.456-5.855,10.063-14.884,8.319-24.411
			c-2.964-16.193-6.168-32.346-9.505-48.467c-6.779-32.746,15.816-52.062,42.059-55.731c11.416-1.596,22.338-0.15,32.764,4.744
			C221.909,141.01,225.209,143.606,227.606,147.227z"/>
		<path fill="#4C5962" d="M227.6,515.489c-6.497,17.855-12.894,35.419-19.278,52.987c-1.62,4.457-3.245,8.914-4.778,13.401
			c-0.928,2.714-2.676,4.016-5.571,4.134c-3.279,0.134-6.547,0.545-10.611,0.905c2.237-5.674,3.986-10.978,6.399-15.96
			c1.97-4.068,1.7-7.345-0.462-11.335c-6.591-12.169-12.645-24.628-19.073-36.889c-1.397-2.664-0.851-3.351,1.947-3.435
			c2.896-0.087,5.796-0.398,8.67-0.783c3.354-0.45,5.382,0.715,6.745,3.962c3.512,8.372,7.325,16.618,11.31,25.573
			c2.543-8.764,4.956-16.995,7.317-25.242c1.791-6.257,1.892-6.36,8.249-6.825c2.501-0.183,4.997-0.439,7.497-0.639
			C226.347,515.313,226.743,515.408,227.6,515.489z"/>
		<path fill="#495761" d="M529.25,425.121c0.443-8.797-1.028-16.963-7.767-23.363c-0.546-0.518-1.279-0.838-1.925-1.252
			c-3.979-3.35-8.786-4.755-13.754-5.549c-9.785-1.564-18.191,2.002-22.605,9.354c-3.82,4.342-6.801,9.307-9.703,14.231
			c-6.171,10.47-16.127,13.679-27.129,15.036c-7.015,0.865-13.858-0.206-20.378-3.047c-14.144-8.995-19.329-23.59-13.322-37.93
			c0.955-2.28,1.65-5.033,4.625-5.828c-1.338,5.119-2.341,10.292-1.266,15.577c2.602,12.789,8.778,17.115,21.954,20.051
			c13.075,2.913,23.322-1.899,31.114-12.753c4.353-6.064,8.301-12.56,14.691-16.923c13.367-9.128,31.304-7.595,42.812,3.729
			c1.5,1.476,2.87,3.115,4.92,3.896c1.839,4.919,2.01,10.028,1.765,15.192C533.107,419.237,531.758,422.417,529.25,425.121z"/>
		<path fill="#4B5862" d="M112.912,553.014c0.215,7.926-1.234,15.313-7.075,21.141c-6.833,6.817-15.603,7.633-24.604,7.507
			c-0.499-0.007-1.358-0.169-1.438-0.439c-1.019-3.464-0.722-7.047-0.213-10.497c0.353-2.396,2.831-2.279,4.851-2.371
			c8.944-0.406,12.217-3.674,11.641-12.662c-0.97-15.133-2.282-30.246-3.631-45.351c-0.225-2.515,0.141-3.605,2.851-3.797
			c3.673-0.261,7.32-0.908,10.973-1.424c1.728-0.244,3.023-0.275,3.194,2.128C110.549,522.509,111.749,537.76,112.912,553.014z"/>
		<path fill="#495761" d="M271.986,431.795c-11.371-2.679-18.458-10.871-25.202-19.53c-1.516-1.947-3.184-3.775-4.781-5.658
			c-0.748-1.086-1.466-2.194-2.247-3.256c-12.04-16.383-37.248-7.009-41.415,5.667c-3.448,5.432-3.127,11.544-3.178,17.59
			c-4.872-6.689-6.945-13.999-4.925-22.217c3.893-3.273,6.864-7.464,11.097-10.463c4.693-3.324,9.887-5.234,15.238-6.948
			c12.287-1.065,22.142,3.297,29.501,13.224c3.581,5.394,7.88,10.193,12.468,14.722c6.817,6.73,15.227,8.233,24.157,6.201
			c9.791-2.228,16.02-8.516,18.828-18.299c1.56-5.432,0.056-10.711-0.036-16.059c7.336,7.425,7.289,16.439,4.145,25.232
			c-4.141,11.583-12.725,18.701-25.114,20.788C277.568,433.287,274.867,431.81,271.986,431.795z"/>
		<path fill="#709AB2" d="M589.398,273.364c-5.411-0.608-9.943-3.289-14.339-6.207c-9.682-6.425-10.908-16.005-10.016-26.528
			c1.188-14.013,5.699-27.371,7.761-41.22c1.615-10.845,0.795-21.045-5.385-30.318c-4.028-6.043-9.593-10.58-16.178-13.491
			c-5.633-2.49-11.607-4.219-17.717-5.297c-4.175-0.736-7.597-2.926-10.553-5.78c-3.57-3.448-3.125-9.896,0.705-13.241
			c1.234,3.479,3.868,4.955,7.359,5.718c8.351,1.827,16.901,2.942,24.854,6.314c13.178,5.589,20.37,15.687,22.549,29.715
			c1.875,12.075-1.481,23.546-3.678,35.15c-2.057,10.867-4.44,21.673-6.533,32.533c-2.098,10.885,1.932,18.056,12.288,22.271
			c0.976,0.397,1.975,0.74,2.973,1.08C590.222,266.358,590.223,266.356,589.398,273.364z"/>
		<path fill="#495761" d="M396.048,417.673c0.39,5.328,1.666,10.523,0.819,16.029c-0.665,4.326-3.113,7.778-4.201,11.813
			c-7.434,7.358-15.984,11.985-26.84,10.967c5.689-2.708,11.432-5.291,16.199-9.593c3.608-3.256,6.337-6.987,7.421-11.793
			c1.221-2.911,1.185-6.021,0.788-8.992c-1.962-14.684-7.396-21.223-17.758-22.351c-9.797-1.067-18.781,0.9-25.861,8.103
			c-5.959,6.062-4.469,16.352,2.435,19.422c0,0-0.004-0.021-0.004-0.021c-0.101,0.645,0.26,0.827,0.815,0.815
			c0,0-0.024-0.034-0.024-0.033c0.276,0.313,0.553,0.625,0.829,0.937c5.917,2.016,10.972,0.482,15.392-4.724
			c-0.126,7.385-4.272,11.675-10.431,11.767c-9.457,0.141-15.564-3.655-19.16-11.767c-1.525-3.439-0.666-7.021-0.916-10.535
			c0.7-3.717,3.377-6.621,4.221-10.278c1.396-3.381-1.354-6.638-0.548-10.215c6.875,5.67,6.938,5.679,12.267,1.858
			c5.616-1.23,11.085-2.984,16.993-2.893c14.039,0.217,21.696,5.408,26.504,18.522C395.349,415.695,395.695,416.685,396.048,417.673
			z"/>
		<path fill="#4C5962" d="M286.49,545.979c0.013,10.969-7.279,18.151-18.502,18.226c-10.696,0.071-17.745-7.108-17.676-18.001
			c0.068-10.744,7.69-17.871,18.995-17.76C279.812,528.548,286.478,535.35,286.49,545.979z M275.739,546.501
			c-0.184-1.427-0.239-3.304-0.693-5.079c-1.16-4.537-5.33-6.522-9.59-4.581c-4.11,1.872-4.404,5.721-4.258,9.448
			c0.148,3.782,0.218,7.875,4.626,9.688c3.392,1.395,7.143-0.083,8.753-3.254C275.514,550.877,275.351,548.863,275.739,546.501z"/>
		<path fill="#4C5962" d="M534.765,544.058c-0.411,7.512-0.915,15.02-1.193,22.537c-0.103,2.782-0.833,4.108-3.924,3.575
			c-2.85-0.492-5.778-0.783-8.664-0.736c-2.573,0.043-3.037-0.954-2.898-3.278c0.789-13.175,1.406-26.359,2.176-39.535
			c0.167-2.863-1.064-6.589,0.825-8.367c1.96-1.845,5.508,0.083,8.37,0.196c6.534,0.258,6.523,0.327,6.212,6.623
			C535.358,531.401,535.064,537.73,534.765,544.058z"/>
		<path fill="#4D5963" d="M298.213,563.44c-3.588,1.217-4.003-0.993-3.983-4.361c0.041-6.858-0.289-13.718-0.474-20.577
			c-0.039-1.437,0.181-3.065-1.963-3.213c-2.902-0.2-3.096-2.137-3.145-4.464c-0.058-2.719,1.835-2.027,3.248-2.099
			c2.169-0.109,1.56-1.696,1.639-2.891c0.576-8.802,6.963-14.369,15.581-13.488c1.645,0.168,3.599,0.111,3.322,2.772
			c-0.226,2.173,0.365,4.741-3.014,5.002c-0.781,0.06-1.586,0.164-2.318,0.421c-2.938,1.032-3.485,3.498-3.15,6.106
			c0.363,2.822,2.753,1.387,4.107,1.319c2.948-0.15,4.595,0.152,4.496,3.865c-0.079,2.935-1.048,3.77-3.638,3.37
			c-3.65-0.564-4.716,0.911-4.472,4.55c0.388,5.784,0.22,11.606,0.28,17.412C304.789,563.168,304.785,563.168,298.213,563.44z"/>
		<path fill="#709AB2" d="M527.57,117.098c-5.181-0.445-10.173-1.027-15.45,0.819c-11.651,4.076-16.336,12.099-17.033,23.807
			c-0.078,1.311-0.047,2.629-0.067,3.944c-8.999-15.259,1.227-35.6,18.654-37.106C520.903,107.938,526.725,111.514,527.57,117.098z"
			/>
		<path fill="#4D5963" d="M528.951,494.542c5.401,0.041,9.759,4.228,9.755,9.371c-0.004,4.84-4.305,8.909-9.323,8.821
			c-5.027-0.088-9.459-4.414-9.538-9.311C519.763,498.427,523.787,494.503,528.951,494.542z"/>
		<path fill="#709AB2" d="M198.301,334.463c-1.983-6.279-2.385-12.856-2.929-19.309c-0.43-5.109-2.371-9.462-4.556-13.721
			c-5.411-10.548-12.811-19.24-24.326-23.611c-0.34-0.129-0.449-0.868-0.666-1.323c16.975,1.203,28.505,10.046,30.272,28.143
			C197.066,314.571,198.144,324.479,198.301,334.463z"/>
		<path fill="#709AB2" d="M495.004,145.644c0.753,0.336,0.843,0.974,0.77,1.687C495.156,146.934,494.988,146.331,495.004,145.644z"
			/>
		<path fill="#6E99B2" d="M201.593,364.564c-0.855-0.425-0.817-1.127-0.586-1.89C201.203,363.303,201.398,363.934,201.593,364.564z"
			/>
		<path fill="#709AB2" d="M144.412,263.052c-0.361,0.206-0.722,0.412-1.084,0.618C143.689,263.463,144.051,263.258,144.412,263.052z
			"/>
		<path fill="#495761" d="M418.375,230.423c17.035-0.034,31.594,14,32.036,30.887c0.02,0.775,0.183,1.596-0.581,2.172
			c-2.22,1.675-9.863-0.26-11.064-2.849c-1.333-2.874-2.534-5.81-3.891-8.673c-3.368-7.104-9.197-10.428-16.876-10.213
			c-8.148,0.229-14.512,3.657-17.897,11.48c-0.68,1.572-1.203,3.215-1.751,4.841c-1.912,5.677-4.236,6.921-10.164,5.726
			c-1.75-0.353-1.618-1.412-1.57-2.609C387.306,244.327,401.627,230.457,418.375,230.423z"/>
		<path fill="#495761" d="M321.439,263.614c-4.051,0.923-5.342-0.723-5.735-4.673c-0.859-8.633-8.462-15.435-17.701-16.545
			c-10.891-1.309-16.907,2.161-21.245,12.272c-0.467,1.089-0.891,2.2-1.279,3.321c-1.927,5.558-5.045,7.194-10.639,5.773
			c-1.97-0.5-1.501-1.914-1.469-3.12c0.252-9.582,4.25-17.312,11.828-23.118c9.642-7.386,20.172-9.47,31.592-4.63
			c12.047,5.106,18.397,14.432,19.963,27.304C327.396,265.477,323.51,263.12,321.439,263.614z"/>
		<path fill="#608092" d="M301.491,386.769c0.092,5.348,1.596,10.627,0.036,16.059c-2.808,9.783-9.038,16.07-18.828,18.299
			c-8.93,2.032-17.34,0.529-24.157-6.201c-4.588-4.529-8.887-9.328-12.468-14.722c2.053-0.087,3.331,1.452,4.88,2.38
			c7.6,4.553,15.774,7.156,24.486,4.746c17.131-4.739,20.616-21.102,12.864-33.328c-0.342-0.539-1.088-1.003-0.699-1.692
			c0.472-0.835,1.375-0.569,2.13-0.41c6.193,1.31,11.296,7.46,11.741,14.124c-0.553,0.289-0.602,0.553,0.04,0.782L301.491,386.769z"
			/>
		<path fill="#AC5B5B" d="M345.148,296.334c7.125,0,14.249,0.001,21.374,0.002c5.658,3.498,9.983,8.094,12.015,14.581
			c-10.571,16.387-34.845,15.785-45.163-1.12C336.1,304.261,339.579,299.384,345.148,296.334z"/>
		<path fill="#99B9CA" d="M318.128,150.333c-0.111,8.13-6.83,14.485-15.148,14.328c-8.29-0.156-14.387-6.688-14.203-15.215
			c0.176-8.119,6.591-14.214,14.882-14.141C311.801,135.378,318.242,142.067,318.128,150.333z"/>
		<path fill="#608092" d="M351.492,399.081c-5.329,3.821-5.392,3.812-12.267-1.858c-0.806,3.577,1.944,6.835,0.548,10.215
			c-2.872-2.61-2.663-6.46-3.737-9.749c-1.248-3.821-1.771-7.878-2.697-12.25c3.184,0.852,4.57,3.407,6.494,5.123
			C343.457,393.797,347.686,396.137,351.492,399.081z"/>
		<path fill="#8D4545" d="M378.536,310.916c-2.031-6.486-6.356-11.083-12.015-14.581c4.826-0.869,9.691-0.189,14.535-0.364
			c1.818-0.066,2.215,1.018,2.012,2.562C382.483,303,381.591,307.354,378.536,310.916z"/>
		<path fill="#8D4545" d="M345.148,296.334c-5.569,3.05-9.048,7.927-11.775,13.462c-0.288-0.441-0.615-0.862-0.86-1.326
			c-1.811-3.44-3.95-7.675-2.694-10.858c1.569-3.974,6.48-0.955,9.867-1.584C341.422,295.706,343.367,295.576,345.148,296.334z"/>
		<path fill="#99B9CA" d="M326.836,172.723c-0.033-3.5,1.866-5.602,5.104-5.65c3.121-0.046,5.323,2.273,5.255,5.609
			c-0.067,3.266-1.734,5.197-5.016,5.422C329.004,178.322,326.868,176.074,326.836,172.723z"/>
		<path fill="#495761" d="M418.7,385.872c-0.473,0.306-0.947,0.612-1.42,0.918C417.285,385.759,417.375,384.859,418.7,385.872z"/>
		<path fill="#495761" d="M301.515,386.805c-0.642-0.229-0.593-0.493-0.04-0.782C301.543,386.281,301.557,386.542,301.515,386.805z"
			/>
		<path fill="#6E99B2" d="M198.341,409.017c4.167-12.676,29.375-22.049,41.415-5.667c0.781,1.062,1.499,2.17,2.247,3.256
			c-0.053,2.468,0.432,5.09-2.561,6.462c-2.876,1.317-5.19,0.418-7.764-1.073c-4.249-2.462-8.096-5.978-13.664-5.462
			c-2.455,0.228-4.524,0.686-6.511,2.287C205.967,413.283,203.751,413.229,198.341,409.017z"/>
		<path fill="#6E99B2" d="M349.052,431.278c-6.905-3.069-8.394-13.359-2.435-19.422c7.08-7.203,16.065-9.17,25.861-8.103
			c10.363,1.129,15.796,7.668,17.758,22.351c0.397,2.971,0.433,6.081-0.788,8.992c-1.324-1.629-0.387-3.558-0.707-5.321
			c-1.44-7.932-4.988-14.552-12.827-17.566c-8.133-3.127-16.474-2.736-23.725,2.286c-5.11,3.539-4.168,9.476-3.591,14.882
			C348.668,430.019,348.897,430.645,349.052,431.278z"/>
		<path fill="#6E99B2" d="M350.667,432.976c-0.276-0.312-0.553-0.625-0.829-0.937C350.115,432.351,350.391,432.664,350.667,432.976z
			"/>
		<path fill="#6E99B2" d="M349.862,432.072c-0.555,0.012-0.916-0.17-0.815-0.815C349.319,431.529,349.59,431.8,349.862,432.072z"/>
		<path fill="#6E99B2" d="M483.2,404.311c4.413-7.352,12.82-10.918,22.605-9.354c4.968,0.794,9.775,2.199,13.754,5.549
			c0.089,2.496,2.183,4.107,2.771,6.461c0.642,2.569,0.518,5.004-1.564,6.37c-1.981,1.3-4.354,0.405-6.192-1.149
			c-1.503-1.272-2.814-2.799-4.415-3.923c-5.176-3.636-12.674-2.463-17.376,1.89c-0.677,0.627-1.26,1.377-2.005,1.902
			c-2.142,1.511-4.637,1.521-6.683,0.288c-1.81-1.091-2.046-3.194-1.21-5.309C483.209,406.215,483.107,405.225,483.2,404.311z"/>
		<path fill="#E9DACA" d="M623.03,586.663c-2.673-0.243-6.078-0.565-9.229-2.03c-2.517-1.17-4.161-2.975-3.041-5.925
			c0.965-2.543,2.522-4.034,5.735-3.164c3.402,0.921,7.018,1.038,10.44,1.902c2.516,0.635,5.298,1.6,4.731,5.185
			c-0.531,3.356-3.229,3.757-5.928,4.023C625.087,586.718,624.424,586.663,623.03,586.663z"/>
		<path fill="#E9DACA" d="M630.764,543.909c0.062,4.364-2.261,6.953-6.263,6.979c-4.888,0.031-8.137-2.818-8.169-7.164
			c-0.032-4.225,2.139-6.629,6.064-6.714C627.471,536.9,630.702,539.563,630.764,543.909z"/>
		<path fill="#EBDBCB" d="M491.969,536.68c-0.257,4.233-0.44,7.655-0.68,11.074c-0.268,3.819-2.684,6.164-7.13,7
			c-3.989,0.75-7.58-0.66-8.885-4.148c-2.75-7.354-2.574-14.822,1.024-21.827c2.587-5.038,10.86-5.507,14.723-1.283
			c0.92,1.006,0.975,2.066,0.957,3.266C491.945,533.002,491.969,535.244,491.969,536.68z"/>
		<path fill="#EBDBCB" d="M437.039,537.001c0.043,3.15-0.374,5.89-1.187,8.544c-1.517,4.95-4.337,7.074-9.189,7.089
			c-5.123,0.016-8.255-2.152-9.704-7.035c-1.656-5.584-1.539-11.223,0.294-16.745c1.572-4.735,4.466-6.572,9.633-6.462
			c4.704,0.101,7.658,2.238,9.076,6.77C436.79,531.814,437.219,534.556,437.039,537.001z"/>
		<path fill="#EBDBCB" d="M158.003,549.57c-0.044,2.119,0.015,4.754-0.928,7.296c-1.572,4.235-5.022,6.623-9.768,6.658
			c-4.043,0.029-7-2.098-8.623-6.326c-1.998-5.205-2.072-10.632-1.136-15.991c0.916-5.242,4.768-8.146,10.097-8.305
			c4.747-0.142,7.916,2.557,9.419,7.925C157.821,543.527,157.971,546.279,158.003,549.57z"/>
		<path fill="#E9DACA" d="M275.739,546.501c-0.388,2.362-0.225,4.376-1.163,6.221c-1.61,3.171-5.361,4.649-8.753,3.254
			c-4.408-1.813-4.478-5.906-4.626-9.688c-0.145-3.727,0.149-7.576,4.258-9.448c4.26-1.941,8.431,0.044,9.59,4.581
			C275.5,543.197,275.555,545.074,275.739,546.501z"/>
	</g>
</g>
</svg>
