<?xml version="1.0" encoding="utf-8"?>
<!-- Generator: Adobe Illustrator 17.0.0, SVG Export Plug-In . SVG Version: 6.00 Build 0)  -->
<!DOCTYPE svg PUBLIC "-//W3C//DTD SVG 1.1//EN" "http://www.w3.org/Graphics/SVG/1.1/DTD/svg11.dtd">
<svg version="1.1" id="Layer_1" xmlns="http://www.w3.org/2000/svg" xmlns:xlink="http://www.w3.org/1999/xlink" x="0px" y="0px"
	 width="725.556px" height="626.444px" viewBox="0 0 725.556 626.444" enable-background="new 0 0 725.556 626.444"
	 xml:space="preserve">
<g id="_x33_egCEf_1_">
	<g>
		<path fill="#FFFFFF" d="M639.393,206.364c-1.103,8.85-2.247,17.209-3.143,25.596c-0.394,3.694-2.024,4.6-5.737,5.012
			c-6.276,0.696-12.983,1.534-18.475,4.337c-8.401,4.287-10.724,12.933-11.073,21.876c-0.76,19.471-0.818,38.986-2.192,58.411
			c-1.381,19.528-8.081,36.828-25.113,48.549c-5.711,3.93-7.321,4.126-11.769-1.073c-16.334-19.089-52.257-18.395-66.781,6.118
			c-3.582,6.046-8.641,11.286-13.409,16.543c-5.636,6.215-13.243,8.501-21.349,8.695c-9.552,0.228-18.798-1.272-26.698-7.313
			c-9.363-7.159-15.895-22.572-7.791-39.561c-5.871,3.903-8.644,9.482-9.515,14.918c-1.627,10.165-1.086,20.322,5.725,29.274
			c8.863,11.647,20.629,16.682,34.856,16.259c13.881-0.412,26.512-4.307,35.28-15.95c4.54-6.029,8.747-12.392,12.379-19.003
			c5.081-9.249,13.34-13.621,22.982-13.676c14.974-0.086,26.868,4.223,33.22,19.348c5.18,12.335,4.364,27.903-6.868,37.186
			c-5.779,4.776-10.992,4.314-15.521-1.831c-6.699-9.089-12.835-9.604-20.757-1.326c-5.453,5.699-10.02,12.314-15.822,17.597
			c-13.965,12.716-30.639,15.565-48.927,12.427c-18.949-3.252-36.839-9.476-54.11-17.71c-1.619-0.772-3.149-1.732-5.21-2.877
			c5.889-8.257,6.441-17.741,5.324-27.14c-1.551-13.048-5.929-24.862-19.153-30.834c-7.158-3.232-14.849-4.211-22.447-2.812
			c-5.948,1.095-11.952,3.01-17.323,5.752c-4.284,2.187-6.716,0.958-9.404-1.875c-0.995-1.049-1.974-2.114-3.629-3.888
			c0.322,2.146,0.47,3.277,0.664,4.4c0.979,5.683,0.671,10.788-2.298,16.314c-6.861,12.768-1.233,26.649,12.188,32.393
			c7.71,3.3,16.182,1.792,20.794-4.235c1.738-2.271,2.388-5.374,3.636-8.343c-4.77,2.31-8.454,4.908-12.526,5.872
			c-5.886,1.393-12.177-2.425-15.109-7.959c-3.537-6.675-3.01-14.353,2.975-19.52c4.303-3.715,9.858-6.884,15.341-8.097
			c6.656-1.473,14.025-1.74,20.722-0.524c9.324,1.692,13.06,9.509,15.685,18.028c6.271,20.354-3.602,34.487-21.012,42.386
			c-21.471,9.742-42.457,8.111-62.585-3.831c-4.009-2.379-7.256-6.042-10.827-9.09c0.724-0.795,0.353-0.568,0.373-0.384
			c0.9,8.132-4.377,11.381-10.746,14.066c-7.061,2.977-13.808,6.748-20.976,9.408c-14.707,5.457-28.719,2.503-41.673-5.395
			c-10.537-6.424-19.775-14.421-26.656-24.973c-4.619-7.083-16.152-7.383-20.226,0.614c-4.027,7.905-8.501,8.351-16.179,3.733
			c-6.365-3.828-8.603-9.947-9.238-16.681c-1.554-16.5,1.796-29.608,19.47-37.555c12.45-5.598,26.7-2.549,34.165,7.281
			c5.923,7.8,12.134,15.409,18.618,22.749c11.771,13.325,33.545,19.851,50.073,7.672c15.292-11.268,21.684-30.424,12.274-46.772
			c-0.791-1.375-2.047-2.483-3.804-4.565c0.131,2.105-0.08,3.141,0.285,3.9c5.131,10.685-2.434,30.496-14.19,36.432
			c-13.039,6.583-26.004,7.196-38.407-4.043c-7.278-6.595-13.583-14.39-19.63-22.185c-10.135-13.065-23.654-14.69-38.063-11.178
			c-9.659,2.354-17.564,8.643-23.963,16.451c-0.829,1.012-1.605,2.069-2.445,3.071c-0.2,0.238-0.561,0.341-1.121,0.664
			c-11.471-8.582-23.972-16.724-28.345-31.393c-2.898-9.721-4.273-20.069-4.983-30.231c-1.266-18.098-0.58-36.367-2.501-54.373
			c-1.357-12.726-6.496-20.651-23.763-22.493c-0.497-0.053-0.997-0.079-1.495-0.114c-9.6-0.675-10.004-1.25-10.466-11.097
			c-0.201-4.291-0.921-8.574-1.638-12.821c-1.022-6.048-0.055-7.245,5.827-8.945c8.178-2.364,16.216-5.375,19.607-14.238
			c1.213-3.169,2.265-6.86,1.842-10.112c-1.491-11.46-3.591-22.844-5.576-34.236c-2.751-15.787-6.726-31.455-8.152-47.356
			c-2.051-22.872,10.483-39.896,30.225-50.013c19.035-9.755,38.749-9.824,58.786-3.867c14.602,4.341,24.513,20.507,22.056,35.531
			c-1.381,8.446-12.354,16.995-20.736,15.922c-3.741-0.479-6.27-2.498-8.323-6.067c-2.859-4.969-6.139-10.206-10.543-13.671
			c-9.141-7.192-24.379,0.415-26.505,12.173c-2.231,12.338,0.591,23.967,3.229,35.816c4.201,18.869,9.131,37.643,9.029,57.229
			c-0.074,14.14-7.389,23.402-19.24,29.79c-3.223,1.737-6.606,3.176-10.129,4.854c6.252,1.852,12.115,3.207,17.693,5.316
			c13.797,5.216,19.954,16.511,21.346,30.193c1.967,19.341,2.648,38.81,4.298,58.188c0.58,6.815,0.611,13.81,4.55,20.102
			c5.017,8.014,12.554,10.612,21.119,10.19c9.219-0.455,16.958-5.2,23.755-11.16c3.666-3.214,4.226-7.672,4.325-12.603
			c0.262-13.038-6.915-23.222-12.255-34.049c-7.735-15.682-13.902-31.785-17.829-48.897c-2.995-13.053-4.502-26.175-4.607-39.436
			c-0.174-22.004,3.405-43.436,10.481-64.367c6.77-20.027,15.283-39.086,27.617-56.339c18.555-25.955,42.211-45.727,71.741-57.923
			c12.107-5,24.567-9.675,37.311-12.477c20.013-4.401,40.272-4.664,60.733-0.857c21.275,3.958,41.315,10.495,59.845,21.709
			c20.509,12.412,37.642,28.484,52.13,47.475c12.24,16.045,21.493,33.777,28.303,52.673c5.086,14.11,8.087,28.724,9.987,43.748
			c2.221,17.566,1.61,34.868-0.427,52.232c-1.835,15.633-5.85,30.809-12.066,45.275c-4.525,10.531-10.419,20.514-14.402,31.225
			c-2.648,7.12-3.542,15.054-4.1,22.705c-0.204,2.805,2.126,6.708,4.5,8.619c7.466,6.013,15.783,10.461,25.822,10.814
			c12.456,0.437,21.396-10.006,22.367-21.338c1.547-18.046,2.386-36.158,4.161-54.179c0.869-8.819,2.252-17.807,5.059-26.161
			c3.531-10.506,12.308-16.276,22.73-19.319c3.891-1.136,7.932-1.763,12.663-2.786c-5.397-2.855-10.357-5.115-14.939-7.98
			c-9.197-5.751-13.891-14.481-14.538-25.111c-0.957-15.725,2.505-30.99,5.573-46.283c1.919-9.564,4.15-19.133,5.073-28.811
			c1.251-13.12-2.28-22.716-15.252-26.537c-4.728-1.393-9.82-1.497-14.699-2.434c-15.802-3.034-26.246-13.032-30.116-27.885
			c-3.268-12.545-2.202-25.328,10.934-35.237c8.238-6.214,17.321-6.873,26.623-2.588c4.71,2.17,6.789,7.782,5.06,12.711
			c-0.763,2.177-1.743,4.288-2.753,6.366c-3.587,7.373-0.528,12.135,7.523,13.651c14.167,2.667,28.491,4.907,40.748,13.751
			c9.376,6.765,14.723,15.91,16.975,26.736c3.109,14.942,0.058,29.636-3.141,44.293c-3.448,15.798-7.249,31.602-9.23,47.61
			c-1.617,13.07,5.523,20.557,19.493,25.419C633.413,204.893,636.016,205.442,639.393,206.364z M315.398,243.211
			c-0.478,22.956,21.074,34.527,34.866,33.591c18.837-1.278,34.17-19.495,31.198-33.591
			C359.465,243.211,337.428,243.211,315.398,243.211z M465.489,203.203c-0.336-10.647-2.63-20.201-9.566-27.496
			c-11.033-11.603-24.627-17.642-40.672-12.499c-13.888,4.452-23.884,13.738-27.979,28.272c-3.139,11.141-1.666,12.927,9.713,12.49
			c0.486-0.019,0.966-0.163,1.641-0.283c0.805-2.976,1.612-5.978,2.431-8.978c5.654-20.721,31.072-23.891,40.514-12.117
			c3.902,4.865,6.237,10.973,9.428,16.432c0.903,1.545,2.155,3.768,3.521,3.989C458.032,203.582,461.699,203.203,465.489,203.203z
			 M299.366,202.905c4.116,0,8.196,0,12.258,0c0.878-14.501-5.903-27.769-20.116-35.932c-14.417-8.281-28.511-7.068-41.78,2.171
			c-11.544,8.038-17.095,19.457-16.642,34.167c2.742,0,5.058-0.184,7.334,0.04c4.105,0.405,5.826-0.802,7.014-5.313
			c2.004-7.613,5.305-15.139,13.036-18.993c10.432-5.201,20.232-2.539,29.352,3.461
			C296.968,187.207,298.082,195.067,299.366,202.905z"/>
		<path fill="#FFFFFF" d="M714.365,554.52c-1.404,18.419-10.588,25.493-29.054,22.699c-0.658-0.1-1.374-0.345-1.977-0.189
			c-1.715,0.445-3.386,1.063-5.074,1.613c1.261,1.294,2.312,3.296,3.825,3.746c4.119,1.226,8.456,1.695,12.662,2.658
			c3.553,0.814,7.15,1.621,10.541,2.918c11.653,4.458,14.768,17.321,6.615,26.84c-4.593,5.362-10.674,7.778-17.499,8.553
			c-11.258,1.278-22.075-0.469-31.467-6.856c-3.41-2.319-6.426-6.497-7.663-10.441c-2.042-6.511,0.758-9.972,8.186-13.783
			c-0.612-4.224-2.337-8.393-1.398-11.837c0.923-3.389,4.547-6.042,7.247-9.337c-0.861-0.901-2.409-2.337-3.745-3.948
			c-8.54-10.302-4.535-25.237,8.087-29.877c7.289-2.679,14.704-2.253,22.085-0.196c8.88,2.475,17.761,4.946,27.211,7.577
			C724.745,551.197,723.266,553.219,714.365,554.52z M688.462,611.588c0.045-0.2,0.091-0.401,0.136-0.601
			c0.831,0,1.673,0.091,2.49-0.016c3.425-0.45,6.765-1.188,7.185-5.463c0.412-4.202-2.9-5.406-5.915-6.165
			c-4.326-1.09-8.868-1.321-13.189-2.426c-3.914-1.001-6.084,0.559-7.336,3.89c-1.386,3.686,0.349,6.341,3.717,7.479
			C679.746,609.704,684.149,610.515,688.462,611.588z M697.062,557.103c-0.077-5.502-3.907-8.717-10.415-8.743
			c-5.121-0.02-7.957,3.124-7.834,8.685c0.119,5.372,4.298,8.928,10.408,8.856C694.197,565.842,697.139,562.542,697.062,557.103z"/>
		<path fill="#FFFFFF" d="M539.574,586.105c-13.739,0.889-14.394,0.591-17.72-7.464c-4.763,2.098-9.339,5.082-14.319,6.112
			c-11.516,2.382-20.947-3.271-25.38-14.465c-3.856-9.737-4.209-19.799-1.701-29.914c4.76-19.199,24.27-29.283,42.247-16.559
			c0.312-5.54,0.718-10.726,0.866-15.92c0.146-5.132,0.032-10.272,0.032-16.194c7.112,0.395,13.33,0.74,20.156,1.12
			C542.348,524.209,540.96,555.186,539.574,586.105z M522.111,549.508c0-1.877,0.103-5.38-0.051-8.872
			c-0.062-1.395-0.307-3.074-1.128-4.094c-4.48-5.572-15.153-5.012-18.517,1.287c-4.705,8.81-4.86,18.235-1.461,27.541
			c1.626,4.451,6.142,6.331,11.12,5.445c5.847-1.041,8.851-4.043,9.209-9.208C521.525,558.117,521.761,554.627,522.111,549.508z"/>
		<path fill="#FFFFFF" d="M400.679,567.391c-14.307,17.733-46.658,18.742-64.139,2.255c-18.447-17.399-18.162-51.844,0.575-69.306
			c17.385-16.202,51.812-16.178,65.13,0.211c-0.509,0.755-1.013,1.59-1.601,2.362c-7.365,9.68-7.368,9.677-18.307,4.524
			c-16.257-7.658-34.779,2.293-37.246,20.217c-1.149,8.349-0.628,16.566,3.45,24.312c7.783,14.787,26.13,14.578,35.069,8.669
			c6.818-4.506,6.819-4.5,12.454,1.715C397.514,563.952,398.982,565.539,400.679,567.391z"/>
		<path fill="#FFFFFF" d="M121.033,561.849C121,582.321,106.864,596.01,85.745,596.02c-18.914,0.009-30.85-12.862-30.862-33.281
			c-0.012-20.291,14.242-33.81,35.609-33.772C109.379,529,121.064,541.581,121.033,561.849z M74.31,561.4
			c0.698,3.895,1.055,7.892,2.174,11.662c1.749,5.896,5.877,8.835,11.275,8.749c6.165-0.099,10.723-3.129,12.303-8.934
			c2.098-7.708,1.755-15.49-1.263-22.919c-2.21-5.438-7.246-7.726-13.038-6.526C77.71,545.101,74.532,550.255,74.31,561.4z"/>
		<path fill="#FFFFFF" d="M439.883,582.352c-20.347-0.128-33.758-13.623-33.694-33.905c0.064-19.947,12.994-32.945,32.743-32.915
			c20.485,0.031,34.13,13.557,33.916,33.621C472.63,569.623,459.866,582.478,439.883,582.352z M453.213,548.766
			c-0.415-2.944-0.683-5.246-1.081-7.524c-0.226-1.294-0.548-2.597-1.028-3.816c-2.081-5.281-5.582-7.516-11.598-7.521
			c-5.961-0.005-9.592,2.226-11.467,7.653c-2.502,7.242-2.727,14.654-0.386,21.995c1.889,5.924,5.682,8.521,11.909,8.557
			c6.217,0.035,9.809-2.437,11.656-8.714C452.282,555.777,452.637,551.95,453.213,548.766z"/>
		<path fill="#FFFFFF" d="M608.827,592.589c-6.539-0.621-12.463-1.183-18.977-1.802c1.243-21.642,2.47-42.99,3.693-64.275
			c12.327-0.796,14.889,0.284,17.288,6.244c6.33-1.354,12.456-3.754,18.579-3.746c12.756,0.017,21.724,9.251,21.45,22.034
			c-0.324,15.112-1.689,30.201-2.635,45.832c-6.589-0.731-12.598-1.397-19.287-2.138c0.293-3.423,0.615-6.667,0.842-9.919
			c0.708-10.131,1.414-20.262,2.05-30.398c0.282-4.495-0.187-8.896-4.804-11.16c-4.894-2.4-9.507-0.773-13.568,2.168
			c-1.067,0.773-1.582,2.815-1.694,4.323C610.715,563.841,609.81,577.941,608.827,592.589z"/>
		<path fill="#FFFFFF" d="M119.859,526.609c6.56-0.556,12.329-1.434,18.074-1.3c1.773,0.042,4.189,2.509,5.102,4.438
			c4.969,10.497,9.56,21.173,14.683,32.692c3.216-10.991,6.236-21.224,9.2-31.473c2.445-8.456,2.417-8.446,11.03-9.071
			c3.469-0.252,6.931-0.608,11.049-0.974c-3.766,10.184-7.375,19.785-10.868,29.427c-6.45,17.801-12.895,35.605-19.195,53.46
			c-1.454,4.121-3.722,6.346-8.321,6.324c-3.789-0.018-7.581,0.633-12.366,1.081c2.91-7.365,5.264-14.179,8.286-20.682
			c2.144-4.614,1.991-8.357-0.459-12.939C137.222,561.034,128.859,544.215,119.859,526.609z"/>
		<path fill="#FFFFFF" d="M2.011,605.286c0-5.109,0.036-8.759-0.01-12.409c-0.043-3.4,1.818-4.757,4.968-4.885
			c1.662-0.067,3.344-0.069,4.977-0.341c7.916-1.323,11.368-4.686,11.096-12.736c-0.427-12.633-1.639-25.241-2.58-37.855
			c-0.641-8.603-1.386-17.198-2.131-26.37c7.09-0.939,13.913-1.843,21.14-2.8c0.719,8.777,1.503,17.033,2.049,25.304
			c0.91,13.784,2.239,27.574,2.329,41.369c0.089,13.637-8.227,24.4-20.946,27.797C16.323,604.117,9.329,604.316,2.011,605.286z"/>
		<path fill="#FFFFFF" d="M577.596,525.66c-1.166,21.724-2.302,42.883-3.471,64.655c-6.51-0.496-12.418-0.947-19.074-1.455
			c1.057-21.515,2.111-42.959,3.187-64.843C564.834,524.577,571.019,525.102,577.596,525.66z"/>
		<path fill="#FFFFFF" d="M263.018,559.594c0.035,13.874-9.088,22.855-23.291,22.93c-13.408,0.071-21.978-8.567-22.072-22.249
			c-0.095-13.75,9.053-22.491,23.584-22.534C254.566,537.701,262.984,546.147,263.018,559.594z M249.633,561.054
			c-0.378-2.98-0.416-5.177-0.965-7.238c-1.473-5.527-6.234-7.85-11.627-5.871c-4.193,1.539-6.21,5.77-5.959,12.5
			c0.26,7.003,2.355,10.983,6.689,12.095c4.293,1.101,8.119,0.054,10.094-4.122C249.028,565.957,249.19,563.023,249.633,561.054z"/>
		<path fill="#FFFFFF" d="M272.352,581.93c0-10.757-0.015-20.866,0.01-30.975c0.007-2.66-0.305-4.429-3.667-5.345
			c-1.677-0.457-2.501-4.043-4.102-6.915c3.237-0.488,4.982-0.751,7.187-1.084c0.172-7.233,1.33-14.323,8.781-17.962
			c4.693-2.292,9.663-3.417,14.969-1.23c0.353,4.579,0.953,8.497-5.797,9.058c-4.822,0.401-5.031,4.976-4.594,9.46
			c3.241,0,6.493,0,10.312,0c0.137,2.994,0.257,5.587,0.406,8.852c-3.264,0.153-6.319,0.297-9.794,0.46c0,11.575,0,22.95,0,34.732
			C281.746,581.279,277.827,581.55,272.352,581.93z"/>
		<path fill="#FFFFFF" d="M568.685,494.905c6.801,0.044,12.311,5.373,12.248,11.844c-0.057,5.861-5.296,10.883-11.424,10.953
			c-6.482,0.074-12.361-5.714-12.223-12.033C557.421,499.508,562.34,494.864,568.685,494.905z"/>
	</g>
</g>
</svg>
