<?xml version="1.0" encoding="utf-8"?>
<!-- Generator: Adobe Illustrator 17.0.0, SVG Export Plug-In . SVG Version: 6.00 Build 0)  -->
<!DOCTYPE svg PUBLIC "-//W3C//DTD SVG 1.1//EN" "http://www.w3.org/Graphics/SVG/1.1/DTD/svg11.dtd">
<svg version="1.1" id="Layer_1" xmlns="http://www.w3.org/2000/svg" xmlns:xlink="http://www.w3.org/1999/xlink" x="0px" y="0px"
	 width="725.556px" height="451.064px" viewBox="0 0 725.556 451.064" enable-background="new 0 0 725.556 451.064"
	 xml:space="preserve">
<g id="_x33_egCEf_1_">
	<g>
		<path fill="#FFFFFF" d="M639.393,206.364c-1.103,8.85-2.247,17.209-3.143,25.596c-0.394,3.694-2.024,4.6-5.737,5.012
			c-6.276,0.696-12.983,1.534-18.475,4.337c-8.401,4.287-10.724,12.933-11.073,21.876c-0.76,19.471-0.818,38.986-2.192,58.411
			c-1.381,19.528-8.081,36.828-25.113,48.549c-5.711,3.93-7.321,4.126-11.769-1.073c-16.334-19.089-52.257-18.395-66.781,6.118
			c-3.582,6.046-8.641,11.286-13.409,16.543c-5.636,6.215-13.243,8.501-21.349,8.695c-9.552,0.228-18.798-1.272-26.698-7.313
			c-9.363-7.159-15.895-22.572-7.791-39.561c-5.871,3.903-8.644,9.482-9.515,14.918c-1.627,10.165-1.086,20.322,5.725,29.274
			c8.863,11.647,20.629,16.682,34.856,16.259c13.881-0.412,26.512-4.307,35.28-15.95c4.54-6.029,8.747-12.392,12.379-19.003
			c5.081-9.249,13.34-13.621,22.982-13.676c14.974-0.086,26.868,4.223,33.22,19.348c5.18,12.335,4.364,27.903-6.868,37.186
			c-5.779,4.776-10.992,4.314-15.521-1.831c-6.699-9.089-12.835-9.604-20.757-1.326c-5.453,5.699-10.02,12.314-15.822,17.597
			c-13.965,12.716-30.639,15.565-48.927,12.427c-18.949-3.252-36.839-9.476-54.11-17.71c-1.619-0.772-3.149-1.732-5.21-2.877
			c5.889-8.257,6.441-17.741,5.324-27.14c-1.551-13.048-5.929-24.862-19.153-30.834c-7.158-3.232-14.849-4.211-22.447-2.812
			c-5.948,1.095-11.952,3.01-17.323,5.752c-4.284,2.187-6.716,0.958-9.404-1.875c-0.995-1.049-1.974-2.114-3.629-3.888
			c0.322,2.146,0.47,3.277,0.664,4.4c0.979,5.683,0.671,10.788-2.298,16.314c-6.861,12.768-1.233,26.649,12.188,32.393
			c7.71,3.3,16.182,1.792,20.794-4.235c1.738-2.271,2.388-5.374,3.636-8.343c-4.77,2.31-8.454,4.908-12.526,5.872
			c-5.886,1.393-12.177-2.425-15.109-7.959c-3.537-6.675-3.01-14.353,2.975-19.52c4.303-3.715,9.858-6.884,15.341-8.097
			c6.656-1.473,14.025-1.74,20.722-0.524c9.324,1.692,13.06,9.509,15.685,18.028c6.271,20.354-3.602,34.487-21.012,42.386
			c-21.471,9.742-42.457,8.111-62.585-3.831c-4.009-2.379-7.256-6.042-10.827-9.09c0.724-0.795,0.353-0.568,0.373-0.384
			c0.9,8.132-4.377,11.381-10.746,14.066c-7.061,2.977-13.808,6.748-20.976,9.408c-14.707,5.457-28.719,2.503-41.673-5.395
			c-10.537-6.424-19.775-14.421-26.656-24.973c-4.619-7.083-16.152-7.383-20.226,0.614c-4.027,7.905-8.501,8.351-16.179,3.733
			c-6.365-3.828-8.603-9.947-9.238-16.681c-1.554-16.5,1.796-29.608,19.47-37.555c12.45-5.598,26.7-2.549,34.165,7.281
			c5.923,7.8,12.134,15.409,18.618,22.749c11.771,13.325,33.545,19.851,50.073,7.672c15.292-11.268,21.684-30.424,12.274-46.772
			c-0.791-1.375-2.047-2.483-3.804-4.565c0.131,2.105-0.08,3.141,0.285,3.9c5.131,10.685-2.434,30.496-14.19,36.432
			c-13.039,6.583-26.004,7.196-38.407-4.043c-7.278-6.595-13.583-14.39-19.63-22.185c-10.135-13.065-23.654-14.69-38.063-11.178
			c-9.659,2.354-17.564,8.643-23.963,16.451c-0.829,1.012-1.605,2.069-2.445,3.071c-0.2,0.238-0.561,0.341-1.121,0.664
			c-11.471-8.582-23.972-16.724-28.345-31.393c-2.898-9.721-4.273-20.069-4.983-30.231c-1.266-18.098-0.58-36.367-2.501-54.373
			c-1.357-12.726-6.496-20.651-23.763-22.493c-0.497-0.053-0.997-0.079-1.495-0.114c-9.6-0.675-10.004-1.25-10.466-11.097
			c-0.201-4.291-0.921-8.574-1.638-12.821c-1.022-6.048-0.055-7.245,5.827-8.945c8.178-2.364,16.216-5.375,19.607-14.238
			c1.213-3.169,2.265-6.86,1.842-10.112c-1.491-11.46-3.591-22.844-5.576-34.236c-2.751-15.787-6.726-31.455-8.152-47.356
			c-2.051-22.872,10.483-39.896,30.225-50.013c19.035-9.755,38.749-9.824,58.786-3.867c14.602,4.341,24.513,20.507,22.056,35.531
			c-1.381,8.446-12.354,16.995-20.736,15.922c-3.741-0.479-6.27-2.498-8.323-6.067c-2.859-4.969-6.139-10.206-10.543-13.671
			c-9.141-7.192-24.379,0.415-26.505,12.173c-2.231,12.338,0.591,23.967,3.229,35.816c4.201,18.869,9.131,37.643,9.029,57.229
			c-0.074,14.14-7.389,23.402-19.24,29.79c-3.223,1.737-6.606,3.176-10.129,4.854c6.252,1.852,12.115,3.207,17.693,5.316
			c13.797,5.216,19.954,16.511,21.346,30.193c1.967,19.341,2.648,38.81,4.298,58.188c0.58,6.815,0.611,13.81,4.55,20.102
			c5.017,8.014,12.554,10.612,21.119,10.19c9.219-0.455,16.958-5.2,23.755-11.16c3.666-3.214,4.226-7.672,4.325-12.603
			c0.262-13.038-6.915-23.222-12.255-34.049c-7.735-15.682-13.902-31.785-17.829-48.897c-2.995-13.053-4.502-26.175-4.607-39.436
			c-0.174-22.004,3.405-43.436,10.481-64.367c6.77-20.027,15.283-39.086,27.617-56.339c18.555-25.955,42.211-45.727,71.741-57.923
			c12.107-5,24.567-9.675,37.311-12.477c20.013-4.401,40.272-4.664,60.733-0.857c21.275,3.958,41.315,10.495,59.845,21.709
			c20.509,12.412,37.642,28.484,52.13,47.475c12.24,16.045,21.493,33.777,28.303,52.673c5.086,14.11,8.087,28.724,9.987,43.748
			c2.221,17.566,1.61,34.868-0.427,52.232c-1.835,15.633-5.85,30.809-12.066,45.275c-4.525,10.531-10.419,20.514-14.402,31.225
			c-2.648,7.12-3.542,15.054-4.1,22.705c-0.204,2.805,2.126,6.708,4.5,8.619c7.466,6.013,15.783,10.461,25.822,10.814
			c12.456,0.437,21.396-10.006,22.367-21.338c1.547-18.046,2.386-36.158,4.161-54.179c0.869-8.819,2.252-17.807,5.059-26.161
			c3.531-10.506,12.308-16.276,22.73-19.319c3.891-1.136,7.932-1.763,12.663-2.786c-5.397-2.855-10.357-5.115-14.939-7.98
			c-9.197-5.751-13.891-14.481-14.538-25.111c-0.957-15.725,2.505-30.99,5.573-46.283c1.919-9.564,4.15-19.133,5.073-28.811
			c1.251-13.12-2.28-22.716-15.252-26.537c-4.728-1.393-9.82-1.497-14.699-2.434c-15.802-3.034-26.246-13.032-30.116-27.885
			c-3.268-12.545-2.202-25.328,10.934-35.237c8.238-6.214,17.321-6.873,26.623-2.588c4.71,2.17,6.789,7.782,5.06,12.711
			c-0.763,2.177-1.743,4.288-2.753,6.366c-3.587,7.373-0.528,12.135,7.523,13.651c14.167,2.667,28.491,4.907,40.748,13.751
			c9.376,6.765,14.723,15.91,16.975,26.736c3.109,14.942,0.058,29.636-3.141,44.293c-3.448,15.798-7.249,31.602-9.23,47.61
			c-1.617,13.07,5.523,20.557,19.493,25.419C633.413,204.893,636.016,205.442,639.393,206.364z M315.398,243.211
			c-0.478,22.956,21.074,34.527,34.866,33.591c18.837-1.278,34.17-19.495,31.198-33.591
			C359.465,243.211,337.428,243.211,315.398,243.211z M465.489,203.203c-0.336-10.647-2.63-20.201-9.566-27.496
			c-11.033-11.603-24.627-17.642-40.672-12.499c-13.888,4.452-23.884,13.738-27.979,28.272c-3.139,11.141-1.666,12.927,9.713,12.49
			c0.486-0.019,0.966-0.163,1.641-0.283c0.805-2.976,1.612-5.978,2.431-8.978c5.654-20.721,31.072-23.891,40.514-12.117
			c3.902,4.865,6.237,10.973,9.428,16.432c0.903,1.545,2.155,3.768,3.521,3.989C458.032,203.582,461.699,203.203,465.489,203.203z
			 M299.366,202.905c4.116,0,8.196,0,12.258,0c0.878-14.501-5.903-27.769-20.116-35.932c-14.417-8.281-28.511-7.068-41.78,2.171
			c-11.544,8.038-17.095,19.457-16.642,34.167c2.742,0,5.058-0.184,7.334,0.04c4.105,0.405,5.826-0.802,7.014-5.313
			c2.004-7.613,5.305-15.139,13.036-18.993c10.432-5.201,20.232-2.539,29.352,3.461
			C296.968,187.207,298.082,195.067,299.366,202.905z"/>
	</g>
</g>
</svg>
