<?xml version="1.0" encoding="UTF-8"?>
<svg id="Layer_1" data-name="Layer 1" xmlns="http://www.w3.org/2000/svg" viewBox="0 0 413.12 101.12">
  <defs>
    <style>
      .cls-1 {
        fill: #162020;
      }

      .cls-1, .cls-2, .cls-3 {
        stroke-width: 0px;
      }

      .cls-2 {
        fill: #707e7e;
      }

      .cls-3 {
        fill: #ff9100;
      }
    </style>
  </defs>
  <g>
    <polygon class="cls-3" points="68.64 1 51.24 54.5 69.04 54.5 86.34 1 68.64 1"/>
    <path class="cls-1" d="M125.36,30.15l-6.86,21.08-11.83-25.96,6.8-21.2,11.88,26.08ZM137.32,1l-17.4,53.5h17.8L155.02,1h-17.7ZM94.32,1l-17.3,53.5h17.7L112.02,1h-17.7Z"/>
    <path class="cls-1" d="M35.32,1l-17.4,53.5H.22L17.52,1h17.8ZM28,31.1h21.92l2.9-9h-21.92l-2.9,9ZM34.9,9.9h23.22l2.9-8.9h-23.22l-2.9,8.9Z"/>
    <path class="cls-1" d="M373.28,11.71h17.7l-13.66,42.79h-17.8l13.76-42.79ZM358.52,1l-2.9,8.9h54.6l2.9-8.9h-54.6Z"/>
    <path class="cls-1" d="M245.42,1l-17.3,53.5h-17.7L227.72,1h17.7ZM230.6,54.5h20.1l2.9-8.9h-20.1l-2.9,8.9Z"/>
    <polygon class="cls-1" points="276.02 1 258.72 54.5 276.52 54.5 293.82 1 276.02 1"/>
    <path class="cls-1" d="M351.22,15.6h-17.9c1.8-4.9-2.8-6.4-5.5-6.4h-1.11l2.9-9.1c6.2.1,12.81,1,16.51,2.8,8.9,4.2,5.1,12.6,5.1,12.7ZM337.72,30c-8.1-4.6-18.8-10.6-20.8-11.8-1.9-1.2-4.2-2.5-1.7-6.1,1.6-2.3,5.81-2.9,8.91-3l3-9.1c-7.6.2-15.91,1.5-20.91,3.9-10,4.8-13.3,15.5-2.4,21.8,10.9,6.4,17.8,10.8,19.8,12,2,1.2,3.7,4.3.7,6.5-2.8,2-6.67,2.4-9.57,2.5l-2.9,9c4,0,17.97-.3,25.67-6.1,8.1-6.1,8.2-14.9.2-19.6ZM303.92,38.7h-16.7s-3.4,7.2,2.7,12.3c4.8,4.1,14.46,4.6,19.46,4.7l2.9-9.1c-3.9-.3-9.66-1.5-8.36-7.9Z"/>
    <path class="cls-1" d="M203.02,1h-22.7l-36.8,53.5h17.7l19.96-29.09c3.18-4.73,4.8-7.91,5.31-10.99h2c-.58,1.92-.96,4.62-1.04,8.42l.13,11.35h-10.16l-6.2,8.9h16.66l.5,11.4h16.74l-2.1-53.5Z"/>
  </g>
  <g>
    <path class="cls-2" d="M18.65,86.04v9.54h-2.43v-9.14c0-2.06-.79-3.14-2.69-3.14s-2.99,1.51-2.99,3.14v9.14h-2.43v-9.14c0-2.06-.82-3.14-2.72-3.14s-2.96,1.59-2.96,3.28v9.01H0v-14.29h1.88l.26,2.11h.08c.71-1.37,2.03-2.43,3.83-2.43,2.03,0,3.28.92,3.96,2.51.85-1.51,2.22-2.51,4.12-2.51,3.12,0,4.52,2.09,4.52,5.07Z"/>
    <path class="cls-2" d="M35.09,85.96v9.62h-1.82l-.32-2.25c-1,1.64-2.77,2.56-4.73,2.56-2.96,0-5.05-1.9-5.05-4.47,0-2.38,1.8-4.49,5.42-4.49,1.53,0,3.04.4,4.12.92v-1.56c0-1.9-1.22-3.17-3.54-3.17-1.82,0-3.7.77-4.78,1.69v-2.33c1.19-.9,3.01-1.53,5.05-1.53,3.67,0,5.65,2.17,5.65,4.99ZM28.61,93.86c2.14,0,4.09-1.48,4.09-3.65v-.58c-.98-.61-2.35-.98-3.7-.98-2.46,0-3.54,1.24-3.54,2.64,0,1.51,1.29,2.56,3.14,2.56Z"/>
    <path class="cls-2" d="M51.49,85.96v9.62h-1.82l-.32-2.25c-1,1.64-2.77,2.56-4.73,2.56-2.96,0-5.05-1.9-5.05-4.47,0-2.38,1.8-4.49,5.42-4.49,1.53,0,3.04.4,4.12.92v-1.56c0-1.9-1.22-3.17-3.54-3.17-1.82,0-3.7.77-4.78,1.69v-2.33c1.19-.9,3.01-1.53,5.05-1.53,3.67,0,5.65,2.17,5.65,4.99ZM45.02,93.86c2.14,0,4.09-1.48,4.09-3.65v-.58c-.98-.61-2.35-.98-3.7-.98-2.46,0-3.54,1.24-3.54,2.64,0,1.51,1.29,2.56,3.14,2.56Z"/>
    <path class="cls-2" d="M59.97,81.28h4.1v2.11h-4.1v7.08c0,2.22,1.32,3.14,3.14,3.14.4,0,.82-.05,1.27-.13v2.11c-.26.05-.9.16-1.69.16-3.09,0-5.1-1.85-5.1-5.18v-7.19h-2.14v-2.11h2.19v-3.36h2.32v3.36Z"/>
    <path class="cls-2" d="M77.41,82.2v2.4c-1.03-.87-2.59-1.48-4.28-1.48-1.8,0-2.8.77-2.8,1.93,0,1.27,1.24,1.74,3.17,2.3,2.19.63,4.68,1.35,4.68,4.23,0,2.62-2.03,4.31-5.34,4.31-1.85,0-3.62-.53-4.94-1.59v-2.62c1.11,1.14,2.8,2.03,4.86,2.03,1.93,0,3.04-.84,3.04-2.11,0-1.37-1.35-1.82-3.41-2.46-2.35-.71-4.44-1.48-4.44-3.99s1.98-4.2,5.15-4.2c1.64,0,3.3.48,4.31,1.24Z"/>
    <path class="cls-2" d="M89.4,93.62c1.19,0,2.62-.24,3.8-1.16v2.46c-1.06.61-2.4.98-3.96.98-4.12,0-7.21-3.2-7.21-7.48s3.09-7.45,7.21-7.45c1.48,0,2.83.29,3.96,1v2.48c-1.19-.87-2.35-1.22-3.83-1.22-2.51,0-4.89,1.96-4.89,5.18s2.38,5.2,4.91,5.2Z"/>
    <path class="cls-2" d="M100.58,83h.03c.82-1.22,2.35-2.03,4.1-2.03,3.14,0,5.15,1.8,5.15,5.15v9.46h-2.43v-8.61c0-2.51-1.08-3.73-3.28-3.73-1.9,0-3.57,1.11-3.57,3.49v8.85h-2.43v-21.14h2.43v8.56Z"/>
    <path class="cls-2" d="M126.29,85.96v9.62h-1.82l-.32-2.25c-1,1.64-2.77,2.56-4.73,2.56-2.96,0-5.05-1.9-5.05-4.47,0-2.38,1.8-4.49,5.42-4.49,1.53,0,3.04.4,4.12.92v-1.56c0-1.9-1.22-3.17-3.54-3.17-1.82,0-3.7.77-4.78,1.69v-2.33c1.19-.9,3.01-1.53,5.05-1.53,3.67,0,5.65,2.17,5.65,4.99ZM119.81,93.86c2.14,0,4.09-1.48,4.09-3.65v-.58c-.98-.61-2.35-.98-3.7-.98-2.46,0-3.54,1.24-3.54,2.64,0,1.51,1.29,2.56,3.14,2.56Z"/>
    <path class="cls-2" d="M131.89,81.28h1.98l.29,2.64c1.08-1.93,3.04-2.96,5.07-2.96,3.38,0,6.5,2.91,6.5,7.45s-3.09,7.48-6.47,7.48c-1.98,0-3.99-1.06-4.94-2.8v8.03h-2.43v-19.84ZM138.76,93.62c2.56,0,4.54-2.09,4.54-5.2s-1.98-5.18-4.54-5.18-4.49,2.11-4.49,5.2,1.98,5.18,4.49,5.18Z"/>
    <path class="cls-2" d="M150.62,81.28h1.98l.29,2.64c1.08-1.93,3.04-2.96,5.07-2.96,3.38,0,6.5,2.91,6.5,7.45s-3.09,7.48-6.47,7.48c-1.98,0-3.99-1.06-4.94-2.8v8.03h-2.43v-19.84ZM157.49,93.62c2.56,0,4.54-2.09,4.54-5.2s-1.98-5.18-4.54-5.18-4.49,2.11-4.49,5.2,1.98,5.18,4.49,5.18Z"/>
    <path class="cls-2" d="M168.45,88.49c0-4.62,3.2-7.53,6.9-7.53,3.38,0,6.16,2.48,6.16,7.19,0,.42-.03.77-.08,1.08h-10.59c.34,2.83,2.35,4.54,5.05,4.54,1.64,0,3.33-.61,4.81-1.88v2.4c-1.45,1.06-3.14,1.59-4.99,1.59-4.44,0-7.24-2.99-7.24-7.4ZM179.15,87.41c-.05-2.96-1.88-4.33-3.83-4.33-2.19,0-4.12,1.66-4.49,4.33h8.32Z"/>
    <path class="cls-2" d="M225.39,88.07l6.82,7.5h-3.14l-6.5-7.27v7.27h-2.43v-21.14h2.43v13.47l6.31-6.63h3.09l-6.58,6.79Z"/>
    <path class="cls-2" d="M255.95,88.49c0-4.62,3.2-7.53,6.9-7.53,3.38,0,6.16,2.48,6.16,7.19,0,.42-.03.77-.08,1.08h-10.59c.34,2.83,2.35,4.54,5.05,4.54,1.64,0,3.33-.61,4.81-1.88v2.4c-1.45,1.06-3.14,1.59-4.99,1.59-4.44,0-7.24-2.99-7.24-7.4ZM266.65,87.41c-.05-2.96-1.88-4.33-3.83-4.33-2.19,0-4.12,1.66-4.49,4.33h8.32Z"/>
    <path class="cls-2" d="M282.99,88.49c0-4.62,3.2-7.53,6.9-7.53,3.38,0,6.16,2.48,6.16,7.19,0,.42-.03.77-.08,1.08h-10.59c.34,2.83,2.35,4.54,5.05,4.54,1.64,0,3.33-.61,4.81-1.88v2.4c-1.45,1.06-3.14,1.59-4.99,1.59-4.44,0-7.24-2.99-7.24-7.4ZM293.69,87.41c-.05-2.96-1.88-4.33-3.83-4.33-2.19,0-4.12,1.66-4.49,4.33h8.32Z"/>
    <path class="cls-2" d="M298.79,81.28h2.59l3.94,11.6h.08l3.94-11.6h2.51l-5.2,14.29h-2.64l-5.2-14.29Z"/>
    <path class="cls-2" d="M326.29,85.96v9.62h-1.82l-.32-2.25c-1,1.64-2.77,2.56-4.73,2.56-2.96,0-5.05-1.9-5.05-4.47,0-2.38,1.8-4.49,5.42-4.49,1.53,0,3.04.4,4.12.92v-1.56c0-1.9-1.22-3.17-3.54-3.17-1.82,0-3.7.77-4.78,1.69v-2.33c1.19-.9,3.01-1.53,5.05-1.53,3.67,0,5.65,2.17,5.65,4.99ZM319.82,93.86c2.14,0,4.1-1.48,4.1-3.65v-.58c-.98-.61-2.35-.98-3.7-.98-2.46,0-3.54,1.24-3.54,2.64,0,1.51,1.29,2.56,3.14,2.56Z"/>
    <path class="cls-2" d="M343.59,86.12v9.46h-2.43v-8.59c0-2.51-1.14-3.7-3.28-3.7s-3.57,1.48-3.57,3.57v8.72h-2.43v-14.29h1.88l.26,2.17h.08c.82-1.32,2.35-2.48,4.39-2.48,3.09,0,5.1,2.01,5.1,5.15Z"/>
    <path class="cls-2" d="M247.54,83.45h-.08l-.26-2.17h-1.88v14.29h2.43v-8.72c0-2.09,1.53-3.57,3.57-3.57,1.11,0,1.92.2,2.49.61v-2.64c-.57-.19-1.19-.3-1.88-.3-2.03,0-3.57,1.16-4.39,2.48Z"/>
    <path class="cls-2" d="M352.08,81.28h4.1v2.11h-4.1v7.08c0,2.22,1.32,3.14,3.14,3.14.4,0,.82-.05,1.27-.13v2.11c-.26.05-.9.16-1.69.16-3.09,0-5.1-1.85-5.1-5.18v-7.19h-2.14v-2.11h2.19v-3.36h2.33v3.36Z"/>
    <path class="cls-2" d="M359.68,88.49c0-4.62,3.2-7.53,6.9-7.53,3.38,0,6.16,2.48,6.16,7.19,0,.42-.03.77-.08,1.08h-10.59c.34,2.83,2.35,4.54,5.05,4.54,1.64,0,3.33-.61,4.81-1.88v2.4c-1.45,1.06-3.14,1.59-4.99,1.59-4.44,0-7.24-2.99-7.24-7.4ZM370.39,87.41c-.05-2.96-1.88-4.33-3.83-4.33-2.19,0-4.12,1.66-4.49,4.33h8.32Z"/>
    <path class="cls-2" d="M388.24,78.11h-3.63v-2.19h9.93v2.19h-3.76v15.27h3.76v2.19h-9.93v-2.19h3.63v-15.27Z"/>
    <path class="cls-2" d="M404.48,78.22h-6.21v-2.3h14.85v2.3h-6.18v17.36h-2.46v-17.36Z"/>
    <path class="cls-2" d="M278.69,93.46c-1.48,0-2.19-.69-2.19-2.17v-16.86h-5.74v2.11h3.31v15.22c0,2.03,1.37,3.94,4.2,3.94.61,0,1.19-.11,1.4-.16v-2.17c-.34.08-.69.08-.98.08Z"/>
    <path class="cls-2" d="M191.3,93.46c-1.48,0-2.19-.69-2.19-2.17v-16.86h-5.83v2.11h3.4v15.22c0,2.03,1.37,3.94,4.2,3.94.61,0,1.19-.11,1.4-.16v-2.17c-.34.08-.69.08-.98.08Z"/>
    <g>
      <path class="cls-2" d="M213.11,78c.87,0,1.51-.63,1.51-1.48s-.63-1.48-1.51-1.48-1.51.63-1.51,1.48.63,1.48,1.51,1.48Z"/>
      <path class="cls-2" d="M208.58,81.28v2.11h3.31v10.33c0,3.43-.9,5.55-2.67,7.4h2.88c1.61-2.03,2.22-4.31,2.22-7.45v-12.39h-5.74Z"/>
    </g>
    <g>
      <path class="cls-2" d="M201.48,78c.87,0,1.51-.63,1.51-1.48s-.63-1.48-1.51-1.48-1.51.63-1.51,1.48.63,1.48,1.51,1.48Z"/>
      <polygon class="cls-2" points="202.69 93.46 202.69 81.28 196.96 81.28 196.96 83.39 200.26 83.39 200.26 93.46 197.04 93.46 197.04 95.57 205.92 95.57 205.92 93.46 202.69 93.46"/>
    </g>
  </g>
</svg>