<svg width="160" height="30" viewBox="0 0 160 30" fill="none" xmlns="http://www.w3.org/2000/svg">
                            <g class="page-logo__star">
                                <path d="M16.0147 9.51828C16.6735 9.51828 17.0029 9.51828 17.1864 9.30922C17.37 9.10016 17.3237 8.77722 17.231 8.13134L16.2206 1.09292C16.1485 0.594908 16.1125 0.345053 15.9409 0.19718C15.7677 0.0476074 15.5138 0.0476074 15.006 0.0476074H14.2426C13.7348 0.0476074 13.4809 0.0476074 13.3076 0.19718C13.1343 0.346753 13.0983 0.594908 13.028 1.09292L12.0158 8.13134C11.9232 8.77722 11.8769 9.10016 12.0604 9.30922C12.244 9.51828 12.5734 9.51828 13.2321 9.51828H16.0147Z" fill="#FF6C37"></path>
                                <path d="M9.8856 11.9268C10.0897 11.3064 10.191 10.997 10.0469 10.7591C9.90276 10.5211 9.57852 10.465 8.93005 10.3529L1.86035 9.12908C1.35942 9.0424 1.10895 8.9999 0.913379 9.11548C0.717809 9.23276 0.638895 9.47242 0.481066 9.95003L0.246038 10.6707C0.0882096 11.15 0.0110107 11.388 0.100218 11.597C0.189426 11.8061 0.417591 11.9166 0.873922 12.1375L7.31745 15.265C7.90931 15.5522 8.20438 15.695 8.46171 15.5862C8.71904 15.4774 8.82197 15.1681 9.0244 14.5477L9.8856 11.9268Z" fill="#FF6C37"></path>
                                <path d="M10.3036 18.4469C9.7718 18.0627 9.50418 17.8724 9.23141 17.9353C8.95864 17.9981 8.80424 18.2854 8.49717 18.8633L5.13816 25.1436C4.8997 25.589 4.78133 25.8116 4.83279 26.0326C4.88426 26.2535 5.09012 26.4014 5.50185 26.6972L6.11944 27.1408C6.53117 27.4365 6.73532 27.5844 6.96348 27.5657C7.19165 27.5453 7.36835 27.3651 7.72175 27.0031L12.7139 21.8972C13.172 21.4281 13.4002 21.1953 13.3761 20.9182C13.3521 20.6412 13.0862 20.4508 12.5527 20.0667L10.3036 18.4469Z" fill="#FF6C37"></path>
                                <path d="M16.6886 20.0683C16.1568 20.4525 15.8892 20.6428 15.8652 20.9199C15.8411 21.1969 16.0693 21.4298 16.5274 21.8989L21.5196 27.0048C21.8729 27.3668 22.0497 27.547 22.2778 27.5674C22.506 27.5878 22.7118 27.4399 23.1219 27.1424L23.7394 26.6988C24.1512 26.4031 24.3553 26.2552 24.4085 26.0342C24.4617 25.8133 24.3416 25.5906 24.1031 25.1453L20.7476 18.8632C20.4388 18.287 20.2861 17.9981 20.0133 17.9369C19.7405 17.874 19.4746 18.0661 18.9411 18.4485L16.6886 20.0683Z" fill="#FF6C37"></path>
                                <path d="M20.2222 14.5511C20.4263 15.1714 20.5275 15.4808 20.7849 15.5896C21.0422 15.6984 21.339 15.5539 21.9291 15.2666L28.3727 12.1392C28.829 11.9182 29.0572 11.8078 29.1464 11.5987C29.2356 11.3896 29.1567 11.15 29.0005 10.6724L28.7655 9.9534C28.6077 9.47408 28.5305 9.23613 28.3332 9.11885C28.1376 9.00157 27.8872 9.04576 27.3862 9.13245L20.3183 10.3562C19.6698 10.4684 19.3455 10.5245 19.2014 10.7624C19.0573 11.0004 19.1586 11.3098 19.3627 11.9301L20.2222 14.5511Z" fill="#FF6C37"></path>
                            </g>
                            <g class="page-logo__letters">
                                <path fill-rule="evenodd" clip-rule="evenodd" d="M104.84 5.85988C104.774 5.9496 104.774 6.06912 104.774 6.30832V9.20455C104.774 9.27047 104.774 9.3229 104.771 9.36518C104.765 9.42611 104.753 9.46606 104.724 9.49552C104.701 9.51749 104.673 9.52981 104.635 9.53664C104.586 9.54546 104.521 9.54546 104.43 9.54546H92.2149C89.7821 9.54546 88.5651 9.54546 87.8097 10.2944C87.0536 11.0433 87.0536 12.2486 87.0536 14.6591V19.7727C87.0536 22.1834 87.0536 23.3887 87.8097 24.1375C88.5651 24.8864 89.7821 24.8864 92.2149 24.8864H109.075V4.43182L105.25 5.65963C105.021 5.73337 104.906 5.77032 104.84 5.85988ZM104.047 21.6094C103.806 21.6477 103.488 21.6477 103.054 21.6477H93.0751C92.264 21.6477 91.8587 21.6477 91.6067 21.3982C91.3547 21.1485 91.3547 20.7467 91.3547 19.9432V14.4886C91.3547 13.6851 91.3547 13.2833 91.6067 13.0338C91.8587 12.7841 92.264 12.7841 93.0751 12.7841H104.774V19.9432C104.774 20.7467 104.774 21.1485 104.522 21.3982C104.405 21.5141 104.255 21.5762 104.047 21.6094Z" fill="#023A4F"></path>
                                <path fill-rule="evenodd" clip-rule="evenodd" d="M117.677 24.8864C115.244 24.8864 114.027 24.8864 113.272 24.1375C112.516 23.3886 112.516 22.1834 112.516 19.7727V18.0682C112.516 17.6134 112.516 17.2505 112.54 16.9564C112.574 16.5233 112.658 16.2395 112.869 16.0312C113.04 15.8624 113.26 15.7752 113.57 15.7301C113.749 15.7041 113.958 15.6921 114.204 15.6867C114.415 15.6818 114.653 15.6818 114.925 15.6818H129.892C129.947 15.6818 129.994 15.6818 130.032 15.6798C130.062 15.6783 130.087 15.6757 130.108 15.6708C130.141 15.6637 130.166 15.6517 130.186 15.6319C130.21 15.6079 130.223 15.5768 130.23 15.5332C130.233 15.5117 130.234 15.4872 130.235 15.4591L130.236 15.4135V14.4886C130.236 14.3074 130.236 14.1466 130.234 14.0032C130.229 13.7789 130.218 13.5976 130.187 13.4484C130.167 13.3467 130.138 13.26 130.097 13.1848C130.067 13.1285 130.03 13.0787 129.984 13.0338C129.732 12.7841 129.327 12.7841 128.516 12.7841H112.516V9.54546H129.376C131.809 9.54546 133.026 9.54546 133.781 10.2944C134.538 11.0433 134.538 12.2484 134.538 14.6591V24.8864H117.677ZM130.236 18.75H118.279C117.716 18.75 117.435 18.75 117.228 18.8755C117.181 18.9036 117.138 18.9361 117.098 18.9722C117.081 18.988 117.063 19.0047 117.047 19.0218C117.033 19.037 117.019 19.0526 117.007 19.0688C116.984 19.0967 116.963 19.1262 116.944 19.157C116.817 19.3619 116.817 19.6409 116.817 20.1989C116.817 20.5841 116.817 20.8362 116.859 21.023C116.878 21.1067 116.904 21.1773 116.944 21.2407C117.015 21.3554 117.112 21.4518 117.228 21.5222C117.435 21.6477 117.716 21.6477 118.279 21.6477H128.516L128.847 21.6469C128.979 21.6459 129.097 21.6436 129.205 21.6382C129.582 21.6196 129.817 21.564 129.984 21.398C130.081 21.3023 130.141 21.184 130.178 21.0292C130.236 20.7808 130.236 20.4382 130.236 19.9432V18.75Z" fill="#023A4F"></path>
                                <path fill-rule="evenodd" clip-rule="evenodd" d="M142.272 28.394C142.268 28.4388 142.26 28.4764 142.247 28.5092C142.238 28.532 142.228 28.5526 142.214 28.5719C142.148 28.6615 142.033 28.6985 141.804 28.7722L137.978 30V9.54546H154.839C157.271 9.54546 158.488 9.54546 159.244 10.2944C160 11.0433 160 12.2486 160 14.6591V19.7727C160 22.1834 160 23.3887 159.244 24.1375C158.488 24.8864 157.271 24.8864 154.839 24.8864H142.624C142.576 24.8864 142.536 24.8864 142.501 24.8877C142.467 24.8889 142.438 24.8912 142.414 24.896C142.378 24.9032 142.351 24.9153 142.33 24.9363C142.303 24.9626 142.291 24.9974 142.285 25.048C142.279 25.0934 142.279 25.1514 142.279 25.2273V28.1235L142.279 28.2548C142.278 28.3083 142.276 28.3541 142.272 28.394ZM142.98 12.827C142.785 12.8613 142.644 12.9229 142.531 13.0338C142.279 13.2833 142.279 13.6851 142.279 14.4886V21.6477H153.978C154.79 21.6477 155.195 21.6477 155.447 21.3982C155.699 21.1485 155.699 20.7467 155.699 19.9432V14.4886C155.699 13.6851 155.699 13.2833 155.447 13.0338C155.195 12.7841 154.79 12.7841 153.978 12.7841H144C143.704 12.7841 143.462 12.7841 143.261 12.7964C143.156 12.8027 143.064 12.8124 142.98 12.827Z" fill="#023A4F"></path>
                                <path fill-rule="evenodd" clip-rule="evenodd" d="M78.4515 9.54546C80.8843 9.54546 82.1014 9.54546 82.8567 10.2944C83.6128 11.0433 83.6128 12.2484 83.6128 14.6591V16.3636C83.6128 17.4886 83.6128 18.051 83.26 18.4006C82.9071 18.75 82.3399 18.75 81.2042 18.75H66.2364C66.0745 18.75 65.9932 18.75 65.9428 18.7999C65.8923 18.8499 65.8923 18.9303 65.8923 19.0909V19.9432C65.8923 20.7467 65.8923 21.1485 66.1444 21.398C66.3964 21.6477 66.8016 21.6477 67.6128 21.6477H83.6128V24.8864H66.7526C64.3198 24.8864 63.1027 24.8864 62.3473 24.1375C61.5913 23.3886 61.5913 22.1834 61.5913 19.7727V14.6591C61.5913 12.2484 61.5913 11.0433 62.3473 10.2944C63.1027 9.54546 64.3198 9.54546 66.7526 9.54546H78.4515ZM65.8923 15.6818H77.8493C78.4125 15.6818 78.6941 15.6818 78.9011 15.5563C79.0167 15.4859 79.1141 15.3895 79.1847 15.2748C79.2257 15.2087 79.2532 15.135 79.2721 15.0466C79.3117 14.8608 79.3117 14.611 79.3117 14.233C79.3117 13.9876 79.3117 13.7962 79.3009 13.6414C79.2875 13.4439 79.2559 13.3059 79.1847 13.1911C79.1141 13.0764 79.0167 12.98 78.9011 12.9096C78.6941 12.7841 78.4125 12.7841 77.8493 12.7841H67.6128C66.8016 12.7841 66.3964 12.7841 66.1444 13.0338C65.8923 13.2833 65.8923 13.6851 65.8923 14.4886V15.6818Z" fill="#023A4F"></path>
                                <path d="M57.0415 10.6438C55.9333 9.54546 54.1491 9.54546 50.5805 9.54546H36.1289V24.8864H40.43V14.4886C40.43 13.6851 40.43 13.2833 40.682 13.0338C40.934 12.7841 41.3393 12.7841 42.1504 12.7841H50.4085C52.0308 12.7841 52.8413 12.7841 53.3453 13.2833C53.8493 13.7825 53.8493 14.5862 53.8493 16.1932V24.8864H58.1504V17.0455C58.1504 13.5099 58.1504 11.7422 57.0415 10.6438Z" fill="#023A4F"></path>
                            </g>
                        </svg>
