<?xml version="1.0" encoding="UTF-8"?><svg id="svg162" xmlns="http://www.w3.org/2000/svg" viewBox="0 0 2139.9082 537.0024"><defs><style>.cls-1{fill:#000;stroke:#000;stroke-miterlimit:10;}</style></defs><g id="g170"><path id="path212" class="cls-1" d="M83.5104,535.0542c-3.3-.6344-10.3469-2.7284-15.6599-4.6533-12.1396-4.3984-16.3401-8.8814-16.3401-17.4392,0-4.8541.7445-6.7447,3.8974-9.8977,4.9958-4.9958,10.4407-5.0715,24.7692-.3442,13.6317,4.4973,32.0842,5.0405,43.3333,1.2756,9.2137-3.0837,20.3407-9.1393,27.5854-15.0126,7.9781-6.468,18.5131-22.8765,21.9895-34.2491,5.474-17.9076,2.8451-40.5862-6.596-56.9005-7.8161-13.5063-24.1394-27.1237-38.3908-32.0269-22.3471-7.6885-45.4545-4.814-65.266,8.1191-15.8112,10.3217-26.5435,26.6145-30.8299,46.8035-2.5859,12.1797-1.705,23.7381,2.8241,37.0542,4.5583,13.402,4.4275,19.1782-.547,24.1527-3.1143,3.1143-5.0641,3.8974-9.7033,3.8974-7.41,0-10.946-2.5364-15.1777-10.8873-8.5529-16.8783-11.2554-41.9629-6.7277-62.446,2.9193-13.2066,12.0262-31.8572,20.9641-42.9334,13.4352-16.6496,33.6579-29.7472,54.5421-35.3252,11.8505-3.1652,38.7147-3.0958,50.5895.1307,47.9719,13.0341,80.3224,57.5094,76.9995,105.8585-1.0126,14.7331-3.6758,24.845-10.0794,38.2695-6.0192,12.6187-15.982,25.5301-26.5493,34.4067-9.9045,8.3198-31.7278,19.1266-43.627,21.6039-10.1175,2.1064-32.373,2.3945-42,.5438h0ZM301.5104,534.9524c-1.4667-.8066-3.7033-2.7384-4.9703-4.2928-2.1334-2.6173-2.3059-9.7504-2.3333-96.4719l-.0297-93.6457,3.8886-4.3544,3.8887-4.3544,35.2373-.3943c40.1109-.4489,48.3999.6208,64.665,8.3451,17.8866,8.4943,31.6931,25.4176,36.4804,44.7159,2.2918,9.2384,2.084,33.5299-.3473,40.6179-2.0098,5.8589-8.8403,11.3821-14.0761,11.3821-4.4311,0-10.6536-3.4373-12.6971-7.0138-1.1454-2.0047-1.7062-8.6833-1.7062-20.3195,0-15.3793-.3562-18.1213-3.1594-24.3222-3.5874-7.9355-11.2602-15.5005-19.3521-19.0799-8.1747-3.6161-20.7131-5.2433-40.4885-5.2545-15.8966-.009-17.9338.2571-20.3333,2.6566-2.5441,2.5441-2.6667,4.4444-2.6667,41.3333,0,37.779.0657,38.7324,2.8645,41.5312,2.8031,2.8031,3.4795,2.8483,31.5765,2.1098l28.7121-.7546,4.4235,4.4235c4.9923,4.9923,5.7482,10.2607,2.4009,16.7337-3.8979,7.5377-7.7954,8.4763-38.4215,9.2525-25.5038.6463-27.9321.9158-29.6667,3.2921-1.4357,1.9669-1.8892,7.5039-1.8892,23.0662,0,21.868-.9655,26.069-6.9557,30.2647-3.4239,2.3981-11.1549,2.6722-15.0443.5333h0ZM534.4661,534.419c-7.1202-4.9872-6.9557-2.6058-6.9557-100.6955,0-88.7151.0647-91.0134,2.6785-95.2426,1.4731-2.3836,4.3394-5.0218,6.3693-5.8626,2.6426-1.0946,21.6039-1.4232,66.7651-1.1569l63.0743.3719,3.8898,4.3544c6.6105,7.4001,4.821,18.4707-3.6893,22.8229-1.9943,1.0199-18.9122,1.4894-53.6667,1.4894-48.9766,0-50.8477.0933-53.421,2.6667-2.4691,2.4691-2.6667,4.4444-2.6667,26.6666s.1975,24.1976,2.6667,26.6667c2.5378,2.5378,4.4445,2.6667,39.4667,2.6667h36.8l4.5333,4.5333c3.4994,3.4994,4.5333,5.6432,4.5333,9.3996,0,6.3095-2.9048,11.8067-7.2961,13.8075-2.4343,1.1091-14.4107,1.5929-39.4333,1.5929-34.1595,0-36.0692.1319-38.6039,2.6667-2.4691,2.4691-2.6667,4.4444-2.6667,26.6666s.1975,24.1976,2.6667,26.6667c2.5746,2.5746,4.4445,2.6667,54.1333,2.6667h51.4667l4.5333,4.5333c3.4994,3.4994,4.5333,5.6432,4.5333,9.3996,0,6.3095-2.9048,11.8067-7.2961,13.8075-2.5529,1.1632-20.4857,1.5929-66.47,1.5929-54.9075,0-63.3544-.2665-65.9449-2.0809h.0002ZM766.7103,531.9667l-4.5333-4.5334v-92.1995c0-101.1693-.2632-97.794,7.9564-102.0445,4.7549-2.4589,8.0914-2.5508,12.9116-.3559,2.1675.987,33.3309,37.2821,76.4165,88.9999,40.016,48.0334,74.0972,89.0643,75.7359,91.1799,1.9362,2.4995,2.9796,5.6977,2.9796,9.1333,0,4.2347-.9022,6.189-4.5333,9.8202-3.6756,3.6756-5.5637,4.5333-9.9789,4.5333-4.0621,0-6.4828-.9316-9.5281-3.6667-2.2454-2.0166-29.1048-33.6312-59.6877-70.2545-30.5829-36.6233-56.6723-67.2233-57.9765-68-1.7977-1.0705-2.6797-.9283-3.6462.5879-.765,1.2-1.2831,27.7062-1.2954,66.2706-.0149,46.9512-.4496,65.2127-1.6133,67.7666-2.0008,4.3913-7.498,7.2961-13.8076,7.2961-3.7563,0-5.9001-1.0339-9.3995-4.5333ZM1121.0484,534.8152c-4.2925-2.0639-94.8713-182.8448-94.8713-189.3481,0-5.2832,2.8279-9.6259,8.0148-12.3081,4.8969-2.5323,8.4336-2.5185,13.4047.0521,3.3746,1.7451,9.3011,12.7383,40.4648,75.0576,20.0812,40.1572,37.4087,73.7579,38.5056,74.6682,1.6136,1.3392,2.42,1.2291,4.2258-.5766,1.2273-1.2273,18.1511-34.098,37.6084-73.046,19.4573-38.9479,36.6125-72.1552,38.1229-73.794,1.5104-1.6388,4.8461-3.3735,7.4127-3.855,8.2924-1.5557,17.5736,5.894,17.5736,14.1056,0,4.4331-91.4634,186.2019-94.9081,188.6148-3.4613,2.4243-10.9735,2.6318-15.554.4295h0ZM1267.2106,534.4215c-4.7091-2.5555-6.3668-5.8122-6.3668-12.508,0-4.3643,4.5594-14.5443,23.2596-51.9329,15.4476-30.8854,24.4644-47.4522,26.8466-49.326,2.2827-1.7955,5.5092-2.8214,8.8737-2.8214,4.2347,0,6.189.9022,9.8202,4.5334,5.0125,5.0126,5.6969,9.2737,2.9576,18.4167-1.3036,4.3508-1.246,5.4683.3333,6.4677,2.1071,1.3334,55.7646,1.7323,59.1334.4396,1.16-.4451,2.109-1.9207,2.109-3.279,0-3.5556-27.778-58.5769-30.0044-59.4312-1.0258-.3936-3.901.8372-6.3896,2.7352-3.394,2.5889-6.1006,3.451-10.8344,3.451-5.1965,0-6.9978-.6878-10.2074-3.8975-6.2693-6.2691-5.4803-11.6487,4.683-31.9305,9.4696-18.8977,14.1434-24.172,21.4196-24.172,9.1936,0,10.0277,1.397,57.4323,96.1978,46.4122,92.8165,47.2878,94.8949,43.1949,102.5427-1.7439,3.2583-8.1304,6.5928-12.6272,6.5928-8.4219,0-10.7264-2.8143-23.9661-29.2656-7.0444-14.0739-13.933-26.113-15.6158-27.2918-2.6029-1.8232-9.1696-2.1093-48.418-2.1093s-45.8151.2861-48.418,2.1093c-1.6823,1.1782-8.5597,13.1943-15.582,27.2241s-13.8998,26.0458-15.582,27.2241c-3.744,2.6224-11.249,2.6368-16.0511.031l-.0002-.0002ZM1530.4663,534.4215c-7.1213-4.988-6.9561-2.5902-6.9508-100.8529,0-86.7426.124-91.2611,2.5092-95.1724,5.1421-8.4327,17.0328-9.3198,23.4056-1.7461l3.4137,4.0569v80.5643c0,78.7866.059,80.6232,2.6667,83.231,2.5745,2.5746,4.4445,2.6667,54.1333,2.6667h51.4667l4.5333,4.5333c3.4993,3.4994,4.5333,5.6432,4.5333,9.3996,0,6.3095-2.9048,11.8067-7.2961,13.8075-2.5529,1.1632-20.4856,1.5929-66.4698,1.5929-54.9076,0-63.3545-.2665-65.9449-2.0809h-.0001ZM1782.8575,534.9355c-18.9551-3.6147-36.5405-17.8902-45.7017-37.0997-2.9727-6.2334-6.0591-14.5129-6.8584-18.399-.932-4.5304-1.4535-30.2685-1.4535-71.7329,0-70.9417-.061-70.366,7.9564-74.5122,4.8892-2.5283,8.4735-2.5582,13.2069-.1105,7.7936,4.0302,7.4464.9217,8.1866,73.2905.6656,65.0715.7596,66.9868,3.6396,74.1307,4.2792,10.6147,9.7992,16.5697,20.0278,21.6065l8.9222,4.3935h25.3636c21.4476,0,26.4836-.3899,32.6189-2.5254,14.4882-5.0427,24.3522-19.5108,26.33-38.6198.7094-6.8536,1.5511-8.8944,5.1643-12.5215,4.868-4.8864,10.1919-5.6386,16.5688-2.3409,5.9452,3.0744,8.0171,7.0404,7.995,15.3043-.088,32.768-24.745,63.691-55.2252,69.2582-9.5439,1.7433-57.4194,1.6558-66.7415-.1218h-.0001ZM1999.6574,534.6418c-6.8719-3.8088-6.7156-1.4802-6.7664-100.8427-.052-101.8048-.4905-96.2637,7.9675-100.6376,3.2548-1.683,13.3947-1.9922,65.3186-1.9922,67.4309,0,67.1819-.0277,71.3108,7.9564,2.5488,4.9293,2.5569,8.4759.031,13.3622-4.2263,8.1725-3.0647,8.0147-58.9709,8.0147-49.2589,0-51.1296.0929-53.7032,2.6667-2.4692,2.4691-2.6667,4.4444-2.6667,26.6667s.1975,24.1975,2.6667,26.6667c2.5328,2.5327,4.4445,2.6666,38.0663,2.6666,38.9143,0,41.3518.4287,45.2444,7.9564,2.5488,4.9292,2.5569,8.4759.031,13.3622-4.1064,7.941-4.5144,8.0148-44.3042,8.0148-34.5923,0-36.5004.1304-39.0367,2.6666-2.4692,2.4692-2.6666,4.4445-2.6666,26.6667s.1974,24.1975,2.6666,26.6667c2.572,2.5719,4.4445,2.6666,52.733,2.6666,54.9412,0,55.8599.122,59.9111,7.9564,2.5488,4.9292,2.5569,8.4759.031,13.3622-4.29,8.2961-1.813,8.0193-71.3042,7.9675-50.0375-.037-64.0404-.4188-66.5565-1.8134h-.0026ZM913.3772,443.9696l-4.5333-4.5334v-48.1995c0-40.4753.3242-48.8263,2.0226-52.1107,2.1789-4.2135,8.1269-7.9564,12.6441-7.9564s10.4652,3.7428,12.6441,7.9564c1.6984,3.2844,2.0226,11.6355,2.0226,52.1107v48.1995l-4.5333,4.5334c-3.7164,3.7164-5.5425,4.5333-10.1333,4.5333s-6.4169-.8169-10.1334-4.5333h0ZM1882.3241,417.3089c-6.345-3.5168-6.7157-5.8274-6.7662-42.1759-.052-37.2422.071-37.8874,7.9674-41.9709,4.8864-2.5268,8.4331-2.5188,13.3623.0301,7.4735,3.8646,7.9564,6.4979,7.9564,43.3779v33.5328l-4.5333,4.5334c-3.6162,3.6161-5.572,4.5237-9.6667,4.486-2.8232-.026-6.5673-.842-8.3199-1.8134h.0001ZM997.5104,303.4853c-517.7333-1.0621-941.5183-2.1032-941.7444-2.3137-.3972-.3697-4.2402-22.9777-4.2505-25.0049-.0028-.55,8.0949-1,17.9949-1h18v-12h-12v-14.6667l65-.0107,65-.0107,134.6667-76.616c125.9091-71.6335,135.0836-76.6186,141.0787-76.6562,3.5266-.0222,6.1115.446,5.7442,1.0402s19.643,35.5443,44.4672,77.6667l45.135,76.5862h42.1382l3.0516-4.5305,3.0516-4.5305v-118.5767l-5.3306-4.8478c-2.9318-2.6663-6.2331-7.0817-7.3363-9.8121-2.0004-4.9509-1.9952-4.9697,1.931-7,2.1652-1.1192,5.4297-2.0353,7.2546-2.0353,2.9061,0,3.4286-.7386,4.2104-5.9517.6969-4.6474,1.8836-6.7076,5.415-9.4012l4.5225-3.4495v-39.9321c0-34.6063.2667-39.9321,2-39.9321,1.732,0,2.0057,5.3151,2.0424,39.6667.044,41.2089.4457,44.3333,5.6982,44.3333,1.5721,0,2.2173,1.6079,2.5197,6.279l.4064,6.279,7.6401,1.8582c6.7618,1.6446,7.4899,2.1389,6.3333,4.3-.7188,1.343-1.3068,3.6603-1.3068,5.1497,0,3.5488-7.5891,12.134-10.7261,12.134-1.3474,0-2.9046.7358-3.4604,1.6351-.5558.8993-1.4385,28.3493-1.9617,61l-.951,59.3649,3.5496,5.6643c1.9523,3.1154,4.5568,5.6654,5.7877,5.6667,5.2804.005,5.968-2.882,6.8765-28.8779.4828-13.8159.8796-33.3697.8817-43.4531l.004-18.3333h18.7085c13.8417,0,18.8237.4336,19.1514,1.6667,2.2661,8.5281,2.9997,9.6834,6.4004,10.0791,1.9495.2269,4.2047,1.2079,5.0115,2.1801.903,1.088,1.7294,11.9514,2.1494,28.2542.3753,14.5676,1.0104,30.2697,1.4113,34.8936l.7289,8.407,4.886-.407,4.886-.407,5.0569-16.6667c2.7813-9.1667,7.1105-23.6924,9.6204-32.2794l4.5635-15.6127-7.9062-43.7206c-4.3484-24.0463-8.2126-45.3706-8.5871-47.3873-.6332-3.4101-.366-3.6667,3.8182-3.6667,4.2996,0,4.5287.2513,5.166,5.6667.3668,3.1167,1.3877,8.5726,2.2687,12.1242,2.3337,9.4081,5.0076,10.2091,34.0795,10.2091h23.4989l-.9798,65.3333-.9798,65.3333h49.5023l-.6183-41c-.3401-22.55-.9371-43.6024-1.3266-46.783l-.7083-5.783-8.2342.414c-4.5288.2277-8.9842-.0553-9.9009-.629-1.2897-.8071-1.6667-13.5234-1.6667-56.219,0-30.3468.45-55.4391,1-55.7608.55-.3217,16.45-1.0183,35.3333-1.5481l34.3333-.9633v17.2984l42.3333.8793c23.2833.4836,43.6833,1.1641,45.3334,1.5123,2.9378.6199,3.0032,1.0398,3.1557,20.2743.086,10.8027.5357,30.6521,1,44.1098.4644,13.4577.4718,25.0677.016,25.8001-.4552.7324-5.4052,1.991-11,2.797l-10.1721,1.4655v46.4012c0,31.6253.4474,46.4012,1.4051,46.4012.7728,0,7.6817-2.1,15.3532-4.6667,12.9699-4.3394,15.1158-4.6667,30.5949-4.6667h16.6469v-25.3333h-10.4392l-.7431-9.6667c-1.3086-17.0228-1.8085-35.7231-.9671-36.173.4488-.24,16.2299-.05,35.0688.4221,30.4277.7626,34.5502,1.1276,36.916,3.2687,1.4647,1.3256,3.301,2.016,4.0804,1.5342.9781-.6046,1.4174,5.6918,1.4174,20.322v21.198l-3.3961,1.5473c-1.8678.8511-5.1678,1.5474-7.3333,1.5474h-3.9373v21.3623l56.3333-.3478,56.3334-.3478.3732-3.3333c1.0754-9.6038.7185-9.3333,12.3188-9.3333h10.6414v-40h3.2546c1.79,0,3.5825.5304,3.9832,1.1786.4006.6482,12.286,1.5614,26.412,2.0293,14.126.4679,30.2946,1.1965,35.9299,1.6192l10.2463.7685,6.4052-8.9037,6.4052-8.9037,5.1539,6.106c5.047,5.9792,5.3171,6.106,13.0153,6.106h7.8613v-80.2675l7.3333-13.0658c5.0719-9.0366,7.382-14.649,7.4911-18.1996.087-2.8236.5736-6.9337,1.0817-9.1337.8761-3.793,1.0059-3.6344,2.5089,3.0656.8718,3.8861,1.585,7.6963,1.585,8.4671s3.3,7.2811,7.3333,14.4673l7.3333,13.0658v75.0875l5.6603-.41c4.8052-.3481,5.7688-.9136,6.3783-3.7433.3948-1.8333,1.835-5.9388,3.2004-9.1234l2.4825-5.79,3.5074,9.1221c2.5997,6.7614,4.4473,9.5726,7.1392,10.8628,2.4117,1.1559,3.6318,2.7812,3.6318,4.838,0,1.7035.75,3.6905,1.6667,4.4155.9283.7343,12.3033,1.435,25.6783,1.5818l24.0117.2636,1.9883-5.7519,1.9883-5.7519h16l6.0653,18.6667,6.0652,18.6667,20.9348.3672,20.9347.3672v-16.0677h12.0898c10.8898,0,12.021-.2316,11.3955-2.3333-.6801-2.2856-27.4854-139.8491-27.4854-141.0541,0-.3369,19.3994-.6126,43.1097-.6126h43.1099l2.2906,15.6667c1.2598,8.6167,2.6198,17.5762,3.0217,19.9102l.731,4.2435,11.9893.9379,11.9894.9379-.9775,60.5326c-1.1316,70.0757-2.2992,64.323,13.0692,64.3955,7.9004.0372,9,.3483,9,2.5458,0,1.3769.9503,3.2921,2.1117,4.256,3.6366,3.0181,6.295-.202,8.0594-9.7618.8917-4.832,2.2089-9.8832,2.9269-11.2249.7179-1.3417,1.6906-5.4394,2.1613-9.1061,2.9934-23.3175,3.2756-24.2804,12.8308-43.7822,5.015-10.2355,8.6848-13.8197,20.4419-19.9655l8.1346-4.2522,36.8232.204c32.8353.1819,37.924.5059,46.9858,2.992,10.9601,3.0069,20.8007,9.1459,28.823,17.9814,9.7354,10.7219,10.3831,12.3257,14.9834,37.1011l4.3844,23.6119,6.6666.6662c3.6667.3664,14.0167.9615,23,1.3224l16.3334.6562v-20.1757l42.3333.9734c23.2833.5354,42.7045,1.1912,43.1581,1.4573.4536.2661,1.24,4.6972,1.7476,9.8468l.9225,9.3629h59.5051l.8333,4.1667c.4584,2.2917.8334,6.977.8334,10.4118s.75,7.1993,1.6665,8.3654c1.1472,1.4593,5.927,2.6246,15.3335,3.7382l13.6665,1.6179v61.0334l-66.3333-.2085c-36.4829-.1147-489.9329-1.0775-1007.6663-2.1395h.0007ZM426.5792,270.8333c1.7625-2.3833,3.6284-5.0833,4.1465-6,.7514-1.3294-32.3985-1.6667-163.8287-1.6667H102.1263l.8911,3.5506c.4901,1.9528,1.8349,4.6528,2.9884,6,2.0133,2.3513,8.4079,2.4494,159.7331,2.4494h157.6358l3.2045-4.3333ZM572.4593,268.3744c2.6334-.9849,2.7977-1.5364,1.5363-5.1553l-1.4127-4.0524h-98.1449l-1.3474,3.8651-1.3474,3.8651,20.2169.789c11.1193.434,31.9169,1.288,46.2169,1.8978,25.5773,1.0908,28.3984.9912,34.2822-1.2093h0ZM565.648,246.5619c-1.9317-2.5326-3.353-5.1985-3.1583-5.9242.3174-1.1829-76.5121-127.0495-77.1575-126.4041-.1469.1469,4.1831,16.9926,9.6222,37.4349,5.4391,20.4423,9.8893,37.9965,9.8893,39.0094s-5.7565,13.9516-12.7922,28.7528-13.0013,27.9968-13.2568,29.3236c-.4409,2.2894,1.8492,2.4123,44.9504,2.4123h45.415l-3.5122-4.6048ZM250.3974,246.1317c6.3257-2.975,215.6877-134.1504,215.0863-134.7619-.2507-.2549-49.2473,27.3144-108.8812,61.2652-59.634,33.9508-113.6754,64.6602-120.092,68.2431-6.4167,3.5829-11.6667,6.7635-11.6667,7.0681s4.65.5381,10.3333.5188c6.9398-.0235,11.9383-.7898,15.2203-2.3333h0ZM371.3038,184.3238c53.6429-34.7364,98.6696-64.0571,100.0594-65.1571,1.5986-1.2653,2.2084-2.8496,1.6601-4.3128-.7206-1.9229-18.8488,8.9402-107.5231,64.431-58.661,36.7091-107.17,67.2435-107.7978,67.8542-.6277.6107,2.7309.9374,7.4637.7261l8.6051-.3842,97.5326-63.1572ZM318.1771,244.556c105.0132-72.095,157.7093-108.8176,158.2781-110.3001.3949-1.029.365-2.2238-.0664-2.6552-.6681-.6681-171.1056,112.2835-174.8784,115.8946-2.334,2.2339,13.0947-.487,16.6667-2.9393h0ZM406.0248,196.4754c60.5386-43.0123,73.1067-52.4697,72.5512-54.5941-.5883-2.2498-2.5244-1.2929-15.5613,7.6912-8.1891,5.6434-43.175,29.7579-77.7464,53.5877-38.1031,26.2642-62.2468,43.7153-61.3075,44.3129,5.1583,3.2819,9.2157.7604,82.064-50.9978h0ZM416.4748,199.7501c56.5293-40.9552,67.8836-49.9167,63.2447-49.9167-.6183,0-5.5683,3.1198-11,6.9329-23.1234,16.2328-125.9674,89.4159-126.9409,90.3304-.5858.5502,1.5141.6037,4.6667.1187,4.7961-.7378,16.229-8.4869,70.0296-47.4652h0ZM425.3641,205.0326c30.6992-23.3929,56.1151-43.3085,56.4796-44.2568.3646-.9483.3421-2.0449-.0499-2.4368-.8983-.8983-123.5063,87.7408-123.5699,89.3344-.0257.6454,2.5114.8851,5.6382.5326,5.0128-.565,12.2861-5.6708,61.5019-43.1734h0ZM434.1771,209.7624c31.3358-24.9406,48.8258-39.7159,49.1135-41.4904.4474-2.7595-2.5219-.5877-80.8117,59.1066q-26.0262,19.8444-18.3018,20.9383c.7333.0991,23.2333-17.2505,50-38.5544ZM455.5,216.8287c17.239-16.4422,31.5913-30.5925,31.8939-31.4451.4034-1.1368.0479-1.1631-1.3333-.0985-3.0092,2.3194-75.079,60.8291-76.5322,62.1326-.7668.6878,2.0091.7891,6.6563.2429l7.9717-.9369,31.3438-29.8949ZM443.0269,244.1667c2.2218-2.3833,12.0881-13.9333,21.9252-25.6667,20.3998-24.3322,17.5449-22.667-14.775,8.6177l-22,21.2954,5.4051.0435c4.4104.0355,6.1485-.754,9.4447-4.2899h0ZM752.7464,235.5c-1.3208-7.15-3.4271-19.15-4.6807-26.6667-1.2536-7.5167-2.6892-13.6667-3.1902-13.6667s-4.3979,11.25-8.6595,25c-4.2617,13.75-8.028,25.75-8.3697,26.6667-.4721,1.2668,2.7287,1.6667,13.3402,1.6667h13.9614l-2.4014-13ZM385.1058,186.8333c49.6531-33.1833,90.3068-61.0833,90.3415-62,.0347-.9167-.5315-1.6667-1.2581-1.6667-1.0151,0-189.429,121.2516-191.901,123.4957-.3055.2774,2.3908.5043,5.9919.5043,6.4145,0,8.3806-1.2251,96.8258-60.3333ZM444.9227,213.5764c22.6899-18.4747,41.2544-34.3392,41.2544-35.2546s-.5243-1.9884-1.1651-2.3844c-.6408-.396-20.8908,14.9435-45,34.0879-24.1092,19.1444-44.4049,35.333-45.1016,35.9747-.7431.6845.805,1.1668,3.7456,1.1668,4.5698,0,8.6541-2.9652,46.2667-33.5903h0ZM1812.821,206.6701c-.025-19.0364-2.8953-34.6246-7.2653-39.4533-3.3958-3.7523-12.2618-7.7809-20.6072-9.3636-9.6555-1.8311-58.5604-1.7529-63.882.1023-4.4655,1.5566-12.2157,11.0107-15.5308,18.9447-1.2894,3.086-2.2684,12.2426-2.8649,26.7953l-.9061,22.1073,53.8728.3486c29.63.1918,54.6228-.1748,55.5394-.8146,1.1918-.8318,1.6602-6.1512,1.6439-18.6667h0Z"/></g></svg>