<?xml version="1.0" encoding="UTF-8"?><svg id="uuid-7020f4b3-d524-4bf4-8939-9ed7cf6a49d3" xmlns="http://www.w3.org/2000/svg" viewBox="0 0 504.14 126.63"><defs><style>.uuid-d804512e-a42e-4554-9a6e-dcca4dce2b9b{fill:#404042;}.uuid-3d089946-bcbc-4b53-9dcd-462116f07f0e{fill:#3aaae1;}</style></defs><path class="uuid-3d089946-bcbc-4b53-9dcd-462116f07f0e" d="m0,63.32C0,28.35,28.35,0,63.32,0c34.97,0,63.32,28.35,63.32,63.32,0,34.89-28.22,63.18-63.08,63.31h0s-51.55,0-51.55,0c0,0-12,0-12-12v-50.41h.02C.02,63.92,0,63.62,0,63.32Zm14.57,0c0,26.92,21.82,48.75,48.75,48.75,26.92,0,48.75-21.82,48.75-48.75S90.24,14.57,63.32,14.57c-26.92,0-48.75,21.82-48.75,48.75Z"/><path class="uuid-d804512e-a42e-4554-9a6e-dcca4dce2b9b" d="m170.31,99.75h-23.97l-4.75-21.65c-.84-4.01-2.32-4.96-6.23-4.96h-7.07v26.61h-22.49V26.88c9.71-.95,16.37-1.06,30.94-1.06,21.44,0,30.73,5.17,30.73,22.18,0,8.76-3.48,16.16-14.78,17.32v.63c4.01.53,10.14,2.53,11.93,11.4l5.7,22.39Zm-25.87-50.27c0-6.02-1.69-7.5-8.24-7.5h-7.92v15h7.92c6.55,0,8.24-1.48,8.24-7.5Z"/><path class="uuid-d804512e-a42e-4554-9a6e-dcca4dce2b9b" d="m227.93,82.64l1.06,16.16c-10.56,1.37-25.34,1.37-37.91,1.37-10.03,0-17.11-6.76-17.11-16.58v-40.55c0-9.82,7.08-16.58,17.11-16.58,12.57,0,27.35,0,37.91,1.37l-1.06,16.16h-26.72c-2.64,0-4.33,1.58-4.33,3.8v7.07h27.24v15.21h-27.24v8.76c0,2.22,1.69,3.8,4.33,3.8h26.72Z"/><path class="uuid-d804512e-a42e-4554-9a6e-dcca4dce2b9b" d="m296.94,50.64c0,19.22-7.08,24.61-27.03,24.61-3.7,0-7.5-.21-11.09-.63v25.13h-22.92V26.88c9.72-.95,16.26-1.06,30.83-1.06,23.13,0,30.2,5.38,30.2,24.82Zm-22.92,0c0-6.97-1.58-8.66-7.81-8.66h-7.39v17.11h7.39c6.23,0,7.81-1.69,7.81-8.45Z"/><path class="uuid-d804512e-a42e-4554-9a6e-dcca4dce2b9b" d="m99.67,50.64c0,19.22-7.08,24.61-27.03,24.61-3.7,0-7.5-.21-11.09-.63v25.13h-22.92V26.88c9.72-.95,16.26-1.06,30.83-1.06,23.13,0,30.2,5.38,30.2,24.82Zm-22.92,0c0-6.97-1.58-8.66-7.81-8.66h-7.39v17.11h7.39c6.23,0,7.81-1.69,7.81-8.45Z"/><path class="uuid-d804512e-a42e-4554-9a6e-dcca4dce2b9b" d="m357.02,82.64l1.06,16.16c-10.56,1.37-25.34,1.37-37.91,1.37-10.03,0-17.11-6.76-17.11-16.58v-40.55c0-9.82,7.08-16.58,17.11-16.58,12.57,0,27.35,0,37.91,1.37l-1.06,16.16h-26.72c-2.64,0-4.33,1.58-4.33,3.8v7.07h27.24v15.21h-27.24v8.76c0,2.22,1.69,3.8,4.33,3.8h26.72Z"/><path class="uuid-d804512e-a42e-4554-9a6e-dcca4dce2b9b" d="m432.26,91.83c0,5.17-2.75,7.92-7.92,7.92h-8.76c-4.75,0-6.44-2.32-8.87-6.65l-15.84-25.03c-2.01-3.59-3.59-8.03-4.86-12.46h-.74c.63,4.43,1.06,9.08,1.06,13.3v30.84h-21.12V34.8c0-5.17,2.75-7.92,7.92-7.92h8.76c4.75,0,6.33,2.32,8.87,6.65l15.21,23.87c2.01,3.49,3.91,7.82,5.6,12.46h.74c-.53-4.43-.95-8.76-.95-13.2l-.11-29.78h21.01v64.94Z"/><path class="uuid-d804512e-a42e-4554-9a6e-dcca4dce2b9b" d="m504.14,63.32c0,29.57-8.98,37.49-34,37.49-12.14,0-21.96-.42-31.15-1.06V26.88c9.29-.53,18.69-1.06,31.15-1.06,25.03,0,34,7.92,34,37.49Zm-24.18,0c0-16.9-2.01-20.91-9.82-20.91h-8.24v41.71c2.54.11,5.39.11,8.24.11,7.82,0,9.82-4.01,9.82-20.91Z"/></svg>