<svg xmlns="http://www.w3.org/2000/svg" width="331.191" height="362.989" viewBox="0 0 331.191 362.989"><path fill-rule="evenodd" clip-rule="evenodd" fill="#50C3EE" d="M166.303 3.51c88.773 0 160.738 71.964 160.738 160.738 0 88.772-71.964 160.738-160.737 160.738S5.565 253.02 5.565 164.248c0-88.774 71.965-160.74 160.738-160.74z"/><path fill-rule="evenodd" clip-rule="evenodd" fill="#08519F" d="M331.19 164.825C331.19 73.795 257.368 0 166.304 0 112.02 0 63.87 26.224 33.823 66.687c-9.115-20.32-12.157-35.358-7.487-42.34 4.732-7.077 16.744-4.963 33.658 4.542C31.688 10.96 10.62 3.756 3.007 11.362c-8.41 8.4 1.262 33.195 23.512 66.02-15.9 25.347-25.105 55.318-25.105 87.442 0 86.968 67.384 158.198 152.807 164.382 27.493 19.034 61.09 40.847 72.858 31.583 6.85-5.394 3.587-19.867-7.51-39.936 64.926-22.144 111.62-83.634 111.62-156.03zM204.55 341.353c-5.297 6.202-32.93-2.522-50.27-12.142 3.97.287 7.98.44 12.023.44 13.483 0 26.584-1.63 39.128-4.683 2.258 7.357 2.154 12.836-.88 16.386zm6.284-34.986c-14.067-21.707-34.985-47.915-60.7-75.475 21.328 33.313 39.003 59.636 48.73 78.684-10.478 2.345-21.374 3.59-32.56 3.59-81.96 0-148.398-66.415-148.398-148.34 0-26.427 6.92-51.234 19.037-72.724C49.41 109.02 64.637 127.536 82 146.702c-16.444-23.086-30-44.607-39.856-63.136 26.513-40.4 72.216-67.084 124.16-67.084 81.96 0 148.4 66.415 148.4 148.343-.002 66.417-43.67 122.635-103.87 141.542z"/><path fill-rule="evenodd" clip-rule="evenodd" fill="#fff" d="M212.925 195.167h65.992v29.506c0 2.876-2.332 5.206-5.21 5.206H179.93c-2.878 0-5.21-2.33-5.21-5.207v-72.9c0-2.874 2.332-5.205 5.21-5.205h65.992V129.21h-38.206s-33.492-32.977-31.26-32.977h97.25c2.88 0 5.21 2.33 5.21 5.208v72.898c0 3.72-3.224 5.206-5.954 5.206h-60.038c-.96 0-1.736.777-1.736 1.735v12.15c0 .96.778 1.737 1.737 1.737zm-62.518 32.978h-31.26v-20.83H46.21S41 205.58 41 198.638c0-4.215 5.21-8.68 5.21-8.68l85.093-85.046S140.483 94.5 143.46 94.5s6.947 2.478 6.947 5.205v74.634h17.366v32.975h-17.366v20.83zm-49.567-45.128h23.518V156.98H100.84v26.037z"/></svg>