<?xml version="1.0" encoding="UTF-8" standalone="no"?>
<svg
   xmlns:dc="http://purl.org/dc/elements/1.1/"
   xmlns:cc="http://creativecommons.org/ns#"
   xmlns:rdf="http://www.w3.org/1999/02/22-rdf-syntax-ns#"
   xmlns:svg="http://www.w3.org/2000/svg"
   xmlns="http://www.w3.org/2000/svg"
   xmlns:sodipodi="http://sodipodi.sourceforge.net/DTD/sodipodi-0.dtd"
   xmlns:inkscape="http://www.inkscape.org/namespaces/inkscape"
   id="svg42"
   version="1.1"
   height="18mm"
   width="64mm"
   sodipodi:docname="floorplanner-logo.svg"
   inkscape:version="0.92.3 (2405546, 2018-03-11)">
  <sodipodi:namedview
     pagecolor="#ffffff"
     bordercolor="#666666"
     borderopacity="1"
     objecttolerance="10"
     gridtolerance="10"
     guidetolerance="10"
     inkscape:pageopacity="0"
     inkscape:pageshadow="2"
     inkscape:window-width="1407"
     inkscape:window-height="480"
     id="namedview26"
     showgrid="false"
     inkscape:zoom="3.0923177"
     inkscape:cx="112.37526"
     inkscape:cy="30.23622"
     inkscape:window-x="67"
     inkscape:window-y="27"
     inkscape:window-maximized="0"
     inkscape:current-layer="svg42" />
  <metadata
     id="metadata48">
    <rdf:RDF>
      <cc:Work
         rdf:about="">
        <dc:format>image/svg+xml</dc:format>
        <dc:type
           rdf:resource="http://purl.org/dc/dcmitype/StillImage" />
        <dc:title></dc:title>
      </cc:Work>
    </rdf:RDF>
  </metadata>
  <defs
     id="defs46" />
  <g
     transform="matrix(2,0,0,2,-14.521077,-190.57265)"
     id="g3773">
    <path
       style="fill:#04a9f5"
       d="m 54.306,99.856454 c -6.764,0 -12.246,5.482996 -12.246,12.244996 0,6.762 5.483,12.246 12.246,12.246 6.763,0 12.245,-5.483 12.245,-12.246 0,-6.763 -5.483,-12.244996 -12.245,-12.244996 z m 0,1.824996 c 5.745,0 10.42,4.674 10.42,10.42 0,5.746 -4.674,10.42 -10.42,10.42 -5.746,0 -10.42,-4.674 -10.42,-10.42 0,-5.746 4.674,-10.42 10.421,-10.42 z"
       id="path2"
       inkscape:connector-curvature="0" />
    <path
       style="fill:#ffffff"
       d="m 58.806,115.59345 -2.34,-1.289 v 2.419 z"
       id="path4"
       inkscape:connector-curvature="0" />
    <path
       style="fill:#80d4fa"
       d="m 52.011,106.68745 0.922,1.566 1.974,3.369 4.913,-2.282 -2.896,-4.928 z"
       id="path6"
       inkscape:connector-curvature="0" />
    <path
       style="fill:#04a9f5"
       d="m 50.58,107.39545 -2.232,2.131 v 6.43 l 1.31,0.715 v -4.57 l 1.916,1.051 v 4.563 l 1.896,1.031 v -6.423 l -1.989,-3.398 -0.007,-0.01 z"
       id="path8"
       inkscape:connector-curvature="0" />
    <path
       style="fill:#0e47a2"
       d="m 52.933,108.25445 -1.452,0.672 1.989,3.398 v 1.366 l 0.743,-0.336 0.694,0.387 v -1.002 l 4.914,-2.282 -1.108,-0.601 -3.806,1.767 z"
       id="path10"
       inkscape:connector-curvature="0" />
    <path
       style="fill:#0288d1"
       d="m 55.958,116.51545 v -3.19 l 3.011,-1.452 v 3.189 l -0.88,0.423 -2.132,1.03 z m -1.051,-3.777 v 5.979 l 4.913,-2.282 v -5.979 z"
       id="path12"
       inkscape:connector-curvature="0" />
    <path
       style="fill:#0e47a2"
       d="m 55.958,114.31245 2.132,1.173 0.88,-0.423 v -3.19 l -3.011,1.452 z"
       id="path14"
       inkscape:connector-curvature="0" />
    <path
       style="fill:#0e47a2"
       d="m 49.657,115.37045 1.916,-0.843 v -1.374 l -1.916,-1.051 z"
       id="path16"
       inkscape:connector-curvature="0" />
    <path
       style="fill:#343434"
       d="m 15.441,107.60945 c -0.266,-0.079 -0.448,-0.12 -0.546,-0.126 -0.098,-0.01 -0.207,-0.01 -0.325,-0.01 -0.325,0 -0.551,0.08 -0.679,0.236 -0.128,0.156 -0.192,0.458 -0.192,0.901 v 0.473 h 1.566 v 1.521 h -1.566 v 6.586 h -1.758 v -6.572 h -1.403 v -1.521 h 1.403 v -0.31 c 0,-0.926 0.207,-1.623 0.62,-2.091 0.413,-0.468 0.985,-0.74 1.713,-0.82 0.148,-0.019 0.322,-0.017 0.524,0.01 0.202,0.024 0.362,0.049 0.48,0.074 0.118,0.025 0.187,0.037 0.207,0.037 z"
       id="path18"
       inkscape:connector-curvature="0" />
    <path
       style="fill:#343434"
       d="m 17.538,117.19545 h -1.314 v -11.151 h 1.758 v 11.151 h -0.443 z"
       id="path20"
       inkscape:connector-curvature="0" />
    <path
       style="fill:#343434"
       d="m 25.743,114.79545 c -0.172,0.517 -0.414,0.966 -0.724,1.344 -0.31,0.38 -0.682,0.677 -1.115,0.894 -0.433,0.217 -0.906,0.325 -1.418,0.325 -0.522,0 -0.999,-0.108 -1.433,-0.325 -0.434,-0.217 -0.805,-0.514 -1.115,-0.894 -0.31,-0.378 -0.551,-0.827 -0.724,-1.344 -0.173,-0.517 -0.258,-1.071 -0.258,-1.661 0,-0.601 0.084,-1.159 0.251,-1.676 0.167,-0.517 0.406,-0.962 0.716,-1.337 0.31,-0.373 0.682,-0.669 1.115,-0.886 0.433,-0.217 0.916,-0.325 1.447,-0.325 0.531,0 1.012,0.108 1.44,0.325 0.428,0.217 0.798,0.513 1.108,0.886 0.31,0.375 0.549,0.82 0.716,1.337 0.167,0.517 0.251,1.076 0.251,1.676 0,0.59 -0.087,1.144 -0.258,1.661 z m -1.617,-1.662 c 0,-0.847 -0.158,-1.507 -0.473,-1.979 -0.315,-0.472 -0.704,-0.709 -1.167,-0.709 -0.463,0 -0.854,0.236 -1.174,0.709 -0.32,0.472 -0.48,1.132 -0.48,1.979 0,0.857 0.158,1.519 0.473,1.986 0.315,0.467 0.709,0.701 1.182,0.701 0.473,0 0.862,-0.231 1.167,-0.694 0.305,-0.463 0.458,-1.127 0.458,-1.994 h 0.015 z"
       id="path22"
       inkscape:connector-curvature="0" />
    <path
       style="fill:#343434"
       d="m 33.364,114.79545 c -0.172,0.517 -0.414,0.966 -0.724,1.344 -0.31,0.38 -0.682,0.677 -1.115,0.894 -0.433,0.217 -0.906,0.325 -1.418,0.325 -0.522,0 -0.999,-0.108 -1.433,-0.325 -0.434,-0.217 -0.805,-0.514 -1.115,-0.894 -0.31,-0.378 -0.551,-0.827 -0.724,-1.344 -0.173,-0.517 -0.258,-1.071 -0.258,-1.661 0,-0.601 0.084,-1.159 0.251,-1.676 0.167,-0.517 0.406,-0.962 0.716,-1.337 0.31,-0.373 0.682,-0.669 1.115,-0.886 0.433,-0.217 0.916,-0.325 1.447,-0.325 0.531,0 1.012,0.108 1.44,0.325 0.428,0.217 0.798,0.513 1.108,0.886 0.31,0.375 0.549,0.82 0.716,1.337 0.167,0.517 0.251,1.076 0.251,1.676 0,0.59 -0.086,1.144 -0.258,1.661 z m -1.618,-1.662 c 0,-0.847 -0.158,-1.507 -0.473,-1.979 -0.315,-0.472 -0.704,-0.709 -1.167,-0.709 -0.463,0 -0.854,0.236 -1.174,0.709 -0.32,0.472 -0.48,1.132 -0.48,1.979 0,0.857 0.158,1.519 0.473,1.986 0.315,0.467 0.709,0.701 1.182,0.701 0.473,0 0.862,-0.231 1.167,-0.694 0.305,-0.463 0.458,-1.127 0.458,-1.994 h 0.015 z"
       id="path24"
       inkscape:connector-curvature="0" />
    <path
       style="fill:#343434"
       d="m 38.096,110.57845 c -0.443,0 -0.812,0.239 -1.108,0.716 -0.296,0.477 -0.443,1.164 -0.443,2.06 v 3.84 h -1.758 v -8.108 h 1.506 l 0.074,0.857 c 0.453,-0.689 1.024,-1.034 1.713,-1.034 l 0.724,0.089 v 1.684 l -0.709,-0.103 z"
       id="path26"
       inkscape:connector-curvature="0" />
    <path
       style="fill:#343434"
       d="m 76.324,114.81745 c -0.138,0.512 -0.336,0.958 -0.598,1.337 -0.262,0.379 -0.578,0.674 -0.953,0.886 -0.375,0.212 -0.798,0.318 -1.27,0.318 -0.345,0 -0.671,-0.064 -0.982,-0.192 -0.311,-0.128 -0.593,-0.32 -0.849,-0.575 v 3.411 H 69.9 v -10.914 h 1.537 l 0.088,0.827 c 0.266,-0.345 0.564,-0.598 0.894,-0.761 0.33,-0.163 0.682,-0.244 1.056,-0.244 0.482,0 0.912,0.108 1.292,0.325 0.38,0.217 0.699,0.513 0.96,0.886 0.261,0.375 0.46,0.823 0.598,1.345 0.138,0.522 0.207,1.083 0.207,1.684 -10e-4,0.6 -0.069,1.156 -0.207,1.668 z m -1.684,-1.625 c 0,-0.926 -0.13,-1.61 -0.391,-2.053 -0.261,-0.443 -0.608,-0.665 -1.041,-0.665 -0.197,0 -0.382,0.053 -0.555,0.162 -0.173,0.109 -0.327,0.256 -0.464,0.442 -0.138,0.188 -0.254,0.409 -0.348,0.665 -0.094,0.256 -0.16,0.531 -0.199,0.827 v 0.96 c 0,0.305 0.042,0.596 0.125,0.871 0.083,0.275 0.197,0.517 0.34,0.724 0.143,0.207 0.31,0.372 0.502,0.495 0.191,0.123 0.396,0.185 0.613,0.185 0.177,0 0.352,-0.059 0.524,-0.177 0.172,-0.118 0.322,-0.29 0.45,-0.518 0.128,-0.226 0.231,-0.499 0.311,-0.82 0.08,-0.321 0.118,-0.687 0.118,-1.1 h 0.015 z"
       id="path28"
       inkscape:connector-curvature="0" />
    <path
       style="fill:#343434"
       d="m 79.308,117.19545 h -1.315 v -11.151 h 1.758 v 11.151 h -0.442 z"
       id="path30"
       inkscape:connector-curvature="0" />
    <path
       style="fill:#343434"
       d="m 86.877,116.40545 c -0.015,0.192 -0.017,0.289 -0.008,0.289 v 0.501 h -1.491 l -0.103,-0.753 c -0.295,0.325 -0.62,0.56 -0.975,0.702 -0.355,0.142 -0.71,0.214 -1.064,0.214 -0.846,0 -1.506,-0.229 -1.979,-0.687 -0.473,-0.458 -0.708,-1.061 -0.708,-1.809 0,-0.866 0.267,-1.534 0.804,-2 0.537,-0.466 1.273,-0.736 2.208,-0.805 0.148,-0.019 0.29,-0.03 0.427,-0.03 0.148,0 0.3,0 0.459,0 h 0.694 v -0.059 c 0,-0.57 -0.114,-0.972 -0.34,-1.204 -0.226,-0.232 -0.556,-0.347 -0.99,-0.347 -0.207,0 -0.435,0.022 -0.687,0.066 -0.252,0.044 -0.496,0.096 -0.731,0.155 -0.236,0.058 -0.446,0.118 -0.629,0.177 -0.183,0.059 -0.303,0.098 -0.361,0.118 l -0.34,-1.329 c 0.049,-0.019 0.158,-0.066 0.325,-0.14 0.167,-0.074 0.382,-0.153 0.642,-0.236 0.261,-0.084 0.56,-0.157 0.894,-0.222 0.334,-0.065 0.689,-0.096 1.063,-0.096 1.043,0 1.79,0.276 2.238,0.827 0.448,0.551 0.672,1.384 0.672,2.496 v 3.486 c 0,0.265 -0.008,0.494 -0.022,0.686 z m -1.736,-2.932 -0.517,-0.029 c -0.404,-0.01 -0.746,0.017 -1.026,0.081 -0.28,0.064 -0.51,0.158 -0.687,0.281 -0.177,0.123 -0.305,0.271 -0.384,0.443 -0.079,0.172 -0.119,0.358 -0.119,0.554 0,0.286 0.091,0.53 0.273,0.732 0.182,0.202 0.441,0.303 0.775,0.303 0.246,0 0.472,-0.054 0.679,-0.162 0.207,-0.108 0.385,-0.256 0.532,-0.443 0.147,-0.187 0.263,-0.406 0.348,-0.657 0.084,-0.252 0.125,-0.525 0.125,-0.82 v -0.282 z"
       id="path32"
       inkscape:connector-curvature="0" />
    <path
       style="fill:#343434"
       d="m 94.298,117.19545 h -1.314 v -5.066 c 0,-0.57 -0.099,-0.992 -0.295,-1.263 -0.196,-0.271 -0.468,-0.406 -0.812,-0.406 -0.453,0 -0.839,0.224 -1.159,0.672 -0.32,0.448 -0.48,1.12 -0.48,2.016 v 4.047 h -1.772 v -8.108 h 1.713 v 0.724 c 0.256,-0.315 0.551,-0.543 0.886,-0.687 0.335,-0.144 0.699,-0.214 1.093,-0.214 0.866,0 1.513,0.305 1.941,0.916 0.428,0.611 0.642,1.428 0.642,2.451 v 4.934 l -0.443,-0.015 z"
       id="path34"
       inkscape:connector-curvature="0" />
    <path
       style="fill:#343434"
       d="m 101.713,117.19545 h -1.315 v -5.066 c 0,-0.57 -0.098,-0.992 -0.295,-1.263 -0.197,-0.271 -0.468,-0.406 -0.812,-0.406 -0.452,0 -0.839,0.224 -1.159,0.672 -0.32,0.448 -0.481,1.12 -0.481,2.016 v 4.047 h -1.772 v -8.108 h 1.713 v 0.724 c 0.256,-0.315 0.551,-0.543 0.886,-0.687 0.335,-0.144 0.699,-0.214 1.093,-0.214 0.866,0 1.514,0.305 1.941,0.916 0.427,0.611 0.642,1.428 0.642,2.451 v 4.934 l -0.442,-0.015 z"
       id="path36"
       inkscape:connector-curvature="0" />
    <path
       style="fill:#343434"
       d="m 104.962,113.59145 c 0.069,0.62 0.222,1.118 0.459,1.492 0.304,0.482 0.753,0.724 1.344,0.724 0.177,0 0.377,-0.027 0.598,-0.082 0.222,-0.053 0.435,-0.116 0.642,-0.185 0.207,-0.069 0.392,-0.135 0.554,-0.199 0.162,-0.064 0.274,-0.111 0.332,-0.14 l 0.31,0.812 0.385,0.679 c -0.394,0.138 -0.737,0.249 -1.027,0.331 -0.29,0.084 -0.601,0.16 -0.93,0.229 -0.329,0.069 -0.628,0.103 -0.894,0.103 -0.591,0 -1.112,-0.098 -1.566,-0.295 -0.454,-0.197 -0.834,-0.48 -1.145,-0.848 -0.311,-0.369 -0.545,-0.817 -0.702,-1.345 -0.157,-0.528 -0.236,-1.114 -0.236,-1.764 0,-0.601 0.08,-1.159 0.244,-1.676 0.162,-0.517 0.391,-0.96 0.686,-1.329 0.295,-0.369 0.652,-0.66 1.072,-0.871 0.418,-0.212 0.889,-0.318 1.41,-0.318 0.531,0 0.999,0.103 1.403,0.31 0.404,0.207 0.743,0.497 1.019,0.871 0.276,0.374 0.485,0.822 0.629,1.344 0.143,0.522 0.218,1.098 0.228,1.727 l 0.059,0.428 h -4.875 z m 2.894,-1.433 c -0.05,-0.581 -0.202,-1.017 -0.458,-1.307 -0.256,-0.29 -0.562,-0.436 -0.916,-0.436 -0.472,0 -0.846,0.222 -1.122,0.665 -0.178,0.286 -0.3,0.64 -0.369,1.064 h 2.865 z"
       id="path38"
       inkscape:connector-curvature="0" />
    <path
       style="fill:#343434"
       d="m 114.164,110.57845 c -0.444,0 -0.812,0.239 -1.109,0.716 -0.297,0.477 -0.443,1.164 -0.443,2.06 v 3.84 h -1.758 v -8.108 h 1.507 l 0.074,0.857 c 0.453,-0.689 1.024,-1.034 1.713,-1.034 l 0.724,0.089 v 1.684 l -0.708,-0.103 z"
       id="path40"
       inkscape:connector-curvature="0" />
  </g>
</svg>
