<?xml version="1.0" encoding="UTF-8"?>
<!-- Generator: Adobe Illustrator 19.2.0, SVG Export Plug-In . SVG Version: 6.00 Build 0)  -->
<svg version="1.1" id="Layer_1" xmlns="http://www.w3.org/2000/svg" xmlns:xlink="http://www.w3.org/1999/xlink" x="0px" y="0px" viewBox="0 0 612.5 304" style="enable-background:new 0 0 612.5 304;" xml:space="preserve">
<style type="text/css">
	.st0{fill:#FFC800;}
	.st1{fill:#FFFFFF;}
	.st2{fill:#FF0069;}
	.st3{clip-path:url(#SVGID_2_);}
</style>
<rect y="0" class="st0" width="612.5" height="304"/>
<polygon class="st1" points="358.8,0 203.4,155.8 351.7,304 612.5,304 612.5,0 "/>
<polygon class="st2" points="203.4,155.8 224.6,177.1 231.2,170.5 216.5,155.8 231.2,141 224.6,134.4 "/>
<polygon class="st2" points="175.4,141 190.2,155.8 175.4,170.5 182,177.1 203.4,155.8 182,134.4 "/>
<g>
	<g>
		<defs>
			<rect id="SVGID_1_" y="0" width="612.5" height="304"/>
		</defs>
		<clipPath id="SVGID_2_">
			<use xlink:href="#SVGID_1_" style="overflow:visible;"/>
		</clipPath>
		<path class="st3" d="M252.8,127.2h-9.3v49.3h9.3V127.2z M269.8,146.2v-4.9h-9.3v35.2h9.3v-15.8c0-8.2,3.3-11.6,8-11.6    c3.1,0,5.8,1.9,5.8,6.7v20.7h9.3V155c0-9.9-5.8-14.4-12-14.4c-4,0-8.1,2-10.6,5.6H269.8z M317.1,149.8l2.5-8.5h-8v-2.8    c0-3.5,1.2-4.9,3.3-4.9c0.9,0,2,0.3,3.2,0.7l2.3-7.6c-2.7-1-5.1-1.6-7.4-1.6c-6.4,0-10.7,4.2-10.7,12.8v3.3h-3.8l-2.5,8.5h6.3    v26.8h9.3v-26.8L317.1,149.8L317.1,149.8z M338.6,168.7c-4.7,0-9.5-3.2-9.5-9.8c0-6.5,4.7-9.8,9.5-9.8c4.7,0,9.5,3.3,9.5,9.8    C348.1,165.5,343.3,168.7,338.6,168.7 M338.6,177.2c9.4,0,18.8-6.1,18.8-18.3s-9.4-18.3-18.8-18.3s-18.8,6.1-18.8,18.3    C319.8,171.1,329.2,177.2,338.6,177.2 M387.1,163.2c-1.4,3.7-4.8,5.5-8.1,5.5c-4.4,0-8.9-3.2-8.9-9.8c0-6.5,4.4-9.8,8.9-9.8    c3,0,6,1.5,7.6,4.4l8.4-3.8c-3.2-6-9.6-9-16-9c-9.1,0-18.2,6.1-18.2,18.3s9.1,18.3,18.2,18.3c6.8,0,13.5-3.4,16.5-10.2    L387.1,163.2z M398.6,167c0,6.1,4.2,10.2,10.3,10.2c4.7,0,8.2-1.8,11.1-4.9h0.5l2,4.3h9.1l2.5-8.5h-4.6V154    c0-8.8-7.5-13.3-14.9-13.3c-7,0-13.6,3.9-14.7,11.3l9.2,1.5c0-3.5,2.6-5.1,5.5-5.1c3.1,0,5.6,1.7,5.6,5.6v1.3h-6.8    C403.2,155.3,398.6,160.6,398.6,167 M412.3,169.4c-2.7,0-4.4-1.1-4.4-3.5c0-2,1.5-3.7,5.2-3.7h7.2    C420.1,167,416.4,169.4,412.3,169.4 M436.6,165.8c1,7.5,8,11.3,15.4,11.3c7.1,0,14.1-3.7,14.1-10.8c0-12-19-11.1-19-15.6    c0-1.7,2-2.3,4.2-2.3c2.5,0,4.6,0.8,4.7,2.9l9-1.5c-1.1-6-7.1-9.2-13.7-9.2c-6.8,0-13.5,3.5-13.5,10.4c0,11.6,19,11.1,19,15.8    c0,1.8-2.2,2.6-4.9,2.6c-3.2,0-6.2-1.3-6.4-4.9L436.6,165.8z M470.5,141.3l-2.5,8.5h6.3v26.8h14.9l2.5-8.5h-8.2v-18.3h6.6l2.5-8.5    h-9.1v-8.5h-9.3v8.5H470.5z M529.6,162.3v-3.6c0-12-8.9-18-17.5-18c-9.2,0-18.3,6.1-18.3,18.3c0,10.1,7.2,18.2,18.3,18.2    c7.1,0,13.5-3,16.9-9.8l-8.7-2.8c-1.5,3.1-4.5,4.9-8.2,4.9c-4.7,0-7.6-2.7-8.6-7.1L529.6,162.3L529.6,162.3z M512.1,148.4    c3.9,0,7.4,2.2,7.8,6.8h-16.3C504.6,151.1,507.6,148.4,512.1,148.4 M544.3,146.3v-5H535v35.2h9.3V160c0-6.6,2.3-9.4,8.6-9.4h2.4    l2.7-9.3h-4.1c-4.4,0-7,1.1-9.1,5H544.3z"/>
	</g>
</g>
<rect x="566.8" y="-8.1" class="st1" width="121.7" height="326.4"/>
</svg>