<svg xmlns="http://www.w3.org/2000/svg" viewBox="0 0 193 42.03"><defs><style>.cls-1{fill:#ffc845;}.cls-2{fill:#ff0069;}</style></defs><title>Infocaster_Logo_Credo_RGB</title><g id="Laag_2" data-name="Laag 2"><g id="Layer_1" data-name="Layer 1"><path d="M191.9,39a.55.55,0,1,0,.55-.55.55.55,0,0,0-.55.55m-2-4.95v-.87h-.58v6.25h.58V36.14c0-1.56.48-2.45,1.91-2.45h.32l.17-.53h-.5A2,2,0,0,0,190,34Zm-4.42-.48A2.22,2.22,0,0,1,187.58,36h-4.43a2.39,2.39,0,0,1,2.31-2.49m.07,6A2.79,2.79,0,0,0,188.05,38l-.45-.32A2.27,2.27,0,0,1,185.53,39a2.43,2.43,0,0,1-2.38-2.49h5v-.36c0-2.08-1.34-3.13-2.68-3.13a2.94,2.94,0,0,0-2.88,3.24,3,3,0,0,0,2.95,3.24m-3.17-5.87.15-.5h-1.85v-1.5h-.58v1.5h-1l-.15.5h1.1v5.75h2l.16-.5h-1.6V33.66ZM174,34.3V30.41h-.58v9H174V36.54c0-2,1.09-3,2.22-3a1.66,1.66,0,0,1,1.7,1.88v4h.58v-4a2.21,2.21,0,0,0-2.26-2.38A2.63,2.63,0,0,0,174,34.3Zm-5.79,6.06c0-.76.87-1.16,1.91-1.16s1.87.4,1.87,1.16-.83,1.17-1.87,1.17-1.91-.39-1.91-1.17m.1-5.21a1.53,1.53,0,0,1,1.58-1.6,1.61,1.61,0,0,1,0,3.21,1.52,1.52,0,0,1-1.58-1.61m-.68,5.26c0,.85.85,1.62,2.49,1.62s2.45-.68,2.45-1.67-.81-1.53-2.4-1.67c-1.34-.13-1.71-.35-1.71-.66s.43-.52,1.57-.75c1.44-.29,2-1.09,2-2.13a2,2,0,0,0-.71-1.6h1.16l.15-.5h-1.39l-.67.1a3,3,0,0,0-.72-.1,2.05,2.05,0,0,0-2.16,2.1,2,2,0,0,0,1.43,1.94c-.9.2-1.28.52-1.28,1s.34.71,1.08.9c-1,.28-1.33.86-1.33,1.43m-2-9.31a.55.55,0,1,0,.55-.55.55.55,0,0,0-.55.55m-.7,2.56h1v5.75h.58V33.16h-1.47Zm-2.75.37v-.87h-.58v6.25h.58V36.14c0-1.56.49-2.45,1.91-2.45h.33l.16-.53h-.5a2,2,0,0,0-1.83.87Zm-6.88,4.37h.08a2.83,2.83,0,0,0,2.21,1.13,3,3,0,0,0,2.87-3.24,3,3,0,0,0-2.87-3.24,2.8,2.8,0,0,0-2.21,1.13h-.08V30.41h-.57v9h.57Zm0-2.11a2.35,2.35,0,1,1,4.63,0,2.35,2.35,0,1,1-4.63,0M150,33.66l.15-.5h-1.85v-1.5h-.57v1.5h-.95l-.15.5h1.1v5.75h2l.16-.5h-1.6V33.66Zm-6.25-.11A2.21,2.21,0,0,1,145.85,36h-4.42a2.39,2.39,0,0,1,2.31-2.49m.06,6A2.8,2.8,0,0,0,146.33,38l-.45-.32A2.27,2.27,0,0,1,143.8,39a2.43,2.43,0,0,1-2.37-2.49h5v-.36c0-2.08-1.33-3.13-2.67-3.13a2.94,2.94,0,0,0-2.89,3.24,3,3,0,0,0,3,3.24m-8.57-5.23V33.16h-.57v6.25h.57V36.54c0-2,1.09-3,2.23-3a1.66,1.66,0,0,1,1.7,1.88v4h.57v-4a2.21,2.21,0,0,0-2.26-2.38,2.63,2.63,0,0,0-2.16,1.25ZM131.48,34v-.87h-.57v6.25h.57V36.14c0-1.56.49-2.45,1.91-2.45h.33l.16-.53h-.5a2,2,0,0,0-1.82.87Zm-4.41-.48A2.21,2.21,0,0,1,129.18,36h-4.42a2.39,2.39,0,0,1,2.31-2.49m.06,6A2.8,2.8,0,0,0,129.66,38l-.45-.32A2.27,2.27,0,0,1,127.13,39a2.43,2.43,0,0,1-2.37-2.49h5v-.36c0-2.08-1.34-3.13-2.68-3.13a2.94,2.94,0,0,0-2.89,3.24,3,3,0,0,0,2.95,3.24M124,33.66l.15-.5h-1.85v-1.5h-.58v1.5h-1l-.15.5h1.1v5.75h2l.17-.5h-1.6V33.66Zm-8.4.64V33.16H115v6.25h.57V36.54c0-2,1.09-3,2.23-3a1.66,1.66,0,0,1,1.7,1.88v4h.57v-4a2.21,2.21,0,0,0-2.26-2.38,2.63,2.63,0,0,0-2.16,1.25Zm-2.93-3.2a.55.55,0,1,0,.55-.55.55.55,0,0,0-.55.55m-.7,2.56h1v5.75h.57V33.16h-1.46Zm-6.79-.11A2.22,2.22,0,0,1,107.27,36h-4.43a2.39,2.39,0,0,1,2.31-2.49m.07,6A2.79,2.79,0,0,0,107.74,38l-.45-.32A2.27,2.27,0,0,1,105.22,39a2.43,2.43,0,0,1-2.38-2.49h5v-.36c0-2.08-1.34-3.13-2.68-3.13a2.94,2.94,0,0,0-2.88,3.24,3,3,0,0,0,3,3.24M96.65,34.3V30.41h-.58v9h.58V36.54c0-2,1.08-3,2.22-3a1.66,1.66,0,0,1,1.7,1.88v4h.58v-4a2.22,2.22,0,0,0-2.27-2.38,2.63,2.63,0,0,0-2.16,1.25Zm-1.5-.64.15-.5H93.45v-1.5h-.58v1.5h-1l-.15.5h1.1v5.75h2l.17-.5h-1.6V33.66ZM85,33.55A2.21,2.21,0,0,1,87.08,36H82.66A2.39,2.39,0,0,1,85,33.55m.06,6A2.8,2.8,0,0,0,87.56,38l-.45-.32A2.27,2.27,0,0,1,85,39a2.43,2.43,0,0,1-2.37-2.49h5v-.36c0-2.08-1.34-3.13-2.68-3.13a2.94,2.94,0,0,0-2.89,3.24,3,3,0,0,0,3,3.24m-3.21-.12.15-.5h-.9l-2-2.91,2.57-2.84h-.69l-3.56,3.92V30.41H76.8v9h.57V37.85l1.3-1.44,2.1,3ZM72.31,39A1.21,1.21,0,0,1,71,37.8c0-.62.43-1.26,1.48-1.26h2.19v.21A2.33,2.33,0,0,1,72.31,39m-1.89-1.22a1.7,1.7,0,0,0,1.81,1.72,3,3,0,0,0,2.39-1.22h0v1.1h1.25l.15-.5h-.82V35.23a2.32,2.32,0,0,0-4.57-.43l.54.18a1.74,1.74,0,0,1,3.45.26V36H72.48a1.82,1.82,0,0,0-2.06,1.77M63,33.05a2.29,2.29,0,0,0-1.94,1.09H61v-1h-.58v6.25H61V36.46c0-1.92.9-2.91,1.95-2.91a1.63,1.63,0,0,1,1.64,1.83v4h.57V36.46c0-1.92.83-2.91,2-2.91a1.63,1.63,0,0,1,1.63,1.83v4h.57v-4a2.14,2.14,0,0,0-2.13-2.33,2.25,2.25,0,0,0-2.15,1.48,2.06,2.06,0,0,0-2-1.48M50.94,37.68a2.21,2.21,0,0,0,2.38,1.85c1.11,0,2.19-.59,2.19-1.72,0-2.13-3.77-1.55-3.77-3.21,0-.7.74-1.05,1.48-1.05s1.46.33,1.56,1l.55-.15a2,2,0,0,0-2.09-1.33c-1,0-2.07.54-2.07,1.59,0,2.11,3.76,1.54,3.76,3.21,0,.74-.79,1.18-1.62,1.18a1.66,1.66,0,0,1-1.82-1.47Zm-.55-7-1,2.5h.51l1.26-2.5Zm-1.59,3,.15-.5H47.1v-1.5h-.57v1.5h-1l-.15.5h1.1v5.75h2l.16-.5H47.1V33.66Zm-6.25-.11A2.22,2.22,0,0,1,44.66,36H40.24a2.39,2.39,0,0,1,2.31-2.49m.06,6A2.81,2.81,0,0,0,45.14,38l-.45-.32A2.28,2.28,0,0,1,42.61,39a2.43,2.43,0,0,1-2.37-2.49h5v-.36c0-2.08-1.33-3.13-2.67-3.13a2.94,2.94,0,0,0-2.89,3.24,3,3,0,0,0,3,3.24m-7.24-8.87h-.58v8.75H39.4l.15-.5H35.37Z"/><polygon class="cls-1" points="25.38 25.94 14.46 14.99 25.38 4.05 28.75 7.41 21.19 14.99 28.75 22.58 25.38 25.94"/><polygon class="cls-2" points="0 7.42 7.61 14.99 0 22.57 3.36 25.95 14.36 14.99 3.36 4.04 0 7.42"/><path d="M39.47,1H34.79V25.84h4.68ZM48,10.6V8.12H43.36V25.84H48V17.9c0-4.15,1.66-5.85,4-5.85,1.56,0,3,1,3,3.37V25.84h4.68V15c0-5-2.91-7.23-6-7.23a6.59,6.59,0,0,0-5.35,2.8Zm23.77,1.77,1.24-4.25H69V6.7c0-1.74.6-2.45,1.67-2.45a5.37,5.37,0,0,1,1.63.36L73.44.78A10.88,10.88,0,0,0,69.72,0c-3.23,0-5.39,2.13-5.39,6.45V8.12H62.42l-1.28,4.25h3.19V25.84H69V12.37Zm10.85,9.54A4.67,4.67,0,0,1,77.87,17a4.79,4.79,0,1,1,9.57,0,4.66,4.66,0,0,1-4.78,4.93m0,4.25c4.75,0,9.46-3.08,9.46-9.18S87.37,7.8,82.66,7.8,73.19,10.85,73.19,17s4.72,9.18,9.47,9.18m24.39-7A4.3,4.3,0,0,1,103,21.91c-2.24,0-4.47-1.63-4.47-4.93s2.23-4.93,4.47-4.93a4.38,4.38,0,0,1,3.83,2.2L111,12.34a9,9,0,0,0-8-4.54c-4.58,0-9.15,3.05-9.15,9.18s4.57,9.18,9.15,9.18A8.77,8.77,0,0,0,111.27,21Zm5.8,1.88A4.9,4.9,0,0,0,118,26.16a7.28,7.28,0,0,0,5.61-2.48h.24l1,2.16h4.58l1.27-4.25h-2.3V14.5c0-4.43-3.76-6.7-7.52-6.7-3.54,0-6.84,2-7.41,5.71l4.65.74a2.5,2.5,0,0,1,2.76-2.55,2.6,2.6,0,0,1,2.84,2.8v.64h-3.44c-5.18,0-7.48,2.66-7.48,5.88m6.88,1.24c-1.35,0-2.2-.53-2.2-1.73,0-1,.74-1.85,2.62-1.85h3.62a3.76,3.76,0,0,1-4,3.58M132,20.45c.5,3.8,4,5.71,7.73,5.71s7.09-1.84,7.09-5.42c0-6-9.57-5.6-9.57-7.87,0-.85,1-1.17,2.13-1.17s2.3.39,2.37,1.45l4.5-.74c-.53-3-3.58-4.61-6.87-4.61s-6.77,1.77-6.77,5.21c0,5.85,9.57,5.6,9.57,7.94,0,.92-1.1,1.31-2.45,1.31-1.63,0-3.12-.64-3.23-2.44ZM149,8.12l-1.28,4.25h3.19V25.84h7.51l1.28-4.25h-4.11V12.37h3.33l1.24-4.25h-4.57V3.86h-4.68V8.12Zm29.74,10.56V16.87a8.63,8.63,0,0,0-8.79-9.07c-4.64,0-9.18,3.08-9.18,9.22a8.83,8.83,0,0,0,9.18,9.14,9,9,0,0,0,8.51-4.93L174,19.82a4.36,4.36,0,0,1-4.11,2.44,4.21,4.21,0,0,1-4.33-3.58Zm-8.79-7a3.63,3.63,0,0,1,3.9,3.44h-8.19a4.22,4.22,0,0,1,4.29-3.44m16.19-1.07V8.12h-4.68V25.84h4.68V17.51c0-3.29,1.14-4.71,4.33-4.71h1.2L193,8.12h-2.06c-2.19,0-3.51.57-4.57,2.51Z"/></g></g></svg>