<?xml version="1.0" encoding="UTF-8" standalone="no"?>
<!-- Generator: Adobe Illustrator 21.0.0, SVG Export Plug-In . SVG Version: 6.00 Build 0)  -->

<svg
   xmlns:dc="http://purl.org/dc/elements/1.1/"
   xmlns:cc="http://creativecommons.org/ns#"
   xmlns:rdf="http://www.w3.org/1999/02/22-rdf-syntax-ns#"
   xmlns:svg="http://www.w3.org/2000/svg"
   xmlns="http://www.w3.org/2000/svg"
   xmlns:sodipodi="http://sodipodi.sourceforge.net/DTD/sodipodi-0.dtd"
   xmlns:inkscape="http://www.inkscape.org/namespaces/inkscape"
   version="1.1"
   x="0px"
   y="0px"
   width="96px"
   viewBox="0 0 63.8 63.8"
   style="enable-background:new 0 0 63.8 63.8;"
   xml:space="preserve"
   id="svg3003"
   sodipodi:docname="lunatech.svg"
   inkscape:version="0.92.3 (2405546, 2018-03-11)"><metadata
   id="metadata3009"><rdf:RDF><cc:Work
       rdf:about=""><dc:format>image/svg+xml</dc:format><dc:type
         rdf:resource="http://purl.org/dc/dcmitype/StillImage" /></cc:Work></rdf:RDF></metadata><defs
   id="defs3007" /><sodipodi:namedview
   pagecolor="#ffffff"
   bordercolor="#666666"
   borderopacity="1"
   objecttolerance="10"
   gridtolerance="10"
   guidetolerance="10"
   inkscape:pageopacity="0"
   inkscape:pageshadow="2"
   inkscape:window-width="1853"
   inkscape:window-height="1145"
   id="namedview3005"
   showgrid="false"
   inkscape:zoom="3.6990596"
   inkscape:cx="-3.9199152"
   inkscape:cy="31.9"
   inkscape:window-x="67"
   inkscape:window-y="27"
   inkscape:window-maximized="1"
   inkscape:current-layer="svg3003" />
<style
   type="text/css"
   id="style2977">
	.st0{fill:none;}
	.st1{fill:#FF0000;}
</style>

<g
   id="Layer_1">
	<path
   class="st1"
   d="M 51.1,8 H 12.6 C 10.1,8 8,10.2 8,12.8 v 26.7 c 0,2.7 2.1,4.9 4.7,4.9 h 25.5 c 2.6,0 4.7,-2.2 4.7,-4.9 V 17.7 h 8.4 C 53.9,17.7 56,15.5 56,12.8 55.8,10.2 53.7,8 51.1,8 Z M 33.5,34.7 H 17.3 v -17 h 16.2 z"
   id="path2982"
   inkscape:connector-curvature="0"
   style="fill:#ff0000" />
	<g
   id="g3000">
		<path
   d="M 8,55.7 V 48.4 H 9.8 V 54 h 1.7 v 1.6 H 8 Z"
   id="path2984"
   inkscape:connector-curvature="0" />
		<path
   d="m 12.1,52.7 v -4.4 h 1.8 v 4.4 c 0,0.8 0.4,1.4 1.3,1.4 0.8,0 1.2,-0.6 1.2,-1.4 v -4.4 h 1.8 v 4.4 c 0,1.8 -1,3.1 -3,3.1 -2.1,0 -3.1,-1.2 -3.1,-3.1 z"
   id="path2986"
   inkscape:connector-curvature="0" />
		<path
   d="m 21,51.4 v 4.3 h -1.7 v -7.3 h 1.8 l 2.7,4.4 v -4.4 h 1.7 v 7.3 h -1.7 z"
   id="path2988"
   inkscape:connector-curvature="0" />
		<path
   d="m 30.8,53.9 h -2.3 l -0.6,1.7 h -1.7 l 2.5,-7.3 h 1.9 l 2.7,7.3 H 31.4 Z M 29,52.4 h 1.3 l -0.6,-1.8 z"
   id="path2990"
   inkscape:connector-curvature="0" />
		<path
   d="m 36,50 v 5.6 H 34.2 V 50 H 33 v -1.6 h 4.2 V 50 Z"
   id="path2992"
   inkscape:connector-curvature="0" />
		<path
   d="m 38.2,55.7 v -7.3 h 3.5 V 50 H 40 v 1.1 h 1.6 v 1.6 H 40 V 54 h 1.7 v 1.6 h -3.5 z"
   id="path2994"
   inkscape:connector-curvature="0" />
		<path
   d="m 48.9,54.8 c -0.6,0.6 -1.4,0.9 -2.4,0.9 -2.4,0 -3.9,-1.6 -3.9,-3.8 0,-2.1 1.5,-3.8 3.8,-3.8 1.1,0 1.9,0.4 2.5,0.9 l -1,1.3 c -0.3,-0.2 -0.7,-0.5 -1.4,-0.5 -1.3,0 -2,0.9 -2,2.1 0,1.2 0.8,2.1 2,2.1 0.6,0 1.1,-0.3 1.4,-0.5 z"
   id="path2996"
   inkscape:connector-curvature="0" />
		<path
   d="M 55.8,55.7 H 54 v -2.9 h -2.5 v 2.9 h -1.8 v -7.3 h 1.8 v 2.7 H 54 v -2.7 h 1.8 z"
   id="path2998"
   inkscape:connector-curvature="0" />
	</g>
</g>
</svg>