<?xml version="1.0" encoding="utf-8"?>
<!-- Generator: Adobe Illustrator 21.0.0, SVG Export Plug-In . SVG Version: 6.00 Build 0)  -->
<svg version="1.1" xmlns="http://www.w3.org/2000/svg" xmlns:xlink="http://www.w3.org/1999/xlink" x="0px" y="0px"
	 viewBox="0 0 63.8 63.8" style="enable-background:new 0 0 63.8 63.8;" xml:space="preserve">
<style type="text/css">
	.st0{fill:none;}
	.st1{fill:#FF0000;}
</style>
<g id="Layer_2">
	<rect class="st0" width="302" height="63.8"/>
</g>
<g id="Layer_1">
	<path class="st1" d="M51.1,8H12.6C10.1,8,8,10.2,8,12.8v26.7c0,2.7,2.1,4.9,4.7,4.9h25.5c2.6,0,4.7-2.2,4.7-4.9V17.7h8.4
		c2.6,0,4.7-2.2,4.7-4.9C55.8,10.2,53.7,8,51.1,8z M33.5,34.7H17.3v-17h16.2V34.7z"/>
	<g>
		<path d="M8,55.7v-7.3h1.8V54h1.7v1.6H8z"/>
		<path d="M12.1,52.7v-4.4h1.8v4.4c0,0.8,0.4,1.4,1.3,1.4c0.8,0,1.2-0.6,1.2-1.4v-4.4h1.8v4.4c0,1.8-1,3.1-3,3.1
			C13.1,55.8,12.1,54.6,12.1,52.7z"/>
		<path d="M21,51.4v4.3h-1.7v-7.3h1.8l2.7,4.4v-4.4h1.7v7.3h-1.7L21,51.4z"/>
		<path d="M30.8,53.9h-2.3l-0.6,1.7h-1.7l2.5-7.3h1.9l2.7,7.3h-1.9L30.8,53.9z M29,52.4h1.3l-0.6-1.8L29,52.4z"/>
		<path d="M36,50v5.6h-1.8V50H33v-1.6h4.2V50H36z"/>
		<path d="M38.2,55.7v-7.3h3.5V50H40v1.1h1.6v1.6H40V54h1.7v1.6H38.2z"/>
		<path d="M48.9,54.8c-0.6,0.6-1.4,0.9-2.4,0.9c-2.4,0-3.9-1.6-3.9-3.8c0-2.1,1.5-3.8,3.8-3.8c1.1,0,1.9,0.4,2.5,0.9l-1,1.3
			c-0.3-0.2-0.7-0.5-1.4-0.5c-1.3,0-2,0.9-2,2.1c0,1.2,0.8,2.1,2,2.1c0.6,0,1.1-0.3,1.4-0.5L48.9,54.8z"/>
		<path d="M55.8,55.7H54v-2.9h-2.5v2.9h-1.8v-7.3h1.8v2.7H54v-2.7h1.8V55.7z"/>
	</g>
</g>
</svg>
