<?xml version="1.0" encoding="UTF-8" standalone="no"?>
<svg
   xmlns:dc="http://purl.org/dc/elements/1.1/"
   xmlns:cc="http://creativecommons.org/ns#"
   xmlns:rdf="http://www.w3.org/1999/02/22-rdf-syntax-ns#"
   xmlns:svg="http://www.w3.org/2000/svg"
   xmlns="http://www.w3.org/2000/svg"
   xmlns:sodipodi="http://sodipodi.sourceforge.net/DTD/sodipodi-0.dtd"
   xmlns:inkscape="http://www.inkscape.org/namespaces/inkscape"
   width="850"
   height="362.98901"
   viewBox="0 0 849.99997 362.989"
   id="svg4231"
   version="1.1"
   inkscape:version="0.91 r13725"
   sodipodi:docname="spsr_42.svg">
  <metadata
     id="metadata4243">
    <rdf:RDF>
      <cc:Work
         rdf:about="">
        <dc:format>image/svg+xml</dc:format>
        <dc:type
           rdf:resource="http://purl.org/dc/dcmitype/StillImage" />
        <dc:title></dc:title>
      </cc:Work>
    </rdf:RDF>
  </metadata>
  <defs
     id="defs4241" />
  <sodipodi:namedview
     pagecolor="#ffffff"
     bordercolor="#666666"
     borderopacity="1"
     objecttolerance="10"
     gridtolerance="10"
     guidetolerance="10"
     inkscape:pageopacity="0"
     inkscape:pageshadow="2"
     inkscape:window-width="1920"
     inkscape:window-height="1151"
     id="namedview4239"
     showgrid="false"
     inkscape:zoom="0.94965562"
     inkscape:cx="408.68024"
     inkscape:cy="211.27822"
     inkscape:window-x="0"
     inkscape:window-y="25"
     inkscape:window-maximized="1"
     inkscape:current-layer="svg4231" />
  <g
     id="g4245"
     transform="translate(-72.59509,-3.671875e-6)">
    <path
       style="clip-rule:evenodd;fill:#50c3ee;fill-rule:evenodd"
       inkscape:connector-curvature="0"
       id="path4233"
       d="m 498.303,3.5099963 c 88.773,0 160.738,71.9639997 160.738,160.7380037 0,88.772 -71.964,160.738 -160.737,160.738 -88.773,0 -160.739,-71.966 -160.739,-160.738 0,-88.774004 71.965,-160.7400037 160.738,-160.7400037 z" />
    <path
       style="clip-rule:evenodd;fill:#08519f;fill-rule:evenodd"
       inkscape:connector-curvature="0"
       id="path4235"
       d="M 663.19,164.825 C 663.19,73.794996 589.368,-3.671875e-6 498.304,-3.671875e-6 444.02,-3.671875e-6 395.87,26.223996 365.823,66.686996 c -9.115,-20.32 -12.157,-35.358 -7.487,-42.34 4.732,-7.077 16.744,-4.963 33.658,4.542 -28.306,-17.929 -49.374,-25.1329997 -56.987,-17.527 -8.41,8.4 1.262,33.195 23.512,66.02 C 342.619,102.729 333.414,132.7 333.414,164.824 c 0,86.968 67.384,158.198 152.807,164.382 27.493,19.034 61.09,40.847 72.858,31.583 6.85,-5.394 3.587,-19.867 -7.51,-39.936 64.926,-22.144 111.62,-83.634 111.62,-156.03 z M 536.55,341.353 c -5.297,6.202 -32.93,-2.522 -50.27,-12.142 3.97,0.287 7.98,0.44 12.023,0.44 13.483,0 26.584,-1.63 39.128,-4.683 2.258,7.357 2.154,12.836 -0.88,16.386 z m 6.284,-34.986 c -14.067,-21.707 -34.985,-47.915 -60.7,-75.475 21.328,33.313 39.003,59.636 48.73,78.684 -10.478,2.345 -21.374,3.59 -32.56,3.59 -81.96,0 -148.398,-66.415 -148.398,-148.34 0,-26.427 6.92,-51.234 19.037,-72.724004 C 381.41,109.02 396.637,127.536 414,146.702 397.556,123.616 384,102.095 374.144,83.565996 c 26.513,-40.4 72.216,-67.084 124.16,-67.084 81.96,0 148.4,66.415 148.4,148.343004 -0.002,66.417 -43.67,122.635 -103.87,141.542 z" />
    <path
       style="clip-rule:evenodd;fill:#ffffff;fill-rule:evenodd"
       inkscape:connector-curvature="0"
       id="path4237"
       d="m 544.925,195.167 65.992,0 0,29.506 c 0,2.876 -2.332,5.206 -5.21,5.206 l -93.777,0 c -2.878,0 -5.21,-2.33 -5.21,-5.207 l 0,-72.9 c 0,-2.874 2.332,-5.205 5.21,-5.205 l 65.992,0 0,-17.357 -38.206,0 c 0,0 -33.492,-32.977004 -31.26,-32.977004 l 97.25,0 c 2.88,0 5.21,2.33 5.21,5.208004 l 0,72.898 c 0,3.72 -3.224,5.206 -5.954,5.206 l -60.038,0 c -0.96,0 -1.736,0.777 -1.736,1.735 l 0,12.15 c 0,0.96 0.778,1.737 1.737,1.737 z m -62.518,32.978 -31.26,0 0,-20.83 -72.937,0 c 0,0 -5.21,-1.735 -5.21,-8.677 0,-4.215 5.21,-8.68 5.21,-8.68 l 85.093,-85.046 c 0,0 9.18,-10.412004 12.157,-10.412004 2.977,0 6.947,2.478 6.947,5.205 l 0,74.634004 17.366,0 0,32.975 -17.366,0 0,20.83 z m -49.567,-45.128 23.518,0 0,-26.037 -23.518,0 0,26.037 z" />
  </g>
</svg>
