<?xml version="1.0" standalone="no"?>
<!DOCTYPE svg PUBLIC "-//W3C//DTD SVG 20010904//EN"
 "http://www.w3.org/TR/2001/REC-SVG-20010904/DTD/svg10.dtd">
<svg version="1.0" xmlns="http://www.w3.org/2000/svg"
 width="16.000000pt" height="16.000000pt" viewBox="0 0 16.000000 16.000000"
 preserveAspectRatio="xMidYMid meet">
<metadata>
Created by potrace 1.11, written by Peter Selinger 2001-2013
</metadata>
<g transform="translate(0.000000,16.000000) scale(0.003125,-0.003125)"
fill="#000000" stroke="none">
<path d="M2385 4509 c-144 -21 -261 -55 -402 -115 -190 -81 -304 -153 -443
-281 -226 -206 -400 -513 -486 -858 -6 -22 -29 -149 -39 -210 -8 -52 -8 -260
0 -350 18 -201 81 -400 200 -637 71 -141 94 -210 90 -273 -5 -62 -21 -92 -67
-126 -128 -94 -274 -96 -342 -5 -40 53 -46 83 -61 311 -12 187 -25 355 -31
390 -16 102 -65 186 -129 222 -41 23 -160 66 -182 66 -26 0 -12 13 42 40 74
36 133 92 162 152 21 46 23 60 18 175 -4 114 -18 199 -80 480 -16 73 -26 185
-21 229 8 68 43 116 101 142 77 34 119 13 201 -96 30 -41 62 -75 72 -76 9 0
24 -2 33 -4 46 -9 142 65 158 121 12 43 4 119 -17 168 -58 129 -195 192 -412
188 -204 -5 -406 -125 -482 -289 -52 -110 -49 -182 17 -528 3 -16 10 -52 15
-80 5 -27 12 -63 15 -80 37 -218 39 -248 15 -303 -25 -57 -68 -93 -145 -118
-75 -25 -77 -28 -69 -98 3 -34 7 -77 9 -96 5 -78 13 -86 98 -96 76 -9 150 -45
175 -85 33 -54 38 -96 46 -364 8 -259 16 -342 42 -435 31 -111 70 -160 221
-280 18 -14 19 -14 60 27 125 121 295 160 429 99 79 -36 118 -70 185 -160 117
-157 175 -193 294 -183 154 12 249 125 249 299 l0 76 25 -41 c36 -61 40 -147
10 -212 -12 -28 -34 -65 -47 -83 -72 -95 -265 -136 -390 -82 -52 23 -106 73
-157 150 -48 70 -131 149 -181 172 -127 55 -293 5 -385 -117 -70 -93 -81 -165
-36 -232 54 -81 181 -84 242 -6 11 14 29 37 41 51 l20 25 56 -79 c102 -146
194 -216 343 -266 60 -19 91 -23 210 -23 157 0 217 15 328 80 l58 35 72 -73
c158 -157 357 -200 537 -115 142 66 228 172 238 293 14 177 -64 315 -196 350
-110 29 -286 -24 -336 -100 -27 -41 -28 -104 -3 -150 37 -66 110 -94 182 -69
70 24 71 -5 2 -36 -137 -62 -308 91 -268 239 20 72 21 82 22 144 l1 58 26 -27
c42 -42 60 -44 137 -16 96 34 228 36 298 4 70 -31 150 -118 177 -189 25 -67
32 -167 18 -241 l-11 -53 37 -33 c87 -76 224 -137 353 -156 69 -9 214 -7 268
4 124 26 232 99 357 241 46 51 86 94 90 94 5 1 17 -19 29 -44 52 -111 196
-119 267 -14 33 47 25 114 -23 215 -62 129 -138 188 -240 187 -104 0 -194 -59
-332 -216 -47 -54 -103 -109 -124 -123 -100 -63 -252 -68 -375 -13 -73 33
-162 141 -179 220 -21 91 7 213 53 238 31 16 31 15 17 -34 -16 -53 -12 -164 7
-217 39 -104 167 -178 308 -178 79 0 129 27 207 112 137 148 201 204 270 238
61 31 77 34 153 35 100 0 157 -22 217 -86 20 -21 41 -39 46 -39 17 0 130 83
168 123 76 82 121 198 133 347 3 36 8 157 11 270 3 113 7 230 11 260 12 124
69 173 226 195 74 10 75 11 94 217 l5 47 -49 15 c-141 41 -202 118 -187 234 8
61 36 207 79 406 49 236 47 360 -11 474 -66 131 -217 217 -433 247 -91 12
-121 65 -81 144 23 45 26 88 8 112 -37 49 -151 67 -220 34 -100 -47 -156 -141
-149 -250 12 -176 121 -295 294 -320 89 -13 104 -16 143 -35 106 -51 113 -130
46 -474 -33 -166 -42 -237 -43 -327 -1 -138 30 -204 127 -267 33 -21 75 -45
93 -52 l34 -13 -81 -24 c-123 -35 -183 -79 -217 -162 -22 -53 -43 -151 -49
-232 -3 -41 -7 -94 -10 -119 -2 -25 -7 -85 -10 -135 -7 -120 -15 -204 -22
-240 -9 -49 -44 -103 -86 -132 -53 -37 -136 -38 -217 -3 -110 48 -150 95 -143
170 10 120 20 152 110 339 119 249 165 454 164 735 -1 290 -61 550 -182 783
-283 547 -783 860 -1372 860 -62 0 -134 -3 -162 -8z m-392 -1395 c71 -24 157
-111 185 -189 34 -95 36 -112 15 -117 -10 -2 -35 -4 -57 -4 -38 1 -39 2 -51
48 -28 110 -98 167 -206 168 -139 0 -223 -87 -229 -236 0 -6 -24 -12 -56 -13
l-56 -2 5 53 c8 77 23 120 60 174 86 126 231 170 390 118z m1319 0 c63 -20
122 -65 155 -116 49 -79 82 -226 51 -229 -33 -3 -90 0 -95 4 -2 3 -7 20 -9 39
-20 135 -85 197 -213 203 -115 5 -186 -53 -220 -181 l-11 -41 -47 4 c-27 3
-51 8 -55 12 -12 10 17 110 45 160 54 95 129 149 221 158 28 3 52 7 54 8 6 6
79 -7 124 -21z m-470 -709 c-4 -44 -50 -133 -86 -167 -121 -116 -304 -111
-418 12 -47 51 -87 142 -75 172 4 12 52 14 294 14 l288 -1 -3 -30z"/>
</g>
</svg>
