<?xml version="1.0" encoding="UTF-8" standalone="no"?>
<!-- Created with Inkscape (http://www.inkscape.org/) -->

<svg
   xmlns:dc="http://purl.org/dc/elements/1.1/"
   xmlns:cc="http://creativecommons.org/ns#"
   xmlns:rdf="http://www.w3.org/1999/02/22-rdf-syntax-ns#"
   xmlns:svg="http://www.w3.org/2000/svg"
   xmlns="http://www.w3.org/2000/svg"
   xmlns:sodipodi="http://sodipodi.sourceforge.net/DTD/sodipodi-0.dtd"
   xmlns:inkscape="http://www.inkscape.org/namespaces/inkscape"
   width="153.84824mm"
   height="34.025532mm"
   viewBox="0 0 545.13155 120.56291"
   id="svg7970"
   version="1.1"
   inkscape:version="0.91 r13725"
   sodipodi:docname="spsr_helloprint.svg">
  <defs
     id="defs7972" />
  <sodipodi:namedview
     id="base"
     pagecolor="#ffffff"
     bordercolor="#666666"
     borderopacity="1.0"
     inkscape:pageopacity="0.0"
     inkscape:pageshadow="2"
     inkscape:zoom="1.979899"
     inkscape:cx="262.801"
     inkscape:cy="109.56599"
     inkscape:document-units="px"
     inkscape:current-layer="layer1"
     showgrid="false"
     fit-margin-top="0"
     fit-margin-left="0"
     fit-margin-right="0"
     fit-margin-bottom="0"
     inkscape:window-width="1920"
     inkscape:window-height="1151"
     inkscape:window-x="0"
     inkscape:window-y="25"
     inkscape:window-maximized="1" />
  <metadata
     id="metadata7975">
    <rdf:RDF>
      <cc:Work
         rdf:about="">
        <dc:format>image/svg+xml</dc:format>
        <dc:type
           rdf:resource="http://purl.org/dc/dcmitype/StillImage" />
        <dc:title></dc:title>
      </cc:Work>
    </rdf:RDF>
  </metadata>
  <g
     inkscape:label="Layer 1"
     inkscape:groupmode="layer"
     id="layer1"
     transform="translate(-125.72304,-521.3653)">
    <path
       style="fill:#000000"
       d="m 408.62325,640.71021 c -9.81775,-1.05829 -17.10023,-10.49218 -20.47661,-26.52585 -1.47932,-7.02499 -2.00572,-17.28474 -1.43062,-27.88366 0.63479,-11.69913 1.88254,-17.94295 5.33957,-26.71927 7.91749,-20.10007 20.62886,-31.07407 38.11019,-32.90133 3.63426,-0.37988 10.8998,-0.15248 14.31254,0.44795 11.37133,2.00067 19.61301,7.74485 23.97896,16.71262 2.16492,4.44683 2.96404,8.13061 2.78096,12.82002 -0.19599,5.02076 -1.19782,8.96296 -3.35224,13.19098 -4.80659,9.43296 -13.98077,15.51305 -28.19022,18.68276 l -2.68156,0.59818 -0.14477,5.72361 c -0.41166,16.27305 -1.65312,23.59099 -5.28357,31.14479 -3.03853,6.32215 -6.59745,10.26579 -11.49099,12.73309 -3.11506,1.5706 -7.77952,2.3741 -11.47164,1.97611 z m 5.93436,-13.31559 c 3.03081,-1.48096 5.36292,-6.19017 6.96155,-14.05739 1.05478,-5.19078 1.75216,-13.7461 1.7556,-21.53716 l 0.002,-2.72196 -2.10942,-0.82713 c -4.80077,-1.88246 -8.39098,-4.04062 -9.11328,-5.47823 -0.68132,-1.35599 -0.97985,-3.074 -0.98479,-5.66694 -0.004,-2.04669 0.071,-2.64154 0.42216,-3.35343 0.62441,-1.26572 1.1943,-1.25073 3.80583,0.10017 1.93391,1.00038 7.10239,3.14127 7.21885,2.99019 0.026,-0.0338 0.1617,-1.71654 0.3014,-3.73941 0.47312,-6.84993 1.31824,-10.93937 2.96258,-14.3354 1.26067,-2.60366 3.20044,-4.72006 5.2517,-5.72988 1.38379,-0.68124 1.51972,-0.70436 4.1397,-0.70436 2.45778,0 2.80887,0.0501 3.78704,0.54087 1.60754,0.80648 1.95836,1.55775 1.9195,4.11066 -0.0256,1.68092 -0.22927,2.84355 -1.11818,6.38234 -1.42995,5.69265 -2.18293,9.31345 -2.3515,11.30746 l -0.13733,1.62479 1.06194,-0.14733 c 3.73611,-0.51835 8.05236,-2.05031 10.81098,-3.83709 5.64088,-3.65367 8.76845,-9.21276 8.80733,-15.6547 0.0279,-4.61223 -1.17474,-7.81318 -4.10984,-10.93939 -4.48735,-4.77948 -11.54011,-7.42723 -19.74715,-7.41346 -3.73551,0.006 -5.75494,0.35696 -9.13957,1.58717 -11.06334,4.02114 -19.12642,17.32662 -22.43981,37.02962 -2.51159,14.93509 -2.23468,32.09372 0.67153,41.61229 1.6002,5.24105 3.87962,8.39067 6.75287,9.33093 1.24721,0.40814 3.23141,0.20485 4.6191,-0.47323 z m -268.7285,7.04684 c -1.43083,-0.45352 -2.70196,-2.34837 -3.16948,-4.7247 -0.37477,-1.90496 -0.15387,-6.80715 0.40144,-8.90816 0.23587,-0.89245 1.08464,-3.27771 1.88614,-5.30059 2.23177,-5.63263 8.75613,-23.10078 8.75613,-23.44342 0,-0.23152 -0.19256,-0.27023 -0.81133,-0.16312 -0.44621,0.0772 -2.61242,0.20168 -4.81379,0.27654 -5.81677,0.19779 -7.9156,-0.28255 -9.76473,-2.23474 -0.94574,-0.99847 -3.32509,-4.52224 -3.7659,-5.57723 -0.97191,-2.3261 0.30041,-3.84176 3.84544,-4.58092 0.93348,-0.19464 5.0968,-0.47437 10.8234,-0.7272 5.11851,-0.226 9.38196,-0.48993 9.47432,-0.58654 0.41754,-0.43672 5.95894,-16.51832 7.21732,-20.94529 2.38455,-8.38874 2.0857,-13.68325 -0.94759,-16.78843 -1.83045,-1.87385 -4.52441,-2.37313 -8.12006,-1.50493 -4.33735,1.04729 -9.10825,3.64875 -17.09169,9.31971 -3.52698,2.50536 -5.01453,3.23997 -6.56125,3.24019 -0.99505,1.5e-4 -1.24214,-0.0895 -1.80889,-0.65623 -0.62601,-0.62602 -0.65251,-0.72533 -0.57228,-2.14512 0.16704,-2.95611 3.26467,-8.06305 7.42797,-12.24614 4.91621,-4.93958 12.28161,-8.75863 19.13105,-9.91965 2.83492,-0.48054 7.37151,-0.45171 9.86375,0.0627 8.36044,1.72557 13.71201,7.83717 14.29826,16.32889 0.41026,5.94254 -1.73161,17.13128 -6.04748,31.59097 l -0.96084,3.21915 2.19458,-0.1329 c 1.207,-0.0731 7.20848,-0.34033 13.33661,-0.59385 6.12812,-0.25352 11.20365,-0.52273 11.27895,-0.59823 0.0753,-0.0755 1.02393,-2.96507 2.10811,-6.42128 3.48847,-11.12091 8.41432,-25.51367 9.9549,-29.08709 1.92875,-4.47377 4.18359,-7.46818 6.46862,-8.59028 1.10374,-0.54201 1.46673,-0.6068 3.39921,-0.6068 2.021,0 2.24188,0.0443 3.35343,0.67229 1.68899,0.95427 2.4293,2.41018 2.55423,5.02323 0.13473,2.81796 -0.32681,4.70725 -2.62547,10.7471 -2.48623,6.53275 -4.62315,12.64961 -7.29362,20.87782 -1.10064,3.3913 -2.05144,6.30161 -2.11289,6.46737 -0.0946,0.25534 0.56284,0.27187 4.30441,0.10818 6.95054,-0.30409 9.46184,-0.25303 10.41058,0.21168 1.65035,0.80837 2.48928,4.03857 1.47914,5.69526 -0.98588,1.61688 -2.05824,1.89795 -11.04339,2.89441 -4.22425,0.46848 -7.78853,0.89164 -7.92064,0.94036 -0.46076,0.16993 -3.82111,12.95908 -4.63545,17.64202 -1.90528,10.95664 -0.17721,15.44036 6.13968,15.93034 4.06834,0.31557 10.26495,-2.87578 16.21508,-8.35101 0.80805,-0.74355 1.50033,-1.31531 1.5384,-1.27058 0.0381,0.0448 0.2413,0.81151 0.45162,1.70396 0.50257,2.13258 1.46473,4.63857 2.2661,5.9022 l 0.64417,1.01574 -2.42751,2.0186 c -8.11528,6.7483 -14.46351,10.1225 -21.25,11.29476 -2.86048,0.49411 -6.50886,0.50989 -8.29501,0.0359 -6.96004,-1.84703 -11.15358,-8.28656 -11.64856,-17.88733 -0.1555,-3.01607 0.13288,-5.75488 1.13901,-10.81752 0.59137,-2.97559 2.77091,-11.91455 3.6872,-15.12232 0.13228,-0.4631 0.0924,-0.50563 -0.37221,-0.39696 -0.28619,0.0669 -6.4105,0.72272 -13.60955,1.45726 -7.19906,0.73455 -13.223,1.40285 -13.38653,1.48512 -0.31804,0.16001 -0.37762,0.32387 -4.96699,13.65865 -6.14154,17.84479 -7.44302,21.22451 -9.13768,23.72893 -2.13894,3.16099 -4.28452,5.19897 -6.584,6.25379 -1.2229,0.56097 -3.36676,0.82269 -4.30444,0.52548 z m 109.96179,-7.58921 c -4.80914,-0.41852 -8.5898,-2.27284 -11.98713,-5.87937 -3.95021,-4.19345 -5.80451,-8.9298 -6.07817,-15.52516 -0.18223,-4.39164 0.65599,-8.99127 2.74015,-15.03636 3.34895,-9.71358 9.4607,-15.9955 17.05731,-17.53222 2.69288,-0.54475 6.73158,-0.36898 8.85705,0.38548 3.87947,1.37704 7.09582,4.58957 8.51754,8.5074 0.63444,1.74834 0.77201,4.87834 0.30261,6.88533 -1.00712,4.30605 -4.90772,10.41926 -8.59228,13.4662 -3.15588,2.60976 -7.49745,5.07639 -12.13943,6.89693 -1.16019,0.45501 -2.10942,0.91014 -2.10942,1.01141 0,0.39663 1.06656,1.84227 1.94409,2.63506 2.50791,2.26574 6.25978,2.47477 11.53527,0.64263 4.3514,-1.5112 9.31775,-4.17858 14.23633,-7.64619 0.0849,-0.0599 5e-5,-1.17949 -0.1886,-2.48804 -0.25235,-1.75027 -0.34555,-4.15203 -0.35259,-9.08603 -0.008,-5.80215 0.0571,-7.20299 0.48442,-10.38482 1.41562,-10.54025 4.30315,-21.50682 8.38625,-31.85023 1.73684,-4.39981 3.05034,-7.20417 5.01699,-10.7114 4.27454,-7.62304 8.49329,-12.9908 12.06528,-15.35137 3.52282,-2.32806 6.29441,-3.30397 9.39783,-3.30906 1.8693,-0.003 2.15861,0.0538 3.19638,0.62794 2.24672,1.24305 3.90953,3.59841 4.49698,6.36998 0.40127,1.8931 0.39328,7.25171 -0.0154,10.30501 -0.17517,1.30891 -0.31795,2.4772 -0.31725,2.5962 0,0.11899 0.38756,-0.49238 0.85975,-1.35859 4.85304,-8.90281 11.15141,-15.58026 16.85814,-17.87277 1.50495,-0.60456 1.85533,-0.65963 4.23683,-0.66597 2.40346,-0.007 2.67753,0.036 3.6917,0.57124 1.9512,1.02978 3.33084,2.97297 4.13189,5.81963 0.567,2.01485 0.5652,9.52821 -0.003,12.74922 -1.24765,7.07224 -2.7515,11.54281 -6.95029,20.66148 -3.71233,8.06221 -7.60925,15.4876 -11.70748,22.30802 -4.47468,7.44693 -8.03356,14.91943 -9.0911,19.08834 -0.60728,2.39394 -0.63298,3.16856 -0.17826,5.37002 0.59809,2.89548 1.87737,5.04954 2.99893,5.04954 1.65306,0 5.09366,-1.43468 8.50841,-3.54789 1.70473,-1.05498 1.9861,-1.30918 1.89506,-1.71215 -0.27715,-1.2268 -0.54242,-3.45578 -0.67155,-5.64316 -0.67214,-11.38392 5.42551,-23.17965 14.29892,-27.66088 1.70289,-0.85999 4.57518,-1.80008 6.81504,-2.23055 3.00257,-0.57707 8.23891,-0.53758 11.16457,0.0842 4.36511,0.92769 8.47741,2.64398 12.1425,5.06774 1.86327,1.23221 2.02906,1.39772 1.92439,1.9211 -0.15223,0.76109 -0.56286,5.75584 -0.62573,7.6108 l -0.05,1.47388 -1.51445,-1.21396 c -2.20066,-1.76401 -5.85866,-4.22184 -6.2834,-4.22184 -0.42411,0 -0.43411,-0.0421 0.66729,2.8058 2.17958,5.63558 2.7875,12.63453 1.60257,18.45043 -2.27322,11.15742 -9.39084,19.5007 -18.14297,21.26716 -2.771,0.55928 -7.11395,0.36284 -9.42856,-0.42646 -2.79351,-0.95261 -4.90525,-2.43774 -6.76388,-4.75688 l -0.67788,-0.8458 -3.63607,1.6862 c -7.51064,3.48299 -11.571,4.74599 -14.86209,4.62291 -1.73419,-0.0649 -2.1719,-0.1668 -3.4915,-0.81325 -1.80733,-0.88537 -3.73621,-2.7612 -4.91253,-4.77741 -0.44415,-0.76127 -0.8377,-1.47459 -0.87454,-1.58514 -0.0369,-0.11054 -0.94332,0.29302 -2.01438,0.8968 -6.01642,3.39157 -13.59966,5.99937 -18.1791,6.25162 -2.0206,0.1113 -2.27675,0.079 -3.35344,-0.42296 -2.32135,-1.08221 -4.34982,-3.39897 -6.26893,-7.1599 -0.61735,-1.20982 -1.1508,-2.23335 -1.18547,-2.2745 -0.0346,-0.0411 -1.01917,0.60293 -2.18776,1.43129 -8.76638,6.21401 -17.48102,9.14472 -25.1959,8.47332 z m 103.8319,-11.12372 c 3.21791,-1.49811 5.66476,-6.21324 7.01916,-13.52607 0.66024,-3.56487 0.65276,-9.31384 -0.0153,-11.7911 -0.99237,-3.67957 -2.78586,-6.23891 -4.79346,-6.8404 -2.96606,-0.88865 -7.19519,2.11354 -9.6616,6.85861 -1.94785,3.74743 -2.82093,7.41976 -3.04074,12.79002 -0.29011,7.08714 1.54893,11.28028 5.56327,12.68478 1.51866,0.53132 3.56669,0.45826 4.92874,-0.17584 z m -60.13742,-1.96482 c 1.88444,-0.62903 5.18259,-2.31776 7.8575,-4.02323 3.08653,-1.9679 2.80737,-1.56436 2.45468,-3.54831 -1.16493,-6.55291 -0.77089,-16.22556 1.09677,-26.92285 0.48619,-2.78471 2.28939,-11.27165 2.60794,-12.27448 0.0667,-0.21011 -0.70247,1.18613 -1.70934,3.10277 -1.00687,1.91663 -3.71101,6.73584 -6.00918,10.70935 -9.8164,16.97239 -11.51069,20.78896 -11.51499,25.93886 -0.003,3.00209 1.03171,6.07651 2.40839,7.1594 0.67335,0.52965 0.81968,0.52228 2.80823,-0.14151 z m -44.96274,-14.29789 c 4.3731,-1.45655 8.52415,-5.18752 10.50489,-9.44183 1.31117,-2.81618 0.0663,-6.24471 -2.48987,-6.85795 -4.23473,-1.01589 -9.2262,3.64828 -11.13474,10.40463 -0.56112,1.9864 -1.1334,6.00135 -0.93071,6.52954 0.15349,0.39999 1.64725,0.16603 4.05043,-0.63439 z m 39.76796,-17.43803 c 1.03944,-1.51874 3.61358,-6.38431 5.43286,-10.26909 4.80606,-10.26258 8.54541,-20.45051 10.30603,-28.07903 0.7604,-3.29465 0.89268,-7.62117 0.25266,-8.26341 -0.36745,-0.36874 -0.42372,-0.36338 -1.3511,0.12859 -2.53001,1.34217 -6.15528,7.28853 -8.64483,14.17972 -2.12849,5.89175 -4.51923,15.82425 -6.0699,25.21773 -0.54025,3.27272 -0.94534,8.00498 -0.68523,8.00498 0.0716,0 0.41338,-0.41378 0.75951,-0.91949 z m 30.69031,-1.74124 c 2.74545,-4.89159 7.48814,-14.99278 10.17849,-21.6787 2.19156,-5.44626 4.70258,-14.6683 5.27236,-19.36336 0.52768,-4.34824 -0.68281,-5.23183 -3.3139,-2.41898 -3.73848,3.99673 -7.83012,14.45949 -11.07024,28.30775 -1.44832,6.19002 -2.9419,14.86875 -2.9419,17.09435 0,0.66751 0.0448,0.73543 0.32957,0.49914 0.18125,-0.15043 0.87678,-1.24852 1.54562,-2.4402 z m 250.60576,46.59389 c -2.96637,-0.9056 -4.87521,-3.57817 -5.88195,-8.23535 -0.45386,-2.09963 -0.49019,-2.78783 -0.4795,-9.08671 0.01,-5.86371 0.079,-7.28316 0.49444,-10.16848 0.80035,-5.55816 0.77357,-5.1924 0.38002,-5.1924 -0.24802,0 -2.53342,4.36209 -7.79675,14.88146 -7.90339,15.79587 -8.09298,16.11722 -10.12725,17.1668 -1.41544,0.73027 -4.14491,0.83028 -5.44769,0.19962 -1.89676,-0.91821 -3.09684,-2.87759 -3.75761,-6.13507 l -0.37714,-1.85929 -2.39851,1.5574 c -6.45523,4.19154 -12.67383,6.52811 -18.08551,6.79543 -4.02326,0.19874 -6.25249,-0.43826 -8.14029,-2.32608 -1.0112,-1.0112 -2.00174,-2.93519 -2.44595,-4.75092 -0.33039,-1.35053 -0.39798,-6.34454 -0.12064,-8.91579 l 0.1799,-1.66804 -1.72196,0.62844 c -2.60196,0.9496 -5.19023,1.37098 -7.6164,1.24002 -2.5038,-0.13516 -4.12611,-0.66992 -6.09552,-2.00922 -1.65418,-1.12493 -2.63571,-2.23943 -3.71573,-4.21916 -1.11799,-2.04932 -1.59381,-3.68305 -2.31417,-7.94579 -0.82449,-4.87888 -0.80595,-4.80332 -1.17871,-4.80332 -0.47542,0 -0.70976,0.571 -3.64029,8.87037 -7.80373,22.10041 -8.45611,23.62679 -10.83498,25.35061 -1.91935,1.39084 -5.68025,0.43516 -7.20075,-1.82977 -2.64399,-3.93858 -2.68555,-10.40634 -0.16431,-25.57617 1.49611,-9.00182 3.86395,-19.68747 5.07432,-22.89945 0.62346,-1.65446 1.94777,-3.04253 3.22997,-3.38545 0.53873,-0.14409 1.85393,-0.22467 2.99378,-0.18341 1.8972,0.0686 2.06652,0.11259 2.53542,0.65797 0.71135,0.82744 0.84069,2.76925 0.55907,8.39413 -0.31434,6.27774 -0.30573,8.22163 0.0363,8.22011 0.14875,-6.5e-4 1.25854,-2.02084 2.46623,-4.48927 2.55431,-5.22094 3.91051,-7.35619 6.01729,-9.47399 1.74768,-1.75681 3.01242,-2.55269 4.79384,-3.01669 3.73764,-0.97354 6.79311,0.18703 7.57519,2.87729 0.47019,1.61741 0.28697,5.04066 -0.45959,8.58693 -1.3209,6.27454 -1.57387,9.62512 -0.87384,11.57394 1.01159,2.81612 3.90076,3.68334 7.9033,2.37228 2.2201,-0.72721 5.41755,-2.365 5.63421,-2.88593 0.10498,-0.25251 0.72338,-2.55231 1.37416,-5.11065 1.39451,-5.48199 3.17994,-11.48594 3.82162,-12.85102 1.3459,-2.86326 5.60243,-4.87649 9.74416,-4.60874 2.80089,0.18108 3.65711,0.97809 3.65711,3.40428 0,1.50692 -0.19446,2.31991 -2.7403,11.45732 -3.93323,14.11689 -5.08939,19.48492 -5.10286,23.69232 -0.018,5.61354 2.18382,6.58383 7.7147,3.39972 2.25548,-1.29846 6.26134,-4.32032 8.41894,-6.35089 l 1.69179,-1.59219 0.52517,-5.51693 c 0.92146,-9.68014 2.0206,-17.65356 2.93451,-21.28738 0.77867,-3.09604 2.27789,-5.53096 4.04212,-6.56486 0.86002,-0.50401 1.29618,-0.59823 3.10545,-0.6709 1.80916,-0.0726 2.23748,-0.0204 3.04851,0.37225 2.03359,0.98444 2.66189,2.88901 2.47075,7.48942 -0.0692,1.6659 -0.37189,4.53795 -0.6726,6.38234 -0.75201,4.6125 -1.39463,9.76981 -1.26084,10.1185 0.0611,0.15906 0.30386,0.25971 0.53964,0.22367 0.32954,-0.0503 0.82347,-0.96597 2.1362,-3.95983 2.15098,-4.90562 5.45512,-11.55537 6.93384,-13.9546 1.53102,-2.48416 3.95408,-4.8731 5.91527,-5.832 1.25443,-0.61334 1.82181,-0.75673 3.30456,-0.83508 3.01426,-0.15929 4.8402,0.89558 6.01221,3.47335 0.56028,1.23233 0.62309,1.61867 0.69494,4.27547 0.0658,2.43125 -0.0147,3.44648 -0.48075,6.05782 -2.87393,16.10674 -3.42243,23.80795 -1.88409,26.45343 0.52839,0.90868 2.00442,1.53887 3.25692,1.39053 2.04776,-0.24253 4.36167,-1.60859 11.34096,-6.69528 l 3.85495,-2.80961 -0.11893,-0.78595 c -1.1898,-7.86356 -1.32178,-18.6606 -0.3214,-26.29344 0.16173,-1.23414 0.15751,-1.75 -0.0151,-1.85673 -0.13152,-0.0813 -1.18474,-0.2691 -2.34048,-0.41738 -4.59031,-0.58894 -9.56539,-1.52507 -10.41883,-1.96045 -1.13487,-0.57898 -1.93601,-1.80183 -2.10274,-3.20965 -0.12442,-1.05041 -0.0924,-1.14715 0.6125,-1.85207 1.34479,-1.34478 2.25869,-1.49672 9.61556,-1.59855 l 6.5147,-0.0902 0.38677,-1.87434 c 0.65197,-3.15961 2.42003,-9.57078 3.68131,-13.34875 3.96423,-11.87426 8.92021,-19.73004 14.05696,-22.28185 1.70134,-0.84518 1.77131,-0.85981 4.11066,-0.85981 2.1326,0 2.50914,0.0606 3.62443,0.58326 1.53443,0.71907 3.40149,2.45292 4.36454,4.05312 1.62194,2.69498 2.36483,5.92388 2.34297,10.18362 -0.0368,7.1728 -2.10022,13.03715 -7.82429,22.23703 -0.94156,1.5133 -1.69623,2.76673 -1.67708,2.78542 0.0192,0.0186 3.77791,0.1472 8.35279,0.28561 4.57488,0.1384 8.49253,0.34504 8.70587,0.45923 0.75715,0.40521 1.12178,1.51061 1.20609,3.65637 0.0716,1.81938 0.0233,2.16653 -0.42056,3.02396 -0.29358,0.56727 -0.8151,1.14997 -1.25855,1.40628 -0.7291,0.42139 -1.16896,0.43993 -11.84506,0.4992 l -11.08783,0.0615 -2.30809,3.07552 c -1.26944,1.69154 -2.68381,3.53027 -3.14303,4.08609 l -0.83496,1.01057 -0.32156,3.85731 c -0.47292,5.67272 -0.64438,13.64076 -0.34193,15.88917 0.53454,3.97373 1.49465,6.4284 3.06742,7.84246 1.1964,1.07566 2.22368,1.43621 4.09212,1.43621 1.70289,0 3.44112,-0.44822 5.8192,-1.50055 8.35314,-3.69635 9.53768,-4.12457 11.40955,-4.12457 1.3641,0 1.8782,0.3827 2.23363,1.66267 0.32436,1.16809 0.28622,3.19658 -0.0765,4.06451 -0.7225,1.72916 -4.02067,4.39774 -9.31958,7.54051 -5.15467,3.05724 -9.09074,4.47305 -12.43543,4.47305 -5.80771,0 -10.15165,-3.42436 -13.09731,-10.32465 -0.0113,-0.0264 -1.37813,0.68208 -3.03745,1.57441 -6.98843,3.75812 -14.69652,7.35235 -18.01762,8.4015 -1.81107,0.57211 -4.03656,0.72654 -5.22812,0.36278 z m 39.39147,-60.53806 c 1.68307,-2.63987 7.26287,-14.38244 8.28145,-17.42817 1.12315,-3.35847 1.28193,-6.08948 0.42158,-7.2519 -0.53853,-0.7276 -1.9278,-1.24203 -2.77799,-1.02864 -2.01879,0.50668 -4.42508,5.3066 -6.83499,13.634 -1.32752,4.58719 -3.40468,12.84197 -3.26626,12.98038 0.0671,0.0671 0.88676,0.12199 1.8215,0.12199 l 1.69949,0 0.65522,-1.02766 z m -86.12316,-0.72543 c -3.98254,-0.59623 -6.41396,-3.01704 -6.95555,-6.92521 -0.77688,-5.60607 2.66275,-9.7296 8.8098,-10.56143 3.37196,-0.45629 7.65066,0.63035 9.34303,2.37281 1.39276,1.43398 1.67558,2.36374 1.67558,5.50853 0,2.71414 -0.0241,2.86357 -0.69084,4.27091 -1.16957,2.46896 -3.20932,4.14759 -6.07185,4.99688 -1.49342,0.44308 -4.3507,0.60091 -6.11017,0.33751 z m 117.26194,-10.57888 0,-5.19242 -2.16351,0 -2.1635,0 0,-0.97357 0,-0.97357 5.30058,0 5.30059,0 0,0.97357 0,0.97357 -2.05533,0 -2.05533,0 0,5.19242 0,5.19241 -1.08175,0 -1.08175,0 0,-5.19241 z m 7.35621,4.38109 c 1.8e-4,-0.44622 0.19475,-3.14789 0.4324,-6.00372 0.23766,-2.85583 0.43223,-5.26543 0.43241,-5.35468 1.6e-4,-0.0892 0.42923,-0.16225 0.95347,-0.16225 l 0.9532,0 0.62975,1.35219 c 0.34638,0.7437 1.10843,2.44002 1.69348,3.76961 l 1.06371,2.41742 0.38889,-1.01115 c 0.21391,-0.55613 0.94943,-2.22812 1.63455,-3.71553 l 1.24564,-2.70438 1.01939,-0.0659 c 0.93893,-0.0608 1.01948,-0.0266 1.02036,0.4327 0,0.27425 0.19482,2.93258 0.43173,5.9074 0.23691,2.97482 0.43119,5.53046 0.43173,5.6792 0,0.18043 -0.3591,0.27044 -1.08079,0.27044 l -1.08174,0 -0.019,-0.81132 c -0.0104,-0.44622 -0.13635,-2.223 -0.2797,-3.94839 l -0.26062,-3.13708 -0.69645,1.51445 c -0.38305,0.83295 -0.96302,2.12032 -1.28885,2.86082 -0.58763,1.33551 -0.59961,1.34643 -1.48533,1.35219 l -0.89292,0.006 -1.25168,-2.81343 c -0.68842,-1.54738 -1.27679,-2.78833 -1.30746,-2.75764 -0.0307,0.0307 -0.16345,1.4671 -0.29506,3.19204 -0.366,4.79695 -0.28606,4.54253 -1.42759,4.54253 l -0.96378,0 0,-0.81131 z"
       id="path8529"
       inkscape:connector-curvature="0" />
  </g>
</svg>
