<?xml version="1.0" encoding="UTF-8" standalone="no"?>
<!-- Generator: Adobe Illustrator 16.0.0, SVG Export Plug-In . SVG Version: 6.00 Build 0)  -->

<svg
   xmlns:dc="http://purl.org/dc/elements/1.1/"
   xmlns:cc="http://creativecommons.org/ns#"
   xmlns:rdf="http://www.w3.org/1999/02/22-rdf-syntax-ns#"
   xmlns:svg="http://www.w3.org/2000/svg"
   xmlns="http://www.w3.org/2000/svg"
   xmlns:sodipodi="http://sodipodi.sourceforge.net/DTD/sodipodi-0.dtd"
   xmlns:inkscape="http://www.inkscape.org/namespaces/inkscape"
   version="1.1"
   x="0px"
   y="0px"
   width="841.9px"
   height="406.4px"
   viewBox="0 0 841.9 406.4"
   style="enable-background:new 0 0 841.9 406.4;"
   xml:space="preserve"
   id="svg4295"
   inkscape:version="0.91 r13725"
   sodipodi:docname="spsr_burst.svg"><metadata
     id="metadata4348"><rdf:RDF><cc:Work
         rdf:about=""><dc:format>image/svg+xml</dc:format><dc:type
           rdf:resource="http://purl.org/dc/dcmitype/StillImage" /></cc:Work></rdf:RDF></metadata><defs
     id="defs4346" /><sodipodi:namedview
     pagecolor="#ffffff"
     bordercolor="#666666"
     borderopacity="1"
     objecttolerance="10"
     gridtolerance="10"
     guidetolerance="10"
     inkscape:pageopacity="0"
     inkscape:pageshadow="2"
     inkscape:window-width="1920"
     inkscape:window-height="1031"
     id="namedview4344"
     showgrid="false"
     inkscape:zoom="0.37890485"
     inkscape:cx="420.95001"
     inkscape:cy="203.2"
     inkscape:window-x="0"
     inkscape:window-y="25"
     inkscape:window-maximized="1"
     inkscape:current-layer="svg4295" /><style
     type="text/css"
     id="style4297"><![CDATA[
	.st0{fill:#ED1C24;}
	.st1{fill:#FFFFFF;}
	.st2{display:inline;fill:#00AAFF;}
	.st3{display:none;}
	.st4{display:inline;fill:#E2001A;}
]]></style><g
     id="Laag_1"
     transform="matrix(0.75322581,0,0,0.75322581,103.8796,50.144516)"><g
       id="g4300"><rect
         class="st0"
         width="841.90002"
         height="406.39999"
         id="rect4302"
         x="0"
         y="0"
         style="fill:#ed1c24" /><g
         id="g4304"><path
           class="st1"
           d="m 120.1,91.4 36.2,0 0,62.8 c 10.8,-7.3 22.9,-10.9 36.2,-10.9 40.8,0 61.1,22.9 61.1,68.8 0,49.7 -23.3,74.5 -70,74.5 -19.6,0 -40.8,-2 -63.4,-5.9 l 0,-189.3 z m 36.1,162 c 8.3,2.6 17.9,4 28.8,4 21.8,0 32.7,-15.4 32.7,-46.3 0,-25.2 -9.4,-37.8 -28.2,-37.8 -12.2,0 -23.3,2.5 -33.3,7.4 l 0,72.7 z"
           id="path4306"
           inkscape:connector-curvature="0"
           style="fill:#ffffff" /><path
           class="st1"
           d="m 365.5,270.9 c -15.3,10.4 -31.7,15.6 -48.8,15.6 -29.3,0 -43.9,-17.3 -43.9,-52 l 0,-91.3 36.2,0 0,90.3 c 0,15.8 6.9,23.7 20.7,23.7 11.7,0 23.7,-4.7 35.9,-14.1 l 0,-100 36.2,0 0,143.3 -36.3,0"
           id="path4308"
           inkscape:connector-curvature="0"
           style="fill:#ffffff" /><path
           class="st1"
           d="m 461.8,158.3 c 11.5,-10 23.6,-15.1 36.4,-15.1 l 0,29.2 c -13.5,0 -25.5,5.6 -36.2,16.8 l 0,97.3 -36.2,0 0,-143.2 36,0"
           id="path4310"
           inkscape:connector-curvature="0"
           style="fill:#ffffff" /><path
           class="st1"
           d="m 518.6,279.7 0,-30 c 15.9,6.4 34.3,9.6 55.1,9.6 15.6,0 23.3,-5 23.3,-15 0,-9.5 -5.2,-14.3 -15.7,-14.3 l -25.9,0 c -29.1,0 -43.7,-14.3 -43.7,-43 0,-30 21.2,-45 63.7,-45 18,0 35,2.7 50.9,8.2 l 0,30 c -15.9,-6.4 -33.2,-9.6 -51.9,-9.6 -19.6,0 -29.3,5 -29.3,15 0,9.6 5.7,14.3 17.1,14.3 l 23.2,0 c 31.8,0 47.8,14.3 47.8,43 0,30 -20.3,45 -60.9,45 -19.8,0 -37.8,-2.7 -53.7,-8.2 z"
           id="path4312"
           inkscape:connector-curvature="0"
           style="fill:#ffffff" /><path
           class="st1"
           d="m 653.6,120.1 36.1,0 0,23.2 32.1,0 0,28.7 -32.1,0 0,65.9 c 0,13.4 5.8,20.1 17.3,20.1 l 14.7,0 0,28.7 -32.2,0 c -24,0 -36,-12.9 -36,-38.6 l 0,-128 z"
           id="path4314"
           inkscape:connector-curvature="0"
           style="fill:#ffffff" /></g></g></g><g
     id="inverted"
     class="st3"><path
       class="st4"
       d="M205.8,230.4h25.1V274c7.5-5.1,15.9-7.6,25.1-7.6c28.3,0,42.5,15.9,42.5,47.8c0,34.5-16.2,51.7-48.6,51.7   c-13.6,0-28.3-1.4-44.1-4.1V230.4z M230.9,342.9c5.8,1.8,12.4,2.7,20,2.7c15.2,0,22.7-10.7,22.7-32.1c0-17.5-6.5-26.3-19.6-26.3   c-8.5,0-16.2,1.7-23.1,5.1V342.9z"
       id="path4317" /><path
       class="st4"
       d="M376.2,355c-10.7,7.2-22,10.8-33.9,10.8c-20.3,0-30.5-12-30.5-36.1v-63.4H337v62.7c0,11,4.8,16.5,14.4,16.5   c8.2,0,16.5-3.3,24.9-9.8v-69.5h25.1v99.5h-25.2"
       id="path4319" /><path
       class="st4"
       d="M443.1,276.8c8-7,16.4-10.5,25.3-10.5v20.3c-9.4,0-17.7,3.9-25.1,11.7v67.6h-25.1v-99.5h25"
       id="path4321" /><path
       class="st4"
       d="M482.6,361.2v-20.9c11.1,4.4,23.8,6.6,38.3,6.6c10.8,0,16.2-3.5,16.2-10.4c0-6.6-3.6-10-10.9-10h-18   c-20.2,0-30.3-10-30.3-29.9c0-20.9,14.8-31.3,44.3-31.3c12.5,0,24.3,1.9,35.4,5.7V292c-11.1-4.4-23.1-6.6-36-6.6   c-13.6,0-20.4,3.5-20.4,10.4c0,6.6,4,10,11.8,10H529c22.1,0,33.2,10,33.2,29.9c0,20.9-14.1,31.3-42.3,31.3   C506.1,366.8,493.6,364.9,482.6,361.2z"
       id="path4323" /><path
       class="st4"
       d="M576.3,250.3l25.1,0v16.1h22.3v19.9h-22.3v45.8c0,9.3,4,13.9,12,13.9h10.2v19.9h-22.4c-16.7,0-25-8.9-25-26.8   V250.3z"
       id="path4325" /></g><g
     id="guides"
     class="st3"><rect
       x="540.7"
       y="166.9"
       class="st2"
       width="83.3"
       height="83.3"
       id="rect4328" /><rect
       x="624"
       y="166.9"
       class="st2"
       width="83.3"
       height="83.3"
       id="rect4330" /><rect
       x="540.7"
       y="365.9"
       class="st2"
       width="83.3"
       height="83.3"
       id="rect4332" /><rect
       x="624"
       y="365.9"
       class="st2"
       width="83.3"
       height="83.3"
       id="rect4334" /><rect
       x="122.5"
       y="366.7"
       class="st2"
       width="83.3"
       height="83.3"
       id="rect4336" /><rect
       x="205.8"
       y="366.7"
       class="st2"
       width="83.3"
       height="83.3"
       id="rect4338" /><rect
       x="122.5"
       y="166.9"
       class="st2"
       width="83.3"
       height="83.3"
       id="rect4340" /><rect
       x="205.8"
       y="166.9"
       class="st2"
       width="83.3"
       height="83.3"
       id="rect4342" /></g></svg>