<?xml version="1.0" standalone="no"?><!-- Generator: Gravit.io --><svg xmlns="http://www.w3.org/2000/svg" xmlns:xlink="http://www.w3.org/1999/xlink" style="isolation:isolate" viewBox="0 0 1200 780" width="1200" height="780"><defs><clipPath id="_clipPath_Bq5C1zE6EWR1bl3vybOno3swDtEJGl1g"><rect width="1200" height="780"/></clipPath></defs><g clip-path="url(#_clipPath_Bq5C1zE6EWR1bl3vybOno3swDtEJGl1g)"><clipPath id="_clipPath_I8oBiD7xhwFOE7I7GWam1YXFTFSuARPm"><path d=" M 150 747.52 L 745.276 747.52 L 745.276 94.37 L 150 94.37 L 150 747.52 Z " fill="rgb(255,255,255)"/></clipPath><g clip-path="url(#_clipPath_I8oBiD7xhwFOE7I7GWam1YXFTFSuARPm)"><path d=" M 155.746 390.421 C 155.746 228.63 286.901 97.471 448.696 97.471 C 610.491 97.471 741.646 228.63 741.646 390.421 C 741.646 552.216 610.491 683.375 448.696 683.375 C 286.901 683.375 155.746 552.216 155.746 390.421 Z " fill="rgb(0,136,0)"/><path d=" M 184.948 390.553 C 184.948 244.814 303.089 126.672 448.828 126.672 C 594.568 126.672 712.709 244.814 712.709 390.553 C 712.709 536.292 594.568 654.434 448.828 654.434 C 303.089 654.434 184.948 536.292 184.948 390.553 Z " fill="rgb(254,254,254)"/><path d=" M 397.659 273.974 L 231.586 444.173 C 222.107 453.652 229.407 469.121 241.685 469.121 L 362.042 469.121 L 362.042 507.644 L 422.554 507.644 L 422.554 469.121 L 452.805 469.121 L 452.805 408.618 L 422.554 408.618 L 422.554 284.309 C 422.554 270.882 406.696 264.941 397.659 273.974 Z " fill="rgb(0,136,0)"/><path d=" M 647.522 507.272 C 647.522 507.272 505.537 507.272 464.578 507.272 L 464.578 375.898 C 464.578 367.895 471.25 361.397 479.518 361.302 L 585.597 361.302 L 585.597 332.108 L 525.929 332.108 L 467.534 273.718 L 630.978 273.718 C 639.271 273.718 646.005 280.158 646.109 288.137 L 646.109 405.075 C 646.109 413.078 639.432 419.577 631.165 419.672 L 525.272 419.692 L 525.272 448.886 L 647.006 448.886 L 647.522 507.272 Z  M 693.516 507.272" fill="rgb(0,136,0)"/><path d=" M 332.948 380.685 L 376.168 380.685 L 376.172 423.909 L 332.948 423.909 L 332.948 380.685 Z " fill="rgb(254,254,254)"/><path d=" M 153.472 120.215 C 134.87 138.817 213.413 264.9 296.091 351.711 C 185.96 175.902 147.722 91.158 273.966 157.42 C 249.163 138.817 175.175 98.512 153.472 120.215 Z " fill="rgb(0,136,0)"/><path d=" M 562.03 738.177 C 584.878 704.003 506.227 597.626 423.55 510.815 C 553.874 712.27 552.534 734.085 426.969 681.378 C 454.872 699.464 544.969 763.691 562.03 738.177 Z " fill="rgb(0,136,0)"/></g></g></svg>