<?xml version="1.0" standalone="no"?><!-- Generator: Gravit.io --><svg xmlns="http://www.w3.org/2000/svg" xmlns:xlink="http://www.w3.org/1999/xlink" style="isolation:isolate" viewBox="0 0 310.2 170.08" width="310.2" height="170.08"><defs><clipPath id="_clipPath_q8yFcFZmFhX4tn1BznoUi6M9U6yLpzFj"><rect width="310.2" height="170.08"/></clipPath></defs><g clip-path="url(#_clipPath_q8yFcFZmFhX4tn1BznoUi6M9U6yLpzFj)"><clipPath id="_clipPath_2RM4g9ho5oWKUzxUDZKVQvdMI3GohPky"><path d=" M -120 0 L 390.24 0 L 390.24 170.08 L -120 170.08 L -120 0 Z " fill="rgb(255,255,255)"/></clipPath><g clip-path="url(#_clipPath_2RM4g9ho5oWKUzxUDZKVQvdMI3GohPky)"><path d=" M 248.169 64.286 C 257.151 64.286 264.433 57.005 264.433 48.023 C 264.433 39.041 257.151 31.761 248.169 31.761 C 239.185 31.761 231.903 39.041 231.903 48.023 C 231.903 57.005 239.185 64.286 248.169 64.286 Z " fill="rgb(0,136,0)"/><path d=" M 248.169 32.261 C 239.476 32.261 232.403 39.332 232.403 48.024 C 232.403 56.715 239.476 63.786 248.169 63.786 C 256.861 63.786 263.933 56.715 263.933 48.024 C 263.933 39.332 256.861 32.261 248.169 32.261 Z  M 248.169 64.786 C 238.925 64.786 231.403 57.267 231.403 48.024 C 231.403 38.781 238.925 31.261 248.169 31.261 C 257.412 31.261 264.933 38.781 264.933 48.024 C 264.933 57.267 257.412 64.786 248.169 64.786 Z " fill="rgb(255,255,255)"/><path d=" M 244.226 36.478 C 244.357 36.503 244.187 36.667 244.341 36.654 C 244.369 36.701 244.431 36.712 244.482 36.715 C 244.523 36.746 244.595 36.767 244.587 36.829 C 244.663 36.869 244.578 36.938 244.663 36.971 C 244.751 36.967 244.747 37.084 244.806 37.121 C 244.861 37.131 244.802 37.212 244.857 37.198 C 244.869 37.289 244.986 37.365 244.869 37.442 C 244.785 37.507 244.73 37.631 244.607 37.61 C 244.572 37.662 244.501 37.657 244.445 37.679 C 244.281 37.738 244.146 37.913 243.964 37.96 C 243.88 38.087 243.72 38.055 243.642 38.178 C 243.533 38.31 243.347 38.259 243.249 38.405 C 243.142 38.435 243.07 38.525 242.986 38.591 C 242.865 38.646 242.746 38.697 242.642 38.792 C 242.587 38.798 242.574 38.883 242.511 38.886 C 242.365 39.08 242.124 39.073 241.992 39.266 C 241.755 39.386 241.583 39.624 241.353 39.748 C 241.304 39.868 241.183 39.897 241.109 39.999 C 241.001 40.025 240.964 40.167 240.855 40.193 C 240.738 40.349 240.589 40.455 240.472 40.593 C 240.39 40.704 240.279 40.798 240.183 40.9 C 240.115 41.083 239.859 41.109 239.833 41.313 C 239.695 41.415 239.578 41.55 239.497 41.7 C 239.451 41.697 239.464 41.753 239.439 41.777 C 239.263 41.972 239.078 42.123 238.956 42.357 C 238.841 42.495 238.734 42.589 238.65 42.74 C 238.574 42.833 238.472 42.941 238.464 43.056 C 238.355 43.156 238.283 43.297 238.175 43.389 C 238.191 43.415 238.191 43.451 238.175 43.476 C 238.103 43.593 238.031 43.713 237.949 43.827 C 237.99 43.908 237.876 43.925 237.888 43.994 C 237.757 44.085 237.863 44.279 237.732 44.371 C 237.679 44.432 237.691 44.519 237.644 44.578 C 237.665 44.632 237.603 44.651 237.601 44.695 C 237.552 44.804 237.503 44.939 237.539 45.06 C 237.46 45.136 237.511 45.267 237.425 45.341 C 237.468 45.607 237.333 45.815 237.406 46.066 C 237.363 46.296 237.414 46.458 237.396 46.673 C 237.337 46.746 237.431 46.8 237.451 46.866 C 237.456 46.957 237.435 47.019 237.468 47.11 C 237.456 47.206 237.548 47.259 237.544 47.354 C 237.57 47.376 237.568 47.406 237.57 47.435 C 237.656 47.541 237.724 47.665 237.818 47.749 C 237.943 47.752 237.964 47.916 238.081 47.924 C 238.132 47.99 238.216 47.975 238.271 48.03 C 238.359 48.063 238.435 48.107 238.527 48.124 C 238.638 48.147 238.747 48.182 238.851 48.23 C 238.96 48.245 239.062 48.282 239.175 48.291 C 239.595 48.369 240.007 48.366 240.41 48.362 C 240.443 48.318 240.486 48.376 240.523 48.342 C 240.671 48.333 240.8 48.267 240.953 48.267 C 241.058 48.303 241.136 48.198 241.234 48.223 C 241.478 48.143 241.726 48.069 241.966 47.979 C 241.99 47.891 242.091 47.931 242.142 47.88 C 242.259 47.836 242.394 47.833 242.492 47.749 C 242.536 47.73 242.587 47.708 242.617 47.672 C 242.822 47.655 242.953 47.46 243.161 47.454 C 243.216 47.403 243.259 47.333 243.337 47.329 C 243.392 47.238 243.486 47.256 243.556 47.198 C 243.642 47.179 243.734 47.128 243.818 47.074 C 243.876 47.074 243.911 47.004 243.976 47.004 C 243.999 46.964 244.048 46.96 244.07 46.927 C 244.195 46.891 244.31 46.8 244.431 46.716 C 244.449 46.695 244.478 46.698 244.507 46.698 C 244.566 46.603 244.654 46.614 244.726 46.533 C 244.927 46.527 245.029 46.282 245.218 46.261 C 245.234 46.195 245.328 46.212 245.331 46.147 C 245.441 46.078 245.531 45.976 245.646 45.91 C 245.679 45.87 245.738 45.87 245.751 45.822 C 245.855 45.771 245.886 45.628 246.007 45.578 C 246.218 45.417 246.415 45.177 246.628 44.99 C 246.706 44.96 246.751 44.874 246.822 44.808 C 246.908 44.709 246.964 44.582 247.046 44.476 C 247.146 44.425 247.204 44.304 247.277 44.228 C 247.298 44.097 247.439 44.039 247.458 43.908 C 247.556 43.797 247.556 43.655 247.642 43.546 C 247.664 43.429 247.781 43.352 247.747 43.214 C 247.796 43.152 247.792 43.076 247.767 43.002 C 247.822 42.74 247.763 42.48 247.617 42.276 C 247.642 42.115 247.445 42.061 247.398 41.937 C 247.289 41.872 247.193 41.777 247.066 41.751 C 246.997 41.689 246.908 41.664 246.822 41.638 C 246.701 41.54 246.546 41.613 246.415 41.542 C 246.247 41.535 246.07 41.472 245.908 41.525 C 245.831 41.554 245.755 41.503 245.683 41.513 C 245.599 41.561 245.503 41.458 245.419 41.532 C 245.23 41.542 245.015 41.513 244.833 41.586 C 244.818 41.576 244.8 41.576 244.788 41.557 C 244.751 41.613 244.685 41.597 244.638 41.601 C 244.57 41.613 244.501 41.652 244.431 41.638 C 244.314 41.7 244.183 41.73 244.062 41.777 C 243.964 41.834 243.847 41.872 243.744 41.893 C 243.714 41.933 243.665 41.918 243.624 41.937 C 243.435 42.046 243.216 42.083 243.036 42.225 C 242.882 42.265 242.81 42.462 242.65 42.468 C 242.566 42.576 242.419 42.557 242.343 42.669 C 242.201 42.79 242.058 42.904 241.906 42.994 C 241.857 43.111 241.73 43.137 241.661 43.24 C 241.642 43.249 241.621 43.254 241.611 43.276 C 241.589 43.33 241.507 43.381 241.468 43.44 C 241.296 43.604 241.195 43.793 241.066 43.976 C 241.091 44.104 240.91 44.083 240.935 44.212 C 240.867 44.29 240.814 44.381 240.81 44.476 C 240.779 44.512 240.818 44.611 240.734 44.607 C 240.675 44.656 240.708 44.753 240.636 44.791 C 240.589 44.871 240.632 44.958 240.566 45.035 C 240.556 45.085 240.507 45.122 240.503 45.177 C 240.478 45.216 240.447 45.253 240.453 45.308 C 240.39 45.308 240.427 45.4 240.417 45.421 C 240.376 45.454 240.343 45.498 240.347 45.552 C 240.367 45.563 240.372 45.582 240.372 45.603 C 240.288 45.615 240.398 45.753 240.316 45.703 C 240.285 45.703 240.267 45.727 240.234 45.716 C 240.23 45.632 240.283 45.531 240.228 45.464 C 240.275 45.439 240.271 45.377 240.296 45.333 C 240.288 45.308 240.257 45.283 240.234 45.308 C 240.224 45.33 240.195 45.351 240.228 45.377 C 240.228 45.403 240.191 45.436 240.171 45.464 C 240.167 45.494 240.195 45.519 240.164 45.541 C 240.164 45.56 240.14 45.548 240.128 45.552 C 240.085 45.519 240.062 45.468 240.085 45.421 C 240.107 45.367 240.081 45.304 240.111 45.246 C 240.095 45.224 240.07 45.209 240.052 45.228 C 240.007 45.279 240.029 45.355 239.997 45.41 C 240.005 45.454 240.023 45.527 239.98 45.56 C 239.947 45.548 239.898 45.541 239.884 45.498 C 239.917 45.468 239.876 45.439 239.902 45.403 C 240.033 45.344 239.923 45.253 239.997 45.177 C 239.935 45.035 240.04 44.907 240.04 44.783 C 240.029 44.772 240.023 44.757 240.007 44.764 C 239.923 44.859 239.951 45.013 239.839 45.079 C 239.843 45.118 239.847 45.166 239.884 45.184 C 239.859 45.195 239.843 45.231 239.822 45.246 C 239.673 45.3 239.759 45.122 239.734 45.071 C 239.818 45.031 239.718 44.947 239.789 44.903 C 239.804 44.712 239.859 44.568 239.876 44.377 C 239.935 44.352 239.867 44.301 239.902 44.265 C 239.914 44.169 240.015 44.112 239.99 44.001 C 240.136 43.801 240.115 43.524 240.316 43.352 C 240.331 43.276 240.39 43.217 240.39 43.133 C 240.531 42.943 240.675 42.757 240.779 42.55 C 240.863 42.417 240.986 42.294 241.058 42.164 C 241.255 42.076 241.271 41.841 241.478 41.761 C 241.661 41.609 241.829 41.371 242.054 41.269 C 242.099 41.221 242.142 41.185 242.204 41.181 C 242.419 40.98 242.667 40.867 242.923 40.762 C 242.999 40.701 243.091 40.667 243.187 40.638 C 243.31 40.55 243.449 40.496 243.599 40.474 C 243.744 40.343 243.972 40.4 244.138 40.324 C 244.255 40.285 244.408 40.335 244.519 40.281 C 244.675 40.233 244.876 40.218 245.044 40.261 C 245.361 40.265 245.667 40.273 245.945 40.394 C 246.054 40.382 246.154 40.449 246.269 40.455 C 246.408 40.572 246.601 40.561 246.74 40.681 C 246.902 40.714 247.036 40.805 247.189 40.857 C 247.292 40.984 247.431 41.076 247.566 41.149 C 247.617 41.214 247.685 41.265 247.714 41.349 C 247.792 41.429 247.886 41.47 247.906 41.586 C 248.007 41.7 248.05 41.838 248.154 41.952 C 248.164 42.111 248.316 42.214 248.335 42.382 C 248.339 42.488 248.464 42.55 248.431 42.669 C 248.505 42.798 248.503 42.958 248.517 43.108 C 248.601 43.195 248.511 43.304 248.536 43.396 C 248.492 43.458 248.55 43.527 248.517 43.589 C 248.474 43.718 248.503 43.896 248.441 44.027 C 248.431 44.104 248.386 44.159 248.386 44.24 C 248.406 44.308 248.324 44.348 248.353 44.414 C 248.253 44.465 248.324 44.552 248.253 44.615 C 248.273 44.793 248.091 44.892 248.091 45.06 C 248.054 45.092 248.044 45.136 248.036 45.184 C 247.992 45.3 247.89 45.396 247.835 45.508 C 247.747 45.625 247.664 45.753 247.583 45.867 C 247.431 45.998 247.39 46.179 247.204 46.286 C 247.036 46.458 246.908 46.614 246.732 46.767 C 246.673 46.843 246.601 46.91 246.513 46.942 C 246.449 47.103 246.292 47.103 246.189 47.235 C 246.138 47.238 246.132 47.303 246.083 47.321 C 245.941 47.344 245.931 47.534 245.788 47.53 C 245.781 47.577 245.738 47.592 245.701 47.61 C 245.609 47.61 245.554 47.708 245.488 47.749 C 245.286 47.847 245.099 47.971 244.902 48.081 C 244.747 48.219 244.548 48.233 244.394 48.373 C 244.318 48.43 244.224 48.479 244.132 48.518 C 243.935 48.543 243.796 48.705 243.599 48.73 C 243.531 48.752 243.468 48.792 243.394 48.799 C 243.371 48.847 243.308 48.814 243.281 48.862 C 243.197 48.876 243.171 48.891 243.099 48.924 C 242.974 48.934 242.89 49.043 242.755 49.036 C 242.693 49.084 242.613 49.09 242.536 49.106 C 242.482 49.154 242.394 49.161 242.328 49.194 C 242.267 49.179 242.212 49.186 242.154 49.219 C 242.04 49.194 241.97 49.27 241.872 49.274 C 241.814 49.291 241.755 49.307 241.697 49.325 C 241.628 49.314 241.576 49.383 241.511 49.343 C 241.443 49.368 241.343 49.402 241.259 49.387 C 241.173 49.362 241.085 49.394 240.997 49.394 C 240.89 49.423 240.788 49.416 240.691 49.387 C 240.632 49.394 240.527 49.325 240.478 49.413 C 240.283 49.402 240.128 49.368 239.935 49.343 C 239.833 49.295 239.718 49.249 239.595 49.274 C 239.574 49.223 239.529 49.258 239.509 49.274 C 239.431 49.27 239.388 49.176 239.296 49.211 C 239.212 49.143 239.087 49.165 238.99 49.124 C 238.896 49.094 238.796 49.051 238.72 48.993 C 238.65 49.018 238.617 48.954 238.552 48.956 C 238.478 48.909 238.419 48.836 238.326 48.843 C 238.146 48.733 237.984 48.569 237.8 48.486 C 237.535 48.311 237.286 48.059 237.089 47.811 C 237.044 47.702 236.888 47.705 236.888 47.573 C 236.728 47.41 236.685 47.187 236.511 47.031 C 236.515 46.975 236.476 46.932 236.476 46.874 C 236.47 46.76 236.345 46.673 236.388 46.559 C 236.341 46.45 236.345 46.319 236.32 46.198 C 236.296 46.005 236.329 45.844 236.292 45.666 C 236.265 45.599 236.32 45.527 236.3 45.454 C 236.345 45.344 236.265 45.249 236.3 45.14 C 236.286 44.994 236.363 44.874 236.374 44.746 C 236.396 44.542 236.462 44.352 236.496 44.152 C 236.572 44.031 236.527 43.86 236.601 43.74 C 236.619 43.665 236.669 43.604 236.689 43.527 C 236.786 43.429 236.779 43.287 236.855 43.177 L 236.855 43.152 C 236.984 42.925 237.064 42.677 237.238 42.468 C 237.271 42.337 237.38 42.244 237.414 42.111 C 237.568 41.867 237.742 41.634 237.896 41.392 C 238.048 41.193 238.203 40.999 238.388 40.813 C 238.423 40.689 238.578 40.645 238.638 40.536 L 238.658 40.536 C 238.781 40.332 238.978 40.226 239.095 40.018 C 239.536 39.594 239.954 39.157 240.41 38.755 C 240.482 38.745 240.503 38.66 240.54 38.609 C 240.708 38.463 240.921 38.412 241.058 38.215 C 241.222 38.095 241.365 37.919 241.529 37.802 C 241.628 37.822 241.599 37.69 241.679 37.69 C 241.693 37.595 241.796 37.638 241.837 37.574 C 241.982 37.533 242.081 37.373 242.23 37.339 C 242.343 37.285 242.361 37.165 242.476 37.11 C 242.562 37 242.716 37.048 242.81 36.945 C 242.865 36.964 242.857 36.891 242.906 36.884 C 243.078 36.859 243.164 36.69 243.337 36.654 C 243.456 36.584 243.613 36.603 243.701 36.446 C 243.792 36.439 243.855 36.362 243.939 36.339 C 244.029 36.406 244.171 36.373 244.226 36.478 Z " fill="rgb(255,255,255)"/><path d=" M 255.929 39.792 C 256.093 39.807 256.298 39.792 256.46 39.836 C 256.554 39.799 256.593 39.895 256.673 39.887 C 256.712 39.979 256.804 39.897 256.866 39.924 C 256.968 39.948 257.064 40.015 257.173 40 C 257.333 40.113 257.536 40.125 257.687 40.262 C 257.786 40.303 257.866 40.354 257.943 40.42 C 258.111 40.452 258.169 40.635 258.337 40.675 C 258.447 40.854 258.673 40.846 258.757 41.051 C 258.892 41.229 259.089 41.364 259.195 41.568 C 259.22 41.631 259.249 41.707 259.325 41.725 C 259.413 41.828 259.417 41.963 259.476 42.076 C 259.46 42.135 259.542 42.149 259.544 42.2 C 259.566 42.331 259.597 42.466 259.657 42.583 C 259.708 42.838 259.771 43.09 259.808 43.353 C 259.841 43.408 259.82 43.518 259.827 43.582 C 259.804 43.627 259.804 43.681 259.845 43.721 C 259.845 43.813 259.845 43.9 259.808 43.977 C 259.874 44.024 259.782 44.104 259.851 44.152 C 259.8 44.251 259.808 44.382 259.771 44.477 C 259.824 44.619 259.64 44.717 259.683 44.871 C 259.654 44.914 259.677 44.99 259.615 45.017 C 259.603 45.133 259.566 45.235 259.544 45.342 C 259.492 45.4 259.501 45.484 259.476 45.553 C 259.435 45.674 259.335 45.772 259.3 45.893 C 259.322 45.969 259.224 45.994 259.202 46.053 C 259.185 46.108 259.132 46.151 259.144 46.217 C 259.085 46.264 259.015 46.319 259.011 46.392 C 258.921 46.56 258.804 46.692 258.706 46.856 C 258.601 46.946 258.527 47.056 258.456 47.154 C 258.316 47.257 258.279 47.446 258.126 47.53 C 258.06 47.694 257.876 47.698 257.812 47.862 C 257.786 47.921 257.702 47.877 257.699 47.95 C 257.599 48.081 257.431 48.125 257.337 48.249 C 257.265 48.257 257.22 48.397 257.156 48.355 C 257.118 48.452 256.991 48.442 256.925 48.53 C 256.9 48.569 256.851 48.508 256.837 48.573 C 256.804 48.573 256.771 48.596 256.761 48.625 C 256.622 48.687 256.484 48.741 256.347 48.819 C 256.257 48.804 256.21 48.877 256.122 48.888 C 256.038 48.954 255.937 48.975 255.849 49.036 C 255.761 49.034 255.72 49.088 255.648 49.124 C 255.538 49.106 255.447 49.187 255.341 49.204 C 255.173 49.253 255.005 49.317 254.833 49.336 C 254.722 49.392 254.556 49.373 254.439 49.438 C 254.32 49.395 254.21 49.483 254.077 49.468 C 253.993 49.497 253.894 49.515 253.808 49.519 C 253.714 49.526 253.626 49.505 253.521 49.493 C 253.439 49.559 253.32 49.522 253.222 49.511 C 253.056 49.533 252.882 49.468 252.706 49.468 C 252.542 49.442 252.384 49.485 252.251 49.395 C 252.14 49.468 252.064 49.317 251.952 49.368 C 251.925 49.317 251.857 49.355 251.837 49.3 C 251.693 49.259 251.525 49.285 251.407 49.169 C 251.265 49.161 251.152 49.085 251.025 49.036 C 250.945 48.942 250.824 48.884 250.708 48.837 C 250.638 48.712 250.478 48.665 250.409 48.548 C 250.386 48.486 250.324 48.526 250.298 48.476 C 250.304 48.343 250.126 48.325 250.105 48.212 C 249.999 48.125 249.992 47.98 249.894 47.881 C 249.798 47.717 249.726 47.541 249.657 47.366 C 249.568 47.192 249.579 46.961 249.542 46.778 C 249.48 46.644 249.62 46.57 249.597 46.447 C 249.609 46.293 249.63 46.151 249.743 46.041 C 249.798 45.881 249.87 45.721 250.019 45.604 C 250.029 45.516 250.167 45.572 250.193 45.465 C 250.218 45.458 250.24 45.44 250.269 45.447 C 250.288 45.469 250.312 45.505 250.281 45.527 C 250.14 45.553 250.23 45.713 250.105 45.754 C 250.097 45.783 250.079 45.815 250.085 45.842 C 250.171 45.812 250.177 45.725 250.261 45.684 C 250.269 45.574 250.433 45.604 250.4 45.484 C 250.509 45.494 250.618 45.367 250.681 45.279 C 250.747 45.239 250.816 45.182 250.911 45.192 C 250.925 45.242 250.915 45.279 250.917 45.322 C 250.839 45.378 250.751 45.287 250.718 45.41 C 250.718 45.465 250.644 45.484 250.648 45.542 C 250.597 45.563 250.566 45.6 250.544 45.649 C 250.554 45.681 250.587 45.658 250.613 45.666 C 250.689 45.604 250.759 45.486 250.851 45.44 C 251.013 45.479 251.025 45.225 251.181 45.272 C 251.21 45.217 251.265 45.264 251.306 45.272 C 251.343 45.322 251.261 45.32 251.243 45.342 C 251.218 45.334 251.206 45.356 251.189 45.367 C 251.21 45.403 251.179 45.484 251.251 45.44 C 251.255 45.429 251.269 45.429 251.277 45.429 C 251.281 45.447 251.302 45.458 251.314 45.473 C 251.2 45.498 251.24 45.645 251.138 45.658 C 251.093 45.695 251.021 45.738 251.025 45.805 C 251.036 45.822 251.054 45.826 251.07 45.815 C 251.109 45.695 251.185 45.867 251.232 45.754 C 251.261 45.637 251.372 45.728 251.439 45.703 C 251.439 45.725 251.47 45.728 251.462 45.754 C 251.394 45.805 251.32 45.877 251.232 45.859 C 251.206 45.933 251.113 45.965 251.075 46.024 C 250.95 46.18 250.796 46.315 250.675 46.481 C 250.605 46.567 250.548 46.662 250.525 46.768 C 250.421 46.805 250.507 46.899 250.443 46.961 C 250.433 47.121 250.327 47.257 250.367 47.425 C 250.374 47.538 250.413 47.64 250.443 47.741 C 250.474 47.804 250.499 47.858 250.517 47.925 C 250.597 48.019 250.642 48.183 250.788 48.198 C 250.911 48.3 251.062 48.34 251.189 48.431 C 251.361 48.406 251.458 48.567 251.626 48.511 C 251.71 48.526 251.802 48.516 251.874 48.563 C 252.122 48.53 252.39 48.589 252.634 48.573 C 252.79 48.461 252.958 48.61 253.115 48.511 C 253.214 48.519 253.29 48.468 253.388 48.468 C 253.458 48.428 253.554 48.446 253.626 48.406 C 253.732 48.42 253.82 48.318 253.915 48.38 C 253.925 48.312 254.001 48.366 254.034 48.337 C 254.159 48.285 254.298 48.274 254.429 48.241 C 254.517 48.169 254.663 48.205 254.745 48.11 C 254.829 48.089 254.888 48.005 254.986 48.011 C 255.048 47.964 255.157 47.968 255.202 47.906 C 255.378 47.808 255.531 47.661 255.728 47.61 C 255.919 47.479 256.122 47.384 256.298 47.217 C 256.341 47.217 256.355 47.18 256.384 47.147 C 256.64 46.972 256.837 46.764 257.074 46.549 C 257.122 46.481 257.177 46.373 257.267 46.359 C 257.429 46.188 257.599 46.038 257.741 45.867 C 257.741 45.768 257.88 45.746 257.888 45.649 C 258.056 45.498 258.165 45.289 258.269 45.096 C 258.355 45.061 258.345 44.969 258.38 44.903 C 258.56 44.742 258.552 44.502 258.695 44.327 C 258.73 44.152 258.816 43.994 258.837 43.809 C 258.904 43.703 258.921 43.575 258.925 43.44 C 258.972 43.359 258.937 43.272 258.958 43.178 C 258.99 42.97 259.011 42.726 258.941 42.539 C 258.98 42.338 258.808 42.2 258.782 42.014 C 258.742 41.955 258.706 41.897 258.652 41.85 C 258.597 41.646 258.367 41.62 258.257 41.445 C 258.14 41.416 258.042 41.335 257.925 41.306 C 257.829 41.27 257.728 41.24 257.636 41.193 C 257.574 41.16 257.501 41.149 257.437 41.131 C 257.413 41.065 257.355 41.131 257.318 41.076 C 257.253 41.084 257.195 41.072 257.136 41.051 C 256.866 41.051 256.57 40.975 256.286 41.051 C 256.202 41.029 256.111 41.098 256.034 41.062 C 256.019 41.086 255.991 41.117 255.954 41.106 C 255.907 41.055 255.841 41.123 255.779 41.112 C 255.767 41.091 255.745 41.095 255.728 41.095 C 255.689 41.182 255.605 41.109 255.542 41.156 C 255.454 41.182 255.337 41.171 255.273 41.236 C 255.22 41.252 255.161 41.236 255.122 41.281 C 255.017 41.256 254.919 41.35 254.816 41.306 C 254.732 41.361 254.634 41.371 254.546 41.42 C 254.437 41.463 254.306 41.467 254.22 41.543 C 254.163 41.547 254.126 41.602 254.064 41.594 C 253.986 41.642 253.911 41.686 253.816 41.69 C 253.749 41.69 253.741 41.828 253.659 41.777 C 253.558 41.82 253.462 41.894 253.345 41.9 C 253.335 41.942 253.29 41.944 253.259 41.952 C 253.177 42.014 253.077 42.022 253.013 42.111 C 252.927 42.146 252.827 42.182 252.757 42.244 C 252.71 42.262 252.659 42.27 252.618 42.303 C 252.601 42.287 252.579 42.323 252.575 42.338 C 252.583 42.379 252.534 42.358 252.521 42.383 C 252.361 42.514 252.169 42.608 252.032 42.751 C 251.937 42.714 251.978 42.838 251.9 42.838 C 251.814 42.97 251.65 42.998 251.538 43.119 C 251.273 43.305 251.066 43.571 250.806 43.776 C 250.784 43.776 250.767 43.783 250.751 43.802 C 250.751 43.91 250.638 43.962 250.57 44.039 C 250.478 44.098 250.474 44.229 250.367 44.266 C 250.288 44.317 250.277 44.407 250.2 44.466 C 250.218 44.586 250.079 44.611 250.019 44.685 C 249.927 44.637 249.824 44.786 249.761 44.658 C 249.697 44.67 249.679 44.611 249.642 44.571 C 249.654 44.513 249.663 44.426 249.597 44.397 C 249.517 44.403 249.452 44.327 249.368 44.317 C 249.226 44.152 249.218 43.91 249.173 43.695 C 249.138 43.586 249.24 43.539 249.255 43.44 C 249.325 43.35 249.415 43.255 249.492 43.171 C 249.521 43.156 249.513 43.123 249.525 43.102 C 249.712 42.871 249.945 42.729 250.122 42.495 C 250.181 42.418 250.298 42.408 250.312 42.303 C 250.447 42.258 250.488 42.065 250.638 42.039 C 250.788 41.926 250.935 41.82 251.087 41.69 C 251.277 41.459 251.554 41.393 251.769 41.164 C 251.907 41.095 252.029 40.971 252.181 40.931 C 252.384 40.675 252.706 40.635 252.978 40.5 C 253.101 40.397 253.243 40.354 253.378 40.288 C 253.476 40.248 253.581 40.231 253.683 40.2 C 253.749 40.178 253.816 40.16 253.878 40.131 C 253.968 40.131 254.052 40.106 254.122 40.055 C 254.37 40.007 254.593 39.891 254.833 39.861 C 254.853 39.851 254.874 39.844 254.896 39.836 C 255.089 39.854 255.286 39.803 255.472 39.799 C 255.589 39.774 255.706 39.77 255.816 39.817 C 255.853 39.807 255.892 39.799 255.929 39.792 Z " fill="rgb(255,255,255)"/><path d=" M 246.216 45.184 C 246.171 45.198 246.2 45.253 246.157 45.26 C 246.116 45.272 246.073 45.227 246.05 45.279 C 246.04 45.293 246.073 45.304 246.05 45.315 C 245.993 45.285 245.993 45.217 246.032 45.172 C 246.083 45.143 246.146 45.085 246.2 45.122 C 246.204 45.139 246.224 45.155 246.216 45.184 Z " fill="rgb(255,255,255)"/><path d=" M 247.015 48.73 C 247.091 48.782 247.134 48.916 247.234 48.869 C 247.281 48.891 247.343 48.891 247.38 48.942 C 247.507 48.954 247.544 49.118 247.685 49.081 C 247.701 49.165 247.773 49.23 247.759 49.325 C 247.806 49.339 247.839 49.394 247.855 49.438 C 247.911 49.493 247.818 49.543 247.835 49.613 C 247.744 49.719 247.607 49.789 247.523 49.894 C 247.456 49.883 247.482 49.978 247.415 49.963 C 247.314 50.102 247.142 50.084 247.058 50.237 C 246.861 50.368 246.716 50.561 246.513 50.682 C 246.49 50.741 246.435 50.766 246.402 50.825 C 246.154 51.04 245.857 51.284 245.601 51.496 C 245.523 51.496 245.55 51.612 245.462 51.62 C 245.46 51.682 245.372 51.637 245.384 51.707 C 245.314 51.766 245.244 51.831 245.183 51.908 C 244.986 52.084 244.826 52.272 244.632 52.47 C 244.638 52.506 244.587 52.499 244.587 52.532 C 244.54 52.557 244.54 52.624 244.474 52.62 C 244.456 52.688 244.357 52.7 244.349 52.776 C 244.326 52.82 244.259 52.798 244.263 52.864 C 244.128 52.937 244.146 53.124 243.999 53.17 C 243.869 53.305 243.777 53.451 243.632 53.589 C 243.64 53.63 243.593 53.645 243.581 53.677 C 243.497 53.677 243.533 53.801 243.449 53.816 C 243.449 53.9 243.37 53.929 243.326 53.984 C 243.292 54.039 243.238 54.105 243.187 54.152 C 243.146 54.247 243.04 54.32 243.036 54.429 C 242.941 54.539 242.818 54.647 242.792 54.791 C 242.697 54.933 242.654 55.108 242.536 55.235 C 242.499 55.356 242.398 55.454 242.398 55.579 C 242.335 55.633 242.361 55.724 242.29 55.779 C 242.312 55.819 242.267 55.859 242.242 55.884 C 242.247 55.961 242.189 55.994 242.187 56.067 C 242.158 56.169 242.148 56.276 242.066 56.356 C 242.12 56.417 242.015 56.464 242.048 56.523 C 241.982 56.56 242.007 56.644 241.978 56.699 C 242.019 56.739 241.931 56.792 241.986 56.837 C 241.949 56.98 241.917 57.14 241.966 57.293 C 241.953 57.417 241.949 57.555 242.038 57.655 C 241.992 57.746 242.083 57.823 242.091 57.917 C 242.103 57.954 242.136 57.986 242.16 58.019 C 242.111 58.084 242.214 58.103 242.204 58.162 C 242.267 58.216 242.302 58.311 242.386 58.326 C 242.394 58.374 242.445 58.376 242.443 58.424 C 242.57 58.479 242.646 58.607 242.775 58.632 C 242.81 58.665 242.855 58.694 242.906 58.694 C 242.99 58.782 243.12 58.786 243.238 58.8 C 243.386 58.87 243.544 58.92 243.712 58.95 C 243.74 58.92 243.8 58.927 243.833 58.939 C 243.911 59.003 244.029 58.923 244.107 58.975 C 244.15 58.983 244.23 58.957 244.271 59 C 244.341 58.986 244.411 58.96 244.49 58.957 C 244.591 58.95 244.685 59.007 244.781 58.975 C 244.949 58.96 245.095 58.935 245.244 58.895 C 245.306 58.91 245.353 58.87 245.402 58.913 C 245.492 58.891 245.599 58.851 245.689 58.879 C 245.788 58.836 245.894 58.891 245.995 58.862 C 246.12 58.829 246.261 58.792 246.372 58.782 C 246.47 58.811 246.546 58.694 246.646 58.749 C 246.802 58.719 246.96 58.662 247.117 58.662 C 247.142 58.639 247.179 58.622 247.204 58.643 C 247.247 58.665 247.273 58.595 247.32 58.599 C 247.408 58.544 247.546 58.617 247.617 58.519 C 247.66 58.511 247.726 58.563 247.747 58.494 C 247.835 58.475 247.925 58.464 248.011 58.431 C 248.163 58.42 248.316 58.355 248.466 58.318 C 248.583 58.245 248.738 58.224 248.867 58.212 C 248.978 58.114 249.128 58.122 249.247 58.056 C 249.306 57.998 249.411 58.03 249.454 57.96 C 249.529 57.913 249.62 57.982 249.675 57.899 C 249.79 57.877 249.898 57.819 249.982 57.742 C 250.064 57.727 250.167 57.742 250.21 57.655 C 250.247 57.636 250.255 57.702 250.298 57.68 C 250.386 57.622 250.478 57.504 250.605 57.538 C 250.609 57.563 250.54 57.611 250.587 57.655 C 250.566 57.724 250.488 57.655 250.462 57.712 C 250.353 57.698 250.316 57.819 250.226 57.843 C 250.21 57.84 250.203 57.856 250.193 57.862 C 250.193 57.884 250.201 57.903 250.218 57.917 C 250.267 57.866 250.357 57.906 250.374 57.83 C 250.507 57.851 250.562 57.742 250.656 57.698 C 250.738 57.655 250.824 57.544 250.925 57.6 C 250.925 57.64 250.911 57.691 250.869 57.698 C 250.828 57.702 250.847 57.742 250.824 57.756 C 250.87 57.859 250.945 57.698 251.007 57.786 C 251.062 57.676 251.251 57.79 251.244 57.625 C 251.286 57.571 251.361 57.552 251.427 57.574 C 251.458 57.588 251.503 57.615 251.513 57.643 C 251.411 57.691 251.398 57.843 251.261 57.811 C 251.232 57.859 251.179 57.856 251.158 57.899 C 251.189 57.954 251.202 57.884 251.232 57.943 C 251.32 57.982 251.386 57.823 251.445 57.943 C 251.474 57.946 251.503 57.92 251.525 57.95 C 251.527 58.041 251.419 58.023 251.394 58.092 C 251.349 58.092 251.31 58.114 251.286 58.143 C 251.257 58.271 251.109 58.212 251.05 58.326 C 251.074 58.37 251.109 58.395 251.158 58.37 C 251.21 58.25 251.353 58.395 251.382 58.25 C 251.419 58.238 251.47 58.25 251.507 58.267 C 251.47 58.314 251.513 58.431 251.419 58.414 C 251.376 58.46 251.286 58.431 251.269 58.5 C 251.386 58.53 251.228 58.519 251.218 58.544 C 251.146 58.635 251.003 58.61 250.945 58.731 C 250.896 58.727 250.874 58.792 250.824 58.782 C 250.634 58.903 250.425 58.972 250.244 59.106 C 250.193 59.147 250.111 59.118 250.068 59.175 C 250.029 59.172 250.036 59.223 249.999 59.23 C 249.87 59.296 249.722 59.318 249.587 59.369 C 249.576 59.391 249.546 59.431 249.517 59.406 C 249.521 59.467 249.441 59.431 249.411 59.464 C 249.314 59.504 249.226 59.486 249.14 59.551 C 248.992 59.566 248.878 59.661 248.73 59.675 C 248.605 59.742 248.449 59.723 248.327 59.799 C 248.273 59.774 248.218 59.803 248.179 59.843 C 248.025 59.88 247.835 59.833 247.704 59.919 C 247.556 59.957 247.423 59.942 247.277 59.982 C 247.216 60.003 247.12 59.967 247.066 60.026 C 246.999 60.073 246.915 60.003 246.855 60.044 C 246.693 60.007 246.535 60.066 246.365 60.087 C 246.343 60.062 246.302 60.059 246.277 60.069 C 246.228 60.095 246.16 60.062 246.101 60.062 C 246.007 60.095 245.857 60.073 245.751 60.077 C 245.679 60.146 245.599 60.099 245.515 60.087 C 245.384 60.081 245.226 60.142 245.12 60.069 C 245.058 60.099 245.003 60.087 244.937 60.077 C 244.763 60.055 244.587 59.986 244.394 59.982 C 244.365 59.946 244.308 59.978 244.271 59.957 C 244.132 59.884 243.956 59.887 243.818 59.814 C 243.54 59.782 243.326 59.606 243.054 59.562 C 242.931 59.519 242.822 59.442 242.722 59.361 C 242.671 59.274 242.529 59.336 242.492 59.23 C 242.361 59.143 242.242 59.026 242.099 58.968 C 242.025 58.87 241.935 58.771 241.837 58.711 C 241.755 58.574 241.599 58.46 241.566 58.3 C 241.533 58.216 241.413 58.168 241.415 58.074 C 241.304 57.884 241.204 57.691 241.179 57.468 C 241.079 57.348 241.161 57.184 241.074 57.056 C 241.095 56.98 241.001 56.932 241.058 56.866 C 241.052 56.783 241.07 56.691 241.074 56.603 C 241.058 56.592 241.058 56.578 241.048 56.567 C 241.027 56.392 241.095 56.213 241.058 56.041 C 241.056 55.9 241.169 55.793 241.128 55.648 C 241.173 55.596 241.142 55.509 241.191 55.454 C 241.238 55.305 241.226 55.129 241.322 54.999 C 241.337 54.896 241.384 54.801 241.39 54.692 C 241.431 54.604 241.46 54.513 241.523 54.429 C 241.486 54.331 241.619 54.272 241.619 54.177 C 241.642 54.188 241.665 54.16 241.673 54.141 C 241.689 54.089 241.73 54.042 241.759 53.992 C 241.792 53.86 241.945 53.765 241.917 53.616 C 242.054 53.445 242.197 53.28 242.275 53.072 C 242.372 53.021 242.386 52.912 242.476 52.853 C 242.486 52.787 242.55 52.743 242.591 52.688 C 242.701 52.569 242.777 52.412 242.888 52.294 C 242.953 52.127 243.15 52.047 243.238 51.882 C 243.406 51.745 243.478 51.51 243.667 51.409 C 243.767 51.321 243.818 51.218 243.921 51.12 C 243.986 51.036 244.058 50.941 244.15 50.883 C 244.296 50.734 244.402 50.554 244.562 50.413 C 244.57 50.346 244.638 50.325 244.693 50.306 C 244.806 50.204 244.915 50.084 245.05 50.026 C 245.103 49.981 245.103 49.89 245.175 49.875 C 245.169 49.866 245.189 49.866 245.183 49.85 C 245.273 49.795 245.369 49.762 245.427 49.657 C 245.578 49.591 245.628 49.406 245.788 49.35 C 245.857 49.278 245.986 49.263 246.04 49.168 C 246.124 49.087 246.222 48.967 246.347 48.949 C 246.435 48.883 246.513 48.77 246.62 48.737 C 246.663 48.782 246.71 48.733 246.767 48.749 C 246.826 48.679 246.915 48.749 246.986 48.749 C 246.994 48.733 247.007 48.745 247.015 48.73 Z " fill="rgb(255,255,255)"/><path d=" M 240.376 50.095 C 240.364 50.098 240.347 50.083 240.364 50.076 C 240.368 50.079 240.376 50.087 240.376 50.095 Z " fill="rgb(255,255,255)"/><path d=" M 45.102 76.645 C 46.545 76.891 47.784 77.013 48.812 77.013 C 50.888 77.013 52.512 76.514 53.686 75.512 C 54.876 74.569 55.49 73.27 55.529 71.625 C 55.529 69.975 54.958 68.652 53.822 67.653 C 52.628 66.706 51.076 66.215 49.164 66.179 C 47.9 66.179 46.545 66.399 45.102 66.837 L 45.102 76.645 Z  M 34.35 49.545 L 45.102 49.545 L 45.102 58.4 C 47.174 57.619 49.317 57.225 51.53 57.225 C 55.884 57.261 59.411 58.637 62.111 61.354 C 64.863 64.073 66.256 67.599 66.291 71.936 C 66.291 75.333 65.162 78.46 62.908 81.317 C 60.583 84.347 56.916 85.898 51.908 85.967 L 34.35 85.967 L 34.35 49.545 Z " fill="rgb(0,136,0)"/><path d=" M 78.482 71.829 C 78.482 73.455 79.011 74.763 80.071 75.76 C 81.092 76.79 82.457 77.304 84.161 77.304 C 85.882 77.304 87.254 76.79 88.277 75.76 C 89.318 74.763 89.838 73.455 89.838 71.829 C 89.838 70.189 89.318 68.871 88.277 67.875 C 87.254 66.861 85.882 66.355 84.161 66.355 C 82.457 66.355 81.092 66.861 80.071 67.875 C 79.011 68.871 78.482 70.189 78.482 71.829 Z  M 67.73 71.829 C 67.695 68.017 69.009 64.663 71.677 61.771 C 74.293 58.811 78.454 57.297 84.164 57.225 C 90.082 57.331 94.322 58.908 96.884 61.956 C 99.396 64.897 100.637 68.189 100.601 71.829 C 100.601 75.731 99.277 79.083 96.629 81.888 C 93.944 84.849 89.824 86.364 84.267 86.431 C 78.42 86.329 74.189 84.745 71.574 81.679 C 68.975 78.718 67.695 75.433 67.73 71.829 Z " fill="rgb(0,136,0)"/><path d=" M 101.954 49.546 L 112.706 49.546 L 112.706 85.968 L 101.954 85.968 L 101.954 49.546 Z " fill="rgb(0,136,0)"/><path d=" M 121.058 73.342 C 122.876 73.377 124.374 73.995 125.552 75.197 C 126.729 76.417 127.334 77.975 127.369 79.873 C 127.334 81.72 126.729 83.251 125.552 84.47 C 124.374 85.739 122.876 86.394 121.058 86.427 C 119.255 86.394 117.777 85.739 116.615 84.47 C 115.337 83.251 114.699 81.72 114.699 79.873 C 114.699 77.975 115.337 76.417 116.617 75.197 C 117.777 73.995 119.258 73.377 121.058 73.342 Z " fill="rgb(0,136,0)"/><path d=" M 152.093 84.688 C 148.893 85.885 145.993 86.467 143.4 86.43 C 138.784 86.398 135.062 85.048 132.234 82.383 C 129.369 79.736 127.921 76.28 127.887 72.011 C 127.887 68.303 129.109 64.951 131.551 61.956 C 134.011 58.908 137.86 57.331 143.099 57.225 C 146.097 57.225 149.029 57.716 151.892 58.699 L 151.892 68.106 C 149.581 66.939 147.305 66.355 145.064 66.355 C 143.124 66.355 141.581 66.861 140.435 67.875 C 139.238 68.871 138.64 70.206 138.64 71.883 C 138.64 73.542 139.28 74.833 140.562 75.759 C 141.757 76.79 143.36 77.303 145.366 77.303 C 147.169 77.338 149.413 76.757 152.093 75.564 L 152.093 84.688 Z " fill="rgb(0,136,0)"/><path d=" M 164.775 71.829 C 164.775 73.455 165.304 74.763 166.364 75.76 C 167.385 76.79 168.75 77.304 170.453 77.304 C 172.174 77.304 173.549 76.79 174.573 75.76 C 175.613 74.763 176.131 73.455 176.131 71.829 C 176.131 70.189 175.613 68.871 174.573 67.875 C 173.549 66.861 172.174 66.355 170.453 66.355 C 168.75 66.355 167.385 66.861 166.364 67.875 C 165.304 68.871 164.775 70.189 164.775 71.829 Z  M 154.022 71.829 C 153.988 68.017 155.301 64.663 157.969 61.771 C 160.585 58.811 164.748 57.297 170.459 57.225 C 176.376 57.331 180.616 58.908 183.181 61.956 C 185.695 64.897 186.933 68.189 186.897 71.829 C 186.897 75.731 185.573 79.083 182.924 81.888 C 180.241 84.849 176.121 86.364 170.563 86.431 C 164.714 86.329 160.481 84.745 157.868 81.679 C 155.269 78.718 153.988 75.433 154.022 71.829 Z " fill="rgb(0,136,0)"/><path d=" M 188.728 57.743 L 199.492 57.743 L 199.492 61.455 C 202.042 58.634 205.011 57.221 208.408 57.221 C 212.185 57.185 215.042 58.861 216.974 62.242 C 219.894 58.929 223.279 57.255 227.126 57.221 C 230.246 57.255 232.511 58.31 233.925 60.382 C 235.339 62.456 236.048 64.955 236.048 67.883 L 236.048 85.962 L 225.283 85.962 L 225.283 69.797 C 225.283 68.754 225.021 67.931 224.488 67.32 C 223.925 66.713 223.16 66.407 222.193 66.407 C 220.48 66.461 219.003 67.427 217.763 69.301 L 217.763 85.962 L 207.009 85.962 L 207.009 70.007 C 207.009 68.893 206.736 68.017 206.187 67.373 C 205.623 66.781 204.816 66.461 203.773 66.407 C 202.238 66.461 200.81 67.427 199.492 69.301 L 199.492 85.962 L 188.728 85.962 L 188.728 57.743 Z " fill="rgb(0,136,0)"/></g></g></svg>