<?xml version="1.0" standalone="no"?><!-- Generator: Gravit.io --><svg xmlns="http://www.w3.org/2000/svg" xmlns:xlink="http://www.w3.org/1999/xlink" style="isolation:isolate" viewBox="0 0 342.705 74.69" width="342.705" height="74.69"><defs><clipPath id="_clipPath_mLYFBkIkiu81Yh67D3Ut0babiXt2oUIF"><rect width="342.705" height="74.69"/></clipPath></defs><g clip-path="url(#_clipPath_mLYFBkIkiu81Yh67D3Ut0babiXt2oUIF)"><clipPath id="_clipPath_6Uo9eKeMCySmZUGcubNlI0xXw6TAUr0h"><path d=" M 0 0 L 0 74.69 L 342.705 74.69 L 342.705 0 L 0 0 Z " fill="rgb(255,255,255)"/></clipPath><g clip-path="url(#_clipPath_6Uo9eKeMCySmZUGcubNlI0xXw6TAUr0h)"><path d=" M 177.847 54.175 C 177.766 53.029 177.499 51.984 177.049 51.043 C 176.599 50.101 176.025 49.289 175.329 48.606 C 174.633 47.924 173.821 47.392 172.893 47.009 C 171.965 46.627 170.982 46.436 169.944 46.436 C 168.907 46.436 167.924 46.627 166.997 47.009 C 166.068 47.392 165.256 47.924 164.56 48.606 C 163.864 49.289 163.304 50.108 162.881 51.063 C 162.457 52.019 162.205 53.056 162.124 54.175 L 177.847 54.175 Z  M 169.986 66.378 C 168.429 66.378 166.997 66.084 165.686 65.498 C 164.375 64.911 163.243 64.105 162.287 63.082 C 161.332 62.058 160.588 60.878 160.056 59.539 C 159.523 58.202 159.257 56.769 159.257 55.24 C 159.257 53.739 159.523 52.326 160.056 51.002 C 160.588 49.678 161.332 48.518 162.287 47.521 C 163.243 46.525 164.369 45.733 165.665 45.146 C 166.961 44.559 168.389 44.265 169.944 44.265 C 171.501 44.265 172.927 44.559 174.224 45.146 C 175.52 45.733 176.632 46.532 177.561 47.542 C 178.489 48.552 179.212 49.712 179.731 51.022 C 180.25 52.333 180.51 53.725 180.51 55.199 C 180.51 55.418 180.502 55.636 180.489 55.854 C 180.475 56.073 180.455 56.223 180.427 56.305 L 162.205 56.305 C 162.287 57.451 162.553 58.509 163.003 59.478 C 163.455 60.447 164.027 61.287 164.724 61.997 C 165.42 62.707 166.225 63.259 167.14 63.655 C 168.054 64.051 169.03 64.249 170.067 64.249 C 170.777 64.249 171.473 64.153 172.156 63.962 C 172.838 63.771 173.466 63.512 174.04 63.184 C 174.613 62.856 175.125 62.454 175.575 61.976 C 176.025 61.499 176.374 60.973 176.62 60.399 L 179.035 61.055 C 178.707 61.847 178.244 62.563 177.643 63.204 C 177.042 63.846 176.346 64.406 175.555 64.883 C 174.762 65.361 173.889 65.73 172.933 65.989 C 171.978 66.248 170.995 66.378 169.986 66.378 Z " fill="rgb(0,136,0)"/></g><clipPath id="_clipPath_nRTZnMwjbz3hvihAhVQ1P6sp80k2tsk0"><path d=" M 0 0 L 0 74.69 L 342.705 74.69 L 342.705 0 L 0 0 Z " fill="rgb(255,255,255)"/></clipPath><g clip-path="url(#_clipPath_nRTZnMwjbz3hvihAhVQ1P6sp80k2tsk0)"><path d=" M 184.809 36.076 L 187.593 36.076 L 187.593 61.137 C 187.593 61.929 187.812 62.549 188.249 63 C 188.684 63.45 189.299 63.675 190.092 63.675 C 190.392 63.675 190.746 63.634 191.156 63.552 C 191.566 63.471 191.948 63.362 192.302 63.225 L 192.794 65.477 C 192.276 65.696 191.641 65.873 190.89 66.009 C 190.139 66.146 189.491 66.214 188.945 66.214 C 187.662 66.214 186.652 65.853 185.914 65.129 C 185.178 64.406 184.809 63.389 184.809 62.078 L 184.809 36.076 Z " fill="rgb(0,136,0)"/></g><clipPath id="_clipPath_ZjNhVzNZcWXMq4lr2G9dkYPK6QXwIB2g"><path d=" M 0 0 L 0 74.69 L 342.705 74.69 L 342.705 0 L 0 0 Z " fill="rgb(255,255,255)"/></clipPath><g clip-path="url(#_clipPath_ZjNhVzNZcWXMq4lr2G9dkYPK6QXwIB2g)"><path d=" M 196.93 55.404 C 196.93 56.605 197.127 57.717 197.524 58.741 C 197.919 59.765 198.465 60.666 199.162 61.444 C 199.858 62.222 200.677 62.829 201.618 63.266 C 202.559 63.703 203.564 63.921 204.628 63.921 C 205.693 63.921 206.696 63.696 207.638 63.245 C 208.58 62.795 209.404 62.181 210.115 61.403 C 210.824 60.625 211.384 59.718 211.794 58.68 C 212.204 57.642 212.409 56.523 212.409 55.322 C 212.409 54.148 212.204 53.036 211.794 51.984 C 211.384 50.934 210.824 50.019 210.115 49.241 C 209.404 48.463 208.585 47.849 207.658 47.398 C 206.73 46.948 205.734 46.723 204.669 46.723 C 203.604 46.723 202.601 46.948 201.659 47.398 C 200.718 47.849 199.898 48.47 199.203 49.261 C 198.506 50.054 197.953 50.975 197.544 52.025 C 197.135 53.077 196.93 54.203 196.93 55.404 Z  M 204.669 66.378 C 203.113 66.378 201.687 66.084 200.39 65.498 C 199.093 64.911 197.974 64.112 197.032 63.102 C 196.09 62.092 195.36 60.918 194.841 59.58 C 194.322 58.243 194.063 56.837 194.063 55.363 C 194.063 53.862 194.329 52.442 194.861 51.104 C 195.394 49.767 196.131 48.593 197.073 47.583 C 198.014 46.573 199.134 45.767 200.43 45.166 C 201.727 44.566 203.14 44.265 204.669 44.265 C 206.198 44.265 207.611 44.566 208.907 45.166 C 210.204 45.767 211.323 46.573 212.265 47.583 C 213.207 48.593 213.944 49.767 214.476 51.104 C 215.009 52.442 215.275 53.862 215.275 55.363 C 215.275 56.837 215.009 58.243 214.476 59.58 C 213.944 60.918 213.207 62.092 212.265 63.102 C 211.323 64.112 210.204 64.911 208.907 65.498 C 207.611 66.084 206.198 66.378 204.669 66.378 Z " fill="rgb(0,136,0)"/></g><clipPath id="_clipPath_0adMHmynwBFmKVByLRroMGR8lQ5tlsTI"><path d=" M 0 0 L 0 74.69 L 342.705 74.69 L 342.705 0 L 0 0 Z " fill="rgb(255,255,255)"/></clipPath><g clip-path="url(#_clipPath_0adMHmynwBFmKVByLRroMGR8lQ5tlsTI)"><path d=" M 229.975 63.921 C 231.122 63.921 232.159 63.675 233.087 63.184 C 234.014 62.693 234.814 62.044 235.482 61.239 C 236.151 60.434 236.663 59.519 237.018 58.495 C 237.373 57.472 237.551 56.414 237.551 55.322 C 237.551 54.175 237.346 53.084 236.936 52.046 C 236.527 51.009 235.968 50.094 235.258 49.302 C 234.547 48.511 233.707 47.883 232.74 47.419 C 231.77 46.955 230.725 46.723 229.606 46.723 C 228.896 46.723 228.16 46.866 227.395 47.152 C 226.63 47.439 225.906 47.822 225.225 48.299 C 224.542 48.777 223.962 49.337 223.485 49.978 C 223.007 50.62 222.713 51.295 222.605 52.005 L 222.605 58.557 C 222.932 59.321 223.348 60.031 223.853 60.686 C 224.358 61.341 224.932 61.908 225.573 62.385 C 226.213 62.863 226.911 63.239 227.662 63.512 C 228.412 63.785 229.183 63.921 229.975 63.921 Z  M 230.753 66.378 C 228.951 66.378 227.354 65.921 225.961 65.006 C 224.57 64.092 223.45 62.938 222.605 61.546 L 222.605 74.69 L 219.82 74.69 L 219.82 44.634 L 222.317 44.634 L 222.317 48.77 C 223.191 47.433 224.325 46.348 225.716 45.515 C 227.109 44.682 228.624 44.265 230.261 44.265 C 231.735 44.265 233.094 44.573 234.336 45.187 C 235.578 45.801 236.65 46.62 237.551 47.644 C 238.451 48.668 239.154 49.849 239.66 51.186 C 240.164 52.524 240.417 53.903 240.417 55.322 C 240.417 56.823 240.185 58.243 239.721 59.58 C 239.257 60.918 238.595 62.092 237.735 63.102 C 236.875 64.112 235.851 64.911 234.664 65.498 C 233.476 66.084 232.173 66.378 230.753 66.378 Z " fill="rgb(0,136,0)"/></g><clipPath id="_clipPath_zpWKCoBJ0TnFuOsAfT9nEnDNqTS3SXZi"><path d=" M 0 0 L 0 74.69 L 342.705 74.69 L 342.705 0 L 0 0 Z " fill="rgb(255,255,255)"/></clipPath><g clip-path="url(#_clipPath_zpWKCoBJ0TnFuOsAfT9nEnDNqTS3SXZi)"><path d=" M 262.201 54.175 C 262.119 53.029 261.853 51.984 261.403 51.043 C 260.952 50.101 260.379 49.289 259.683 48.606 C 258.986 47.924 258.174 47.392 257.247 47.009 C 256.318 46.627 255.335 46.436 254.298 46.436 C 253.26 46.436 252.278 46.627 251.35 47.009 C 250.421 47.392 249.609 47.924 248.913 48.606 C 248.217 49.289 247.657 50.108 247.234 51.063 C 246.811 52.019 246.559 53.056 246.477 54.175 L 262.201 54.175 Z  M 254.339 66.378 C 252.783 66.378 251.35 66.084 250.039 65.498 C 248.729 64.911 247.595 64.105 246.641 63.082 C 245.685 62.058 244.941 60.878 244.409 59.539 C 243.877 58.202 243.611 56.769 243.611 55.24 C 243.611 53.739 243.877 52.326 244.409 51.002 C 244.941 49.678 245.685 48.518 246.641 47.521 C 247.595 46.525 248.722 45.733 250.019 45.146 C 251.316 44.559 252.742 44.265 254.298 44.265 C 255.854 44.265 257.28 44.559 258.577 45.146 C 259.874 45.733 260.987 46.532 261.914 47.542 C 262.842 48.552 263.566 49.712 264.085 51.022 C 264.602 52.333 264.863 53.725 264.863 55.199 C 264.863 55.418 264.855 55.636 264.843 55.854 C 264.829 56.073 264.807 56.223 264.781 56.305 L 246.559 56.305 C 246.641 57.451 246.907 58.509 247.358 59.478 C 247.807 60.447 248.381 61.287 249.077 61.997 C 249.773 62.707 250.578 63.259 251.493 63.655 C 252.407 64.051 253.384 64.249 254.42 64.249 C 255.13 64.249 255.827 64.153 256.509 63.962 C 257.192 63.771 257.82 63.512 258.393 63.184 C 258.967 62.856 259.479 62.454 259.929 61.976 C 260.379 61.499 260.727 60.973 260.972 60.399 L 263.389 61.055 C 263.061 61.847 262.597 62.563 261.997 63.204 C 261.396 63.846 260.699 64.406 259.908 64.883 C 259.116 65.361 258.243 65.73 257.288 65.989 C 256.331 66.248 255.348 66.378 254.339 66.378 Z " fill="rgb(0,136,0)"/></g><clipPath id="_clipPath_tEKGPcwuCYjPq9h4xBY9wrSl70sBEtL7"><path d=" M 0 0 L 0 74.69 L 342.705 74.69 L 342.705 0 L 0 0 Z " fill="rgb(255,255,255)"/></clipPath><g clip-path="url(#_clipPath_tEKGPcwuCYjPq9h4xBY9wrSl70sBEtL7)"><path d=" M 279.686 47.091 C 277.803 47.146 276.164 47.664 274.773 48.647 C 273.38 49.63 272.397 50.981 271.824 52.701 L 271.824 65.968 L 269.04 65.968 L 269.04 44.634 L 271.66 44.634 L 271.66 49.753 C 272.397 48.252 273.365 47.003 274.568 46.006 C 275.768 45.01 277.065 44.511 278.458 44.511 C 278.703 44.511 278.934 44.511 279.154 44.511 C 279.372 44.511 279.549 44.526 279.686 44.552 L 279.686 47.091 Z " fill="rgb(0,136,0)"/></g><clipPath id="_clipPath_VkKHAwrQObPLHHhcSCibW1XtJfDzHYuN"><path d=" M 0 0 L 0 74.69 L 342.705 74.69 L 342.705 0 L 0 0 Z " fill="rgb(255,255,255)"/></clipPath><g clip-path="url(#_clipPath_VkKHAwrQObPLHHhcSCibW1XtJfDzHYuN)"><path d=" M 290.374 66.378 C 288.708 66.378 287.084 66.105 285.501 65.559 C 283.917 65.013 282.552 64.222 281.406 63.184 L 282.676 61.3 C 283.877 62.283 285.098 63.02 286.34 63.512 C 287.583 64.003 288.913 64.249 290.333 64.249 C 292.052 64.249 293.424 63.901 294.448 63.204 C 295.472 62.508 295.984 61.519 295.984 60.236 C 295.984 59.636 295.847 59.137 295.574 58.741 C 295.3 58.346 294.898 57.998 294.366 57.697 C 293.834 57.397 293.164 57.131 292.36 56.898 C 291.554 56.667 290.619 56.427 289.555 56.182 C 288.326 55.882 287.262 55.582 286.361 55.281 C 285.46 54.981 284.716 54.64 284.129 54.257 C 283.541 53.875 283.105 53.404 282.819 52.844 C 282.532 52.285 282.388 51.582 282.388 50.736 C 282.388 49.671 282.599 48.729 283.023 47.91 C 283.446 47.091 284.02 46.415 284.743 45.883 C 285.465 45.351 286.313 44.948 287.282 44.675 C 288.25 44.403 289.282 44.265 290.374 44.265 C 292.011 44.265 293.5 44.532 294.836 45.064 C 296.174 45.596 297.254 46.3 298.072 47.173 L 296.72 48.811 C 295.929 47.992 294.967 47.378 293.834 46.968 C 292.701 46.559 291.52 46.354 290.292 46.354 C 289.555 46.354 288.872 46.43 288.245 46.579 C 287.616 46.73 287.063 46.968 286.586 47.296 C 286.108 47.623 285.732 48.04 285.46 48.545 C 285.187 49.05 285.051 49.644 285.051 50.326 C 285.051 50.899 285.146 51.364 285.337 51.718 C 285.527 52.073 285.842 52.381 286.279 52.64 C 286.715 52.899 287.268 53.131 287.938 53.336 C 288.606 53.541 289.417 53.752 290.374 53.97 C 291.739 54.298 292.94 54.626 293.977 54.953 C 295.015 55.281 295.881 55.663 296.578 56.1 C 297.273 56.537 297.799 57.069 298.154 57.697 C 298.509 58.325 298.686 59.089 298.686 59.99 C 298.686 61.956 297.935 63.512 296.434 64.658 C 294.933 65.805 292.912 66.378 290.374 66.378 Z " fill="rgb(0,136,0)"/></g><clipPath id="_clipPath_1DMBvm7MIHhHwQIJPX2Tjeg0gDm2HagS"><path d=" M 0 0 L 0 74.69 L 342.705 74.69 L 342.705 0 L 0 0 Z " fill="rgb(255,255,255)"/></clipPath><g clip-path="url(#_clipPath_1DMBvm7MIHhHwQIJPX2Tjeg0gDm2HagS)"><path d=" M 302.863 65.968 L 302.863 61.956 L 305.238 61.956 L 305.238 65.968 L 302.863 65.968 Z " fill="rgb(0,136,0)"/></g><clipPath id="_clipPath_R5DeMpUbqxF2iiYBng9KUrGwcrYlj7JJ"><path d=" M 0 0 L 0 74.69 L 342.705 74.69 L 342.705 0 L 0 0 Z " fill="rgb(255,255,255)"/></clipPath><g clip-path="url(#_clipPath_R5DeMpUbqxF2iiYBng9KUrGwcrYlj7JJ)"><path d=" M 328.824 65.968 L 326.04 65.968 L 326.04 54.052 C 326.04 51.514 325.672 49.671 324.935 48.524 C 324.198 47.378 323.05 46.805 321.495 46.805 C 320.676 46.805 319.856 46.955 319.038 47.255 C 318.219 47.556 317.454 47.978 316.745 48.524 C 316.035 49.071 315.414 49.719 314.882 50.469 C 314.349 51.221 313.946 52.032 313.674 52.906 L 313.674 65.968 L 310.889 65.968 L 310.889 44.634 L 313.428 44.634 L 313.428 49.466 C 313.864 48.702 314.403 47.999 315.045 47.357 C 315.687 46.716 316.404 46.163 317.195 45.699 C 317.986 45.235 318.826 44.88 319.713 44.634 C 320.601 44.388 321.522 44.265 322.478 44.265 C 323.679 44.265 324.682 44.485 325.487 44.921 C 326.292 45.358 326.941 45.972 327.433 46.764 C 327.924 47.556 328.278 48.524 328.497 49.671 C 328.716 50.818 328.824 52.087 328.824 53.479 L 328.824 65.968 Z " fill="rgb(0,136,0)"/></g><clipPath id="_clipPath_DxbfyjSh2oIWcRooR00Vaf6fiMr3XlgH"><path d=" M 0 0 L 0 74.69 L 342.705 74.69 L 342.705 0 L 0 0 Z " fill="rgb(255,255,255)"/></clipPath><g clip-path="url(#_clipPath_DxbfyjSh2oIWcRooR00Vaf6fiMr3XlgH)"><path d=" M 334.721 36.076 L 337.505 36.076 L 337.505 61.137 C 337.505 61.929 337.724 62.549 338.16 63 C 338.597 63.45 339.211 63.675 340.003 63.675 C 340.303 63.675 340.658 63.634 341.068 63.552 C 341.478 63.471 341.859 63.362 342.214 63.225 L 342.705 65.477 C 342.187 65.696 341.552 65.873 340.802 66.009 C 340.051 66.146 339.402 66.214 338.856 66.214 C 337.573 66.214 336.564 65.853 335.826 65.129 C 335.089 64.406 334.721 63.389 334.721 62.078 L 334.721 36.076 Z " fill="rgb(0,136,0)"/></g><clipPath id="_clipPath_bBHUa7AFT4l8AbBO40y9YXB2KvqZSdkt"><path d=" M 0 0 L 0 74.69 L 342.705 74.69 L 342.705 0 L 0 0 Z " fill="rgb(255,255,255)"/></clipPath><g clip-path="url(#_clipPath_bBHUa7AFT4l8AbBO40y9YXB2KvqZSdkt)"><path d=" M 131.821 46.532 C 130.783 45.45 129.531 44.583 128.064 43.93 C 126.597 43.279 124.959 42.952 123.151 42.952 C 121.314 42.952 119.653 43.271 118.173 43.908 C 116.69 44.546 115.423 45.42 114.371 46.532 C 113.319 47.643 112.504 48.932 111.926 50.399 C 111.348 51.866 111.059 53.415 111.059 55.045 C 111.059 56.675 111.348 58.217 111.926 59.669 C 112.504 61.122 113.319 62.396 114.371 63.492 C 115.423 64.589 116.69 65.456 118.173 66.093 C 119.653 66.73 121.299 67.049 123.107 67.049 C 125.567 67.049 127.723 66.493 129.576 65.382 C 131.428 64.27 133.275 61.492 133.275 61.492 C 133.275 61.492 133.732 59.651 132.256 59.082 C 130.176 58.281 129.375 59.891 129.375 59.891 C 129.138 60.425 128.813 60.914 128.398 61.358 C 127.982 61.803 127.508 62.181 126.975 62.492 C 126.441 62.803 125.856 63.041 125.219 63.203 C 124.581 63.367 123.937 63.448 123.285 63.448 C 122.395 63.448 121.543 63.285 120.728 62.959 C 119.913 62.633 119.188 62.166 118.55 61.558 C 117.912 60.951 117.394 60.232 116.994 59.402 C 116.594 58.573 116.35 57.639 116.26 56.601 L 116.26 56.601 L 116.127 53.222 L 116.127 53.222 C 116.216 52.244 116.453 51.341 116.838 50.51 C 117.223 49.681 117.727 48.976 118.35 48.399 C 118.973 47.821 119.691 47.369 120.507 47.043 C 121.322 46.717 122.188 46.554 123.107 46.554 C 124.025 46.554 124.9 46.717 125.73 47.043 C 126.56 47.369 127.287 47.821 127.908 48.399 C 128.531 48.976 129.042 49.681 129.442 50.51 C 129.842 51.341 130.087 52.244 130.176 53.222 L 119.257 53.222 C 119.257 53.222 118.3 53.418 118.347 54.978 C 118.394 56.539 119.257 56.601 119.257 56.601 L 134.889 56.601 C 134.918 56.394 134.947 56.134 134.978 55.823 C 135.007 55.512 135.022 55.179 135.022 54.823 C 135.022 53.252 134.747 51.748 134.199 50.311 C 133.65 48.873 132.858 47.614 131.821 46.532 Z " fill="rgb(0,136,0)"/></g><clipPath id="_clipPath_t4XDe9jt82AY0r93O2poYZ5Xv4Xk5cTh"><path d=" M 0 0 L 0 74.69 L 342.705 74.69 L 342.705 0 L 0 0 Z " fill="rgb(255,255,255)"/></clipPath><g clip-path="url(#_clipPath_t4XDe9jt82AY0r93O2poYZ5Xv4Xk5cTh)"><path d=" M 109.732 40.217 C 108.026 31.081 99.797 23.159 89.838 21.605 C 86.054 21.014 82.218 21.287 78.406 21.376 C 76.652 21.417 75.919 22.353 75.919 24.115 C 75.919 36.851 75.919 49.588 75.919 62.324 C 75.919 62.625 75.919 62.926 75.919 63.299 C 75.595 63.299 75.357 63.299 75.12 63.299 C 55.121 63.299 35.123 63.3 15.125 63.298 C 14.883 63.298 14.635 63.305 14.401 63.255 C 9.266 62.151 3.94 57.103 4.92 49.625 C 5.508 45.135 8.143 42.101 12.101 40.142 C 13.132 39.631 13.596 38.878 13.748 37.789 C 13.897 36.725 14.037 35.638 14.376 34.627 C 17.257 26.03 26.448 21.205 35.689 24.691 C 36.861 25.133 38.214 24.688 38.757 23.607 C 39.342 22.444 38.93 21.032 37.787 20.414 C 37.346 20.177 36.868 19.977 36.382 19.858 C 34.767 19.462 33.141 19.111 31.46 18.729 C 31.493 18.559 31.527 18.301 31.595 18.053 C 33.892 9.689 42.5 2.644 53.562 5.334 C 59.247 6.717 63.129 10.403 65.581 15.629 C 66.732 18.083 67.077 20.721 67.054 23.419 C 67.043 24.644 68.075 25.629 69.291 25.648 C 70.593 25.669 71.723 24.71 71.758 23.503 C 71.863 19.858 71.316 16.312 69.652 13.052 C 65.962 5.822 60.19 1.327 52.036 0.246 C 48.673 -0.2 45.277 -0.101 42.04 1.059 C 33.748 4.031 28.486 9.736 26.632 18.438 C 26.554 18.804 26.461 19.068 25.987 19.097 C 25.465 19.129 24.939 19.251 24.435 19.402 C 16.155 21.893 11.001 27.296 9.158 35.795 C 9.095 36.084 8.843 36.408 8.587 36.568 C 4.291 39.245 1.335 42.878 0.391 47.959 C 0.232 48.817 0.129 49.687 0 50.551 C 0 51.081 0 51.61 0 52.14 C 0.136 53.021 0.25 53.907 0.413 54.783 C 1.734 61.86 8.075 67.557 15.27 68.148 C 15.481 68.165 19.565 68.045 20.275 68.045 C 39.457 68.031 58.638 68.033 77.82 68.033 C 79.8 68.033 80.64 67.201 80.64 65.239 C 80.64 52.525 80.639 39.811 80.642 27.097 C 80.642 25.972 80.483 26.037 81.722 26.049 C 83.663 26.068 85.607 26.044 87.543 26.152 C 92.252 26.416 96.245 28.344 99.645 31.559 C 102.569 34.324 104.542 37.646 105.157 41.642 C 106.187 48.343 104.118 53.991 99.063 58.511 C 95.324 61.854 90.896 63.518 85.903 63.503 C 83.585 63.496 82.68 65.639 83.499 66.936 C 83.85 67.492 84.513 67.851 85.034 68.299 C 85.785 68.299 86.536 68.299 87.286 68.299 C 88.149 68.16 89.011 68.018 89.874 67.883 C 96.027 66.921 101.013 63.924 104.992 59.189 C 107.848 55.791 109.477 51.855 110.024 47.46 C 110.072 47.076 110.141 46.695 110.2 46.312 C 110.2 45.297 110.2 44.281 110.2 43.266 C 110.15 43.057 110.082 42.85 110.053 42.638 C 109.941 41.831 109.881 41.016 109.732 40.217 Z " fill="rgb(0,136,0)"/></g><clipPath id="_clipPath_0Imr5hfMqdXDwwvCcxQ7Cm6FE9XIs6ep"><path d=" M 0 0 L 0 74.69 L 342.705 74.69 L 342.705 0 L 0 0 Z " fill="rgb(255,255,255)"/></clipPath><g clip-path="url(#_clipPath_0Imr5hfMqdXDwwvCcxQ7Cm6FE9XIs6ep)"><path d=" M 142.515 47.324 L 146.926 59.701 L 151.677 46.785 C 152.049 45.747 152.416 45.012 152.774 44.58 C 153.134 44.148 153.68 43.931 154.412 43.931 C 155.103 43.931 155.692 44.164 156.178 44.63 C 156.664 45.096 156.907 45.635 156.907 46.247 C 156.907 46.486 156.864 46.765 156.777 47.085 C 156.69 47.404 156.59 47.704 156.477 47.983 C 156.365 48.263 156.235 48.582 156.089 48.941 L 150.858 61.916 C 150.712 62.289 150.522 62.761 150.29 63.334 C 150.057 63.906 149.797 64.395 149.511 64.801 C 149.225 65.207 148.873 65.523 148.453 65.749 C 148.034 65.975 147.525 66.088 146.926 66.088 C 146.154 66.088 145.538 65.912 145.079 65.559 C 144.62 65.207 144.281 64.821 144.062 64.401 C 143.842 63.982 143.472 63.154 142.953 61.916 L 137.764 49.081 C 137.644 48.762 137.521 48.442 137.394 48.123 C 137.268 47.804 137.162 47.478 137.075 47.145 C 136.988 46.812 136.945 46.526 136.945 46.286 C 136.945 45.914 137.058 45.545 137.284 45.178 C 137.511 44.813 137.824 44.513 138.223 44.28 C 138.622 44.048 139.054 43.931 139.52 43.931 C 140.425 43.931 141.048 44.19 141.387 44.71 C 141.727 45.229 142.102 46.1 142.515 47.324 Z " fill="rgb(0,136,0)"/></g></g></svg>