<?xml version="1.0" standalone="no"?><!-- Generator: Gravit.io --><svg xmlns="http://www.w3.org/2000/svg" xmlns:xlink="http://www.w3.org/1999/xlink" style="isolation:isolate" viewBox="0 0 695.3 236" width="695.3" height="236"><defs><clipPath id="_clipPath_wUG0l4CX4eVIfzegWyU54uba0MCx1FAO"><rect width="695.3" height="236"/></clipPath></defs><g clip-path="url(#_clipPath_wUG0l4CX4eVIfzegWyU54uba0MCx1FAO)"><clipPath id="_clipPath_qxMt9l7si1wx27VHUgyggvNy6fYVZzI9"><path d=" M 50 186.063 L 645.276 186.063 L 645.276 50 L 50 50 L 50 186.063 Z " fill="rgb(255,255,255)"/></clipPath><g clip-path="url(#_clipPath_qxMt9l7si1wx27VHUgyggvNy6fYVZzI9)"><path d=" M 543.595 111.833 C 539.501 124.487 524.925 131.043 499.86 131.505 L 504.154 118.229 C 512.532 117.84 517.35 115.777 518.61 112.046 C 518.947 109.273 517.503 106.966 514.279 105.115 C 504.149 98.469 494.558 92.674 485.507 87.733 C 479.22 83.541 476.431 78.065 477.134 71.312 C 481.201 58.591 495.306 51.996 519.454 51.532 L 515.264 64.488 C 508.194 64.914 504.028 66.852 502.76 70.303 C 501.16 73.216 501.698 75.402 504.385 76.858 C 515.43 83.042 523.187 87.413 527.657 89.973 C 529.902 91.218 531.618 92.186 532.796 92.877 C 533.971 93.573 534.624 93.956 534.757 94.026 C 542.879 99.001 545.824 104.935 543.595 111.833 Z  M 487.504 107.088 C 485.629 113.841 489.17 117.538 498.131 118.178 L 493.821 131.505 C 468.268 130.795 458.014 122.656 463.049 107.088 L 487.504 107.088 Z " fill="rgb(0,136,0)"/><path d=" M 100.181 65.714 L 104.353 52.816 L 137.523 52.816 L 133.351 65.714 L 100.181 65.714 Z  M 90.321 96.212 L 94.493 83.308 L 125.75 83.308 L 121.577 96.212 L 90.321 96.212 Z  M 74.929 52.816 L 100.455 52.816 L 75.526 129.906 L 50 129.906 L 74.929 52.816 Z " fill="rgb(0,136,0)"/><path d=" M 122.222 129.906 L 147.152 52.816 L 173.213 52.816 L 148.284 129.906 L 122.222 129.906 Z " fill="rgb(0,136,0)"/><path d=" M 248.791 52.816 L 272.791 52.816 L 247.862 129.906 L 223.94 129.906 L 248.791 52.816 Z  M 228.909 98.237 L 220.36 124.682 L 205.525 85.709 L 214.18 58.945 L 228.909 98.237 Z  M 187.275 52.816 L 210.967 52.816 L 186.04 129.906 L 162.346 129.906 L 187.275 52.816 Z " fill="rgb(0,136,0)"/><path d=" M 309.169 52.816 L 341.88 52.816 L 344.923 129.906 L 318.403 129.906 L 318.312 113.644 L 296.453 113.644 L 304.302 100.956 L 318.899 100.956 L 320.263 69.554 L 281.414 129.906 L 256.193 129.906 L 309.169 52.816 Z " fill="rgb(0,136,0)"/><path d=" M 416.503 117.005 L 412.33 129.906 L 382.906 129.906 L 387.079 117.005 L 416.503 117.005 Z  M 377.569 52.816 L 402.941 52.816 L 378.012 129.906 L 352.641 129.906 L 377.569 52.816 Z " fill="rgb(0,136,0)"/><path d=" M 421.576 129.906 L 446.505 52.816 L 472.567 52.816 L 447.638 129.906 L 421.576 129.906 Z " fill="rgb(0,136,0)"/><path d=" M 529.46 73.765 C 531.127 68.293 528.478 65.217 521.512 64.542 L 525.721 51.532 C 549.928 52.14 559.741 59.532 555.157 73.711 L 529.46 73.765 Z " fill="rgb(0,136,0)"/><path d=" M 567.183 129.906 L 586.923 68.86 L 612.529 68.86 L 592.788 129.906 L 567.183 129.906 Z  M 565.747 52.816 L 644.311 52.816 L 640.138 65.714 L 561.574 65.714 L 565.747 52.816 Z " fill="rgb(0,136,0)"/><path d=" M 422.678 156.336 C 416.934 156.336 412.664 161.607 412.07 166.739 C 411.731 169.667 412.998 171.379 416.772 171.379 C 422.064 171.379 426.817 166.785 427.494 160.932 C 427.839 157.958 426.394 156.336 422.678 156.336 Z  M 415.447 175.521 C 408.07 175.521 405.2 172.593 405.788 167.507 C 406.847 158.363 414.987 152.239 424.051 152.239 C 431.709 152.239 434.359 155.617 433.807 160.389 C 432.744 169.578 424.005 175.521 415.447 175.521 Z " fill="rgb(0,136,0)"/><path d=" M 456.014 156.336 C 451.285 156.336 444.819 164.533 443.166 169.578 L 442.645 171.155 C 443.624 171.469 445.122 171.65 446.192 171.65 C 453.625 171.65 457.527 165.165 458.126 159.987 C 458.422 157.417 457.592 156.336 456.014 156.336 Z  M 444.685 175.433 C 443.446 175.433 442.387 175.343 441.166 175.207 L 437.374 186.063 L 431.463 186.063 L 439.488 163.407 C 440.926 159.265 442.253 155.571 443.149 152.689 L 449.006 152.689 C 448.341 154.535 447.375 156.564 445.197 160.796 L 445.303 160.84 C 448.689 155.931 453.342 152.193 458.692 152.193 C 462.855 152.193 464.858 154.357 464.306 159.129 C 463.342 167.461 456.96 175.433 444.685 175.433 Z " fill="rgb(0,136,0)"/><path d=" M 482.993 155.842 C 478.939 155.842 475.897 158.767 474.374 162.193 C 482.059 161.968 485.807 160.706 486.104 158.138 C 486.278 156.653 485.077 155.842 482.993 155.842 Z  M 473.26 165.525 C 473.079 166.111 472.85 167.101 472.772 167.777 C 472.418 170.839 473.731 171.65 477.955 171.65 C 480.602 171.65 483.529 171.155 486.102 170.343 L 485.664 174.127 C 482.694 174.983 479.197 175.521 475.535 175.521 C 468.78 175.521 466.129 173.137 466.712 168.092 C 467.749 159.129 475.078 152.239 484.087 152.239 C 490.504 152.239 492.398 154.849 492.092 157.507 C 491.506 162.554 484.837 165.211 473.26 165.525 Z " fill="rgb(0,136,0)"/><path d=" M 515.795 175.073 L 509.884 175.073 L 514.96 160.887 C 516.116 157.689 515.54 156.336 513.344 156.336 C 508.842 156.336 502.396 164.353 500.532 169.759 L 498.679 175.073 L 492.768 175.073 L 496.938 163.364 C 498.269 159.625 499.625 155.707 500.593 152.689 L 506.448 152.689 C 505.949 154.084 504.941 156.471 502.655 160.661 L 502.76 160.706 C 505.921 156.293 510.559 152.193 516.189 152.193 C 521.481 152.193 522.822 155.211 521.225 159.76 L 515.795 175.073 Z " fill="rgb(0,136,0)"/><path d=" M 545.524 175.073 L 539.501 175.073 L 550.223 144.674 L 556.246 144.674 L 545.524 175.073 Z " fill="rgb(0,136,0)"/><path d=" M 586.512 148.816 L 576.265 148.816 L 566.979 175.073 L 560.954 175.073 L 570.24 148.816 L 559.992 148.816 L 561.43 144.674 L 587.948 144.674 L 586.512 148.816 Z " fill="rgb(0,136,0)"/></g></g></svg>