<?xml version="1.0" standalone="no"?><!-- Generator: Gravit.io --><svg xmlns="http://www.w3.org/2000/svg" xmlns:xlink="http://www.w3.org/1999/xlink" style="isolation:isolate" viewBox="0 0 110 50" width="110" height="50"><defs><clipPath id="_clipPath_5COGVh8LDXyQZ1JZxQLjFvuY9Jsts3Zs"><rect width="110" height="50"/></clipPath></defs><g clip-path="url(#_clipPath_5COGVh8LDXyQZ1JZxQLjFvuY9Jsts3Zs)"><path d=" M 46.601 12.755 C 39.837 12.755 34.355 18.238 34.355 25 C 34.355 31.761 39.838 37.246 46.601 37.246 C 53.364 37.246 58.846 31.763 58.846 24.999 C 58.846 18.237 53.363 12.755 46.601 12.755 Z  M 46.601 14.58 C 52.346 14.58 57.021 19.254 57.021 25 C 57.021 30.746 52.347 35.42 46.601 35.42 C 40.855 35.42 36.181 30.746 36.181 24.999 C 36.181 19.254 40.855 14.58 46.602 14.58 L 46.601 14.58 Z " fill="rgb(0,136,0)"/><path d=" M 51.101 28.492 L 48.761 27.203 L 48.761 29.622 L 51.101 28.492 Z " fill="rgb(0,136,0)"/><path d=" M 44.306 19.586 L 45.228 21.152 L 47.202 24.521 L 52.115 22.239 L 49.219 17.311 L 44.306 19.586 Z " fill="rgb(0,136,0)"/><path d=" M 42.875 20.294 L 40.643 22.425 L 40.643 28.855 L 41.953 29.57 L 41.953 25 L 43.869 26.051 L 43.869 30.614 L 45.765 31.644 L 45.765 25.222 L 43.776 21.823 L 43.769 21.816 L 42.875 20.294 Z " fill="rgb(0,136,0)"/><path d=" M 45.228 21.153 L 43.776 21.825 L 45.765 25.223 L 45.765 26.589 L 46.508 26.253 L 47.202 26.64 L 47.202 25.638 L 52.116 23.356 L 51.008 22.755 L 47.202 24.522 L 45.228 21.153 Z " fill="rgb(0,136,0)"/><path d=" M 48.253 29.414 L 48.253 26.224 L 51.264 24.772 L 51.264 27.961 L 50.384 28.384 L 48.252 29.414 L 48.253 29.414 Z  M 47.202 25.637 L 47.202 31.616 L 52.115 29.334 L 52.115 23.355 L 47.202 25.637 Z " fill="rgb(0,136,0)"/><path d=" M 48.253 27.211 L 50.385 28.384 L 51.265 27.961 L 51.265 24.771 L 48.254 26.223 L 48.253 27.211 Z " fill="rgb(0,136,0)"/><path d=" M 41.952 28.269 L 43.868 27.426 L 43.868 26.052 L 41.952 25.001 L 41.952 28.269 Z " fill="rgb(0,136,0)"/><path d=" M 7.736 20.508 C 7.47 20.429 7.288 20.388 7.19 20.382 C 7.092 20.376 6.983 20.375 6.865 20.375 C 6.54 20.375 6.314 20.455 6.186 20.611 C 6.058 20.767 5.994 21.069 5.994 21.512 L 5.994 21.985 L 7.56 21.985 L 7.56 23.506 L 5.994 23.506 L 5.994 30.092 L 4.236 30.092 L 4.236 23.52 L 2.833 23.52 L 2.833 21.999 L 4.236 21.999 L 4.236 21.689 C 4.236 20.763 4.443 20.066 4.856 19.598 C 5.269 19.13 5.841 18.858 6.569 18.778 C 6.717 18.759 6.891 18.761 7.093 18.786 C 7.295 18.81 7.455 18.835 7.573 18.86 C 7.691 18.885 7.76 18.897 7.78 18.897 L 7.736 20.508 Z " fill="rgb(0,136,0)"/><path d=" M 9.833 30.094 L 8.519 30.094 L 8.519 18.943 L 10.277 18.943 L 10.277 30.094 L 9.834 30.094 L 9.833 30.094 Z " fill="rgb(0,136,0)"/><path d=" M 18.038 27.694 C 17.866 28.211 17.624 28.66 17.314 29.038 C 17.004 29.418 16.632 29.715 16.199 29.932 C 15.766 30.149 15.293 30.257 14.781 30.257 C 14.259 30.257 13.782 30.149 13.348 29.932 C 12.914 29.715 12.543 29.418 12.233 29.038 C 11.923 28.66 11.682 28.211 11.509 27.694 C 11.336 27.177 11.251 26.623 11.251 26.033 C 11.251 25.432 11.335 24.874 11.502 24.357 C 11.669 23.84 11.908 23.395 12.218 23.02 C 12.528 22.647 12.9 22.351 13.333 22.134 C 13.766 21.917 14.249 21.809 14.78 21.809 C 15.311 21.809 15.792 21.917 16.22 22.134 C 16.648 22.351 17.018 22.647 17.328 23.02 C 17.638 23.395 17.877 23.84 18.044 24.357 C 18.211 24.874 18.295 25.433 18.295 26.033 C 18.295 26.623 18.208 27.177 18.037 27.694 L 18.038 27.694 Z  M 16.421 26.032 C 16.421 25.185 16.263 24.525 15.948 24.053 C 15.633 23.581 15.244 23.344 14.781 23.344 C 14.318 23.344 13.927 23.58 13.607 24.053 C 13.287 24.525 13.127 25.185 13.127 26.032 C 13.127 26.889 13.285 27.551 13.6 28.018 C 13.915 28.485 14.309 28.719 14.782 28.719 C 15.255 28.719 15.644 28.488 15.949 28.025 C 16.254 27.562 16.407 26.898 16.407 26.031 L 16.422 26.031 L 16.421 26.032 Z " fill="rgb(0,136,0)"/><path d=" M 25.659 27.694 C 25.487 28.211 25.245 28.66 24.935 29.038 C 24.625 29.418 24.253 29.715 23.82 29.932 C 23.387 30.149 22.914 30.257 22.402 30.257 C 21.88 30.257 21.403 30.149 20.969 29.932 C 20.535 29.715 20.164 29.418 19.854 29.038 C 19.544 28.66 19.303 28.211 19.13 27.694 C 18.957 27.177 18.872 26.623 18.872 26.033 C 18.872 25.432 18.956 24.874 19.123 24.357 C 19.29 23.84 19.529 23.395 19.839 23.02 C 20.149 22.647 20.521 22.351 20.954 22.134 C 21.387 21.917 21.87 21.809 22.401 21.809 C 22.932 21.809 23.413 21.917 23.841 22.134 C 24.269 22.351 24.639 22.647 24.949 23.02 C 25.259 23.395 25.498 23.84 25.665 24.357 C 25.832 24.874 25.916 25.433 25.916 26.033 C 25.916 26.623 25.83 27.177 25.658 27.694 L 25.659 27.694 Z  M 24.041 26.032 C 24.041 25.185 23.883 24.525 23.568 24.053 C 23.253 23.581 22.864 23.344 22.401 23.344 C 21.938 23.344 21.547 23.58 21.227 24.053 C 20.907 24.525 20.747 25.185 20.747 26.032 C 20.747 26.889 20.905 27.551 21.22 28.018 C 21.535 28.485 21.929 28.719 22.402 28.719 C 22.875 28.719 23.264 28.488 23.569 28.025 C 23.874 27.562 24.027 26.898 24.027 26.031 L 24.042 26.031 L 24.041 26.032 Z " fill="rgb(0,136,0)"/><path d=" M 30.391 23.477 C 29.948 23.477 29.579 23.716 29.283 24.193 C 28.987 24.67 28.84 25.357 28.84 26.253 L 28.84 30.093 L 27.082 30.093 L 27.082 21.985 L 28.588 21.985 L 28.662 22.842 C 29.115 22.153 29.686 21.807 30.375 21.807 L 31.099 21.897 L 31.099 23.581 L 30.39 23.478 L 30.391 23.477 Z " fill="rgb(0,136,0)"/><path d=" M 68.619 27.716 C 68.481 28.228 68.283 28.674 68.021 29.053 C 67.759 29.432 67.443 29.727 67.068 29.939 C 66.693 30.151 66.27 30.257 65.798 30.257 C 65.453 30.257 65.127 30.193 64.816 30.065 C 64.505 29.937 64.223 29.745 63.967 29.49 L 63.967 32.901 L 62.195 32.901 L 62.195 21.987 L 63.732 21.987 L 63.82 22.814 C 64.086 22.469 64.384 22.216 64.714 22.053 C 65.044 21.89 65.396 21.809 65.77 21.809 C 66.252 21.809 66.682 21.917 67.062 22.134 C 67.442 22.351 67.761 22.647 68.022 23.02 C 68.283 23.395 68.482 23.843 68.62 24.365 C 68.758 24.887 68.827 25.448 68.827 26.049 C 68.826 26.649 68.758 27.205 68.62 27.717 L 68.619 27.716 Z  M 66.935 26.091 C 66.935 25.165 66.805 24.481 66.544 24.038 C 66.283 23.595 65.936 23.373 65.503 23.373 C 65.306 23.373 65.121 23.426 64.948 23.535 C 64.775 23.644 64.621 23.791 64.484 23.977 C 64.346 24.165 64.23 24.386 64.136 24.642 C 64.042 24.898 63.976 25.173 63.937 25.469 L 63.937 26.429 C 63.937 26.734 63.979 27.025 64.062 27.3 C 64.145 27.575 64.259 27.817 64.402 28.024 C 64.545 28.231 64.712 28.396 64.904 28.519 C 65.095 28.642 65.3 28.704 65.517 28.704 C 65.694 28.704 65.869 28.645 66.041 28.527 C 66.213 28.409 66.363 28.237 66.491 28.009 C 66.619 27.783 66.722 27.51 66.802 27.189 C 66.882 26.868 66.92 26.502 66.92 26.089 L 66.935 26.089 L 66.935 26.091 Z " fill="rgb(0,136,0)"/><path d=" M 71.603 30.094 L 70.288 30.094 L 70.288 18.943 L 72.046 18.943 L 72.046 30.094 L 71.604 30.094 L 71.603 30.094 Z " fill="rgb(0,136,0)"/><path d=" M 79.172 29.304 C 79.157 29.496 79.155 29.593 79.164 29.593 L 79.164 30.094 L 77.673 30.094 L 77.57 29.341 C 77.275 29.666 76.95 29.901 76.595 30.043 C 76.24 30.185 75.885 30.257 75.531 30.257 C 74.685 30.257 74.025 30.028 73.552 29.57 C 73.079 29.112 72.844 28.509 72.844 27.761 C 72.844 26.895 73.111 26.227 73.648 25.761 C 74.185 25.295 74.921 25.025 75.856 24.956 C 76.004 24.937 76.146 24.926 76.283 24.926 C 76.431 24.926 76.583 24.926 76.742 24.926 L 77.436 24.926 L 77.436 24.867 C 77.436 24.297 77.322 23.895 77.096 23.663 C 76.87 23.431 76.54 23.316 76.106 23.316 C 75.899 23.316 75.671 23.338 75.419 23.382 C 75.167 23.426 74.923 23.478 74.688 23.537 C 74.452 23.595 74.242 23.655 74.059 23.714 C 73.876 23.773 73.756 23.812 73.698 23.832 L 73.358 22.503 C 73.407 22.484 73.516 22.437 73.683 22.363 C 73.85 22.289 74.065 22.21 74.325 22.127 C 74.586 22.043 74.885 21.97 75.219 21.905 C 75.553 21.84 75.908 21.809 76.282 21.809 C 77.325 21.809 78.072 22.085 78.52 22.636 C 78.968 23.187 79.192 24.02 79.192 25.132 L 79.192 28.618 C 79.192 28.883 79.184 29.112 79.17 29.304 L 79.172 29.304 Z  M 77.436 26.372 L 76.919 26.343 C 76.515 26.333 76.173 26.36 75.893 26.424 C 75.613 26.488 75.383 26.582 75.206 26.705 C 75.029 26.828 74.901 26.976 74.822 27.148 C 74.743 27.32 74.703 27.506 74.703 27.702 C 74.703 27.988 74.794 28.232 74.976 28.434 C 75.158 28.635 75.417 28.737 75.751 28.737 C 75.997 28.737 76.223 28.683 76.43 28.575 C 76.637 28.467 76.815 28.319 76.962 28.132 C 77.109 27.944 77.225 27.726 77.31 27.475 C 77.394 27.223 77.435 26.95 77.435 26.655 L 77.435 26.373 L 77.436 26.372 Z " fill="rgb(0,136,0)"/><path d=" M 86.593 30.094 L 85.279 30.094 L 85.279 25.028 C 85.279 24.458 85.18 24.036 84.984 23.765 C 84.788 23.494 84.516 23.359 84.172 23.359 C 83.719 23.359 83.333 23.583 83.013 24.031 C 82.693 24.479 82.533 25.151 82.533 26.047 L 82.533 30.094 L 80.761 30.094 L 80.761 21.986 L 82.474 21.986 L 82.474 22.71 C 82.73 22.395 83.025 22.167 83.36 22.023 C 83.695 21.879 84.059 21.809 84.453 21.809 C 85.319 21.809 85.966 22.114 86.394 22.725 C 86.822 23.336 87.036 24.153 87.036 25.176 L 87.036 30.11 L 86.593 30.095 L 86.593 30.094 Z " fill="rgb(0,136,0)"/><path d=" M 94.008 30.094 L 92.693 30.094 L 92.693 25.028 C 92.693 24.458 92.595 24.036 92.398 23.765 C 92.201 23.494 91.93 23.359 91.586 23.359 C 91.134 23.359 90.747 23.583 90.427 24.031 C 90.107 24.479 89.946 25.151 89.946 26.047 L 89.946 30.094 L 88.174 30.094 L 88.174 21.986 L 89.887 21.986 L 89.887 22.71 C 90.143 22.395 90.438 22.167 90.773 22.023 C 91.108 21.879 91.472 21.809 91.866 21.809 C 92.732 21.809 93.38 22.114 93.807 22.725 C 94.234 23.336 94.449 24.153 94.449 25.176 L 94.449 30.11 L 94.007 30.095 L 94.008 30.094 Z " fill="rgb(0,136,0)"/><path d=" M 97.257 26.49 C 97.326 27.11 97.479 27.608 97.716 27.982 C 98.02 28.464 98.469 28.706 99.06 28.706 C 99.237 28.706 99.437 28.679 99.658 28.624 C 99.88 28.571 100.093 28.508 100.3 28.439 C 100.507 28.37 100.692 28.304 100.854 28.24 C 101.016 28.176 101.128 28.129 101.186 28.1 L 101.496 28.912 L 101.881 29.591 C 101.487 29.729 101.144 29.84 100.854 29.922 C 100.564 30.006 100.253 30.082 99.924 30.151 C 99.595 30.22 99.296 30.254 99.03 30.254 C 98.439 30.254 97.918 30.156 97.464 29.959 C 97.01 29.761 96.63 29.479 96.319 29.111 C 96.008 28.742 95.774 28.294 95.617 27.766 C 95.46 27.238 95.381 26.652 95.381 26.002 C 95.381 25.401 95.461 24.843 95.625 24.326 C 95.787 23.809 96.016 23.366 96.311 22.997 C 96.606 22.628 96.963 22.337 97.383 22.126 C 97.801 21.914 98.272 21.808 98.793 21.808 C 99.324 21.808 99.792 21.911 100.196 22.118 C 100.6 22.325 100.939 22.615 101.215 22.989 C 101.491 23.363 101.7 23.811 101.844 24.333 C 101.987 24.855 102.062 25.431 102.072 26.06 L 102.131 26.488 L 97.256 26.488 L 97.257 26.49 Z  M 100.151 25.057 C 100.101 24.476 99.949 24.04 99.693 23.75 C 99.437 23.46 99.131 23.314 98.777 23.314 C 98.305 23.314 97.931 23.536 97.655 23.979 C 97.477 24.265 97.355 24.619 97.286 25.043 L 100.151 25.043 L 100.151 25.057 Z " fill="rgb(0,136,0)"/><path d=" M 106.459 23.477 C 106.015 23.477 105.647 23.716 105.35 24.193 C 105.053 24.67 104.907 25.357 104.907 26.253 L 104.907 30.093 L 103.149 30.093 L 103.149 21.985 L 104.656 21.985 L 104.73 22.842 C 105.183 22.153 105.754 21.807 106.443 21.807 L 107.167 21.897 L 107.167 23.581 L 106.459 23.478 L 106.459 23.477 Z " fill="rgb(0,136,0)"/></g></svg>