<?xml version="1.0" standalone="no"?><!-- Generator: Gravit.io --><svg xmlns="http://www.w3.org/2000/svg" xmlns:xlink="http://www.w3.org/1999/xlink" style="isolation:isolate" viewBox="0 0 330 143.993" width="330" height="143.993"><defs><clipPath id="_clipPath_9DKkofTGrDsH5Dbg3zIdKmERR7mqXN1q"><rect width="330" height="143.993"/></clipPath></defs><g clip-path="url(#_clipPath_9DKkofTGrDsH5Dbg3zIdKmERR7mqXN1q)"><clipPath id="_clipPath_rAZ7O98u8ubRsA5aMrl74nyGmctKwZ7S"><path d=" M -35 0 L 365.08 0 L 365.08 143.993 L -35 143.993 L -35 0 Z " fill="rgb(255,255,255)"/></clipPath><g clip-path="url(#_clipPath_rAZ7O98u8ubRsA5aMrl74nyGmctKwZ7S)"><path d=" M 73.68 87.69 C 73.68 87.69 68.164 93.161 64.25 93.117 C 60.335 93.072 59.277 90.663 60.389 84.213 C 60.805 81.799 61.743 78.234 62.854 74.438 C 66.933 73.993 69.88 73.668 70.593 73.595 C 73.426 73.306 74.168 72.129 73.571 70.33 C 72.974 68.532 71.594 68.872 66.618 69.105 C 66.161 69.127 65.416 69.16 64.445 69.203 C 65.903 64.556 67.382 60.185 68.253 57.753 C 70.166 52.415 70.744 51.437 71.011 50.102 C 71.278 48.768 71.767 45.343 68.92 44.764 C 66.074 44.186 63.936 45.58 61.803 51.437 C 60.758 54.307 58.15 61.847 55.795 69.579 C 51.246 69.776 45.897 70.006 40.849 70.222 C 42.814 63.913 45.368 54.654 44.658 49.943 C 43.616 43.026 36.479 39.856 28.546 42.579 C 21.404 45.031 18.422 49.813 17.213 52.188 C 16.005 54.563 16.576 56.016 18.409 55.683 C 20.242 55.35 22.626 52.665 27.376 50.165 C 32.126 47.665 35.296 47.913 36.546 50.996 C 37.796 54.079 36.213 58.704 34.963 62.579 C 34.567 63.807 33.476 66.872 32.124 70.595 C 26.754 70.825 22.954 70.987 22.954 70.987 C 16.328 71.27 18.97 74.21 19.503 75.105 C 21.012 77.247 21.253 78.168 25.425 78.163 C 26.06 78.163 27.485 78.063 29.45 77.895 C 27.113 84.219 24.781 90.408 24.046 92.121 C 22.546 95.621 22.505 101.621 25.63 101.621 C 28.755 101.621 31.092 97.889 31.994 95.954 C 32.794 94.239 37.584 80.172 38.657 77.011 C 43.504 76.52 49.017 75.936 54.092 75.389 C 52.54 80.93 51.37 85.967 51.304 88.725 C 51.123 96.186 55.094 100.458 60.268 100.157 C 65.443 99.856 69.654 97.63 75.491 92.516 C 75.491 92.516 74.216 90.927 73.68 87.69 Z " fill="rgb(0,136,0)"/><path d=" M 82.972 82.666 C 82.972 82.666 82.831 78.452 85.148 75.363 C 87.113 72.742 89.339 72.804 90.149 73.214 C 90.96 73.624 92.084 75.307 90.877 77.387 C 89.67 79.47 87.183 82.265 82.972 82.666 Z  M 100.642 84.679 C 100.642 84.679 95.602 88.718 90.596 90.146 C 85.589 91.575 84.407 88.735 83.934 87.88 C 83.934 87.88 90.501 85.889 93.678 81.822 C 96.855 77.755 97.192 75.018 96.754 73.08 C 96.317 71.143 94.223 67.173 89.004 67.173 C 83.786 67.173 79.504 71.018 77.473 77.048 C 75.442 83.081 75.72 85.684 76.317 88.548 C 76.865 91.184 79.223 95.581 83.786 96.923 C 88.348 98.268 94.504 96.831 101.129 91.736 L 101.613 91.295 L 100.642 84.679 Z " fill="rgb(0,136,0)"/><path d=" M 123.353 73.013 C 122.974 72.806 124.318 63.915 126.73 56.368 C 129.143 48.821 131.589 46.098 132.589 46.512 C 133.588 46.926 132.52 51.647 131.072 56.506 C 129.625 61.365 123.732 73.22 123.353 73.013 Z  M 116.119 86.83 C 116.119 86.83 113.915 88.382 111.742 89.437 C 109.569 90.493 108.994 90.434 108.684 90.248 C 108.374 90.061 105.861 87.219 108.327 81.646 C 110.794 76.072 116.46 67.625 118.199 63.33 C 118.199 63.33 114.008 78.231 116.119 86.83 Z  M 109.546 57.914 C 111.68 49.98 115.015 46.124 116.082 46.48 C 116.501 46.62 117.231 48.942 114.167 57.532 C 111.103 66.122 107.26 72.933 106.864 73.096 C 106.519 72.601 107.496 65.536 109.546 57.914 Z  M 137.719 56.214 C 139.472 51.58 141.98 39.353 135.092 39.353 C 128.205 39.353 122.695 50.873 122.695 50.873 C 124.073 43.151 122.528 41.231 120.817 39.979 C 119.105 38.727 115.85 39.561 113.053 41.607 C 110.256 43.652 106.625 49.663 104.872 53.712 C 103.119 57.761 98.527 69.949 99.07 81.011 C 99.612 92.072 103.546 96.96 106.03 97.307 C 108.515 97.654 113.977 95.791 118.294 93.213 C 118.708 94.037 120.151 97.106 123.331 97.381 C 126.512 97.656 134.329 93.441 134.329 93.441 L 132.004 87.147 C 127.663 90.11 126.452 90.11 125.575 90.277 C 124.699 90.444 123.655 88.232 123.655 85.978 C 123.655 83.724 126.202 78.381 129.123 73.623 C 132.045 68.864 135.966 60.847 137.719 56.214 Z " fill="rgb(0,136,0)"/><path d=" M 147.649 82.196 C 147.064 87.184 145.257 91.937 141.694 91.479 C 138.132 91.021 137.128 87.235 137.917 81.738 C 138.706 76.242 141.847 73.208 144.214 73.208 C 146.58 73.208 148.234 77.208 147.649 82.196 Z  M 151.98 73.495 C 154.41 74.996 156.337 76.672 156.337 76.672 C 156.19 73.546 156.652 71.279 156.652 71.279 C 155.863 70.698 151.149 67.045 144.762 67.39 C 138.375 67.736 134.501 71.13 132.221 76.512 C 129.709 82.44 131.263 88.37 132.421 91.184 C 133.58 93.999 135.679 97.591 141.387 97.362 C 147.096 97.132 151.359 92.58 153.005 86.059 C 154.651 79.539 151.726 73.812 151.726 73.812 C 151.726 73.812 151.661 73.674 151.747 73.572 C 151.833 73.471 151.98 73.495 151.98 73.495 Z " fill="rgb(0,136,0)"/><path d=" M 188.481 48.533 C 192.953 49.411 198.129 52.205 198.129 58.268 C 198.129 64.33 193.267 68.667 186.629 69.268 C 186.511 67.572 187.752 63.067 188.253 61.004 C 188.754 58.942 189.018 56.886 187.597 56.303 C 186.175 55.72 183.734 55.647 182.203 56.995 C 180.672 58.344 178.74 60.458 178.485 69.642 C 178.485 69.642 175.57 68.695 173.966 67.71 C 172.362 66.726 172.173 67.828 172.058 69.196 C 171.964 70.326 172.205 72.162 172.644 72.931 C 173.084 73.7 174.928 74.956 178.805 76.321 C 178.805 76.321 179.009 84.717 177.883 89.947 C 176.757 95.178 175.267 98.239 172.042 98.019 C 170.192 97.893 166.33 95.581 166.379 80.83 C 166.43 65.364 171.408 45.179 188.481 48.533 Z  M 185.588 41.622 C 168.963 41.622 163.088 55.273 160.516 62.768 C 157.798 70.688 158.402 83.883 158.819 87.092 C 159.235 90.3 161.546 105.08 171.838 105.08 C 182.129 105.08 184.977 93.783 185.692 89.532 C 186.407 85.282 186.444 76.367 186.444 76.367 C 203.926 73.278 205.421 62.205 205.504 57.789 C 205.588 53.372 202.213 41.622 185.588 41.622 Z " fill="rgb(0,136,0)"/><path d=" M 211.02 76.721 C 211.2 76.838 211.243 76.748 211.293 76.705 C 211.434 76.585 211.517 76.345 211.708 75.94 C 211.966 75.39 213.453 71.964 214.779 70.218 C 216.104 68.472 217.743 66.841 220.416 67.138 C 223.088 67.435 223.385 69.489 222.321 74.289 C 221.257 79.089 221.631 81.165 223.733 81.661 C 225.835 82.157 228.982 80.259 230.437 79.386 L 228.614 87.092 C 228.614 87.092 224.41 89.392 221.02 88.295 C 217.629 87.198 216.524 84.183 216.104 81.726 C 215.684 79.269 215.587 78.623 215.522 78.299 C 215.457 77.976 215.328 77.944 215.199 77.944 C 215.069 77.944 214.94 78.235 214.649 78.946 C 214.358 79.657 209.671 93.299 208.766 95.012 C 207.861 96.725 206.923 97.76 205.21 97.275 C 203.497 96.79 201.202 95.529 202.495 86.155 C 203.788 76.78 205.598 69.701 206.18 68.634 C 206.762 67.567 207.27 67.096 209.114 67.08 C 210.958 67.065 211.098 67.377 211.2 68.916 C 211.301 70.455 210.84 76.604 211.02 76.721 Z " fill="rgb(0,136,0)"/><path d=" M 245.626 92.164 C 245.626 92.164 238.965 97.578 232.503 97.351 C 227.94 97.124 226.778 93.071 228.053 86.495 C 229.329 79.92 231.426 72.295 232.305 69.999 C 232.588 69.036 234.128 67.529 236.613 67.278 C 239.419 66.995 240.127 67.959 239.787 69.829 C 239.447 71.7 236.046 82.669 235.564 86.637 C 235.082 90.605 235.621 92.788 239.277 90.804 C 242.933 88.819 245.938 85.532 245.938 85.532 L 247.44 86.58 C 247.44 86.58 246.618 89.783 246.59 89.868 C 246.561 89.953 245.626 92.164 245.626 92.164 Z " fill="rgb(0,136,0)"/><path d=" M 238.645 63.455 C 235.692 63.431 233.301 62.049 233.504 58.268 C 233.708 54.486 237.864 53.361 239.942 53.627 C 242.02 53.892 244.504 54.33 244.645 57.705 C 244.786 61.08 242.489 63.486 238.645 63.455 Z " fill="rgb(0,136,0)"/><path d=" M 260.325 79.143 C 260.169 79.143 260.083 79.245 259.989 79.416 C 259.895 79.587 254.325 90.822 253.325 92.676 C 252.325 94.53 251.734 97.372 248.546 97.372 C 245.359 97.372 244.859 92.976 245.046 90.143 C 245.234 87.31 246.077 76.721 247.14 71.785 C 248.202 66.846 250.816 67.185 251.713 67.185 C 252.651 67.185 253.776 67.622 254.13 68.955 C 254.484 70.289 254.359 72.226 254.005 74.455 C 253.651 76.685 253.079 80.535 253.192 80.789 C 253.276 80.976 253.651 81.039 253.817 80.726 C 253.984 80.414 256.008 75.414 258.28 71.406 C 260.552 67.398 263.361 66.799 265.128 67.367 C 266.895 67.935 267.961 70.018 267.211 74.31 C 266.461 78.601 264.528 88.511 266.327 89.931 C 268.126 91.351 270.24 89.489 276.647 84.849 L 278.38 91.289 C 278.38 91.289 267.463 97.41 264.654 97.473 C 261.846 97.536 260.026 95.539 259.755 89.997 C 259.484 84.456 260.384 80.06 260.505 79.455 C 260.567 79.143 260.325 79.143 260.325 79.143 Z " fill="rgb(0,136,0)"/><path d=" M 284.826 64.339 C 284.826 64.339 283.968 64.339 282.77 64.275 C 282.77 64.275 285.02 54.84 286.172 52.587 C 287.325 50.334 287.807 49.061 289.405 49.577 C 291.006 50.093 290.162 53.155 289.629 54.582 C 289.097 56.01 285.72 63.255 284.826 64.339 Z  M 300.034 66.889 C 300.013 66.183 299.777 65.15 298.891 65.081 C 298.006 65.013 289.794 64.807 289.794 64.807 C 292.189 61.167 293.974 57.968 294.696 54.87 C 296.289 48.055 293.9 42.869 289.761 42.597 C 281.232 42.038 277.093 64.018 277.093 64.018 C 277.093 64.018 275.02 63.919 271.992 63.952 C 268.965 63.985 267.782 64.742 267.782 65.663 C 267.782 66.584 268.34 67.539 269.361 67.868 C 270.381 68.197 276.205 68.986 276.205 68.986 C 274.756 78.923 276.534 88.63 278.145 92.151 C 279.758 95.672 282.424 97.58 285.648 97.35 C 288.873 97.12 293.282 94.191 295.388 92.645 C 297.494 91.098 297.626 90.078 297.297 88.564 C 296.968 87.051 296.21 86.755 290.09 89.65 C 283.97 92.546 282.95 88.663 282.523 85.636 C 282.095 82.609 282.885 74.481 282.885 74.481 C 283.871 73.363 286.371 69.941 286.371 69.941 C 288.626 70.048 295.422 70.068 297.915 69.964 C 300.407 69.86 300.054 67.596 300.034 66.889 Z " fill="rgb(0,136,0)"/><path d=" M 309.37 55.787 C 309.917 55.787 310.249 55.439 310.249 54.875 C 310.249 54.295 309.917 53.98 309.386 53.98 L 308.591 53.98 L 308.591 55.787 L 309.37 55.787 Z  M 307.182 52.952 L 309.702 52.952 C 310.895 52.952 311.691 53.715 311.691 54.875 C 311.691 55.82 311.044 56.334 310.613 56.45 L 310.613 56.483 C 310.613 56.483 310.679 56.549 310.829 56.831 L 311.972 59.019 L 310.414 59.019 L 309.386 56.782 L 308.591 56.782 L 308.591 59.019 L 307.182 59.019 L 307.182 52.952 Z  M 309.254 60.76 C 311.807 60.76 313.763 58.671 313.763 56.019 C 313.763 53.383 311.807 51.295 309.254 51.295 C 306.751 51.295 304.811 53.383 304.811 56.019 C 304.811 58.671 306.751 60.76 309.254 60.76 Z  M 309.254 49.952 C 312.569 49.952 315.221 52.654 315.221 56.019 C 315.221 59.384 312.569 62.102 309.254 62.102 C 305.988 62.102 303.336 59.384 303.336 56.019 C 303.336 52.654 305.988 49.952 309.254 49.952 Z " fill="rgb(0,136,0)"/></g></g></svg>