<?xml version="1.0" standalone="no"?><!-- Generator: Gravit.io --><svg xmlns="http://www.w3.org/2000/svg" xmlns:xlink="http://www.w3.org/1999/xlink" style="isolation:isolate" viewBox="0 0 1041.9 595.276" width="1041.9" height="595.276"><defs><clipPath id="_clipPath_6FWSV6zvunRVFK6MwcPEG32hX1uQOvHc"><rect width="1041.9" height="595.276"/></clipPath></defs><g clip-path="url(#_clipPath_6FWSV6zvunRVFK6MwcPEG32hX1uQOvHc)"><clipPath id="_clipPath_X6Jx87q2osVWNhH38n6F8fb7f5pGWjj4"><path d=" M 108.5 424.79 L 933.382 424.79 L 933.382 170.486 L 108.5 170.486 L 108.5 424.79 Z " fill="rgb(255,255,255)"/></clipPath><g clip-path="url(#_clipPath_X6Jx87q2osVWNhH38n6F8fb7f5pGWjj4)"><path d=" M 922.347 327.192 L 916.252 327.192 C 920.812 330.322 923.089 334.112 923.089 338.571 C 923.089 341.401 922.196 343.651 920.417 345.319 C 918.637 346.988 916.235 347.833 913.207 347.833 L 889.917 347.833 L 889.917 341.951 L 911.298 341.951 C 913.73 341.951 915.453 341.589 916.477 340.887 C 917.504 340.175 918.014 338.997 918.014 337.346 C 918.014 333.766 915.658 330.386 910.936 327.192 L 889.917 327.192 L 889.917 321.32 L 922.347 321.32 L 922.347 327.192 Z " fill="rgb(0,136,0)" fill-opacity="0.5"/><path d=" M 902.638 308.873 L 902.638 294.582 C 896.609 294.582 893.591 296.826 893.591 301.32 C 893.591 305.846 896.609 308.359 902.638 308.873 Z  M 921.299 288.812 C 922.495 292.754 923.09 296.132 923.09 298.935 C 923.09 303.716 921.501 307.607 918.325 310.62 C 915.149 313.64 911.038 315.147 905.984 315.147 C 901.068 315.147 897.035 313.82 893.892 311.162 C 890.743 308.509 889.17 305.103 889.17 300.97 C 889.17 297.045 890.563 294.01 893.351 291.87 C 896.135 289.736 900.103 288.663 905.239 288.663 L 907.061 288.698 L 907.061 309.145 C 914.763 308.288 918.61 304.52 918.61 297.832 C 918.61 295.386 917.958 292.381 916.642 288.812 L 921.299 288.812 Z " fill="rgb(0,136,0)" fill-opacity="0.5"/><path d=" M 922.347 261.292 L 916.252 261.292 C 920.812 264.42 923.089 268.216 923.089 272.671 C 923.089 275.496 922.196 277.749 920.417 279.419 C 918.637 281.089 916.235 281.924 913.207 281.924 L 889.917 281.924 L 889.917 276.05 L 911.298 276.05 C 913.73 276.05 915.453 275.698 916.477 274.986 C 917.504 274.28 918.014 273.096 918.014 271.446 C 918.014 267.865 915.658 264.477 910.936 261.292 L 889.917 261.292 L 889.917 255.409 L 922.347 255.409 L 922.347 261.292 Z " fill="rgb(0,136,0)" fill-opacity="0.5"/><path d=" M 902.638 242.981 L 902.638 228.68 C 896.609 228.68 893.591 230.925 893.591 235.42 C 893.591 239.936 896.609 242.458 902.638 242.981 Z  M 921.299 222.912 C 922.495 226.853 923.09 230.223 923.09 233.034 C 923.09 237.814 921.501 241.711 918.325 244.72 C 915.149 247.738 911.038 249.247 905.984 249.247 C 901.068 249.247 897.035 247.919 893.892 245.261 C 890.743 242.607 889.17 239.207 889.17 235.06 C 889.17 231.145 890.563 228.117 893.351 225.969 C 896.135 223.834 900.103 222.767 905.239 222.767 L 907.061 222.798 L 907.061 243.244 C 914.763 242.388 918.61 238.62 918.61 231.932 C 918.61 229.484 917.958 226.48 916.642 222.912 L 921.299 222.912 Z " fill="rgb(0,136,0)" fill-opacity="0.5"/><path d=" M 119.304 393.645 L 171.634 393.645 L 171.634 180.827 L 119.304 180.827 L 119.304 393.645 Z " fill="rgb(0,136,0)" fill-opacity="0.9"/><path d=" M 205.995 393.644 L 205.995 235.429 L 253.856 235.429 L 253.856 250.147 C 260.016 243.965 266.965 239.354 274.711 236.312 C 282.457 233.271 291.155 231.75 300.799 231.75 C 318.038 231.75 330.863 237.196 339.276 248.086 C 347.69 258.978 351.899 275.658 351.899 298.126 L 351.899 393.644 L 304.032 393.644 L 304.032 300.48 C 304.032 289.789 302.148 281.937 298.378 276.933 C 294.608 271.929 288.647 269.427 280.492 269.427 C 270.893 269.427 264.053 271.76 259.971 276.416 C 255.895 281.08 253.856 289.101 253.856 300.48 L 253.856 393.644 L 205.995 393.644 Z " fill="rgb(0,136,0)" fill-opacity="0.9"/><path d=" M 386.909 393.644 L 386.909 268.249 L 362.59 268.249 L 362.59 239.255 L 386.909 239.255 C 386.6 236.017 386.421 233.663 386.368 232.191 C 386.315 230.718 386.293 229.395 386.293 228.217 C 386.293 211.44 390.379 199.348 398.556 191.937 C 406.731 184.531 420.123 180.826 438.724 180.826 C 442.81 180.826 446.975 181.072 451.214 181.562 C 455.459 182.054 459.878 182.838 464.478 183.917 L 464.478 217.031 L 456.474 217.031 C 447.648 217.031 441.825 218.113 439.006 220.269 C 436.181 222.429 434.774 226.745 434.774 233.222 L 434.774 239.255 L 464.478 239.255 L 464.478 268.249 L 434.774 268.249 L 434.774 393.644 L 386.909 393.644 Z " fill="rgb(0,136,0)" fill-opacity="0.9"/><path d=" M 514.496 314.611 C 514.496 329.035 517.805 340.492 524.426 348.976 C 531.042 357.466 539.89 361.707 550.975 361.707 C 562.056 361.707 570.929 357.439 577.599 348.903 C 584.267 340.367 587.6 328.936 587.6 314.611 C 587.6 300.187 584.293 288.708 577.678 280.17 C 571.056 271.634 562.156 267.367 550.975 267.367 C 539.991 267.367 531.17 271.684 524.501 280.317 C 517.831 288.952 514.496 300.384 514.496 314.611 Z  M 550.975 398.796 C 525.322 398.796 504.673 391.095 489.024 375.688 C 473.379 360.286 465.554 339.925 465.554 314.611 C 465.554 289.395 473.406 269.036 489.102 253.532 C 504.801 238.03 525.423 230.277 550.975 230.277 C 576.829 230.277 597.58 238.006 613.229 253.457 C 628.873 268.913 636.703 289.295 636.703 314.611 C 636.703 339.828 628.824 360.162 613.075 375.615 C 597.325 391.071 576.624 398.796 550.975 398.796 Z " fill="rgb(0,136,0)" fill-opacity="0.9"/><path d=" M 763.626 354.2 C 780.581 354.2 793.814 348.339 803.317 336.614 C 812.819 324.891 817.573 308.528 817.573 287.529 C 817.573 266.534 812.798 250.124 803.237 238.301 C 793.682 226.478 780.481 220.564 763.626 220.564 C 746.879 220.564 733.699 226.525 724.095 238.445 C 714.487 250.368 709.685 266.729 709.685 287.529 C 709.685 308.332 714.461 324.645 724.016 336.465 C 733.571 348.292 746.773 354.2 763.626 354.2 Z  M 820.191 385.55 C 812.279 389.869 803.548 393.155 793.999 395.411 C 784.447 397.667 774.333 398.796 763.653 398.796 C 730.887 398.796 704.673 388.691 685.007 368.478 C 665.342 348.266 655.507 321.285 655.507 287.529 C 655.507 269.084 658.507 252.574 664.516 238.006 C 670.523 223.433 679.481 210.997 691.397 200.695 C 700.942 192.453 711.75 186.271 723.815 182.151 C 735.879 178.03 749.15 175.969 763.626 175.969 C 796.278 175.969 822.463 186.125 842.175 206.435 C 861.893 226.745 871.748 253.778 871.748 287.529 C 871.748 301.659 870.108 314.443 866.823 325.869 C 863.54 337.302 858.462 347.629 851.587 356.851 C 857.746 362.247 864.463 366.542 871.748 369.727 C 879.032 372.919 886.834 374.952 895.142 375.836 L 879.138 413.809 C 867.029 412.63 856.023 409.66 846.125 404.905 C 836.223 400.142 827.576 393.693 820.191 385.55 Z " fill="rgb(0,136,0)" fill-opacity="0.9"/><path d=" M 851.586 356.85 C 858.461 347.629 863.54 337.302 866.823 325.868 C 868.396 320.404 869.562 314.61 870.381 308.528 C 851.645 309.475 833.223 310.38 815.064 311.245 C 812.757 321.27 808.868 329.758 803.317 336.615 C 793.814 348.339 780.58 354.2 763.626 354.2 C 746.774 354.2 733.571 348.292 724.017 336.466 C 719.311 330.645 715.778 323.727 713.394 315.73 C 694.94 316.466 676.708 317.133 658.634 317.741 C 662.914 337.762 671.629 354.726 685.008 368.477 C 704.673 388.692 730.887 398.797 763.653 398.797 C 774.334 398.797 784.447 397.666 793.998 395.411 C 803.548 393.156 812.278 389.869 820.192 385.55 C 827.577 393.692 836.222 400.143 846.125 404.904 C 856.022 409.661 867.029 412.63 879.137 413.808 L 895.141 375.836 C 886.835 374.952 879.032 372.919 871.748 369.726 C 864.462 366.543 857.746 362.247 851.586 356.85 Z " fill="rgb(0,136,0)"/><path d=" M 577.6 348.903 C 570.928 357.44 562.056 361.708 550.975 361.708 C 539.89 361.708 531.043 357.465 524.426 348.976 C 518.832 341.805 515.63 332.486 514.764 321.075 C 498.448 321.261 482.139 321.376 465.822 321.412 C 467.127 343.575 474.816 361.701 489.023 375.688 C 504.672 391.096 525.322 398.797 550.975 398.797 C 576.623 398.797 597.325 391.07 613.075 375.614 C 628.003 360.967 635.77 341.877 636.548 318.45 C 620.082 318.958 603.713 319.415 587.448 319.799 C 586.723 331.723 583.443 341.423 577.6 348.903 Z " fill="rgb(0,136,0)"/><path d=" M 386.909 393.644 L 434.774 393.644 L 434.774 321.383 C 418.875 321.32 402.936 321.191 386.909 320.97 L 386.909 393.644 Z " fill="rgb(0,136,0)"/><path d=" M 205.995 393.644 L 253.856 393.644 L 253.856 317.247 C 238.075 316.586 222.135 315.849 205.995 315.015 L 205.995 393.644 Z " fill="rgb(0,136,0)"/><path d=" M 304.032 393.644 L 351.898 393.644 L 351.898 320.344 C 336.056 320.009 320.121 319.606 304.032 319.1 L 304.032 393.644 Z " fill="rgb(0,136,0)"/><path d=" M 119.305 393.644 L 171.634 393.644 L 171.634 313.12 C 154.433 312.115 137.023 311.026 119.305 309.817 L 119.305 393.644 Z " fill="rgb(0,136,0)"/></g></g></svg>