<?xml version="1.0" standalone="no"?><!-- Generator: Gravit.io --><svg xmlns="http://www.w3.org/2000/svg" xmlns:xlink="http://www.w3.org/1999/xlink" style="isolation:isolate" viewBox="0 0 326.3 162.5" width="326.3" height="162.5"><defs><clipPath id="_clipPath_fHldeV6e51dqH9s6NfNG1oy00oPCew6Y"><rect width="326.3" height="162.5"/></clipPath></defs><g clip-path="url(#_clipPath_fHldeV6e51dqH9s6NfNG1oy00oPCew6Y)"><clipPath id="_clipPath_AAIl9wjEwHbr6sp1K93mKNYpCchWtL2M"><path d=" M 25 25 L 301.281 25 L 301.281 137.514 L 25 137.514 L 25 25 Z " fill="rgb(255,255,255)"/></clipPath><g clip-path="url(#_clipPath_AAIl9wjEwHbr6sp1K93mKNYpCchWtL2M)"><path d=" M 200.666 108.29 C 200.121 108.154 199.662 108.061 199.289 108.01 C 198.914 107.959 198.455 107.934 197.912 107.934 C 195.77 107.934 194.053 108.562 192.761 109.82 C 191.469 111.078 190.823 113.204 190.823 116.195 L 190.823 125.783 L 183.02 125.783 L 183.02 101.201 L 190.823 101.201 L 190.823 105.18 C 191.4 104.023 192.36 103.004 193.704 102.119 C 195.047 101.235 196.586 100.793 198.32 100.793 C 199.238 100.793 200.02 100.93 200.666 101.201 L 200.666 108.29 Z " fill="rgb(0,136,0)"/><path d=" M 204.899 101.202 L 212.703 101.202 L 212.703 125.784 L 204.899 125.784 L 204.899 101.202 Z  M 203.776 93.041 C 203.776 91.648 204.253 90.475 205.205 89.523 C 206.156 88.571 207.347 88.094 208.774 88.094 C 209.488 88.094 210.151 88.222 210.764 88.477 C 211.376 88.732 211.911 89.081 212.37 89.523 C 212.829 89.965 213.187 90.492 213.441 91.104 C 213.696 91.715 213.824 92.362 213.824 93.041 C 213.824 93.722 213.696 94.36 213.441 94.954 C 213.187 95.549 212.829 96.077 212.37 96.536 C 211.911 96.994 211.376 97.351 210.764 97.606 C 210.151 97.861 209.488 97.989 208.774 97.989 C 208.061 97.989 207.405 97.861 206.812 97.606 C 206.216 97.351 205.69 96.994 205.231 96.536 C 204.772 96.077 204.414 95.549 204.159 94.954 C 203.904 94.36 203.776 93.722 203.776 93.041 Z " fill="rgb(0,136,0)"/><path d=" M 224.687 101.202 L 230.654 116.655 L 236.671 101.202 L 244.832 101.202 L 233.713 125.784 L 227.492 125.784 L 216.527 101.202 L 224.687 101.202 Z " fill="rgb(0,136,0)"/><path d=" M 258.55 105.741 C 257.02 105.741 255.762 106.183 254.776 107.067 C 253.789 107.952 253.297 109.226 253.297 110.892 L 263.599 110.892 C 263.599 109.295 263.131 108.036 262.196 107.118 C 261.261 106.2 260.046 105.741 258.55 105.741 Z  M 253.297 115.38 C 253.33 116.129 253.442 116.834 253.628 117.497 C 253.815 118.16 254.121 118.738 254.546 119.23 C 254.971 119.723 255.524 120.115 256.204 120.403 C 256.884 120.693 257.734 120.837 258.754 120.837 C 260.113 120.837 261.142 120.565 261.839 120.021 C 262.536 119.477 263.021 118.814 263.293 118.032 L 270.943 118.032 C 270.773 119.188 270.373 120.276 269.744 121.296 C 269.115 122.316 268.282 123.209 267.245 123.973 C 266.208 124.738 264.984 125.343 263.573 125.784 C 262.162 126.225 260.572 126.447 258.805 126.447 C 256.663 126.447 254.767 126.133 253.118 125.504 C 251.469 124.875 250.084 123.982 248.962 122.826 C 247.84 121.671 246.989 120.302 246.412 118.72 C 245.833 117.139 245.545 115.397 245.545 113.493 C 245.545 111.691 245.825 110.009 246.387 108.444 C 246.947 106.881 247.78 105.512 248.886 104.339 C 249.99 103.166 251.35 102.239 252.965 101.559 C 254.58 100.88 256.459 100.539 258.601 100.539 C 260.539 100.539 262.28 100.845 263.828 101.457 C 265.375 102.069 266.701 102.885 267.807 103.905 C 268.911 104.925 269.761 106.115 270.357 107.475 C 270.951 108.835 271.249 110.263 271.249 111.759 C 271.249 112.269 271.24 112.813 271.224 113.391 C 271.206 113.97 271.129 114.633 270.994 115.38 L 253.297 115.38 Z " fill="rgb(0,136,0)"/><path d=" M 276.597 101.202 L 284.4 101.202 L 284.4 104.771 C 285.079 103.446 286.109 102.417 287.486 101.685 C 288.863 100.956 290.52 100.59 292.457 100.59 C 294.056 100.59 295.433 100.837 296.589 101.33 C 297.744 101.822 298.662 102.512 299.343 103.395 C 300.124 104.348 300.643 105.444 300.899 106.684 C 301.154 107.926 301.281 109.431 301.281 111.197 L 301.281 125.784 L 293.478 125.784 L 293.478 113.187 C 293.478 111.42 293.163 109.983 292.535 108.878 C 291.905 107.773 290.775 107.22 289.143 107.22 C 287.544 107.22 286.355 107.78 285.573 108.902 C 284.79 110.024 284.4 111.538 284.4 113.441 L 284.4 125.784 L 276.597 125.784 L 276.597 101.202 Z " fill="rgb(0,136,0)"/><path d=" M 134.979 108.11 L 134.979 125.784 L 134.979 128.541 C 134.979 130.205 134.298 131.036 132.939 131.036 L 132.073 131.036 C 131.799 131.036 131.427 130.995 130.951 130.911 L 130.951 136.902 C 131.427 137.072 132.131 137.216 133.067 137.336 C 134.001 137.454 134.928 137.515 135.846 137.515 C 136.797 137.515 137.69 137.403 138.524 137.183 C 139.357 136.961 140.087 136.561 140.717 135.984 C 141.345 135.404 141.847 134.599 142.221 133.561 C 142.595 132.522 142.783 131.206 142.783 129.608 L 142.783 104.952 L 134.979 108.11 Z " fill="rgb(0,136,0)"/><path d=" M 167.542 115.915 C 167.253 116.68 166.854 117.343 166.343 117.903 C 165.833 118.465 165.222 118.916 164.507 119.255 C 163.793 119.596 162.994 119.766 162.11 119.766 C 161.226 119.766 160.428 119.596 159.713 119.255 C 158.999 118.916 158.388 118.465 157.877 117.903 C 157.367 117.343 156.967 116.68 156.679 115.915 C 156.39 115.149 156.245 114.343 156.245 113.492 C 156.245 112.643 156.39 111.844 156.679 111.095 C 156.967 110.348 157.367 109.685 157.877 109.106 C 158.388 108.528 158.999 108.069 159.713 107.729 C 160.428 107.39 161.226 107.219 162.11 107.219 C 162.994 107.219 163.793 107.39 164.507 107.729 C 165.222 108.069 165.833 108.528 166.343 109.106 C 166.854 109.685 167.253 110.348 167.542 111.095 C 167.83 111.844 167.976 112.643 167.976 113.492 C 167.976 114.343 167.83 115.149 167.542 115.915 Z  M 167.976 94.755 L 167.976 104.72 C 167.669 104.177 167.262 103.649 166.751 103.14 C 166.241 102.629 165.654 102.187 164.992 101.813 C 164.329 101.439 163.606 101.143 162.824 100.921 C 162.042 100.7 161.26 100.589 160.479 100.589 C 158.71 100.589 157.087 100.921 155.607 101.584 C 154.129 102.247 152.861 103.148 151.809 104.287 C 150.754 105.426 149.938 106.786 149.36 108.367 C 148.781 109.947 148.493 111.656 148.493 113.492 C 148.493 115.328 148.781 117.037 149.36 118.618 C 149.938 120.198 150.754 121.559 151.809 122.697 C 152.861 123.837 154.129 124.737 155.607 125.4 C 157.087 126.063 158.71 126.395 160.479 126.395 C 161.26 126.395 162.042 126.284 162.824 126.063 C 163.606 125.842 164.329 125.554 164.992 125.196 C 165.654 124.84 166.241 124.415 166.751 123.922 C 167.262 123.43 167.669 122.894 167.976 122.315 L 167.976 125.783 L 175.778 125.783 L 175.778 91.597 L 167.976 94.755 Z " fill="rgb(0,136,0)"/><path d=" M 143.339 61.072 L 27.853 25 L 78.446 65.799 L 143.339 61.072 Z " fill="rgb(0,136,0)"/><path d=" M 25 26.453 L 51.881 136.097 L 69.827 73.583 L 25 26.453 Z " fill="rgb(0,136,0)"/><path d=" M 54.74 136.86 L 144.579 63.948 L 80.774 77.173 L 54.74 136.86 Z " fill="rgb(0,136,0)"/></g></g></svg>