<?xml version="1.0" standalone="no"?><!-- Generator: Gravit.io --><svg xmlns="http://www.w3.org/2000/svg" xmlns:xlink="http://www.w3.org/1999/xlink" style="isolation:isolate" viewBox="0 0 110 63" width="110" height="63"><defs><clipPath id="_clipPath_gAX2T0rmYXmMjAhwJ8T6MJvlm8jnpO20"><rect width="110" height="63"/></clipPath></defs><g clip-path="url(#_clipPath_gAX2T0rmYXmMjAhwJ8T6MJvlm8jnpO20)"><g id="Layer_2"><rect x="0" y="0" width="298.213" height="63" transform="matrix(1,0,0,1,0,0)" fill="none"/></g><g id="Layer_1"><path d=" M 73.56 7.9 L 35.542 7.9 C 33.074 7.9 31 10.072 31 12.639 L 31 39.005 C 31 41.671 33.074 43.843 35.641 43.843 L 60.821 43.843 C 63.389 43.843 65.462 41.671 65.462 39.005 L 65.462 17.478 L 73.757 17.478 C 76.324 17.478 78.398 15.306 78.398 12.639 C 78.201 10.072 76.127 7.9 73.56 7.9 Z  M 56.18 34.265 L 40.183 34.265 L 40.183 17.478 L 56.18 17.478 L 56.18 34.265 Z " fill="rgb(0,136,0)"/><g id="Group"><path d=" M 31 55.002 L 31 47.793 L 32.777 47.793 L 32.777 53.323 L 34.456 53.323 L 34.456 54.903 L 31 54.903 L 31 55.002 Z " fill="rgb(0,136,0)"/><path d=" M 35.049 52.039 L 35.049 47.694 L 36.826 47.694 L 36.826 52.039 C 36.826 52.829 37.221 53.422 38.11 53.422 C 38.9 53.422 39.295 52.829 39.295 52.039 L 39.295 47.694 L 41.072 47.694 L 41.072 52.039 C 41.072 53.817 40.085 55.1 38.11 55.1 C 36.036 55.1 35.049 53.915 35.049 52.039 Z " fill="rgb(0,136,0)"/><path d=" M 43.837 50.755 L 43.837 55.002 L 42.158 55.002 L 42.158 47.793 L 43.936 47.793 L 46.602 52.138 L 46.602 47.793 L 48.281 47.793 L 48.281 55.002 L 46.602 55.002 L 43.837 50.755 Z " fill="rgb(0,136,0)"/><path d=" M 53.514 53.224 L 51.243 53.224 L 50.65 54.903 L 48.972 54.903 L 51.44 47.694 L 53.317 47.694 L 55.983 54.903 L 54.107 54.903 L 53.514 53.224 Z  M 51.737 51.743 L 53.02 51.743 L 52.428 49.966 L 51.737 51.743 Z " fill="rgb(0,136,0)"/><path d=" M 58.649 49.373 L 58.649 54.903 L 56.871 54.903 L 56.871 49.373 L 55.687 49.373 L 55.687 47.793 L 59.834 47.793 L 59.834 49.373 L 58.649 49.373 Z " fill="rgb(0,136,0)"/><path d=" M 60.821 55.002 L 60.821 47.793 L 64.277 47.793 L 64.277 49.373 L 62.599 49.373 L 62.599 50.459 L 64.179 50.459 L 64.179 52.039 L 62.599 52.039 L 62.599 53.323 L 64.277 53.323 L 64.277 54.903 L 60.821 54.903 L 60.821 55.002 Z " fill="rgb(0,136,0)"/><path d=" M 71.387 54.113 C 70.795 54.705 70.005 55.002 69.017 55.002 C 66.647 55.002 65.166 53.422 65.166 51.249 C 65.166 49.176 66.647 47.497 68.918 47.497 C 70.005 47.497 70.795 47.892 71.387 48.386 L 70.4 49.669 C 70.103 49.472 69.708 49.176 69.017 49.176 C 67.734 49.176 67.042 50.064 67.042 51.249 C 67.042 52.434 67.832 53.323 69.017 53.323 C 69.61 53.323 70.103 53.027 70.4 52.829 L 71.387 54.113 Z " fill="rgb(0,136,0)"/><path d=" M 78.201 55.002 L 76.423 55.002 L 76.423 52.138 L 73.955 52.138 L 73.955 55.002 L 72.177 55.002 L 72.177 47.793 L 73.955 47.793 L 73.955 50.459 L 76.423 50.459 L 76.423 47.793 L 78.201 47.793 L 78.201 55.002 Z " fill="rgb(0,136,0)"/></g></g></g></svg>