<?xml version="1.0" standalone="no"?><!-- Generator: Gravit.io --><svg xmlns="http://www.w3.org/2000/svg" xmlns:xlink="http://www.w3.org/1999/xlink" style="isolation:isolate" viewBox="0 0 185 103" width="185" height="103"><defs><clipPath id="_clipPath_La9OaA6EYISQcfC0ClO248iPHSoerCCK"><rect width="185" height="103"/></clipPath></defs><g clip-path="url(#_clipPath_La9OaA6EYISQcfC0ClO248iPHSoerCCK)"><path d=" M 26.655 54.688 L 45.98 62.657 L 38.011 81.982 L 55.941 74.511 L 44.585 47.316 L 26.655 54.688 Z  M 17.291 58.573 L 36.616 66.542 L 28.647 85.867 L 17.291 58.573 Z " fill="rgb(0,136,0)"/><path d=" M 74.071 50.902 C 72.876 48.014 71.381 46.021 69.588 45.025 C 67.795 44.029 65.803 43.929 63.512 44.826 C 62.615 45.224 61.819 45.722 61.121 46.42 C 60.424 47.117 59.926 47.914 59.627 48.91 C 59.328 49.906 59.129 51.002 59.229 52.297 C 59.328 53.592 59.627 54.887 60.225 56.381 C 61.42 59.17 62.815 61.162 64.608 62.358 C 66.401 63.553 68.393 63.653 70.784 62.657 C 71.581 62.358 72.378 61.76 73.075 61.162 C 73.772 60.465 74.27 59.668 74.669 58.672 C 75.067 57.676 75.167 56.58 75.167 55.285 C 75.067 53.891 74.768 52.496 74.071 50.902 Z  M 79.948 48.014 C 80.845 50.205 81.343 52.397 81.442 54.389 C 81.442 56.481 81.143 58.373 80.446 60.067 C 79.749 61.76 78.753 63.354 77.458 64.649 C 76.163 65.944 74.569 67.04 72.676 67.837 C 70.584 68.733 68.692 69.132 66.799 69.132 C 65.006 69.132 63.313 68.833 61.819 68.036 C 60.324 67.239 58.93 66.143 57.734 64.649 C 56.539 63.155 55.443 61.362 54.646 59.27 C 53.75 57.078 53.252 54.887 53.252 52.795 C 53.252 50.703 53.551 48.81 54.248 47.117 C 54.945 45.424 55.941 43.83 57.336 42.535 C 58.631 41.24 60.225 40.144 62.117 39.447 C 63.91 38.65 65.604 38.251 67.397 38.152 C 69.09 38.052 70.784 38.351 72.378 39.048 C 73.971 39.746 75.366 40.742 76.761 42.236 C 77.856 43.83 78.952 45.722 79.948 48.014 Z " fill="rgb(0,136,0)"/><path d=" M 101.066 30.98 C 99.771 30.98 98.476 31.179 97.181 31.378 C 95.886 31.677 94.591 31.976 93.296 32.574 C 92.001 33.072 90.906 33.769 89.909 34.665 C 89.013 35.562 88.316 36.458 87.818 37.554 C 87.32 38.65 87.12 39.845 87.22 41.14 C 87.22 42.435 87.519 43.83 88.116 45.224 C 89.212 48.014 90.806 49.807 92.898 50.803 C 94.89 51.699 97.281 51.699 99.97 50.603 C 101.066 50.105 102.062 49.607 102.859 48.91 L 99.074 39.746 L 104.652 37.455 L 110.031 50.404 C 108.836 51.5 107.641 52.496 106.047 53.492 C 104.553 54.488 102.959 55.285 101.265 55.983 C 99.074 56.879 97.082 57.377 95.089 57.477 C 93.097 57.576 91.304 57.278 89.71 56.58 C 88.316 55.783 86.821 54.787 85.526 53.393 C 84.231 51.998 83.136 50.305 82.339 48.213 C 81.442 46.021 81.044 44.029 80.944 41.937 C 80.944 39.845 81.243 37.953 82.14 36.06 C 82.937 34.267 84.132 32.574 85.726 31.079 C 87.32 29.585 89.312 28.39 91.603 27.394 C 92.997 26.796 94.292 26.397 95.687 26.099 C 97.082 25.8 98.377 25.501 99.672 25.401 L 101.066 30.98 Z " fill="rgb(0,136,0)"/><path d=" M 126.069 29.286 C 125.471 27.892 124.874 26.696 124.176 25.7 C 123.479 24.704 122.583 24.007 121.686 23.509 C 120.79 23.011 119.694 22.712 118.498 22.712 C 117.303 22.712 116.008 23.011 114.514 23.608 C 113.518 24.007 112.621 24.405 111.625 24.903 L 118.897 42.435 C 119.196 42.336 119.694 42.236 120.092 42.037 C 120.59 41.838 121.088 41.738 121.586 41.439 C 122.782 40.941 123.778 40.343 124.674 39.546 C 125.571 38.75 126.169 37.853 126.567 36.857 C 126.966 35.861 127.165 34.665 127.165 33.37 C 127.065 32.275 126.667 30.88 126.069 29.286 Z  M 131.946 26.397 C 132.942 28.689 133.44 30.88 133.44 32.972 C 133.44 35.064 133.042 36.956 132.245 38.65 C 131.448 40.343 130.253 41.937 128.659 43.232 C 127.065 44.627 125.173 45.722 122.981 46.619 C 121.487 47.217 120.192 47.715 118.897 48.213 C 117.602 48.711 116.407 49.109 115.112 49.607 L 103.955 22.712 C 104.951 22.214 106.346 21.616 107.84 20.919 C 109.434 20.221 111.027 19.524 112.721 18.827 C 114.813 17.93 116.705 17.432 118.598 17.233 C 120.491 17.034 122.284 17.133 123.878 17.731 C 125.471 18.329 126.966 19.325 128.261 20.72 C 129.755 22.114 130.95 24.007 131.946 26.397 Z " fill="rgb(0,136,0)"/><path d=" M 82.14 81.782 L 78.852 73.913 L 78.753 73.614 L 81.044 72.718 L 84.431 80.985 L 82.14 81.782 Z  M 80.247 70.028 C 80.347 70.227 80.347 70.426 80.347 70.626 C 80.347 70.825 80.347 71.024 80.247 71.223 C 80.147 71.423 80.048 71.522 79.948 71.721 C 79.849 71.821 79.649 71.921 79.45 72.02 C 79.251 72.12 79.052 72.12 78.852 72.12 C 78.653 72.12 78.454 72.12 78.255 72.02 C 78.055 71.921 77.956 71.821 77.757 71.721 C 77.657 71.622 77.557 71.423 77.458 71.223 C 77.358 71.024 77.358 70.825 77.358 70.626 C 77.358 70.426 77.458 70.227 77.458 70.028 C 77.557 69.829 77.657 69.729 77.757 69.53 C 77.856 69.43 78.055 69.231 78.255 69.231 C 78.454 69.132 78.653 69.132 78.852 69.132 C 79.052 69.132 79.251 69.132 79.45 69.231 C 79.649 69.331 79.749 69.43 79.948 69.53 C 80.048 69.729 80.147 69.829 80.247 70.028 Z " fill="rgb(0,136,0)"/><path d=" M 91.204 78.097 C 90.806 78.396 90.408 78.595 90.009 78.794 C 88.814 79.192 87.818 79.292 86.821 78.894 C 85.925 78.495 85.128 77.698 84.63 76.304 C 84.331 75.706 84.231 75.009 84.132 74.411 C 84.032 73.813 84.132 73.216 84.331 72.618 C 84.53 72.02 84.829 71.522 85.228 71.124 C 85.626 70.626 86.224 70.327 87.021 69.928 C 87.32 69.829 87.618 69.729 88.017 69.63 C 88.316 69.53 88.714 69.53 89.013 69.43 L 89.312 71.522 C 88.814 71.522 88.316 71.622 87.818 71.821 C 87.22 72.12 86.821 72.518 86.622 73.016 C 86.523 73.614 86.523 74.212 86.821 75.009 C 87.12 75.706 87.419 76.204 87.917 76.503 C 88.415 76.802 88.913 76.802 89.611 76.503 C 89.909 76.403 90.109 76.304 90.408 76.104 C 90.607 75.905 90.906 75.806 91.005 75.606 L 92.201 77.2 C 92.001 77.499 91.603 77.798 91.204 78.097 Z " fill="rgb(0,136,0)"/><path d=" M 97.779 75.407 C 97.48 75.606 97.181 75.706 96.882 75.905 C 96.384 76.104 95.986 76.204 95.687 76.204 C 95.388 76.304 94.99 76.204 94.79 76.104 C 94.492 76.005 94.292 75.806 93.994 75.507 C 93.794 75.208 93.595 74.809 93.396 74.311 L 91.702 70.227 L 90.408 70.825 L 89.71 69.132 L 91.005 68.534 L 90.009 66.044 L 92.001 64.549 L 93.296 67.637 L 95.189 66.84 L 95.886 68.633 L 93.994 69.43 L 95.388 72.917 C 95.587 73.415 95.787 73.714 95.986 73.813 C 96.185 73.913 96.484 73.913 96.783 73.813 C 96.982 73.714 97.082 73.714 97.181 73.614 C 97.281 73.515 97.48 73.415 97.58 73.315 L 98.476 75.009 C 98.476 75.108 98.177 75.208 97.779 75.407 Z " fill="rgb(0,136,0)"/><path d=" M 98.576 71.124 L 97.779 69.331 L 101.863 67.637 L 102.66 69.43 L 98.576 71.124 Z " fill="rgb(0,136,0)"/><path d=" M 108.238 63.454 C 107.939 63.553 107.541 63.653 107.242 63.752 C 106.943 63.852 106.744 64.051 106.545 64.25 C 106.346 64.45 106.246 64.649 106.146 64.948 C 106.047 65.247 106.047 65.545 106.047 65.944 C 106.146 66.342 106.246 66.741 106.445 67.239 C 107.043 68.733 107.74 69.231 108.637 68.932 C 108.836 68.833 109.135 68.633 109.234 68.434 C 109.334 68.235 109.434 67.936 109.533 67.637 C 109.633 67.338 109.533 67.04 109.533 66.741 C 109.434 66.442 109.334 66.044 109.234 65.745 L 108.238 63.454 Z  M 111.027 69.829 C 110.928 69.63 110.828 69.43 110.828 69.231 C 110.729 69.032 110.729 68.733 110.629 68.534 L 110.629 68.534 C 110.529 69.032 110.43 69.53 110.131 70.028 C 109.832 70.526 109.334 70.825 108.736 71.124 C 107.74 71.522 106.844 71.522 106.047 71.024 C 105.25 70.526 104.652 69.729 104.154 68.534 C 103.855 67.837 103.656 67.239 103.656 66.542 C 103.556 65.844 103.756 65.247 103.855 64.649 C 104.055 64.051 104.353 63.553 104.851 63.155 C 105.349 62.657 105.848 62.358 106.545 62.059 C 106.844 61.959 107.143 61.86 107.541 61.76 L 105.947 57.975 L 108.238 57.078 L 113.219 69.132 L 111.027 69.829 Z " fill="rgb(0,136,0)"/><path d=" M 115.41 68.036 L 112.123 60.166 L 112.024 59.868 L 114.315 58.971 L 117.702 67.239 L 115.41 68.036 Z  M 113.617 56.281 C 113.717 56.481 113.717 56.68 113.717 56.879 C 113.717 57.078 113.617 57.278 113.617 57.477 C 113.518 57.676 113.418 57.776 113.319 57.975 C 113.219 58.074 113.02 58.274 112.82 58.274 C 112.621 58.373 112.422 58.373 112.223 58.373 C 112.024 58.373 111.824 58.373 111.625 58.274 C 111.426 58.174 111.326 58.074 111.127 57.975 C 111.027 57.875 110.928 57.676 110.828 57.477 C 110.729 57.278 110.729 57.078 110.729 56.879 C 110.729 56.68 110.828 56.481 110.828 56.281 C 110.928 56.082 111.027 55.983 111.127 55.783 C 111.227 55.684 111.426 55.485 111.625 55.485 C 111.824 55.385 112.024 55.385 112.223 55.385 C 112.422 55.385 112.621 55.385 112.82 55.485 C 113.02 55.584 113.119 55.684 113.319 55.783 C 113.418 55.883 113.518 56.082 113.617 56.281 Z " fill="rgb(0,136,0)"/><path d=" M 121.686 57.975 C 121.387 57.776 120.989 57.776 120.491 57.975 C 120.092 58.174 119.793 58.473 119.594 58.871 C 119.495 59.27 119.495 59.668 119.594 60.166 L 122.383 58.971 C 122.284 58.473 122.084 58.174 121.686 57.975 Z  M 124.973 58.573 C 125.073 58.772 125.073 58.871 125.173 59.071 C 125.272 59.27 125.272 59.469 125.372 59.668 L 120.391 61.76 C 120.989 63.155 121.985 63.454 123.379 62.956 C 123.778 62.756 124.176 62.557 124.575 62.358 C 124.973 62.159 125.272 61.86 125.571 61.461 L 126.467 63.155 C 126.069 63.553 125.671 63.852 125.173 64.151 C 124.674 64.45 124.176 64.749 123.678 64.948 C 122.383 65.545 121.188 65.545 120.192 65.247 C 119.196 64.848 118.399 63.952 117.801 62.457 C 117.502 61.86 117.403 61.262 117.303 60.565 C 117.203 59.967 117.303 59.369 117.502 58.871 C 117.702 58.373 118 57.875 118.399 57.477 C 118.797 57.078 119.295 56.68 119.893 56.481 C 120.491 56.281 121.088 56.082 121.586 56.182 C 122.084 56.182 122.583 56.281 122.981 56.481 C 123.379 56.68 123.778 56.979 124.077 57.377 C 124.475 57.576 124.774 58.074 124.973 58.573 Z " fill="rgb(0,136,0)"/><path d=" M 133.739 60.465 L 131.548 55.285 C 131.349 54.887 131.249 54.588 130.95 54.488 C 130.751 54.289 130.452 54.289 130.054 54.389 C 129.854 54.488 129.555 54.688 129.456 54.887 C 129.257 55.086 129.157 55.385 129.157 55.684 C 129.057 55.983 129.057 56.281 129.057 56.68 C 129.057 56.979 129.157 57.377 129.356 57.676 L 130.95 61.661 L 128.659 62.557 L 125.272 54.289 L 127.464 53.393 C 127.563 53.592 127.663 53.791 127.762 54.09 C 127.862 54.389 127.962 54.588 127.962 54.887 L 127.962 54.887 C 128.061 54.289 128.261 53.791 128.559 53.293 C 128.858 52.795 129.356 52.397 130.054 52.098 C 130.552 51.898 130.95 51.799 131.349 51.799 C 131.747 51.799 132.046 51.898 132.345 51.998 C 132.643 52.197 132.843 52.397 133.142 52.695 C 133.341 52.994 133.54 53.293 133.64 53.691 L 136.03 59.469 L 133.739 60.465 Z " fill="rgb(0,136,0)"/><path d=" M 142.406 53.791 C 142.605 54.19 142.605 54.588 142.605 54.986 C 142.605 55.385 142.406 55.783 142.206 56.182 C 142.007 56.58 141.708 56.879 141.31 57.178 C 140.911 57.477 140.413 57.776 139.816 57.975 C 139.517 58.074 139.218 58.174 138.82 58.274 C 138.521 58.373 138.122 58.473 137.823 58.473 L 137.325 56.58 C 137.624 56.58 137.923 56.58 138.222 56.481 C 138.521 56.381 138.82 56.281 139.118 56.182 C 139.517 55.983 139.716 55.883 139.915 55.584 C 140.114 55.385 140.114 55.086 140.015 54.887 C 139.915 54.688 139.816 54.488 139.517 54.488 C 139.318 54.389 139.019 54.389 138.72 54.389 C 138.421 54.389 138.122 54.389 137.823 54.389 C 137.525 54.389 137.226 54.389 136.927 54.289 C 136.628 54.19 136.329 54.09 136.03 53.891 C 135.731 53.691 135.532 53.293 135.333 52.895 C 135.134 52.496 135.134 52.098 135.134 51.799 C 135.134 51.4 135.233 51.002 135.433 50.703 C 135.632 50.404 135.931 50.006 136.329 49.707 C 136.728 49.408 137.226 49.109 137.823 48.81 C 138.023 48.711 138.321 48.611 138.62 48.512 C 138.919 48.412 139.218 48.312 139.417 48.312 L 139.915 50.205 C 139.716 50.205 139.417 50.305 139.118 50.305 C 138.919 50.404 138.62 50.404 138.321 50.504 C 137.923 50.703 137.724 50.803 137.525 51.102 C 137.425 51.301 137.425 51.5 137.525 51.799 C 137.624 51.998 137.724 52.098 137.923 52.197 C 138.122 52.297 138.421 52.297 138.72 52.297 L 139.616 52.297 C 139.915 52.297 140.214 52.297 140.613 52.397 C 140.911 52.496 141.21 52.596 141.509 52.895 C 142.007 53.094 142.206 53.393 142.406 53.791 Z " fill="rgb(0,136,0)"/><path d=" M 149.179 54.19 C 148.88 54.389 148.582 54.488 148.283 54.688 C 147.785 54.887 147.386 54.986 147.087 54.986 C 146.789 55.086 146.39 54.986 146.191 54.887 C 145.892 54.787 145.693 54.588 145.394 54.289 C 145.195 53.99 144.996 53.592 144.796 53.094 L 143.103 49.01 L 141.808 49.607 L 141.111 47.814 L 142.406 47.217 L 141.409 44.726 L 143.402 43.232 L 144.697 46.32 L 146.589 45.523 L 147.287 47.316 L 145.394 48.113 L 146.789 51.6 C 146.988 52.098 147.187 52.397 147.386 52.496 C 147.585 52.596 147.884 52.596 148.183 52.496 C 148.382 52.397 148.482 52.397 148.582 52.297 C 148.681 52.197 148.88 52.098 148.98 51.998 L 149.877 53.691 C 149.777 53.791 149.478 53.99 149.179 54.19 Z " fill="rgb(0,136,0)"/><path d=" M 153.363 44.926 C 153.064 44.726 152.666 44.726 152.168 44.926 C 151.769 45.125 151.47 45.424 151.271 45.822 C 151.172 46.221 151.172 46.619 151.271 47.117 L 154.06 45.922 C 153.961 45.424 153.662 45.025 153.363 44.926 Z  M 156.65 45.523 C 156.75 45.722 156.75 45.822 156.849 46.021 C 156.949 46.221 156.949 46.42 157.049 46.619 L 152.068 48.711 C 152.666 50.105 153.662 50.404 155.056 49.906 C 155.455 49.707 155.853 49.508 156.252 49.309 C 156.65 49.01 156.949 48.711 157.248 48.412 L 158.144 50.105 C 157.746 50.504 157.348 50.803 156.849 51.102 C 156.351 51.4 155.853 51.699 155.355 51.898 C 154.06 52.496 152.865 52.496 151.869 52.197 C 150.873 51.799 150.076 50.902 149.478 49.408 C 149.179 48.81 149.08 48.213 148.98 47.515 C 148.88 46.918 148.98 46.32 149.179 45.822 C 149.378 45.324 149.677 44.826 150.076 44.427 C 150.474 44.029 150.972 43.631 151.57 43.431 C 152.168 43.232 152.765 43.033 153.263 43.132 C 153.761 43.132 154.26 43.232 154.658 43.431 C 155.056 43.631 155.455 43.929 155.754 44.328 C 156.152 44.527 156.351 44.926 156.65 45.523 Z " fill="rgb(0,136,0)"/><path d=" M 165.416 47.316 L 163.225 42.037 C 163.025 41.638 162.926 41.339 162.627 41.24 C 162.428 41.041 162.129 41.041 161.731 41.24 C 161.531 41.339 161.232 41.539 161.133 41.738 C 160.934 41.937 160.834 42.236 160.834 42.535 C 160.734 42.834 160.734 43.132 160.734 43.531 C 160.734 43.83 160.834 44.228 161.033 44.527 L 162.627 48.512 L 160.336 49.408 L 156.949 41.14 L 159.141 40.244 C 159.24 40.443 159.34 40.642 159.439 40.941 C 159.539 41.24 159.639 41.439 159.639 41.738 L 159.639 41.738 C 159.738 41.14 159.937 40.642 160.236 40.144 C 160.535 39.646 161.033 39.248 161.731 38.949 C 162.229 38.75 162.627 38.65 163.025 38.65 C 163.424 38.65 163.723 38.75 164.022 38.849 C 164.32 39.048 164.52 39.248 164.819 39.546 C 165.018 39.845 165.217 40.144 165.317 40.543 L 167.707 46.32 L 165.416 47.316 Z " fill="rgb(0,136,0)"/></g></svg>