<?xml version="1.0" standalone="no"?><!-- Generator: Gravit.io --><svg xmlns="http://www.w3.org/2000/svg" xmlns:xlink="http://www.w3.org/1999/xlink" style="isolation:isolate" viewBox="0 0 833 500" width="833" height="500"><defs><clipPath id="_clipPath_kk7eg2GuCLssxAM275vYex0Nlb2xe28o"><rect width="833" height="500"/></clipPath></defs><g clip-path="url(#_clipPath_kk7eg2GuCLssxAM275vYex0Nlb2xe28o)"><g id="Group"><path d=" M 416.476 499.85 C 464.647 345.642 522.812 318.958 566.686 232.91 C 620.954 126.574 532.307 0.15 416.476 0.15 C 300.646 0.15 212.099 126.574 266.367 232.91 C 310.14 318.958 368.305 345.642 416.476 499.85 Z " fill="rgb(0,136,0)"/><path d=" M 381.397 243.004 L 358.711 276.884 L 381.397 276.884 L 381.397 243.004 Z  M 339.922 277.783 L 381.297 219.918 L 400.086 219.918 L 400.086 276.784 L 411.379 276.784 L 411.379 293.174 L 400.086 293.174 L 400.086 309.764 L 381.397 309.764 L 381.397 293.174 L 339.922 293.174 L 339.922 277.783 Z " fill="rgb(255,255,255)"/><path d=" M 424.871 251.799 C 424.871 251.799 424.771 249.8 424.771 247.601 C 424.971 231.411 436.764 217.419 457.752 217.419 C 477.939 217.419 490.332 230.811 490.332 246.502 C 490.332 258.195 483.936 267.689 472.743 274.485 L 455.353 285.079 C 451.855 287.278 448.957 289.776 447.558 293.274 L 490.832 293.274 L 490.832 309.864 L 424.072 309.864 C 424.172 293.973 429.169 281.081 445.359 271.287 L 460.25 262.392 C 467.945 257.795 470.944 253.098 470.944 246.802 C 470.944 240.206 466.346 234.409 457.252 234.409 C 447.658 234.409 442.96 240.905 442.96 249.4 C 442.96 251.099 443.06 251.799 443.06 251.799 L 424.871 251.799 L 424.871 251.799 Z " fill="rgb(255,255,255)"/><path d=" M 506.222 175.745 L 486.834 160.853 C 493.73 148.861 497.728 135.069 497.728 120.178 C 497.728 75.305 461.349 38.927 416.476 38.927 C 371.603 38.927 335.225 75.305 335.225 120.178 C 335.225 165.051 371.603 201.429 416.476 201.429 C 437.064 201.429 455.753 193.834 470.044 181.241 L 489.832 196.432 L 506.222 175.745 Z  M 416.476 170.348 C 388.793 170.348 366.406 147.961 366.406 120.278 C 366.406 92.594 388.793 70.208 416.476 70.208 C 444.16 70.208 466.546 92.594 466.546 120.278 C 466.546 127.973 464.847 135.169 461.749 141.665 L 440.662 125.475 L 424.272 146.162 L 444.559 161.753 C 436.564 167.15 426.87 170.348 416.476 170.348 Z " fill="rgb(255,255,255)"/></g></g></svg>