<?xml version="1.0" standalone="no"?><!-- Generator: Gravit.io --><svg xmlns="http://www.w3.org/2000/svg" xmlns:xlink="http://www.w3.org/1999/xlink" style="isolation:isolate" viewBox="0 0 579.9 320.9" width="579.9" height="320.9"><defs><clipPath id="_clipPath_uV4deFvEsNfWHUFtcmKoofjVbkEV6dV5"><rect width="579.9" height="320.9"/></clipPath></defs><g clip-path="url(#_clipPath_uV4deFvEsNfWHUFtcmKoofjVbkEV6dV5)"><g id="Group"><g id="g4167"><clipPath id="_clipPath_ee6fPrAxDM49CCeFXTX00Q51jq2EWZ0Z"><path d=" M 100 270.875 L 100 50 L 479.875 50 L 479.875 270.875 L 100 270.875 Z " fill="rgb(255,255,255)"/></clipPath><g clip-path="url(#_clipPath_ee6fPrAxDM49CCeFXTX00Q51jq2EWZ0Z)"><g id="g4169"><clipPath id="_clipPath_eNzWSaV0nr2zDR88Xl2uOAfZjBRVQ6m3"><path d=" M 138.75 114.971 L 285 114.971 L 285 49.971 L 100 49.971 L 100 177.471 L 138.75 177.471 L 138.75 114.971 Z " fill="rgb(255,255,255)"/></clipPath><g clip-path="url(#_clipPath_eNzWSaV0nr2zDR88Xl2uOAfZjBRVQ6m3)"><g id="g4175"><path d=" M 100 177.5 L 100 50 L 285 50 L 285 115 L 138.75 115 L 138.75 177.5" fill="rgb(0,136,0)"/></g></g></g></g></g><g id="g4189"><clipPath id="_clipPath_oLzkLFkB7HuSo07aS1pHxtrZR8Q51mPk"><path d=" M 248.75 139.971 L 248.75 203.721 L 100 203.721 L 100 268.721 L 286.25 268.721 L 286.25 139.971 L 248.75 139.971 Z " fill="rgb(255,255,255)"/></clipPath><g clip-path="url(#_clipPath_oLzkLFkB7HuSo07aS1pHxtrZR8Q51mPk)"><g id="g4191"><path d=" M 248.75 139.971 L 248.75 203.721 L 100 203.721 L 100 268.721 L 286.25 268.721 L 286.25 139.971 L 248.75 139.971 Z " fill="rgb(0,136,0)"/></g></g></g><path d=" M 354.958 254.295 C 358.195 250.27 360.169 245.217 360.169 239.375 C 360.169 225.165 348.643 215.534 336.405 215.534 C 324.169 215.534 312.643 225.165 312.643 239.375 C 312.643 253.585 324.169 263.216 336.405 263.216 C 341.221 263.216 345.959 261.716 349.826 259.033 L 343.748 252.954 L 348.643 248.059 L 354.958 254.295 Z  M 355.353 264.48 C 350.379 268.033 344.064 270.321 336.405 270.321 C 316.038 270.321 304.591 254.216 304.591 239.375 C 304.591 224.534 316.038 208.429 336.405 208.429 C 356.774 208.429 368.22 224.534 368.22 239.375 C 368.22 246.56 365.536 253.98 360.484 259.821 L 366.641 265.98 L 361.746 270.875 L 355.353 264.48 Z " fill="rgb(0,136,0)"/><path d=" M 410.21 226.507 C 409.185 219.401 405.079 215.06 398.684 215.06 C 390.159 215.06 387.869 220.665 387.869 224.77 C 387.869 229.27 390.71 232.112 396.633 234.322 L 404.21 237.165 C 413.763 240.717 418.184 246.322 418.184 253.585 C 418.184 263.296 410.446 270.321 398.921 270.321 C 388.026 270.321 380.29 264.559 379.344 252.559 L 386.921 252.559 C 387.553 259.111 390.869 263.69 399.316 263.69 C 405.868 263.69 410.605 259.506 410.605 254.216 C 410.605 249.559 406.738 246.56 401.289 244.427 L 393.631 241.427 C 384.711 237.954 380.29 232.744 380.29 225.007 C 380.29 214.665 388.895 208.429 398.764 208.429 C 408.71 208.429 416.446 214.349 417.316 226.507 L 410.21 226.507" fill="rgb(0,136,0)"/><path d=" M 449.125 262.269 C 462.545 262.269 471.861 252.006 471.861 238.744 C 471.861 225.955 461.598 216.482 448.494 216.482 L 438.941 216.482 L 438.941 262.269 L 449.125 262.269 Z  M 431.363 209.377 L 451.099 209.377 C 465.783 209.377 479.914 221.927 479.914 239.138 C 479.914 256.27 466.256 269.374 449.204 269.374 L 431.363 269.374 L 431.363 209.377 Z " fill="rgb(0,136,0)"/></g></g></svg>