<?xml version="1.0" standalone="no"?><!-- Generator: Gravit.io --><svg xmlns="http://www.w3.org/2000/svg" xmlns:xlink="http://www.w3.org/1999/xlink" style="isolation:isolate" viewBox="0 0 322.866 372.5" width="322.866" height="372.5"><defs><clipPath id="_clipPath_XteJoTn9PNvaj82SyyYWsGoCczAYvoAW"><rect width="322.866" height="372.5"/></clipPath></defs><g clip-path="url(#_clipPath_XteJoTn9PNvaj82SyyYWsGoCczAYvoAW)"><clipPath id="_clipPath_n66I2Itmt6bNTzWMujYXH5EgZowAcqHz"><path d=" M 0 -66 L 322.866 -66 L 322.866 373.37 L 0 373.37 L 0 -66 Z " fill="rgb(255,255,255)"/></clipPath><g clip-path="url(#_clipPath_n66I2Itmt6bNTzWMujYXH5EgZowAcqHz)"><path d=" M 153.176 314.385 C 153.721 311.44 154.299 305.72 149.228 305.72 C 145.819 305.72 142.636 308.03 141.206 316.129 C 140.333 321.075 141.289 325.047 145.238 325.047 C 148.126 325.047 151.646 322.663 153.176 314.385 Z  M 133.396 317.69 C 134.535 307.032 139.34 300.44 150.761 300.44 C 159.242 300.44 162.047 306.912 160.907 313.865 C 159.084 324.994 154.757 330.233 143.884 330.233 C 136.842 330.233 132.669 324.492 133.396 317.69 Z  M 118.087 306.037 C 121.871 306.037 123.479 308.593 122.584 315.148 C 121.671 321.844 118.301 324.85 114.303 324.85 C 111.798 324.85 110.36 323.092 110.839 320.374 L 112.226 311.739 C 112.758 308.542 114.677 306.037 118.034 306.037 L 118.087 306.037 Z  M 114.995 330.073 C 123.844 330.073 128.908 323.676 130.291 315.416 C 132.051 305.239 127.094 300.603 120.859 300.603 C 117.928 300.603 115.813 300.865 114.158 301.718 L 116.558 287.704 L 109.188 287.704 L 101.886 329.569 L 107.429 329.569 C 107.429 329.569 108.228 327.833 109.029 327.833 C 109.56 327.833 110.839 330.073 114.995 330.073 Z  M 208.854 316.375 C 207.667 324.797 206.547 325.64 202.492 325.64 C 199.72 325.64 198.688 323.736 199.163 321.243 C 199.804 317.855 202.366 316.375 208.854 316.375 Z  M 217.648 308.862 C 218.716 302.679 215.408 300.548 208.746 300.548 C 200.434 300.548 196.809 304.494 196.809 304.494 L 199.367 308.807 C 199.367 308.807 202.054 305.663 207.418 305.663 C 210.409 305.663 210.471 307.184 210.186 308.807 L 209.601 312.486 C 198.887 312.218 193.397 314.508 192.175 321.545 C 191.16 327.302 195.477 330.075 200.324 330.075 C 202.83 330.075 204.857 329.698 207.308 327.567 C 207.789 328.953 208.638 329.686 209.599 329.845 C 211.145 330.168 213.81 329.804 214.61 329.218 C 214.557 328.366 214.61 326.182 215.515 321.064 L 217.648 308.862 Z  M 91.332 316.375 C 90.144 324.797 89.025 325.64 84.97 325.64 C 82.198 325.64 81.167 323.736 81.64 321.243 C 82.283 317.855 84.845 316.375 91.332 316.375 Z  M 100.127 308.862 C 101.192 302.679 97.886 300.548 91.225 300.548 C 82.912 300.548 79.287 304.494 79.287 304.494 L 81.845 308.807 C 81.845 308.807 84.533 305.663 89.895 305.663 C 92.888 305.663 92.95 307.184 92.664 308.807 L 92.078 312.486 C 81.365 312.218 75.876 314.508 74.651 321.545 C 73.637 327.302 77.955 330.075 82.804 330.075 C 85.308 330.075 87.335 329.698 89.786 327.567 C 90.266 328.953 91.118 329.686 92.076 329.845 C 93.624 330.168 96.289 329.804 97.088 329.218 C 97.035 328.366 97.088 326.182 97.994 321.064 L 100.127 308.862 Z  M 66.64 301.148 C 65.999 304.771 63.194 307.318 59.728 307.318 L 55.359 307.318 L 57.622 294.434 L 61.593 294.416 C 66.308 294.416 67.226 297.523 66.64 301.148 Z  M 65.144 310.872 C 70.526 309.699 73.319 305.342 74.065 302.52 C 75.982 294.738 72.519 288.66 62.606 288.77 L 51.244 288.76 L 44.113 329.569 L 51.519 329.569 L 54.45 313.177 C 61.279 312.992 62.11 314.655 63.399 322.609 L 64.57 329.569 L 72.253 329.569 C 71.347 325.359 70.759 321.386 70.014 318.186 C 69.215 314.827 67.97 312.202 64.77 310.954 L 65.144 310.872 Z  M 278.707 300.603 L 270.019 300.603 L 260.038 311.183 L 259.89 311.163 L 263.888 287.728 L 256.643 287.728 L 249.343 329.569 L 256.696 329.569 L 257.444 325.382 L 258.936 316.213 C 262.822 316.213 265.009 316.643 266.716 324.368 L 267.885 329.569 L 275.401 329.569 C 275.401 329.569 273.535 321.652 272.309 318.562 C 271.03 315.31 269.633 313.161 266.646 312.577 L 278.707 300.603 Z  M 247.634 309.98 C 248.753 303.639 246.409 300.548 239.533 300.548 C 234.416 300.548 232.402 302.799 230.485 304.72 L 230.673 301.187 L 223.866 301.23 L 223.337 306.464 L 219.395 329.569 L 226.847 329.569 L 229.248 314.563 C 230.097 309.391 233.67 305.449 237.027 305.449 C 240.759 305.449 240.715 307.582 240.127 310.829 L 236.878 329.569 L 244.274 329.569 L 247.634 309.98 Z  M 169.43 327.833 C 169.966 327.833 171.242 330.073 175.401 330.073 C 184.249 330.073 189.308 323.676 190.696 315.416 C 192.455 305.239 187.498 300.603 181.263 300.603 C 178.33 300.603 176.14 300.865 174.541 301.718 L 176.941 287.704 L 169.591 287.704 L 162.293 329.569 L 167.83 329.569 C 167.83 329.569 168.634 327.833 169.484 327.833 L 169.43 327.833 Z  M 182.934 315.148 C 181.938 321.512 178.65 324.85 174.707 324.85 C 172.204 324.85 170.762 323.092 171.189 320.374 L 172.575 311.739 C 173.109 308.542 175.028 306.037 178.438 306.037 C 182.22 306.037 183.955 308.611 182.934 315.148 Z " fill="rgb(0,136,0)"/></g><linearGradient id="_lgradient_0" x1="-0.12742387474072858%" y1="50.14442759484567%" x2="99.92470999813666%" y2="50.14442759484567%"><stop offset="0%" stop-opacity="0.33" style="stop-color:rgb(0,136,0)"/><stop offset="98.26086956521739%" stop-opacity="1" style="stop-color:rgb(0,136,0)"/></linearGradient><path d=" M 86.384 190.795 C 80.535 202.501 82.405 219.224 94.754 231.348 L 94.754 231.348 C 108.786 245.117 130.732 253.413 160.618 253.413 L 160.618 253.413 C 190.585 253.413 212.529 244.87 225.98 231.348 L 225.98 231.348 C 239.167 218.087 239.677 200.829 234.266 190.421 L 234.266 190.421 C 232.074 186.202 229.143 182.312 225.112 178.643 L 225.112 178.643 C 228.12 181.713 230.577 185.04 232.383 188.591 L 232.383 188.591 C 232.398 188.624 232.416 188.657 232.431 188.69 L 232.431 188.69 C 232.449 188.722 232.465 188.755 232.481 188.786 L 232.481 188.786 C 232.516 188.856 232.551 188.926 232.586 188.996 L 232.586 188.996 C 232.609 189.045 232.635 189.096 232.66 189.148 L 232.66 189.148 C 232.668 189.164 232.676 189.182 232.683 189.199 L 232.683 189.199 C 232.7 189.235 232.717 189.27 232.734 189.307 L 232.734 189.307 C 232.741 189.318 232.747 189.332 232.753 189.345 L 232.753 189.345 C 232.772 189.388 232.794 189.432 232.814 189.472 L 232.814 189.472 C 232.818 189.477 232.818 189.482 232.82 189.487 L 232.82 189.487 C 234.255 192.52 235.183 195.629 235.579 198.768 L 235.579 198.768 C 236.39 205.022 235.094 211.19 231.608 217.234 L 231.608 217.234 C 230.36 219.394 228.826 221.529 226.999 223.619 L 226.999 223.619 C 226.987 223.632 226.974 223.649 226.962 223.662 L 226.962 223.662 C 226.942 223.683 226.924 223.705 226.904 223.726 L 226.904 223.726 C 226.875 223.759 226.846 223.793 226.818 223.826 L 226.818 223.826 C 226.813 223.83 226.806 223.836 226.803 223.839 L 226.803 223.839 C 226.064 224.676 225.275 225.506 224.436 226.329 L 224.436 226.329 C 224.383 226.378 224.332 226.428 224.282 226.478 L 224.282 226.478 C 210.574 239.815 187.346 248.014 160.393 248.016 L 160.393 248.016 C 134.992 248.014 112.904 240.735 98.969 228.736 L 98.969 228.736 L 98.964 228.736 C 98.059 227.955 97.182 227.153 96.345 226.333 L 96.345 226.333 C 84.402 214.615 82.202 201.178 88.195 189 L 88.195 189 C 88.198 188.994 88.201 188.988 88.203 188.984 L 88.203 188.984 C 88.235 188.918 88.268 188.855 88.302 188.788 L 88.302 188.788 C 88.307 188.776 88.313 188.765 88.32 188.753 L 88.32 188.753 C 88.328 188.735 88.337 188.718 88.345 188.702 L 88.345 188.702 C 88.367 188.659 88.388 188.616 88.409 188.573 L 88.409 188.573 C 88.421 188.55 88.431 188.529 88.442 188.511 L 88.442 188.511 C 88.448 188.497 88.455 188.485 88.46 188.473 L 88.46 188.473 C 88.476 188.443 88.493 188.411 88.509 188.38 L 88.509 188.38 C 88.528 188.344 88.545 188.309 88.564 188.273 L 88.564 188.273 C 88.564 188.273 88.565 188.27 88.566 188.27 L 88.566 188.27 C 88.592 188.22 88.619 188.171 88.645 188.119 L 88.645 188.119 C 88.648 188.114 88.652 188.109 88.654 188.102 L 88.654 188.102 C 90.491 184.631 92.951 181.374 95.94 178.37 L 95.94 178.37 C 92.129 182.054 89.119 185.321 86.384 190.795 Z " fill="url(#_lgradient_0)"/><clipPath id="_clipPath_1B2UxWirdwxOvUvcYbNaMawqrHcC0SrX"><path d=" M 0 -66 L 322.866 -66 L 322.866 373.37 L 0 373.37 L 0 -66 Z " fill="rgb(255,255,255)"/></clipPath><g clip-path="url(#_clipPath_1B2UxWirdwxOvUvcYbNaMawqrHcC0SrX)"><path d=" M 202.828 164.258 C 190.147 159.002 175.381 156.297 160.392 156.297 C 145.403 156.297 130.636 159.002 117.955 164.258 C 104.079 170.014 93.342 178.551 88.198 188.996 C 82.204 201.174 84.404 214.609 96.348 226.329 C 110.036 239.754 133.337 248.015 160.392 248.017 C 187.447 248.015 210.748 239.754 224.435 226.329 C 236.379 214.609 238.578 201.174 232.586 188.996 C 227.44 178.551 216.703 170.014 202.828 164.258 Z " fill="rgb(0,136,0)" fill-opacity="0.5"/></g><linearGradient id="_lgradient_1" x1="-18.171205792938427%" y1="64.12392528267507%" x2="99.63760493019154%" y2="40.87730247262993%"><stop offset="0%" stop-opacity="0.12" style="stop-color:rgb(0,136,0)"/><stop offset="97.82608695652173%" stop-opacity="0.3" style="stop-color:rgb(0,136,0)"/></linearGradient><path d=" M 117.952 164.261 C 104.403 169.883 93.845 178.157 88.566 188.27 L 88.566 188.27 C 88.565 188.27 88.564 188.273 88.564 188.273 L 88.564 188.273 C 88.523 188.352 88.483 188.431 88.442 188.511 L 88.442 188.511 C 88.431 188.529 88.421 188.55 88.409 188.573 L 88.409 188.573 C 88.388 188.616 88.367 188.657 88.346 188.7 L 88.346 188.7 L 88.32 188.753 C 88.313 188.765 88.307 188.776 88.302 188.788 L 88.302 188.788 C 88.268 188.855 88.235 188.918 88.203 188.984 L 88.203 188.984 C 88.201 188.988 88.198 188.994 88.195 189 L 88.195 189 C 82.202 201.178 84.402 214.615 96.345 226.333 L 96.345 226.333 C 97.182 227.153 98.059 227.955 98.964 228.736 L 98.964 228.736 L 98.969 228.736 C 109.095 228.143 118.252 226.482 126.312 223.989 L 126.312 223.989 C 115.556 219.43 106.502 212.497 104.152 202.682 L 104.152 202.682 C 103.203 199.243 103.086 195.443 104.023 191.257 L 104.023 191.257 C 109.155 168.341 140.936 161.531 160.866 161.533 L 160.866 161.533 L 161.009 161.533 C 161.014 160.077 161.147 158.67 161.304 157.327 L 161.304 157.327 C 161.183 157.29 161.06 157.253 160.937 157.216 L 160.937 157.216 C 160.666 157.3 160.396 157.383 160.125 157.465 L 160.125 157.465 L 160.125 156.865 C 160.396 156.78 160.666 156.698 160.937 156.616 L 160.937 156.616 C 161.084 156.659 161.23 156.704 161.374 156.746 L 161.374 156.746 C 161.393 156.599 161.412 156.452 161.429 156.306 L 161.429 156.306 C 161.084 156.304 160.736 156.303 160.389 156.303 L 160.389 156.303 C 145.401 156.303 130.634 159.005 117.952 164.261 Z  M 129.067 161.467 C 129.206 161.326 129.529 161.075 129.668 160.937 L 129.668 160.937 C 130.032 160.929 130.396 160.925 130.759 160.921 L 130.759 160.921 C 132.259 161.855 133.728 162.825 135.179 163.832 L 135.179 163.832 C 135.067 163.957 134.954 164.081 134.842 164.203 L 134.842 164.203 C 133.502 163.279 132.172 162.306 130.789 161.443 L 130.789 161.443 C 130.424 161.447 130.062 161.451 129.698 161.459 L 129.698 161.459 L 129.428 161.701 C 129.307 161.625 129.188 161.547 129.067 161.467 Z  M 103.157 173.485 C 103.548 173.317 103.936 173.151 104.324 172.981 L 104.324 172.981 C 107.161 173.372 109.991 173.839 112.817 174.375 L 112.817 174.375 C 112.866 174.622 112.916 174.87 112.965 175.116 L 112.965 175.116 C 112.964 175.118 112.963 175.118 112.959 175.118 L 112.959 175.118 C 112.727 175.118 107.121 173.981 104.346 173.602 L 104.346 173.602 C 104.041 173.735 103.541 173.95 103.234 174.085 L 103.234 174.085 C 103.204 173.853 103.191 173.748 103.157 173.485 Z  M 88.404 193.413 C 88.781 193.111 89.156 192.807 89.533 192.509 L 89.533 192.509 C 93.369 191.951 97.209 191.475 101.047 191.078 L 101.047 191.078 C 101.273 191.31 101.5 191.538 101.728 191.77 L 101.728 191.77 C 101.649 191.844 101.577 191.912 101.498 191.998 L 101.498 191.998 C 101.395 191.892 101.18 191.699 101.093 191.619 L 101.093 191.619 C 97.257 192.016 93.497 192.485 89.662 193.043 L 89.662 193.043 C 89.45 193.21 88.882 193.617 88.676 193.785 L 88.676 193.785 C 88.564 193.645 88.546 193.601 88.404 193.413 Z  M 91.879 218.036 C 92.108 217.594 92.336 217.151 92.568 216.706 L 92.568 216.706 C 96.673 214.516 100.796 212.395 104.937 210.343 L 104.937 210.343 C 105.352 210.451 105.77 210.562 106.185 210.67 L 106.185 210.67 C 106.097 210.922 106.034 211.148 105.958 211.374 L 105.958 211.374 C 105.624 211.278 105.172 211.206 104.839 211.12 L 104.839 211.12 C 100.702 213.175 96.63 215.218 92.525 217.404 L 92.525 217.404 C 92.417 217.614 92.244 217.932 92.137 218.138 L 92.137 218.138 C 92.051 218.102 91.984 218.077 91.879 218.036 Z  M 161.048 163.087 C 141.86 163.087 111.113 169.653 106.286 191.793 L 106.286 191.793 C 105.475 195.508 105.527 198.903 106.271 202.004 L 106.271 202.004 C 109.001 211.821 118.763 218.556 129.921 222.792 L 129.921 222.792 C 141.637 218.636 150.8 212.651 156.971 205.691 L 156.971 205.691 C 156.367 202.924 155.743 200.142 155.088 197.32 L 155.088 197.32 C 143.727 202.682 133.393 207.795 122.129 213.77 L 122.129 213.77 C 126.15 209.784 130.063 206.065 134.054 202.428 L 134.054 202.428 C 137.988 198.835 141.995 195.319 146.162 191.781 L 146.162 191.781 L 146.162 191.807 C 146.173 191.799 146.183 191.789 146.194 191.781 L 146.194 191.781 C 134.656 191.035 123.569 190.854 111.828 190.688 L 111.828 190.688 L 111.654 190.688 C 111.391 190.688 111.115 190.681 110.842 190.675 L 110.842 190.675 C 110.783 190.675 110.723 190.673 110.665 190.671 L 110.665 190.671 C 110.442 190.667 110.219 190.665 109.993 190.661 L 109.993 190.661 C 121.852 188.094 133.578 186.08 145.598 184.519 L 145.598 184.519 C 145.654 184.512 145.706 184.507 145.76 184.499 L 145.76 184.499 C 145.876 184.483 145.993 184.47 146.11 184.454 L 146.11 184.454 C 146.144 184.45 146.18 184.444 146.215 184.44 L 146.215 184.44 L 146.601 184.392 C 140.796 179.82 135.092 175.562 128.882 171.595 L 128.882 171.595 C 128.876 171.595 128.872 171.594 128.867 171.592 L 128.867 171.592 C 128.555 171.396 128.247 171.192 127.933 170.996 L 127.933 170.996 C 137.299 173.376 146.203 176.209 155.263 179.555 L 155.263 179.555 C 157.043 174.197 158.94 168.877 161.1 163.656 L 161.1 163.656 C 161.083 163.464 161.068 163.275 161.057 163.087 L 161.057 163.087 L 161.048 163.087 Z  M 155.361 184.329 C 155.464 184.385 155.569 184.444 155.673 184.501 L 155.673 184.501 C 157.353 185.436 159.027 186.387 160.695 187.352 L 160.695 187.352 C 160.843 187.437 160.994 187.525 161.142 187.61 L 161.142 187.61 C 161.141 180.616 161.138 173.617 161.136 166.62 L 161.136 166.62 C 159.007 172.456 157.129 178.374 155.361 184.329 Z  M 150.026 184.896 C 150.236 184.872 150.446 184.85 150.656 184.826 L 150.656 184.826 C 150.745 184.815 150.834 184.807 150.923 184.795 L 150.923 184.795 C 151.041 184.783 151.159 184.77 151.277 184.758 L 151.277 184.758 C 151.414 184.742 151.552 184.726 151.69 184.711 L 151.69 184.711 C 151.746 184.705 151.802 184.699 151.857 184.693 L 151.857 184.693 C 153.025 184.566 154.192 184.447 155.361 184.329 L 155.361 184.329 C 148.203 180.338 140.898 176.62 133.396 173.307 L 133.396 173.307 C 139.112 176.92 144.636 180.816 150.026 184.896 Z  M 165.997 181.36 C 166.01 181.407 166.025 181.452 166.038 181.499 L 166.038 181.499 C 166.034 181.448 166.03 181.399 166.028 181.349 L 166.028 181.349 C 166.017 181.352 166.007 181.356 165.997 181.36 Z  M 161.142 187.61 L 161.319 187.61 C 161.569 187.612 161.823 187.612 162.076 187.615 L 162.076 187.615 C 162.464 187.186 162.868 186.773 163.306 186.343 L 163.306 186.343 C 162.583 186.764 161.861 187.186 161.142 187.61 Z  M 161.142 187.61 M 160.391 187.622 C 160.511 187.692 160.637 187.765 160.764 187.835 L 160.764 187.835 C 160.642 187.909 160.516 187.982 160.393 188.056 L 160.393 188.056 L 160.393 188.059 C 160.444 188.029 160.496 187.999 160.548 187.967 L 160.548 187.967 C 160.619 187.925 160.694 187.879 160.765 187.835 L 160.765 187.835 L 160.764 187.835 C 160.781 187.825 160.798 187.817 160.813 187.807 L 160.813 187.807 C 160.822 187.802 160.831 187.795 160.84 187.79 L 160.84 187.79 C 160.85 187.784 160.861 187.778 160.871 187.772 L 160.871 187.772 C 160.96 187.718 161.051 187.665 161.142 187.61 L 161.142 187.61 C 160.89 187.615 160.642 187.618 160.391 187.622 Z  M 160.379 187.622 C 146.191 187.837 134.988 188.493 121.055 189.693 L 121.055 189.693 C 121.966 189.694 122.864 189.7 123.748 189.708 L 123.748 189.708 C 134.277 189.72 144.743 190.267 155.252 191.176 L 155.252 191.176 C 155.096 191.28 154.94 191.386 154.786 191.491 L 154.786 191.491 C 154.771 191.489 154.758 191.489 154.743 191.487 L 154.743 191.487 C 146.057 196.85 137.592 202.556 129.309 208.521 L 129.309 208.521 C 138.065 203.589 146.964 198.918 156.027 194.566 L 156.027 194.566 C 155.77 193.435 155.512 192.305 155.252 191.176 L 155.252 191.176 C 155.491 191.026 155.731 190.88 155.972 190.732 L 155.972 190.732 C 156.142 190.628 156.313 190.522 156.482 190.419 L 156.482 190.419 C 156.512 190.399 156.542 190.382 156.571 190.364 L 156.571 190.364 C 157.84 189.586 159.114 188.817 160.393 188.056 L 160.393 188.056 C 160.389 187.911 160.384 187.767 160.379 187.622 L 160.379 187.622 L 160.391 187.622 L 160.379 187.616 L 160.379 187.622 Z  M 160.405 188.471 C 160.417 188.862 160.429 189.253 160.441 189.646 L 160.441 189.646 C 160.806 189.133 161.161 188.675 161.522 188.246 L 161.522 188.246 C 161.391 188.177 161.264 188.109 161.137 188.038 L 161.137 188.038 C 160.893 188.184 160.649 188.327 160.405 188.471 Z  M 163.054 190.491 C 163.054 190.491 161.834 190.82 160.489 191.164 L 160.489 191.164 C 160.586 194.316 160.686 197.513 160.777 200.702 L 160.777 200.702 C 162.904 197.413 164.416 193.966 165.273 190.44 L 165.273 190.44 C 164.965 190.423 164.66 190.411 164.362 190.411 L 164.362 190.411 C 163.905 190.411 163.466 190.434 163.054 190.491 Z " fill="url(#_lgradient_1)"/><clipPath id="_clipPath_uZ1tTg810jPfKIzOPq84dYSywyUlws6W"><path d=" M 0 -66 L 322.866 -66 L 322.866 373.37 L 0 373.37 L 0 -66 Z " fill="rgb(255,255,255)"/></clipPath><g clip-path="url(#_clipPath_uZ1tTg810jPfKIzOPq84dYSywyUlws6W)"><path d=" M 129.309 208.52 C 137.753 202.441 146.385 196.627 155.251 191.175 C 155.512 192.305 155.77 193.434 156.027 194.566 C 146.963 198.917 138.065 203.588 129.309 208.52 Z  M 161.142 187.61 C 146.593 187.813 135.236 188.473 121.054 189.692 C 133.3 189.731 142.812 190.191 155.251 191.175 C 157.204 189.968 159.167 188.78 161.142 187.61 Z  M 192.991 208.51 C 184.56 202.427 175.936 196.606 167.084 191.148 C 168.892 191.001 170.705 190.868 172.52 190.748 C 179.55 196.431 186.355 202.375 192.991 208.51 Z  M 160.379 187.616 C 160.687 197.749 161.057 208.502 161.148 218.314 C 163.032 209.239 164.991 200.178 167.084 191.148 C 165.112 189.949 162.373 188.776 160.379 187.616 Z  M 188.866 173.301 C 181.359 176.604 174.043 180.318 166.874 184.301 C 166.585 183.32 166.294 182.338 165.997 181.36 C 173.51 178.37 181.126 175.653 188.866 173.301 Z  M 161.142 187.61 C 175.597 187.639 190.033 188.352 204.414 189.795 C 191.79 187.519 179.528 185.774 166.874 184.301 C 164.952 185.385 163.04 186.488 161.142 187.61 Z  M 133.396 173.307 C 140.898 176.62 148.203 180.337 155.36 184.329 C 153.581 184.508 151.8 184.695 150.026 184.895 C 144.637 180.816 139.112 176.919 133.396 173.307 Z  M 161.142 187.61 C 161.141 180.616 161.138 173.617 161.136 166.62 C 159.008 172.456 157.129 178.374 155.36 184.329 C 157.297 185.403 159.226 186.498 161.142 187.61 Z  M 127.933 170.996 C 137.299 173.375 146.203 176.208 155.263 179.554 C 157.053 174.167 158.961 168.818 161.136 163.571 C 163.311 168.814 165.218 174.16 167.011 179.541 C 176.07 176.203 184.808 173.484 194.174 171.111 C 187.588 175.242 181.767 179.507 175.661 184.309 C 188.042 185.888 199.627 187.938 211.824 190.577 C 199.67 190.311 188.226 190.744 176.096 191.522 C 184.652 198.772 191.98 205.791 199.938 213.688 C 189.03 207.458 178.795 202.232 167.434 196.86 C 165.231 206.361 163.153 215.889 161.144 225.43 C 159.136 215.897 157.293 206.816 155.088 197.32 C 143.727 202.682 133.392 207.794 122.129 213.77 C 130.09 205.876 137.63 199.031 146.194 191.781 C 134.056 190.998 122.419 190.836 109.993 190.661 C 122.181 188.024 134.229 185.966 146.601 184.391 C 140.502 179.585 134.514 175.131 127.933 170.996 Z " fill-rule="evenodd" fill="rgb(254,254,254)"/><path d=" M 162.573 245.228 C 162.151 245.545 161.567 245.864 161.144 246.182 C 160.712 245.864 160.123 245.545 159.689 245.228 C 159.697 241.298 159.678 237.367 159.689 233.437 C 160.112 233.147 160.722 232.856 161.145 232.566 C 161.561 232.856 162.136 233.147 162.55 233.437 C 162.559 237.367 162.567 241.298 162.573 245.228 Z " fill-rule="evenodd" fill="rgb(254,254,254)"/><path d=" M 92.568 216.706 C 92.338 217.15 92.108 217.595 91.879 218.036 C 92.31 218.204 93.14 218.468 93.511 218.622 C 97.633 216.422 101.711 214.226 105.763 212.105 C 105.919 211.481 106.011 211.14 106.185 210.672 C 105.77 210.561 105.353 210.451 104.937 210.343 C 100.796 212.395 96.673 214.518 92.568 216.706 Z " fill-rule="evenodd" fill="rgb(254,254,254)"/><path d=" M 89.533 192.509 C 89.157 192.807 88.781 193.112 88.405 193.413 C 88.612 193.684 88.841 194.007 89.03 194.272 C 92.883 193.721 96.738 193.25 100.593 192.856 C 100.951 192.511 101.386 192.094 101.728 191.77 C 101.501 191.54 101.275 191.31 101.049 191.078 C 97.209 191.476 93.369 191.951 89.533 192.509 Z " fill-rule="evenodd" fill="rgb(254,254,254)"/><path d=" M 104.325 172.981 C 103.936 173.148 103.547 173.317 103.158 173.486 C 103.194 173.716 103.236 174.143 103.272 174.373 C 106.11 174.775 108.943 175.252 111.771 175.803 C 112.133 175.59 112.624 175.298 112.966 175.116 C 112.915 174.87 112.866 174.622 112.817 174.377 C 109.991 173.838 107.161 173.372 104.325 172.981 Z " fill-rule="evenodd" fill="rgb(254,254,254)"/><path d=" M 191.05 160.958 C 191.409 160.96 191.769 160.964 192.13 160.968 C 192.274 161.109 192.418 161.254 192.562 161.397 C 191.073 162.339 189.614 163.318 188.177 164.332 C 187.8 164.334 187.422 164.34 187.045 164.344 C 186.906 164.186 186.769 164.03 186.626 163.871 C 188.079 162.864 189.55 161.892 191.05 160.958 Z " fill-rule="evenodd" fill="rgb(254,254,254)"/><path d=" M 160.126 156.863 C 160.396 156.779 160.669 156.698 160.938 156.616 C 161.215 156.698 161.49 156.779 161.765 156.863 C 161.776 158.019 161.785 159.176 161.793 160.335 C 161.507 160.429 161.221 160.525 160.936 160.623 C 160.658 160.525 160.376 160.429 160.096 160.335 C 160.105 159.176 160.115 158.019 160.126 156.863 Z " fill-rule="evenodd" fill="rgb(254,254,254)"/><path d=" M 129.077 161.469 C 129.216 161.326 129.529 161.077 129.669 160.935 C 130.033 160.931 130.396 160.925 130.76 160.921 C 132.258 161.853 133.729 162.827 135.18 163.832 C 135.035 163.99 134.891 164.151 134.747 164.309 C 134.376 164.303 133.829 164.407 133.457 164.402 C 132.021 163.389 130.562 162.409 129.077 161.469 Z " fill-rule="evenodd" fill="rgb(254,254,254)"/><path d=" M 120.038 238.023 C 119.457 238.165 118.71 238.163 118.13 238.306 C 118.003 237.892 117.713 237.479 117.587 237.067 C 120.466 233.628 123.381 230.212 126.336 226.824 C 126.91 226.703 127.648 226.581 128.224 226.46 C 128.357 226.81 128.621 227.416 128.778 227.744 C 125.827 231.147 122.915 234.573 120.038 238.023 Z " fill-rule="evenodd" fill="rgb(254,254,254)"/><path d=" M 228.752 216.706 C 228.983 217.15 229.211 217.595 229.44 218.036 C 229.01 218.206 228.179 218.468 227.808 218.622 C 223.687 216.422 219.609 214.226 215.557 212.107 C 215.4 211.481 215.307 211.14 215.135 210.67 C 215.549 210.561 215.967 210.451 216.383 210.343 C 220.523 212.395 224.648 214.517 228.752 216.706 Z " fill-rule="evenodd" fill="rgb(254,254,254)"/><path d=" M 231.787 192.509 C 232.162 192.807 232.539 193.112 232.914 193.413 C 232.706 193.684 232.478 194.007 232.289 194.272 C 228.438 193.721 224.581 193.25 220.726 192.856 C 220.368 192.511 219.933 192.094 219.594 191.77 C 219.818 191.54 220.044 191.31 220.271 191.078 C 224.11 191.476 227.951 191.951 231.787 192.509 Z " fill-rule="evenodd" fill="rgb(254,254,254)"/><path d=" M 216.993 172.981 C 217.383 173.148 217.771 173.317 218.162 173.486 C 218.125 173.716 218.083 174.143 218.046 174.373 C 215.21 174.775 212.376 175.252 209.549 175.803 C 209.186 175.59 208.693 175.298 208.353 175.116 C 208.404 174.87 208.453 174.622 208.504 174.377 C 211.328 173.838 214.158 173.372 216.993 172.981 Z " fill-rule="evenodd" fill="rgb(254,254,254)"/><path d=" M 201.281 238.023 C 201.756 238.096 202.605 238.214 203.19 238.306 C 203.378 237.9 203.564 237.489 203.731 237.067 C 200.854 233.628 197.937 230.212 194.983 226.824 C 194.409 226.703 193.671 226.581 193.095 226.46 C 192.962 226.81 192.699 227.416 192.542 227.744 C 195.493 231.147 198.403 234.573 201.281 238.023 Z " fill-rule="evenodd" fill="rgb(254,254,254)"/></g><linearGradient id="_lgradient_2" x1="0.066431388831234%" y1="50.08789193337249%" x2="100.11855726247316%" y2="50.08789193337249%"><stop offset="10%" stop-opacity="0.43" style="stop-color:rgb(0,136,0)"/><stop offset="89.56521739130436%" stop-opacity="0.78" style="stop-color:rgb(0,136,0)"/></linearGradient><path d=" M 160.125 156.865 L 160.125 157.465 C 160.396 157.383 160.666 157.3 160.937 157.216 L 160.937 157.216 C 161.06 157.253 161.183 157.29 161.304 157.327 L 161.304 157.327 C 161.458 157.372 161.612 157.418 161.768 157.465 L 161.768 157.465 L 161.768 156.865 C 161.635 156.824 161.505 156.785 161.374 156.746 L 161.374 156.746 C 161.23 156.704 161.084 156.659 160.937 156.616 L 160.937 156.616 C 160.666 156.698 160.396 156.78 160.125 156.865 Z  M 129.668 160.937 C 129.529 161.075 129.206 161.326 129.067 161.467 L 129.067 161.467 C 129.188 161.547 129.307 161.625 129.428 161.701 L 129.428 161.701 L 129.698 161.459 C 130.062 161.451 130.424 161.447 130.789 161.443 L 130.789 161.443 C 132.172 162.306 133.502 163.279 134.842 164.203 L 134.842 164.203 C 134.954 164.081 135.067 163.957 135.179 163.832 L 135.179 163.832 C 133.728 162.825 132.259 161.855 130.759 160.921 L 130.759 160.921 C 130.396 160.925 130.032 160.929 129.668 160.937 Z  M 186.626 163.871 C 186.739 163.996 186.849 164.121 186.957 164.246 L 186.957 164.246 C 188.302 163.32 189.666 162.423 191.052 161.56 L 191.052 161.56 C 191.411 161.562 191.768 161.567 192.13 161.569 L 192.13 161.569 L 192.195 161.635 C 192.316 161.557 192.44 161.475 192.559 161.397 L 192.559 161.397 C 192.416 161.253 192.275 161.11 192.13 160.967 L 192.13 160.967 C 191.768 160.964 191.411 160.96 191.052 160.958 L 191.052 160.958 C 189.552 161.892 188.079 162.865 186.626 163.871 Z  M 160.866 161.533 C 140.936 161.531 109.155 168.341 104.023 191.257 L 104.023 191.257 C 103.086 195.443 103.203 199.243 104.152 202.682 L 104.152 202.682 C 103.371 199.429 103.329 195.862 104.204 191.957 L 104.204 191.957 C 109.337 169.041 139.793 162.113 161.046 162.113 L 161.046 162.113 C 181.829 162.113 211.605 168.788 217.574 190.676 L 217.574 190.676 C 212.048 168.284 180.778 161.564 161.009 161.533 L 161.009 161.533 L 160.866 161.533 Z  M 161.1 163.656 C 158.94 168.877 157.043 174.197 155.263 179.555 L 155.263 179.555 C 146.203 176.209 137.299 173.376 127.933 170.996 L 127.933 170.996 C 128.247 171.192 128.555 171.396 128.867 171.592 L 128.867 171.592 C 128.872 171.594 128.876 171.595 128.882 171.595 L 128.882 171.595 C 137.918 173.934 146.51 176.675 155.263 179.909 L 155.263 179.909 C 157.053 174.52 158.962 169.171 161.136 163.922 L 161.136 163.922 C 163.311 169.167 165.217 174.512 167.01 179.896 L 167.01 179.896 C 172.986 177.693 178.809 175.769 184.78 174.028 L 184.78 174.028 C 184.527 173.968 184.29 173.915 184.085 173.872 L 184.085 173.872 C 178.36 175.56 172.753 177.426 167.01 179.541 L 167.01 179.541 C 165.217 174.16 163.311 168.814 161.136 163.571 L 161.136 163.571 C 161.123 163.599 161.113 163.628 161.1 163.656 Z  M 208.502 174.375 C 208.453 174.622 208.404 174.87 208.355 175.116 L 208.355 175.116 C 208.355 175.116 208.357 175.118 208.362 175.118 L 208.362 175.118 C 208.593 175.118 214.198 173.981 216.972 173.602 L 216.972 173.602 C 217.278 173.735 217.779 173.95 218.085 174.085 L 218.085 174.085 C 218.115 173.853 218.128 173.748 218.162 173.485 L 218.162 173.485 C 217.771 173.317 217.382 173.151 216.995 172.981 L 216.995 172.981 C 214.159 173.372 211.328 173.839 208.502 174.375 Z  M 103.157 173.485 C 103.191 173.748 103.204 173.853 103.234 174.085 L 103.234 174.085 C 103.541 173.95 104.041 173.735 104.346 173.602 L 104.346 173.602 C 107.121 173.981 112.727 175.118 112.959 175.118 L 112.959 175.118 C 112.963 175.118 112.964 175.118 112.965 175.116 L 112.965 175.116 C 112.916 174.87 112.866 174.622 112.817 174.375 L 112.817 174.375 C 109.991 173.839 107.161 173.372 104.324 172.981 L 104.324 172.981 C 103.936 173.151 103.548 173.317 103.157 173.485 Z  M 133.396 173.732 C 139.112 177.346 144.636 181.24 150.026 185.321 L 150.026 185.321 C 151.799 185.12 153.581 184.929 155.361 184.752 L 155.361 184.752 C 157.093 185.713 158.727 186.623 160.441 187.615 L 160.441 187.615 C 160.647 187.615 160.937 187.61 161.142 187.61 L 161.142 187.61 C 161.051 187.665 160.96 187.72 160.871 187.772 L 160.871 187.772 C 160.861 187.778 160.85 187.784 160.84 187.79 L 160.84 187.79 C 160.831 187.795 160.822 187.802 160.813 187.807 L 160.813 187.807 C 160.798 187.817 160.781 187.825 160.765 187.835 L 160.765 187.835 C 160.694 187.879 160.619 187.925 160.548 187.967 L 160.548 187.967 C 160.496 187.999 160.444 188.029 160.393 188.059 L 160.393 188.059 C 159.114 188.821 157.84 189.589 156.571 190.364 L 156.571 190.364 C 156.542 190.382 156.512 190.399 156.482 190.419 L 156.482 190.419 C 156.313 190.522 156.142 190.628 155.972 190.732 L 155.972 190.732 C 155.731 190.88 155.491 191.026 155.252 191.176 L 155.252 191.176 L 155.331 191.522 C 157.016 190.481 158.703 189.48 160.405 188.471 L 160.405 188.471 C 160.649 188.327 160.893 188.184 161.137 188.038 L 161.137 188.038 C 161.138 188.038 161.141 188.036 161.142 188.034 L 161.142 188.034 L 161.142 187.61 C 160.994 187.525 160.843 187.437 160.695 187.352 L 160.695 187.352 C 159.045 186.399 157.33 185.427 155.673 184.501 L 155.673 184.501 C 155.569 184.444 155.464 184.385 155.361 184.329 L 155.361 184.329 C 155.179 184.347 154.999 184.366 154.82 184.384 L 154.82 184.384 C 153.832 184.483 152.844 184.586 151.857 184.693 L 151.857 184.693 C 151.802 184.699 151.746 184.705 151.69 184.711 L 151.69 184.711 C 151.552 184.726 151.414 184.742 151.277 184.758 L 151.277 184.758 C 151.159 184.77 151.041 184.783 150.923 184.795 L 150.923 184.795 C 150.834 184.807 150.745 184.815 150.656 184.826 L 150.656 184.826 C 150.446 184.85 150.236 184.872 150.026 184.896 L 150.026 184.896 C 144.636 180.816 139.112 176.92 133.396 173.307 L 133.396 173.307 L 133.396 173.732 Z  M 166.874 184.302 C 166.99 184.313 167.097 184.327 167.208 184.34 L 167.208 184.34 C 167.247 184.345 167.286 184.35 167.327 184.355 L 167.327 184.355 C 167.35 184.356 167.376 184.36 167.399 184.362 L 167.399 184.362 C 173.764 180.841 180.241 177.536 186.871 174.54 L 186.871 174.54 C 186.757 174.517 186.574 174.474 186.358 174.421 L 186.358 174.421 C 179.724 177.437 173.245 180.76 166.874 184.302 Z  M 165.997 181.713 C 166.261 182.593 166.523 183.471 166.783 184.352 L 166.783 184.352 L 166.786 184.352 C 166.801 184.343 166.818 184.333 166.835 184.325 L 166.835 184.325 C 166.848 184.317 166.86 184.31 166.874 184.302 L 166.874 184.302 C 166.599 183.365 166.321 182.431 166.038 181.499 L 166.038 181.499 C 166.025 181.452 166.01 181.407 165.997 181.36 L 165.997 181.36 L 165.997 181.713 Z  M 175.661 184.735 C 183.773 185.769 191.401 186.966 199.161 188.417 L 199.161 188.417 C 199.056 188.262 198.956 188.109 198.859 187.958 L 198.859 187.958 C 191.206 186.527 183.597 185.323 175.661 184.31 L 175.661 184.31 L 175.661 184.735 Z  M 146.215 184.44 C 146.18 184.444 146.144 184.45 146.11 184.454 L 146.11 184.454 C 145.993 184.47 145.876 184.483 145.76 184.499 L 145.76 184.499 C 145.706 184.507 145.654 184.512 145.598 184.519 L 145.598 184.519 C 133.574 186.082 121.851 188.097 109.993 190.661 L 109.993 190.661 C 110.203 190.661 110.432 190.665 110.665 190.671 L 110.665 190.671 C 110.723 190.673 110.783 190.675 110.842 190.675 L 110.842 190.675 C 111.115 190.681 111.391 190.688 111.654 190.688 L 111.654 190.688 L 111.828 190.688 C 111.854 190.686 111.878 190.686 111.904 190.686 L 111.904 190.686 C 123.498 188.235 134.842 186.313 146.601 184.813 L 146.601 184.813 L 146.601 184.392 L 146.215 184.44 Z  M 161.142 187.61 L 161.319 187.61 L 161.142 187.61 Z  M 161.367 187.611 L 161.142 187.61 C 161.24 187.669 161.341 187.73 161.443 187.788 L 161.443 187.788 C 161.53 187.839 161.66 187.913 161.758 187.972 L 161.758 187.972 C 161.863 187.851 161.968 187.731 162.076 187.615 L 162.076 187.615 C 161.823 187.612 161.569 187.612 161.319 187.61 L 161.319 187.61 C 161.335 187.611 161.351 187.611 161.367 187.611 Z  M 161.59 187.613 L 161.743 187.615 C 161.692 187.615 161.641 187.614 161.59 187.613 Z  M 161.142 187.964 L 161.142 187.61 L 161.142 187.964 Z  M 186.949 188.786 C 191.344 189.049 195.741 189.38 200.134 189.778 L 200.134 189.778 C 200.032 189.64 199.929 189.5 199.826 189.361 L 199.826 189.361 C 194.701 188.901 189.562 188.533 184.424 188.258 L 184.424 188.258 C 185.379 188.403 186.224 188.591 186.949 188.786 Z  M 123.42 189.708 C 122.639 189.708 121.86 189.71 121.079 189.716 L 121.079 189.716 L 121.079 190.071 C 121.863 190.064 122.647 190.061 123.43 190.061 L 123.43 190.061 C 133.897 190.061 144.297 190.599 154.743 191.487 L 154.743 191.487 C 154.758 191.489 154.771 191.489 154.786 191.491 L 154.786 191.491 C 154.94 191.386 155.096 191.28 155.252 191.176 L 155.252 191.176 C 144.743 190.267 134.277 189.72 123.748 189.708 L 123.748 189.708 L 123.42 189.708 Z  M 215.63 191.096 C 215.852 192.114 216.01 193.105 216.105 194.075 L 216.105 194.075 C 216.145 194.095 216.18 194.113 216.214 194.131 L 216.214 194.131 C 216.117 193.369 215.982 192.59 215.812 191.797 L 215.812 191.797 C 215.716 191.366 215.611 190.939 215.498 190.521 L 215.498 190.521 C 215.545 190.711 215.588 190.903 215.63 191.096 Z  M 219.592 191.77 C 219.669 191.844 219.741 191.912 219.82 191.998 L 219.82 191.998 C 219.924 191.892 220.141 191.699 220.225 191.619 L 220.225 191.619 C 224.063 192.016 227.823 192.485 231.658 193.043 L 231.658 193.043 C 231.87 193.21 232.438 193.617 232.645 193.785 L 232.645 193.785 C 232.755 193.645 232.772 193.601 232.914 193.413 L 232.914 193.413 C 232.537 193.111 232.162 192.807 231.785 192.509 L 231.785 192.509 C 227.951 191.951 224.11 191.475 220.27 191.078 L 220.27 191.078 C 220.044 191.31 219.819 191.538 219.592 191.77 Z  M 89.533 192.509 C 89.156 192.807 88.781 193.111 88.404 193.413 L 88.404 193.413 C 88.546 193.601 88.564 193.645 88.676 193.785 L 88.676 193.785 C 88.882 193.617 89.45 193.21 89.662 193.043 L 89.662 193.043 C 93.497 192.485 97.257 192.016 101.093 191.619 L 101.093 191.619 C 101.18 191.699 101.395 191.892 101.498 191.998 L 101.498 191.998 C 101.577 191.912 101.649 191.844 101.728 191.77 L 101.728 191.77 C 101.5 191.538 101.273 191.31 101.047 191.078 L 101.047 191.078 C 97.209 191.475 93.369 191.951 89.533 192.509 Z  M 161.149 218.314 L 161.149 218.668 C 163.032 209.592 164.975 200.594 167.069 191.565 L 167.069 191.565 C 173.108 195.29 181.882 201.022 192.992 209.04 L 192.992 209.04 L 192.992 208.511 C 184.56 202.428 175.936 196.606 167.084 191.148 L 167.084 191.148 C 165.019 200.075 163.011 209.341 161.149 218.314 Z  M 134.054 202.428 C 130.036 206.094 126.093 209.841 122.129 213.77 L 122.129 213.77 C 122.41 213.611 123.098 213.22 123.379 213.059 L 123.379 213.059 C 131.078 205.462 137.898 199.304 146.162 192.312 L 146.162 192.312 L 146.162 191.807 L 146.162 191.781 C 141.995 195.319 137.988 198.835 134.054 202.428 Z  M 198.638 212.946 C 198.784 213.03 199.056 213.186 199.32 213.336 L 199.32 213.336 C 199.565 213.474 199.803 213.611 199.939 213.688 L 199.939 213.688 C 192.692 206.499 186.143 200.224 179.002 194.016 L 179.002 194.016 C 178.629 193.896 178.279 193.781 177.96 193.678 L 177.96 193.678 C 185.368 200.048 191.531 205.928 198.638 212.946 Z  M 129.309 208.521 L 129.309 209.014 C 138.065 204.084 146.964 199.411 156.027 195.061 L 156.027 195.061 L 156.027 194.566 C 146.964 198.918 138.065 203.589 129.309 208.521 Z  M 161.05 229.32 C 171.839 229.321 188.84 226.331 201.153 219.201 L 201.153 219.201 C 201.061 218.981 200.975 218.76 200.903 218.542 L 200.903 218.542 C 188.593 225.641 171.639 228.62 160.871 228.62 L 160.871 228.62 C 152.576 228.62 140.609 226.849 129.921 222.792 L 129.921 222.792 C 118.763 218.556 109.001 211.821 106.271 202.004 L 106.271 202.004 C 111.014 221.749 143.888 229.32 161.05 229.32 Z  M 203.784 216.741 C 204.151 216.813 204.428 216.895 204.639 216.977 L 204.639 216.977 C 208.121 214.525 211.055 211.668 213.121 208.376 L 213.121 208.376 C 212.965 208.293 212.808 208.214 212.645 208.132 L 212.645 208.132 C 210.462 211.44 207.397 214.3 203.784 216.741 Z  M 215.135 210.67 C 215.223 210.922 215.285 211.148 215.361 211.374 L 215.361 211.374 L 215.365 211.374 C 215.699 211.276 216.15 211.204 216.479 211.12 L 216.479 211.12 C 220.62 213.175 224.688 215.218 228.793 217.404 L 228.793 217.404 C 228.902 217.612 229.072 217.927 229.18 218.134 L 229.18 218.134 C 229.18 218.135 229.181 218.135 229.181 218.138 L 229.181 218.138 C 229.238 218.114 229.285 218.097 229.342 218.073 L 229.342 218.073 C 229.371 218.063 229.404 218.05 229.441 218.036 L 229.441 218.036 C 229.211 217.594 228.983 217.151 228.752 216.706 L 228.752 216.706 C 226.147 215.317 223.535 213.955 220.914 212.62 L 220.914 212.62 C 220.199 212.272 219.531 211.936 218.946 211.622 L 218.946 211.622 C 218.091 211.195 217.239 210.768 216.382 210.343 L 216.382 210.343 C 215.967 210.451 215.549 210.562 215.135 210.67 Z  M 92.568 216.706 C 92.336 217.151 92.108 217.594 91.879 218.036 L 91.879 218.036 C 91.984 218.077 92.051 218.102 92.137 218.138 L 92.137 218.138 C 92.244 217.932 92.417 217.614 92.525 217.404 L 92.525 217.404 C 96.63 215.218 100.702 213.175 104.839 211.12 L 104.839 211.12 C 105.172 211.206 105.624 211.278 105.958 211.374 L 105.958 211.374 C 106.034 211.148 106.097 210.922 106.185 210.67 L 106.185 210.67 C 105.77 210.562 105.352 210.451 104.937 210.343 L 104.937 210.343 C 100.796 212.395 96.673 214.516 92.568 216.706 Z  M 192.542 227.744 C 192.592 227.802 192.642 227.862 192.694 227.92 L 192.694 227.92 C 192.864 227.667 193.046 227.169 193.207 226.955 L 193.207 226.955 C 193.684 227.058 194.307 227.142 194.765 227.245 L 194.765 227.245 C 197.672 230.581 201.686 235.35 203.535 237.55 L 203.535 237.55 C 203.606 237.385 203.667 237.229 203.731 237.068 L 203.731 237.068 C 200.855 233.629 197.94 230.211 194.983 226.826 L 194.983 226.826 C 194.409 226.703 193.671 226.581 193.098 226.459 L 193.098 226.459 C 192.945 226.81 192.594 227.59 192.542 227.744 Z  M 126.336 226.826 C 123.379 230.211 120.466 233.629 117.587 237.068 L 117.587 237.068 C 117.631 237.219 117.759 237.405 117.806 237.556 L 117.806 237.556 C 119.656 235.351 123.646 230.581 126.554 227.245 L 126.554 227.245 C 127.013 227.142 127.634 227.058 128.113 226.955 L 128.113 226.955 C 128.272 227.169 128.456 227.667 128.627 227.92 L 128.627 227.92 C 128.678 227.862 128.728 227.802 128.777 227.744 L 128.777 227.744 C 128.726 227.59 128.375 226.81 128.223 226.459 L 128.223 226.459 C 127.648 226.581 126.91 226.703 126.336 226.826 Z  M 159.691 233.437 L 159.691 245.228 L 159.96 233.858 C 160.301 233.627 160.811 233.398 161.144 233.169 L 161.144 233.169 C 161.476 233.4 161.967 233.632 162.299 233.862 L 162.299 233.862 L 162.573 245.228 L 162.552 233.437 C 162.137 233.147 161.562 232.857 161.144 232.566 L 161.144 232.566 C 160.721 232.857 160.112 233.147 159.691 233.437 Z " fill="url(#_lgradient_2)"/><clipPath id="_clipPath_rG05Wn7tuigq1gLpZqP7rIvleH9NDVCu"><path d=" M 0 -66 L 322.866 -66 L 322.866 373.37 L 0 373.37 L 0 -66 Z " fill="rgb(255,255,255)"/></clipPath><g clip-path="url(#_clipPath_rG05Wn7tuigq1gLpZqP7rIvleH9NDVCu)"><path d=" M 106.286 191.793 C 111.114 169.653 141.86 163.087 161.048 163.087 C 180.236 163.089 210.98 169.657 215.812 191.797 C 221.786 219.191 180.905 229.321 161.051 229.319 C 141.196 229.319 100.312 219.188 106.286 191.793 Z  M 104.204 191.957 C 109.337 169.041 139.793 162.113 161.046 162.113 C 182.229 162.113 212.759 169.047 217.893 191.961 C 224.283 220.482 181.708 231.103 161.051 231.103 C 140.392 231.103 97.818 220.479 104.204 191.957 Z " fill-rule="evenodd" fill="rgb(254,254,254)"/></g><clipPath id="_clipPath_QoCTbgQ9TP0Ya6rH2Rm9EqmJIuPoBNrV"><path d=" M 192.677 170.682 C 191.269 170.769 191.148 171.251 189.948 171.325 L 189.948 171.325 C 189.797 171.334 189.639 171.339 189.477 171.339 L 189.477 171.339 C 188.352 171.339 187.062 171.142 187.062 171.142 L 187.062 171.142 C 186.332 170.992 185.825 170.902 185.317 170.902 L 185.317 170.902 C 184.572 172.136 183.431 172.891 180.662 172.891 L 180.662 172.891 C 180.471 172.891 180.312 172.87 180.179 172.833 L 180.179 172.833 C 180.457 173.432 182.868 173.789 183.429 173.789 L 183.429 173.789 C 183.448 173.789 183.466 173.789 183.481 173.787 L 183.481 173.787 L 183.508 173.787 C 183.621 173.787 183.827 173.819 184.085 173.872 L 184.085 173.872 C 187.394 172.895 190.743 171.981 194.174 171.111 L 194.174 171.111 C 193.86 171.306 193.55 171.508 193.239 171.707 L 193.239 171.707 L 193.222 171.712 C 191.608 172.738 190.041 173.773 188.5 174.823 L 188.5 174.823 C 188.761 174.934 189.106 175.114 189.608 175.405 L 189.608 175.405 C 192.586 177.123 197.038 181.858 197.922 185.968 L 197.922 185.968 C 198.048 186.554 198.398 187.235 198.859 187.958 L 198.859 187.958 C 203.145 188.758 207.445 189.63 211.824 190.577 L 211.824 190.577 C 209.376 190.524 206.956 190.499 204.555 190.499 L 204.555 190.499 C 203.26 190.499 201.971 190.507 200.684 190.521 L 200.684 190.521 C 201.656 191.835 202.559 193.105 202.767 194.044 L 202.767 194.044 C 198.829 193.75 193.904 191.705 191.741 190.729 L 191.741 190.729 C 186.577 190.906 181.404 191.181 176.096 191.522 L 176.096 191.522 C 177.08 192.358 178.048 193.19 179.004 194.018 L 179.004 194.018 C 183.007 195.337 189.518 197.619 191.632 199.158 L 191.632 199.158 C 193.688 200.656 204.3 204.625 207.114 205.598 L 207.114 205.598 C 208.444 206.056 210.665 207.127 212.645 208.132 L 212.645 208.132 C 215.287 204.129 216.641 199.462 216.105 194.075 L 216.105 194.075 C 214.749 193.324 213.304 192.207 212.501 190.964 L 212.501 190.964 C 211.198 188.957 208.063 185.501 206.345 183.344 L 206.345 183.344 C 203.971 180.357 198.544 177.627 197.753 176.392 L 197.753 176.392 C 196.96 175.16 195.654 172.999 195.292 172.147 L 195.292 172.147 C 194.95 171.341 194.178 170.674 192.911 170.674 L 192.911 170.674 C 192.836 170.674 192.757 170.676 192.677 170.682 Z  M 185.753 174.269 C 185.971 174.324 186.178 174.376 186.358 174.421 L 186.358 174.421 C 187.187 174.043 188.021 173.672 188.855 173.305 L 188.855 173.305 L 188.855 173.307 C 188.859 173.305 188.862 173.304 188.866 173.302 L 188.866 173.302 C 187.829 173.617 186.79 173.94 185.753 174.269 Z  M 166.086 184.748 C 166.044 185.716 165.954 186.684 165.815 187.643 L 165.815 187.643 C 172.023 187.722 178.224 187.925 184.424 188.258 L 184.424 188.258 C 183.654 188.142 182.821 188.054 181.925 188.012 L 181.925 188.012 C 172.959 187.209 169.562 186.012 168.669 185.713 L 168.669 185.713 C 167.066 185.176 167.046 184.866 166.088 184.748 L 166.088 184.748 L 166.086 184.748 Z  M 199.826 189.361 C 201.357 189.498 202.886 189.641 204.414 189.796 L 204.414 189.796 C 202.777 189.5 201.146 189.215 199.523 188.936 L 199.523 188.936 C 199.621 189.076 199.724 189.218 199.826 189.361 Z  M 165.273 190.44 C 165.492 190.454 165.715 190.472 165.935 190.493 L 165.935 190.493 C 165.74 190.387 165.539 190.282 165.336 190.178 L 165.336 190.178 C 165.316 190.264 165.295 190.354 165.273 190.44 Z  M 169.065 190.992 C 170.228 191.242 171.031 191.475 171.031 191.475 L 171.031 191.475 C 172.186 191.713 173.835 192.278 174.844 192.643 L 174.844 192.643 C 174.073 192.007 173.296 191.376 172.52 190.748 L 172.52 190.748 C 171.367 190.824 170.216 190.906 169.065 190.992 Z " fill-rule="evenodd" fill="rgb(255,255,255)"/></clipPath><g clip-path="url(#_clipPath_QoCTbgQ9TP0Ya6rH2Rm9EqmJIuPoBNrV)"><path d=" M 165.273 208.132 L 216.64 208.132 L 216.64 170.674 L 165.273 170.674 L 165.273 208.132 Z " fill="rgb(0,136,0)" fill-opacity="0.75"/></g><linearGradient id="_lgradient_3" x1="-1597.714791851193%" y1="307.85353491271934%" x2="95.8632063773253%" y2="45.114833229427376%"><stop offset="1.7391304347826086%" stop-opacity="0.56" style="stop-color:rgb(0,136,0)"/><stop offset="96.95652173913044%" stop-opacity="0.59" style="stop-color:rgb(0,136,0)"/></linearGradient><path d=" M 163.306 186.343 C 162.868 186.773 162.464 187.186 162.076 187.615 L 162.076 187.615 C 163.321 187.618 164.568 187.63 165.815 187.643 L 165.815 187.643 C 165.954 186.684 166.044 185.716 166.086 184.748 L 166.086 184.748 C 165.155 185.276 164.23 185.807 163.306 186.343 Z  M 160.441 189.646 C 160.457 190.151 160.473 190.657 160.489 191.164 L 160.489 191.164 C 161.834 190.82 163.054 190.491 163.054 190.491 L 163.054 190.491 C 163.466 190.434 163.905 190.411 164.362 190.411 L 164.362 190.411 C 164.66 190.411 164.965 190.423 165.273 190.44 L 165.273 190.44 C 165.295 190.354 165.316 190.264 165.336 190.178 L 165.336 190.178 C 164.088 189.527 162.735 188.883 161.522 188.246 L 161.522 188.246 C 161.161 188.675 160.806 189.133 160.441 189.646 Z " fill="url(#_lgradient_3)"/><clipPath id="_clipPath_S5bNmkvTCVjGSnemqjAAtHDiQ9zdn4G8"><path d=" M 0 -66 L 322.866 -66 L 322.866 373.37 L 0 373.37 L 0 -66 Z " fill="rgb(255,255,255)"/></clipPath><g clip-path="url(#_clipPath_S5bNmkvTCVjGSnemqjAAtHDiQ9zdn4G8)"><path d=" M 193.222 171.713 C 190.356 172.452 187.552 173.219 184.781 174.028 C 185.098 174.105 185.44 174.19 185.753 174.27 C 186.79 173.941 187.829 173.617 188.867 173.302 C 188.863 173.304 188.859 173.306 188.856 173.308 L 188.856 173.658 C 188.193 173.948 187.531 174.242 186.871 174.54 C 186.885 174.544 186.897 174.546 186.909 174.548 C 187.716 174.695 187.829 174.536 188.5 174.823 C 190.041 173.774 191.609 172.738 193.222 171.713 Z  M 164.755 184.664 C 164.585 185.007 164.34 185.353 163.982 185.692 C 163.748 185.912 163.523 186.131 163.306 186.343 C 164.231 185.808 165.156 185.276 166.086 184.748 L 166.088 184.748 C 165.939 184.729 165.771 184.715 165.572 184.705 C 165.282 184.692 165.015 184.676 164.755 184.664 Z  M 161.758 187.972 C 161.68 188.062 161.601 188.155 161.523 188.246 C 162.736 188.883 164.088 189.527 165.336 190.178 C 165.539 190.282 165.741 190.388 165.935 190.493 C 167.061 190.603 168.169 190.803 169.066 190.992 C 170.216 190.906 171.368 190.824 172.521 190.748 C 173.296 191.376 174.073 192.008 174.844 192.643 C 175.383 192.838 175.738 192.975 175.738 192.975 C 175.738 192.975 176.614 193.244 177.96 193.678 C 177.347 193.152 176.727 192.621 176.096 192.088 L 176.096 191.523 C 181.405 191.182 186.577 190.906 191.742 190.729 C 191.044 190.413 190.634 190.208 190.634 190.208 L 189.765 189.788 C 189.765 189.788 188.733 189.268 186.95 188.786 C 178.578 188.284 170.202 188.023 161.799 187.995 L 161.758 187.972 Z  M 199.161 188.417 C 199.278 188.587 199.399 188.763 199.523 188.936 C 201.147 189.215 202.778 189.5 204.414 189.796 L 204.414 190.186 C 202.988 190.041 201.562 189.906 200.134 189.778 C 200.317 190.026 200.503 190.275 200.684 190.521 C 201.971 190.507 203.26 190.499 204.555 190.499 C 206.956 190.499 209.376 190.525 211.825 190.577 C 211.217 190.566 210.39 190.548 209.787 190.538 C 206.181 189.775 202.659 189.068 199.161 188.417 Z  M 160.442 189.646 C 160.224 189.951 160.003 190.278 159.776 190.63 C 159.401 191.21 158.768 191.572 158.001 191.776 C 158.679 191.623 159.609 191.39 160.489 191.164 C 160.473 190.657 160.457 190.151 160.442 189.646 Z  M 176.096 191.523 L 176.48 191.854 C 177.329 192.574 178.168 193.297 179.002 194.017 C 179.002 194.017 179.004 194.017 179.004 194.019 C 178.048 193.191 177.08 192.359 176.096 191.523 Z " fill="rgb(0,136,0)" fill-opacity="0.75"/></g><linearGradient id="_lgradient_4" x1="-133.15142137253977%" y1="49.346257346035216%" x2="130.93970247556922%" y2="49.346257346035216%"><stop offset="0%" stop-opacity="0.68" style="stop-color:rgb(0,136,0)"/><stop offset="97.3913043478261%" stop-opacity="0.82" style="stop-color:rgb(0,136,0)"/></linearGradient><path d=" M 184.085 173.872 C 184.29 173.915 184.527 173.968 184.78 174.028 L 184.78 174.028 C 187.552 173.219 190.355 172.452 193.222 171.712 L 193.222 171.712 L 193.239 171.707 C 193.55 171.508 193.86 171.306 194.174 171.111 L 194.174 171.111 C 190.743 171.981 187.394 172.895 184.085 173.872 Z  M 186.358 174.421 C 186.574 174.474 186.757 174.517 186.871 174.54 L 186.871 174.54 C 187.53 174.242 188.193 173.948 188.855 173.658 L 188.855 173.658 L 188.855 173.307 L 188.855 173.305 C 188.021 173.672 187.187 174.043 186.358 174.421 Z  M 161.758 187.972 L 161.798 187.995 C 170.202 188.022 178.578 188.284 186.949 188.786 L 186.949 188.786 C 186.224 188.591 185.379 188.403 184.424 188.258 L 184.424 188.258 C 178.224 187.925 172.023 187.722 165.815 187.643 L 165.815 187.643 C 164.568 187.63 163.321 187.618 162.076 187.615 L 162.076 187.615 C 161.968 187.731 161.863 187.851 161.758 187.972 Z  M 199.161 188.417 C 202.658 189.068 206.181 189.775 209.787 190.538 L 209.787 190.538 C 210.389 190.548 211.216 190.566 211.824 190.577 L 211.824 190.577 C 207.445 189.63 203.145 188.758 198.859 187.958 L 198.859 187.958 C 198.956 188.109 199.056 188.262 199.161 188.417 Z  M 200.134 189.778 C 201.561 189.906 202.987 190.041 204.414 190.186 L 204.414 190.186 L 204.414 189.796 C 202.886 189.641 201.357 189.498 199.826 189.361 L 199.826 189.361 C 199.929 189.5 200.032 189.64 200.134 189.778 Z  M 176.096 192.087 C 176.727 192.621 177.347 193.152 177.96 193.678 L 177.96 193.678 C 178.279 193.781 178.629 193.896 179.002 194.016 L 179.002 194.016 C 178.168 193.297 177.329 192.574 176.479 191.854 L 176.479 191.854 L 176.096 191.522 L 176.096 192.087 Z  M 212.645 208.132 C 212.808 208.214 212.965 208.293 213.121 208.376 L 213.121 208.376 C 215.67 204.311 216.898 199.587 216.214 194.131 L 216.214 194.131 C 216.18 194.113 216.145 194.095 216.105 194.075 L 216.105 194.075 C 216.641 199.462 215.287 204.129 212.645 208.132 Z " fill="url(#_lgradient_4)"/><linearGradient id="_lgradient_5" x1="-3534.194965193818%" y1="49.99394996209254%" x2="144.52422369000857%" y2="49.99394996209254%"><stop offset="0%" stop-opacity="1" style="stop-color:rgb(80,82,88)"/><stop offset="10%" stop-opacity="1" style="stop-color:rgb(76,79,84)"/><stop offset="20%" stop-opacity="1" style="stop-color:rgb(73,75,81)"/><stop offset="30.000000000000004%" stop-opacity="1" style="stop-color:rgb(69,72,77)"/><stop offset="40%" stop-opacity="1" style="stop-color:rgb(65,68,74)"/><stop offset="50%" stop-opacity="1" style="stop-color:rgb(62,64,70)"/><stop offset="60%" stop-opacity="1" style="stop-color:rgb(58,61,66)"/><stop offset="70%" stop-opacity="1" style="stop-color:rgb(54,57,63)"/><stop offset="80%" stop-opacity="1" style="stop-color:rgb(51,53,59)"/><stop offset="89.99999999999999%" stop-opacity="1" style="stop-color:rgb(47,50,56)"/><stop offset="99.99999999999999%" stop-opacity="1" style="stop-color:rgb(43,46,52)"/></linearGradient><path d=" M 235.801 202.325 C 235.791 207.204 234.489 212.11 231.809 216.881 L 231.809 216.881 C 235.144 210.95 236.375 204.901 235.579 198.768 L 235.579 198.768 C 235.73 199.952 235.805 201.139 235.801 202.325 Z  M 231.798 216.901 C 231.801 216.894 231.805 216.888 231.809 216.881 L 231.809 216.881 C 231.805 216.888 231.801 216.894 231.798 216.901 Z  M 231.75 216.985 C 231.766 216.957 231.782 216.929 231.798 216.901 L 231.798 216.901 C 231.782 216.929 231.766 216.957 231.75 216.985 Z  M 231.712 217.053 C 231.725 217.03 231.737 217.008 231.75 216.985 L 231.75 216.985 C 231.737 217.008 231.725 217.03 231.712 217.053 Z  M 231.681 217.106 C 231.692 217.088 231.702 217.071 231.712 217.053 L 231.712 217.053 C 231.702 217.071 231.692 217.088 231.681 217.106 Z  M 231.608 217.234 C 231.632 217.192 231.657 217.149 231.681 217.106 L 231.681 217.106 C 231.657 217.149 231.632 217.192 231.608 217.234 Z " fill="url(#_lgradient_5)"/><clipPath id="_clipPath_h20QA32kPXv8uqjOR5AGfSTL2uJEPLeG"><path d=" M 0 -66 L 322.866 -66 L 322.866 373.37 L 0 373.37 L 0 -66 Z " fill="rgb(255,255,255)"/></clipPath><g clip-path="url(#_clipPath_h20QA32kPXv8uqjOR5AGfSTL2uJEPLeG)"><path d=" M 218.398 194.995 C 218.989 200.496 217.691 205.272 215.082 209.392 C 216.103 209.933 216.783 210.302 216.783 210.302 C 217.165 210.627 217.937 211.089 218.945 211.622 C 219.601 211.954 220.257 212.287 220.914 212.62 C 224.666 214.45 229.75 216.611 231.607 217.234 C 234.423 212.352 235.791 207.324 235.8 202.325 C 235.804 201.139 235.729 199.952 235.579 198.768 C 235.547 198.532 235.514 198.293 235.477 198.056 L 235.475 198.052 L 228.907 196.683 L 219.587 195.272 L 218.398 194.995 Z " fill="rgb(0,136,0)" fill-opacity="0.75"/></g><linearGradient id="_lgradient_6" x1="-6882.418699187027%" y1="37.86400801603236%" x2="751.4146798780516%" y2="37.86400801603236%"><stop offset="0%" stop-opacity="1" style="stop-color:rgb(79,81,87)"/><stop offset="10%" stop-opacity="1" style="stop-color:rgb(76,78,83)"/><stop offset="20%" stop-opacity="1" style="stop-color:rgb(72,74,80)"/><stop offset="30.000000000000004%" stop-opacity="1" style="stop-color:rgb(69,71,76)"/><stop offset="40%" stop-opacity="1" style="stop-color:rgb(65,67,73)"/><stop offset="50%" stop-opacity="1" style="stop-color:rgb(61,64,70)"/><stop offset="60%" stop-opacity="1" style="stop-color:rgb(58,60,66)"/><stop offset="70%" stop-opacity="1" style="stop-color:rgb(54,57,63)"/><stop offset="80%" stop-opacity="1" style="stop-color:rgb(50,53,59)"/><stop offset="89.99999999999999%" stop-opacity="1" style="stop-color:rgb(47,50,56)"/><stop offset="99.99999999999999%" stop-opacity="1" style="stop-color:rgb(43,46,52)"/></linearGradient><path d=" M 220.914 212.62 C 220.258 212.287 219.602 211.954 218.946 211.622 L 218.946 211.622 C 219.531 211.936 220.199 212.272 220.914 212.62 Z " fill="url(#_lgradient_6)"/><clipPath id="_clipPath_K22vcU9EB3mHkAc8FLDraWlcjo3Ydidg"><path d=" M 0 -66 L 322.866 -66 L 322.866 373.37 L 0 373.37 L 0 -66 Z " fill="rgb(255,255,255)"/></clipPath><g clip-path="url(#_clipPath_K22vcU9EB3mHkAc8FLDraWlcjo3Ydidg)"><path d=" M 216.214 194.132 C 216.899 199.587 215.67 204.312 213.121 208.376 C 213.842 208.741 214.515 209.095 215.082 209.393 C 217.692 205.273 218.989 200.496 218.399 194.995 L 218.354 194.986 C 217.779 194.867 217.015 194.567 216.214 194.132 Z " fill="rgb(0,136,0)" fill-opacity="0.56"/><path d=" M 232.498 188.819 C 232.527 188.877 232.557 188.935 232.586 188.996 C 232.557 188.935 232.527 188.877 232.498 188.819 Z " fill="rgb(124,125,128)"/></g><linearGradient id="_lgradient_7" x1="-124787.50000000266%" y1="103.80023598819434%" x2="4116.804500000103%" y2="103.80023598819434%"><stop offset="0%" stop-opacity="1" style="stop-color:rgb(80,82,88)"/><stop offset="10%" stop-opacity="1" style="stop-color:rgb(76,79,84)"/><stop offset="20%" stop-opacity="1" style="stop-color:rgb(73,75,81)"/><stop offset="30.000000000000004%" stop-opacity="1" style="stop-color:rgb(69,72,77)"/><stop offset="40%" stop-opacity="1" style="stop-color:rgb(65,68,74)"/><stop offset="50%" stop-opacity="1" style="stop-color:rgb(62,64,70)"/><stop offset="60%" stop-opacity="1" style="stop-color:rgb(58,61,66)"/><stop offset="70%" stop-opacity="1" style="stop-color:rgb(54,57,63)"/><stop offset="80%" stop-opacity="1" style="stop-color:rgb(51,53,59)"/><stop offset="89.99999999999999%" stop-opacity="1" style="stop-color:rgb(47,50,56)"/><stop offset="99.99999999999999%" stop-opacity="1" style="stop-color:rgb(43,46,52)"/></linearGradient><path d=" M 232.683 189.199 C 232.676 189.182 232.668 189.164 232.66 189.148 L 232.66 189.148 C 232.668 189.164 232.676 189.182 232.683 189.199 Z  M 232.753 189.345 C 232.747 189.332 232.741 189.318 232.734 189.307 L 232.734 189.307 C 232.741 189.32 232.747 189.332 232.753 189.345 Z  M 232.82 189.487 C 232.818 189.482 232.818 189.477 232.814 189.472 L 232.814 189.472 C 232.818 189.477 232.818 189.482 232.82 189.487 Z " fill="url(#_lgradient_7)"/><clipPath id="_clipPath_GfYtsmHfTG1guwsVeCrLBalsgjHpyTaR"><path d=" M 0 -66 L 322.866 -66 L 322.866 373.37 L 0 373.37 L 0 -66 Z " fill="rgb(255,255,255)"/></clipPath><g clip-path="url(#_clipPath_GfYtsmHfTG1guwsVeCrLBalsgjHpyTaR)"><path d=" M 225.467 186.051 C 225.071 186.051 224.652 186.057 224.208 186.067 C 224.189 186.065 224.167 186.065 224.146 186.065 C 223.258 186.065 222.269 186.296 222.269 186.296 L 219.732 187.802 C 219.411 188.327 220.562 189.006 220.562 189.006 C 220.562 189.006 223.772 189.221 223.764 190.053 C 226.126 191.308 231.153 191.458 233.727 191.584 C 233.451 190.882 233.151 190.182 232.821 189.487 C 232.819 189.483 232.819 189.477 232.814 189.473 C 232.794 189.43 232.775 189.389 232.753 189.346 C 232.747 189.332 232.741 189.321 232.734 189.307 C 232.718 189.27 232.7 189.235 232.684 189.198 C 232.676 189.183 232.668 189.164 232.66 189.149 C 232.635 189.096 232.61 189.045 232.586 188.996 C 232.557 188.936 232.528 188.877 232.498 188.82 C 232.113 188.052 231.696 187.299 231.254 186.553 L 231.252 186.549 C 231.119 186.512 229.501 186.051 225.467 186.051 Z " fill="none"/><path d=" M 201.389 216.545 C 200.486 216.545 200.548 217.485 200.904 218.542 C 201.896 217.969 202.86 217.368 203.785 216.741 C 203.22 216.631 202.442 216.547 201.389 216.545 Z " fill="rgb(0,136,0)" fill-opacity="0.75"/></g><linearGradient id="_lgradient_8" x1="-2968.495717344739%" y1="51.17409756097686%" x2="835.9708886509594%" y2="51.17409756097686%"><stop offset="3.4782608695652173%" stop-opacity="0.86" style="stop-color:rgb(0,136,0)"/><stop offset="90.43478260869566%" stop-opacity="0.77" style="stop-color:rgb(0,136,0)"/></linearGradient><path d=" M 200.903 218.542 C 200.975 218.76 201.061 218.981 201.153 219.201 L 201.153 219.201 C 202.362 218.501 203.531 217.76 204.639 216.977 L 204.639 216.977 C 204.428 216.895 204.151 216.813 203.784 216.741 L 203.784 216.741 C 202.859 217.369 201.895 217.969 200.903 218.542 Z " fill="url(#_lgradient_8)"/><linearGradient id="_lgradient_9" x1="-5199.926389400104%" y1="48.299503322840565%" x2="493.30808612440364%" y2="48.299503322840565%"><stop offset="0%" stop-opacity="1" style="stop-color:rgb(80,82,88)"/><stop offset="10%" stop-opacity="1" style="stop-color:rgb(76,79,84)"/><stop offset="20%" stop-opacity="1" style="stop-color:rgb(73,75,81)"/><stop offset="30.000000000000004%" stop-opacity="1" style="stop-color:rgb(69,72,77)"/><stop offset="40%" stop-opacity="1" style="stop-color:rgb(65,68,74)"/><stop offset="50%" stop-opacity="1" style="stop-color:rgb(62,64,70)"/><stop offset="60%" stop-opacity="1" style="stop-color:rgb(58,61,66)"/><stop offset="70%" stop-opacity="1" style="stop-color:rgb(54,57,63)"/><stop offset="80%" stop-opacity="1" style="stop-color:rgb(51,53,59)"/><stop offset="89.99999999999999%" stop-opacity="1" style="stop-color:rgb(47,50,56)"/><stop offset="99.99999999999999%" stop-opacity="1" style="stop-color:rgb(43,46,52)"/></linearGradient><path d=" M 226.962 223.662 C 226.974 223.649 226.987 223.632 226.999 223.619 L 226.999 223.619 C 226.987 223.632 226.974 223.649 226.962 223.662 Z  M 226.818 223.826 C 226.846 223.793 226.875 223.759 226.904 223.726 L 226.904 223.726 C 226.875 223.759 226.846 223.793 226.818 223.826 Z  M 224.436 226.329 C 225.275 225.506 226.064 224.676 226.803 223.839 L 226.803 223.839 C 226.061 224.676 225.274 225.506 224.436 226.329 Z  M 224.282 226.478 C 224.332 226.428 224.383 226.378 224.436 226.329 L 224.436 226.329 C 224.383 226.378 224.332 226.428 224.282 226.478 Z " fill="url(#_lgradient_9)"/><clipPath id="_clipPath_GCBptweMToOn0qebP3BnKXLfWfVdWKrX"><path d=" M 0 -66 L 322.866 -66 L 322.866 373.37 L 0 373.37 L 0 -66 Z " fill="rgb(255,255,255)"/></clipPath><g clip-path="url(#_clipPath_GCBptweMToOn0qebP3BnKXLfWfVdWKrX)"><path d=" M 207.41 217.462 C 205.736 218.723 203.93 219.885 202.017 220.954 C 202.178 221.245 202.286 221.424 202.286 221.424 C 204.15 222.673 210.857 224.587 212.256 224.77 C 213.654 224.954 218.334 226.353 218.334 226.353 C 218.334 226.353 220.773 226.674 223.273 227.43 C 223.615 227.114 223.952 226.799 224.282 226.479 C 224.332 226.428 224.383 226.379 224.435 226.329 C 225.273 225.507 226.061 224.676 226.803 223.84 C 226.806 223.836 226.812 223.83 226.818 223.826 C 226.846 223.793 226.875 223.76 226.904 223.727 C 226.922 223.705 226.942 223.683 226.962 223.662 C 226.973 223.649 226.987 223.633 226.999 223.619 C 227.468 223.08 227.918 222.543 228.348 222 C 222.687 221.884 214.655 221.79 208.557 218.61 C 208.349 217.993 207.907 217.65 207.41 217.462 Z " fill="rgb(0,136,0)" fill-opacity="0.75"/><path d=" M 204.64 216.977 C 203.532 217.759 202.363 218.5 201.153 219.201 C 201.439 219.88 201.784 220.533 202.018 220.954 C 203.93 219.884 205.737 218.722 207.411 217.461 C 206.986 217.302 206.526 217.257 206.136 217.257 C 205.631 217.257 205.253 217.334 205.253 217.334 C 205.253 217.334 205.119 217.162 204.64 216.977 Z " fill="rgb(0,136,0)" fill-opacity="0.56"/><path d=" M 188.064 128.423 C 188.064 128.423 186.18 126.715 186.151 126.616 C 186.014 126.013 186.682 125.212 186.847 124.208 C 186.651 124.139 186.456 124.047 186.27 123.965 C 185.814 122.23 185.438 119.099 186.272 117.425 C 186.678 116.607 187.163 115.533 186.883 114.578 C 185.334 109.261 182.258 104.628 180.092 99.579 C 179.501 98.21 179.601 97.222 179.515 95.822 C 177.837 93.975 175.896 89.139 174.96 86.152 C 173.006 91.092 171.711 96.768 171.711 98.083 C 171.711 103.643 177.347 106.337 175.396 115.58 C 175.019 117.364 174.346 119.831 173.678 122.376 C 174.848 128.818 174.848 133.491 176.572 140.954 C 178.983 143.338 180.998 146.399 182.07 150.284 C 182.732 152.687 184.761 158.335 187.35 159.183 C 188.957 159.707 181.904 160.999 179.906 158.496 C 177.98 156.086 174.663 154.162 173.09 151.6 C 171.834 149.558 169.885 145.208 168.658 143.14 L 167.148 151.061 C 169.198 159.518 167.975 161.383 166.152 168.245 C 165.362 171.21 159.378 157.345 159.372 156.264 C 159.372 153.25 159.179 152.135 158.474 149.48 C 157.22 147.036 157.355 143.569 157.526 140.934 C 157.811 136.524 157.776 128.216 157.968 126.03 C 156.458 122.319 152.59 115.616 152.203 111.843 C 151.602 105.964 152.595 100.015 151.775 94.156 C 150.766 97.093 149.695 100.816 147.415 103.064 C 143.996 106.433 140.84 110.166 137.792 113.857 C 136.679 115.378 137.662 116.12 135.938 118.552 C 134.242 120.946 135.151 119.866 134.798 122.152 C 134.736 122.548 134.539 122.858 134.406 122.993 C 133.499 123.756 132.535 124.406 131.235 123.861 C 128.721 122.599 128.541 120.73 128.368 118.326 C 128.039 113.739 131.431 113.523 133.352 110.748 C 137.124 105.295 139.034 96.155 143.074 92.04 C 143.327 91.225 144.271 88.292 146.079 83.923 C 146.131 78.498 147.474 73.671 153.053 71.444 C 155.339 70.531 158.333 70.3 158.446 67.141 C 158.46 66.765 158.381 65.794 158.141 65.45 C 157.218 64.706 156.576 64.687 156.13 64.16 C 155.227 62.999 154.48 55.54 154.58 55.064 C 155.891 48.734 158.915 46.626 162.749 46.816 C 167.285 47.041 170.877 49.217 170.684 55.308 C 170.526 60.212 165.463 66.503 173.04 68.887 C 175.931 69.798 176.482 69.166 178.969 71.667 C 181.757 74.469 182.433 79.444 182.9 84.056 L 185.744 90.657 C 190.955 99.43 189.068 102.205 190.986 111.137 C 191.482 113.449 192.338 115.493 192.52 120.545 C 192.606 122.957 190.697 128.335 188.064 128.423 Z " fill="rgb(0,136,0)" fill-opacity="0.3"/><path d=" M 133.728 121.802 C 133.96 119.464 133.625 119.661 135.116 117.494 C 136.5 115.483 135.832 114.459 137.056 112.732 C 140.064 108.974 142.904 105.18 146.279 101.752 C 148.537 99.458 151.608 91.736 152.327 89.026 C 152.466 88.627 152.685 88.431 152.776 88.774 C 153.249 93.947 153.979 98.26 153.793 103.343 C 153.41 114.017 153.701 112.899 158.141 122.868 C 158.506 118.862 159.475 113.044 161.816 111.074 C 159.088 121.464 158.92 136.274 158.632 140.834 C 158.485 143.153 157.854 146.812 158.965 148.946 C 159.339 150.389 159.368 152.568 159.401 154.222 C 159.407 155.23 159.47 172.45 159.47 172.45 L 157.872 180.444 C 157.3 182.751 154.323 186.629 152.124 187.835 C 151.425 188.221 149.783 189.096 149.783 189.879 C 149.783 191.143 157.921 193.501 159.775 190.63 C 161.172 188.47 162.32 187.283 163.981 185.692 C 166.545 183.238 163.705 180.707 164.04 177.385 C 164.629 171.594 167.12 166.567 167.936 161.098 C 168.429 157.807 168.345 154.901 166.843 151.149 L 167.924 140.699 C 169.121 142.502 170.253 145.364 171.395 147.745 C 173.429 151.98 173.457 152.392 176.973 155.864 C 178.156 157.031 179.381 158.414 180.27 159.831 C 181.925 162.457 183.063 165.064 182.919 168.197 C 181.698 170.404 181.172 170.265 179.61 171.602 C 179.661 171.676 179.177 172.892 180.662 172.892 C 185.957 172.892 185.301 170.128 187.303 166.541 C 188.597 164.225 192.311 160.701 188.238 159.479 C 186.959 159.097 185.759 158.329 185.016 157.089 C 182.191 152.373 182.083 152.494 180.615 148.151 C 179.728 145.523 177.92 143.4 175.78 141.673 C 174.478 138.711 173.959 136.604 173.539 133.456 C 172.969 129.188 172.583 126.132 171.854 121.766 C 173.923 113.573 174.985 111.84 171.471 103.96 C 170.662 102.15 170.206 100.22 170.206 98.083 C 170.206 95.46 171.648 89.58 173.049 86.532 C 173.537 85.292 174.222 84.124 175.186 83.753 C 176.041 86.931 178.975 93.465 180.678 95.066 C 180.785 96.35 180.732 97.645 181.238 98.86 C 183.386 104.013 186.477 108.699 188.017 114.132 C 188.542 115.998 187.841 116.9 187.307 118.405 C 187.145 119.129 187.102 121.223 187.424 122.779 L 188.159 123.179 C 188.032 123.654 187.704 124.967 187.441 125.576 C 187.536 126.312 188.443 126.731 188.443 126.731 C 189.622 126.469 191.308 122.197 191.247 120.49 C 191.065 115.264 189.967 112.926 189.66 111.368 C 187.918 102.503 188.923 100.067 183.961 91.489 L 181.14 84.518 C 180.791 80.944 179.369 72.797 174.795 71.334 C 174.025 71.089 173.251 71.044 172.091 70.667 C 166.104 68.725 166.122 64.13 167.756 59.111 C 169.205 54.641 169.398 49.373 162.823 48.819 C 158.755 48.478 157.52 51.679 156.651 55.367 C 156.681 55.769 156.883 61.765 157.767 63.054 C 159.506 64.347 160.485 63.968 160.373 67.206 C 160.279 69.926 158.553 71.532 156.202 72.36 C 152.376 73.706 150.423 74.492 149.132 78.439 C 148.727 79.677 148.38 81.456 148.369 84.112 L 148.369 84.291 C 147.277 87.001 145.897 90.105 145.063 93.017 C 140.355 97.737 138.019 108.479 133.249 113.015 C 130.083 116.029 129.125 116.221 130.286 120.867 C 130.403 121.339 131.922 122.546 132.246 122.719 C 132.479 122.805 133.733 122.071 133.728 121.802 Z " fill="rgb(0,136,0)"/></g></g></svg>