<?xml version="1.0" standalone="no"?><!-- Generator: Gravit.io --><svg xmlns="http://www.w3.org/2000/svg" xmlns:xlink="http://www.w3.org/1999/xlink" style="isolation:isolate" viewBox="0 0 141.732 85.039" width="141.732" height="85.039"><defs><clipPath id="_clipPath_CXBqwThHvI6K2XqSIid04dbTgwBfoawS"><rect width="141.732" height="85.039"/></clipPath></defs><g clip-path="url(#_clipPath_CXBqwThHvI6K2XqSIid04dbTgwBfoawS)"><clipPath id="_clipPath_3QsaVQHequDzNJWfbbJWxHnA92yxXzL9"><rect x="0" y="0" width="141.732" height="85.039" transform="matrix(1,0,0,1,0,0)" fill="rgb(255,255,255)"/></clipPath><g clip-path="url(#_clipPath_3QsaVQHequDzNJWfbbJWxHnA92yxXzL9)"><path d=" M 113.122 51.84 C 113.568 52.006 114.322 52.176 114.659 51.733 C 115.647 49.733 113.147 48.687 112.272 47.319 C 111.851 46.62 111.293 45.965 111.321 45.07 C 111.572 43.9 112.73 43.328 113.651 42.992 C 115.672 42.406 115.672 44.625 116.793 45.602 C 117.772 46.048 118.314 47.178 119.598 47.123 C 120.269 47.178 120.732 46.844 120.982 46.323 C 121.315 44.764 120.157 44.036 119.068 43.272 C 117.685 42.294 116.152 41.568 115.452 39.989 C 115.79 39.543 115.536 38.761 116.207 38.594 C 117.686 38.286 118.678 39.543 120.269 39.178 C 121.594 39.124 122.543 38.343 123.076 37.128 C 122.573 34.932 120.493 36.71 119.207 35.601 C 118.343 34.738 116.794 34.599 116.543 33.265 C 117.298 32.378 118.678 32.378 119.265 31.186 C 119.406 30.519 119.349 29.712 118.873 29.265 C 117.632 28.907 116.878 29.63 115.732 29.657 C 115.452 30.045 114.856 30.156 114.323 30.185 C 113.989 29.797 113.318 29.573 113.261 28.99 C 114.099 27.798 115.211 27.295 115.79 25.932 C 115.928 24.991 116.235 23.798 115.264 23.268 C 112.218 22.88 112.519 26.628 109.744 26.852 C 109.299 26.739 109.019 26.381 108.794 25.989 C 108.378 24.103 109.048 22.436 108.74 20.602 C 108.518 20.157 108.04 19.686 107.539 19.659 C 107.207 19.769 106.856 19.962 106.661 20.269 C 106.073 21.824 107.106 23.961 105.794 25.322 C 105.678 25.403 105.557 25.474 105.432 25.532 C 105.036 25.719 104.585 25.786 104.135 25.657 C 103.686 25.378 103.211 25.268 102.989 24.74 C 102.819 23.048 101.581 21.824 100.74 20.41 C 100.435 20.073 100.098 20.436 99.876 20.602 C 98.94 22.465 99.595 24.797 100.072 26.656 C 100.014 26.795 99.986 27.131 99.735 26.99 C 98.019 25.798 96.457 24.545 94.736 23.519 L 94.655 23.185 C 96.023 20.769 98.185 18.518 100.544 17.407 C 102.072 17.027 104.086 17.748 105.432 17.155 C 105.848 16.978 106.203 16.678 106.465 16.186 C 106.715 15.715 106.632 14.993 106.27 14.657 C 106.015 14.519 105.728 14.426 105.432 14.349 C 104.178 14.018 102.607 14.182 101.469 14.519 C 97.432 15.297 94.406 18.41 91.737 21.407 C 89.853 23.798 88.333 26.323 87.133 28.99 C 85.846 32.464 85.362 36.849 86.266 40.661 C 86.712 42.49 87.55 44.119 87.887 45.994 C 88.654 47.178 88.457 49.227 90.275 49.511 C 90.778 49.789 91.153 49.34 91.542 49.119 C 91.347 46.898 90.358 44.874 89.996 42.656 C 89.937 42.041 89.13 41.315 89.8 40.801 C 92.943 42.041 96.387 40.981 99.738 40.94 C 100.326 41.09 100.351 41.735 100.66 42.126 C 100.631 45.21 97.408 45.797 95.609 47.653 C 94.797 49.536 93.193 50.543 91.934 51.84 L 91.88 52.595 C 92.325 53.014 92.772 53.657 93.416 53.404 C 95.913 52.007 96.959 48.882 99.597 47.319 C 99.934 47.066 100.075 46.423 100.546 46.324 C 100.659 46.395 100.688 46.507 100.659 46.649 C 99.459 48.016 98.746 49.59 97.937 51.128 C 97.433 52.539 96.083 53.516 96.137 55.066 C 96.737 55.457 97.574 56.015 98.412 55.595 C 99.153 55.066 98.832 54.103 99.207 53.404 C 100.574 50.796 101.245 47.907 102.99 45.462 C 103.465 45.183 103.857 44.875 104.412 45.183 C 104.899 45.546 105.32 46.049 105.32 46.65 C 105.011 48.966 104.412 51.159 103.799 53.321 C 103.743 54.104 102.989 55.234 103.941 55.792 C 104.386 55.988 104.874 55.988 105.265 55.792 C 105.327 55.675 105.376 55.553 105.432 55.434 C 106.378 53.458 106.487 51.151 107.316 49.122 C 107.624 48.159 106.632 46.567 107.928 46.134 C 108.544 45.91 109.132 46.218 109.549 46.652 C 111.321 48.099 111.434 50.516 113.122 51.84 Z  M 98.606 31.13 C 98.606 31.628 98.101 31.712 97.793 31.932 C 95.605 32.156 93.272 30.849 91.206 31.988 C 90.635 32.378 90.635 33.045 90.663 33.601 C 91.959 35.823 95.043 36.239 97.404 35.932 C 97.71 35.932 98.048 36.155 98.131 36.406 C 98.159 36.877 98.41 37.381 97.877 37.744 C 96.985 38.162 96.135 37.995 95.13 38.135 C 93.048 38.247 90.548 38.957 89.264 36.989 C 88.277 33.405 89.627 29.769 91.931 27.131 C 92.323 26.545 92.685 25.769 93.469 25.519 C 94.823 27.159 96.273 28.407 97.99 29.657 C 98.493 30.015 98.718 30.599 98.606 31.13 Z  M 105.793 43.131 C 105.667 43.081 105.552 43.011 105.431 42.952 C 103.481 41.988 102.185 39.905 100.993 38.078 C 99.79 36.239 100.072 33.74 101.273 31.988 C 102.207 30.58 103.743 29.706 105.431 29.356 C 105.877 29.264 106.335 29.203 106.798 29.186 C 110.092 28.849 112.16 31.186 113.931 33.265 C 114.714 34.961 114.798 37.519 113.877 39.124 C 113.317 39.935 112.594 40.715 111.797 41.176 C 110.23 42.88 108.039 43.578 105.793 43.131 Z " fill="rgb(0,136,0)"/></g><clipPath id="_clipPath_ZJ3TIj6287aYGUWVfFlaNtXVYdTGtiKt"><rect x="0" y="0" width="141.732" height="85.039" transform="matrix(1,0,0,1,0,0)" fill="rgb(255,255,255)"/></clipPath><g clip-path="url(#_clipPath_ZJ3TIj6287aYGUWVfFlaNtXVYdTGtiKt)"><path d=" M 127.318 36.266 C 127.262 34.408 126.201 32.962 125.656 31.323 C 125.071 30.52 124.622 29.433 124.064 28.599 C 123.73 28.269 123.318 28.353 122.934 28.52 L 122.934 30.656 C 123.131 31.349 123.318 32.099 123.535 32.739 C 124.26 34.045 124.789 35.266 125.127 36.737 C 125.852 40.774 123.868 43.731 122.21 46.787 C 120.435 50.766 116.735 54.158 113.931 56.937 C 113.372 57.283 112.41 57.453 112.41 58.264 C 112.465 58.82 112.701 59.074 113.206 59.324 C 113.818 59.408 114.489 59.212 115.076 58.99 C 116.122 58.233 117.715 58.178 118.259 56.741 C 121.205 53.849 123.506 50.07 125.268 46.453 C 127.318 43.552 127.96 39.961 127.318 36.266 Z " fill="rgb(0,136,0)"/></g><clipPath id="_clipPath_mje6ZlG2VYT2OwuCrNdujkO3KJ0ilrWU"><rect x="0" y="0" width="141.732" height="85.039" transform="matrix(1,0,0,1,0,0)" fill="rgb(255,255,255)"/></clipPath><g clip-path="url(#_clipPath_mje6ZlG2VYT2OwuCrNdujkO3KJ0ilrWU)"><path d=" M 114.068 20.957 C 115.259 21.012 117.184 21.566 117.926 20.511 C 118.172 19.844 117.822 19.204 117.463 18.761 C 116.064 18.318 115.13 16.762 113.314 17.371 C 112.897 17.87 112.214 18.429 112.41 19.371 C 112.543 20.177 113.314 20.731 114.068 20.957 Z " fill="rgb(0,136,0)"/></g><clipPath id="_clipPath_phqucHfG9JsvqijobmlvlYIxpNeozyEX"><rect x="0" y="0" width="141.732" height="85.039" transform="matrix(1,0,0,1,0,0)" fill="rgb(255,255,255)"/></clipPath><g clip-path="url(#_clipPath_phqucHfG9JsvqijobmlvlYIxpNeozyEX)"><path d=" M 46.122 23.343 C 45.222 23.343 45.022 24.178 45.022 24.978 L 45.022 45.341 C 45.022 46.315 45.289 46.969 46.156 46.969 C 47.121 46.969 47.222 46.045 47.222 45.341 L 47.222 24.978 C 47.222 23.943 46.923 23.343 46.122 23.343 Z " fill="rgb(0,136,0)"/></g><clipPath id="_clipPath_fJuJbO7geGaKGiQ7mGmD4PmhDaOoGIIk"><rect x="0" y="0" width="141.732" height="85.039" transform="matrix(1,0,0,1,0,0)" fill="rgb(255,255,255)"/></clipPath><g clip-path="url(#_clipPath_fJuJbO7geGaKGiQ7mGmD4PmhDaOoGIIk)"><path d=" M 14.173 53.29 L 81.43 53.29 L 81.43 16.945 L 14.173 16.945 L 14.173 53.29 Z  M 21.46 48.611 C 18.627 48.611 18.226 45.472 18.226 43.381 L 18.226 42.207 L 20.66 39.374 L 20.86 39.574 C 20.493 40.714 20.46 41.101 20.46 42.14 C 20.46 43.616 20.46 44.569 20.493 45.107 C 20.526 45.878 20.627 46.868 21.493 46.868 C 22.594 46.868 22.66 44.503 22.66 43.481 C 22.66 41.436 22.693 39.273 20.893 36.174 C 18.493 32.377 18.226 29.111 18.226 27.376 C 18.226 24.81 18.694 21.745 21.493 21.745 C 24.26 21.745 24.826 24.844 24.826 28.008 L 24.826 29.078 L 22.359 30.977 L 22.193 30.774 C 22.559 29.644 22.627 29.208 22.627 27.811 C 22.627 26.81 22.627 24.541 22.226 23.91 C 22.094 23.711 21.927 23.511 21.559 23.511 C 20.559 23.511 20.526 25.907 20.526 26.844 C 20.526 31.01 21.026 31.878 22.526 34.477 C 24.026 37.11 24.959 38.903 24.959 42.709 C 24.959 44.736 24.693 48.611 21.46 48.611 Z  M 35.456 22.211 C 35.156 22.244 34.956 22.278 34.622 22.541 L 34.622 47.74 C 34.859 47.94 35.056 48.04 35.456 48.107 L 35.456 48.411 L 31.559 48.411 L 31.559 48.107 C 31.959 48.04 32.16 47.907 32.356 47.74 L 32.356 22.541 C 32.093 22.345 31.923 22.244 31.559 22.211 L 31.559 21.943 L 35.456 21.943 L 35.456 22.211 Z  M 49.456 44.973 C 49.456 47.035 48.552 48.612 46.189 48.612 C 43.889 48.612 42.823 47.171 42.823 44.973 L 42.823 25.343 C 42.823 23.078 43.989 21.745 46.122 21.745 C 48.422 21.745 49.456 23.144 49.456 25.343 L 49.456 44.973 Z  M 64.518 22.211 C 64.185 22.244 64.018 22.345 63.719 22.574 L 63.719 44.636 C 63.719 46.765 62.986 48.612 60.752 48.612 C 58.422 48.612 57.621 46.936 57.621 44.47 L 57.621 22.574 C 57.318 22.345 57.185 22.244 56.786 22.211 L 56.786 21.943 L 60.685 21.943 L 60.685 22.211 C 60.321 22.244 60.152 22.345 59.885 22.574 L 59.885 44.636 C 59.885 45.945 59.885 46.936 60.885 46.936 C 61.918 46.936 62.052 45.878 62.052 44.47 L 62.052 22.574 C 61.755 22.345 61.585 22.244 61.218 22.211 L 61.218 21.943 L 64.518 21.943 L 64.518 22.211 Z  M 77.997 48.411 L 74.006 48.411 L 74.006 48.107 C 74.377 48.04 74.576 47.94 74.844 47.74 L 73.872 37.074 L 73.806 37.074 L 72.531 47.74 C 72.73 48.007 72.935 48.073 73.371 48.107 L 73.371 48.411 L 69.773 48.411 L 69.773 48.107 C 70.173 48.04 70.339 47.94 70.604 47.74 L 72.798 35.44 L 70.939 22.541 C 70.638 22.345 70.473 22.244 70.105 22.211 L 70.105 21.943 L 73.839 21.943 L 73.839 22.211 C 73.335 22.244 73.168 22.311 73.002 22.541 L 73.973 32.607 L 74.039 32.607 L 75.131 22.541 C 74.877 22.345 74.71 22.244 74.377 22.211 L 74.377 21.943 L 77.764 21.943 L 77.764 22.211 C 77.377 22.244 77.311 22.244 77.042 22.411 C 76.973 22.445 76.973 22.51 76.939 22.541 L 75.13 33.643 L 77.175 47.74 C 77.443 48.007 77.63 48.04 77.996 48.107 L 77.996 48.411 L 77.997 48.411 Z " fill="rgb(0,136,0)"/></g></g></svg>