<?xml version="1.0" encoding="utf-8"?>
<!-- Generator: Adobe Illustrator 13.0.0, SVG Export Plug-In . SVG Version: 6.00 Build 14948)  -->
<!DOCTYPE svg PUBLIC "-//W3C//DTD SVG 1.1//EN" "http://www.w3.org/Graphics/SVG/1.1/DTD/svg11.dtd">
<svg version="1.1" id="Layer_1" xmlns="http://www.w3.org/2000/svg" xmlns:xlink="http://www.w3.org/1999/xlink" x="0px" y="0px"
	 width="141.732px" height="85.039px" viewBox="0 0 141.732 85.039" enable-background="new 0 0 141.732 85.039"
	 xml:space="preserve">
<rect x="14.173" y="16.945" fill="#098943" width="67.258" height="36.345"/>
<g>
	<defs>
		<rect id="SVGID_1_" width="141.732" height="85.039"/>
	</defs>
	<clipPath id="SVGID_2_">
		<use xlink:href="#SVGID_1_"  overflow="visible"/>
	</clipPath>
	<path clip-path="url(#SVGID_2_)" fill="#098943" d="M113.122,51.84c0.446,0.166,1.2,0.336,1.537-0.107
		c0.988-2-1.512-3.046-2.387-4.414c-0.421-0.699-0.979-1.354-0.951-2.249c0.251-1.17,1.409-1.742,2.33-2.078
		c2.021-0.586,2.021,1.633,3.142,2.61c0.979,0.446,1.521,1.576,2.805,1.521c0.671,0.055,1.134-0.279,1.384-0.8
		c0.333-1.559-0.825-2.287-1.914-3.051c-1.383-0.978-2.916-1.704-3.616-3.283c0.338-0.446,0.084-1.228,0.755-1.395
		c1.479-0.308,2.471,0.949,4.062,0.584c1.325-0.054,2.274-0.835,2.807-2.05c-0.503-2.196-2.583-0.418-3.869-1.527
		c-0.864-0.863-2.413-1.002-2.664-2.336c0.755-0.887,2.135-0.887,2.722-2.079c0.141-0.667,0.084-1.474-0.392-1.921
		c-1.241-0.358-1.995,0.365-3.141,0.392c-0.28,0.388-0.876,0.499-1.409,0.528c-0.334-0.388-1.005-0.612-1.062-1.195
		c0.838-1.192,1.95-1.695,2.529-3.058c0.138-0.941,0.445-2.134-0.526-2.664c-3.046-0.388-2.745,3.36-5.52,3.584
		c-0.445-0.113-0.725-0.471-0.95-0.863c-0.416-1.886,0.254-3.553-0.054-5.387c-0.222-0.445-0.7-0.916-1.201-0.943
		c-0.332,0.11-0.683,0.303-0.878,0.61c-0.588,1.555,0.445,3.692-0.867,5.053c-0.116,0.081-0.237,0.152-0.362,0.21
		c-0.396,0.187-0.847,0.254-1.297,0.125c-0.449-0.279-0.924-0.389-1.146-0.917c-0.17-1.692-1.408-2.916-2.249-4.33
		c-0.305-0.337-0.642,0.026-0.864,0.192c-0.936,1.863-0.281,4.195,0.196,6.054c-0.058,0.139-0.086,0.475-0.337,0.334
		c-1.716-1.192-3.278-2.445-4.999-3.471l-0.081-0.334c1.368-2.416,3.53-4.667,5.889-5.778c1.528-0.38,3.542,0.341,4.888-0.252
		c0.416-0.177,0.771-0.477,1.033-0.969c0.25-0.471,0.167-1.193-0.195-1.529c-0.255-0.138-0.542-0.231-0.838-0.308
		c-1.254-0.331-2.825-0.167-3.963,0.17c-4.037,0.778-7.063,3.891-9.732,6.888c-1.884,2.391-3.404,4.916-4.604,7.583
		c-1.287,3.474-1.771,7.859-0.867,11.671c0.446,1.829,1.284,3.458,1.621,5.333c0.767,1.184,0.57,3.233,2.388,3.517
		c0.503,0.278,0.878-0.171,1.267-0.392c-0.195-2.221-1.184-4.245-1.546-6.463c-0.059-0.615-0.866-1.341-0.196-1.855
		c3.143,1.24,6.587,0.18,9.938,0.139c0.588,0.15,0.613,0.795,0.922,1.186c-0.029,3.084-3.252,3.671-5.051,5.527
		c-0.812,1.883-2.416,2.89-3.675,4.187l-0.054,0.755c0.445,0.419,0.892,1.062,1.536,0.809c2.497-1.397,3.543-4.522,6.181-6.085
		c0.337-0.253,0.478-0.896,0.949-0.995c0.113,0.071,0.142,0.183,0.113,0.325c-1.2,1.367-1.913,2.941-2.722,4.479
		c-0.504,1.411-1.854,2.388-1.8,3.938c0.6,0.391,1.437,0.949,2.275,0.529c0.741-0.529,0.42-1.492,0.795-2.191
		c1.367-2.608,2.038-5.497,3.783-7.942c0.475-0.279,0.867-0.587,1.422-0.279c0.487,0.363,0.908,0.866,0.908,1.467
		c-0.309,2.316-0.908,4.509-1.521,6.671c-0.056,0.783-0.81,1.913,0.142,2.471c0.445,0.196,0.933,0.196,1.324,0
		c0.062-0.117,0.111-0.239,0.167-0.358c0.946-1.976,1.055-4.283,1.884-6.312c0.308-0.963-0.684-2.555,0.612-2.988
		c0.616-0.224,1.204,0.084,1.621,0.518C111.321,48.099,111.434,50.516,113.122,51.84 M98.606,31.13c0,0.498-0.505,0.582-0.813,0.802
		c-2.188,0.224-4.521-1.083-6.587,0.056c-0.571,0.39-0.571,1.057-0.543,1.613c1.296,2.222,4.38,2.638,6.741,2.331
		c0.306,0,0.644,0.223,0.727,0.474c0.028,0.471,0.279,0.975-0.254,1.338c-0.892,0.418-1.742,0.251-2.747,0.391
		c-2.082,0.112-4.582,0.822-5.866-1.146c-0.987-3.584,0.363-7.22,2.667-9.858c0.392-0.586,0.754-1.362,1.538-1.612
		c1.354,1.64,2.804,2.888,4.521,4.138C98.493,30.015,98.718,30.599,98.606,31.13 M105.793,43.131
		c-0.126-0.05-0.241-0.12-0.362-0.179c-1.95-0.964-3.246-3.047-4.438-4.874c-1.203-1.839-0.921-4.338,0.28-6.09
		c0.934-1.408,2.47-2.282,4.158-2.632c0.446-0.092,0.904-0.153,1.367-0.17c3.294-0.337,5.362,2,7.133,4.079
		c0.783,1.696,0.867,4.254-0.054,5.859c-0.56,0.811-1.283,1.591-2.08,2.052C110.23,42.88,108.039,43.578,105.793,43.131"/>
	<path clip-path="url(#SVGID_2_)" fill="#098943" d="M127.318,36.266c-0.056-1.858-1.117-3.304-1.662-4.943
		c-0.585-0.803-1.034-1.89-1.592-2.724c-0.334-0.33-0.746-0.246-1.13-0.079v2.136c0.197,0.693,0.384,1.443,0.601,2.083
		c0.725,1.306,1.254,2.527,1.592,3.998c0.725,4.037-1.259,6.994-2.917,10.05c-1.775,3.979-5.475,7.371-8.279,10.15
		c-0.559,0.346-1.521,0.516-1.521,1.327c0.055,0.556,0.291,0.81,0.796,1.06c0.612,0.084,1.283-0.112,1.87-0.334
		c1.046-0.757,2.639-0.812,3.183-2.249c2.946-2.892,5.247-6.671,7.009-10.288C127.318,43.552,127.96,39.961,127.318,36.266"/>
	<path clip-path="url(#SVGID_2_)" fill="#098943" d="M114.068,20.957c1.191,0.055,3.116,0.609,3.858-0.446
		c0.246-0.667-0.104-1.307-0.463-1.75c-1.399-0.443-2.333-1.999-4.149-1.39c-0.417,0.499-1.1,1.058-0.904,2
		C112.543,20.177,113.314,20.731,114.068,20.957"/>
	<path clip-path="url(#SVGID_2_)" fill="#FFFFFF" d="M20.66,39.374l0.2,0.2c-0.367,1.14-0.4,1.527-0.4,2.567
		c0,1.475,0,2.428,0.033,2.966c0.033,0.771,0.134,1.761,1,1.761c1.101,0,1.167-2.365,1.167-3.387c0-2.045,0.033-4.208-1.767-7.307
		c-2.4-3.797-2.667-7.063-2.667-8.798c0-2.566,0.468-5.631,3.267-5.631c2.767,0,3.333,3.099,3.333,6.263v1.07l-2.467,1.899
		l-0.166-0.203c0.366-1.13,0.434-1.566,0.434-2.963c0-1.001,0-3.27-0.401-3.901c-0.132-0.199-0.299-0.399-0.667-0.399
		c-1,0-1.033,2.396-1.033,3.333c0,4.166,0.5,5.034,2,7.633c1.5,2.633,2.433,4.426,2.433,8.232c0,2.027-0.266,5.902-3.499,5.902
		c-2.833,0-3.234-3.138-3.234-5.23v-1.174L20.66,39.374z"/>
	<path clip-path="url(#SVGID_2_)" fill="#FFFFFF" d="M34.623,47.74c0.237,0.2,0.433,0.3,0.834,0.367v0.304h-3.898v-0.304
		c0.4-0.067,0.602-0.2,0.797-0.367V22.541c-0.263-0.197-0.432-0.297-0.797-0.33v-0.268h3.898v0.268c-0.3,0.033-0.5,0.067-0.834,0.33
		V47.74z"/>
	<path clip-path="url(#SVGID_2_)" fill="#FFFFFF" d="M49.456,44.974c0,2.062-0.903,3.638-3.266,3.638
		c-2.301,0-3.367-1.441-3.367-3.638V25.343c0-2.265,1.167-3.598,3.299-3.598c2.3,0,3.334,1.4,3.334,3.598V44.974z M47.222,24.978
		c0-1.035-0.299-1.635-1.1-1.635c-0.9,0-1.099,0.835-1.099,1.635v20.363c0,0.974,0.266,1.628,1.134,1.628
		c0.964,0,1.065-0.924,1.065-1.628V24.978z"/>
	<path clip-path="url(#SVGID_2_)" fill="#FFFFFF" d="M63.719,44.636c0,2.13-0.733,3.976-2.967,3.976
		c-2.33,0-3.131-1.676-3.131-4.142V22.574c-0.303-0.229-0.437-0.329-0.836-0.362v-0.269h3.899v0.269
		c-0.363,0.033-0.532,0.133-0.799,0.362v22.062c0,1.309,0,2.3,1,2.3c1.033,0,1.167-1.058,1.167-2.466V22.574
		c-0.297-0.229-0.467-0.329-0.834-0.362v-0.269h3.3v0.269c-0.333,0.033-0.5,0.133-0.799,0.362V44.636z"/>
	<path clip-path="url(#SVGID_2_)" fill="#FFFFFF" d="M77.176,47.74c0.268,0.267,0.455,0.3,0.821,0.367v0.304h-3.991v-0.304
		c0.371-0.067,0.57-0.167,0.838-0.367l-0.972-10.666h-0.066L72.531,47.74c0.199,0.267,0.403,0.333,0.84,0.367v0.304h-3.598v-0.304
		c0.4-0.067,0.566-0.167,0.832-0.367l2.193-12.3L70.94,22.541c-0.302-0.197-0.467-0.297-0.834-0.33v-0.268h3.733v0.268
		c-0.504,0.033-0.671,0.1-0.837,0.33l0.971,10.066h0.066l1.092-10.066c-0.254-0.197-0.421-0.297-0.754-0.33v-0.268h3.387v0.268
		c-0.387,0.033-0.454,0.033-0.722,0.2c-0.069,0.034-0.069,0.099-0.103,0.13l-1.809,11.102L77.176,47.74z"/>
	<path clip-path="url(#SVGID_2_)" d="M17.725,66.172c-0.092-0.188-0.214-0.339-0.366-0.455c-0.152-0.117-0.332-0.2-0.542-0.251
		c-0.209-0.049-0.433-0.074-0.672-0.074c-0.184,0-0.376,0.02-0.575,0.057c-0.199,0.036-0.38,0.104-0.541,0.198
		c-0.162,0.094-0.295,0.22-0.4,0.376c-0.104,0.157-0.157,0.355-0.157,0.595s0.054,0.43,0.161,0.574
		c0.107,0.146,0.246,0.263,0.418,0.352c0.172,0.09,0.367,0.16,0.586,0.208c0.22,0.051,0.443,0.104,0.673,0.158
		c0.248,0.063,0.484,0.126,0.706,0.187c0.221,0.061,0.414,0.139,0.578,0.239c0.164,0.099,0.295,0.231,0.392,0.395
		c0.098,0.165,0.146,0.387,0.146,0.665c0,0.255-0.054,0.471-0.164,0.65c-0.11,0.179-0.254,0.328-0.433,0.445
		c-0.18,0.116-0.381,0.2-0.606,0.253c-0.224,0.052-0.45,0.079-0.679,0.079c-0.304,0-0.584-0.035-0.84-0.104
		c-0.257-0.07-0.478-0.182-0.665-0.333s-0.331-0.348-0.433-0.585c-0.102-0.239-0.151-0.529-0.146-0.868h0.149
		c0,0.319,0.048,0.59,0.142,0.812c0.095,0.222,0.228,0.402,0.4,0.541c0.172,0.14,0.376,0.24,0.613,0.303
		c0.236,0.062,0.496,0.094,0.78,0.094c0.209,0,0.417-0.023,0.623-0.072c0.207-0.047,0.393-0.122,0.557-0.228
		c0.164-0.104,0.297-0.239,0.399-0.402c0.103-0.165,0.153-0.362,0.153-0.592c0-0.269-0.058-0.48-0.175-0.638
		s-0.267-0.282-0.448-0.373c-0.182-0.092-0.384-0.162-0.605-0.208c-0.221-0.049-0.434-0.098-0.639-0.146
		c-0.214-0.051-0.428-0.103-0.642-0.157s-0.407-0.131-0.579-0.228c-0.171-0.098-0.31-0.228-0.415-0.39
		c-0.104-0.161-0.156-0.371-0.156-0.63c0-0.265,0.054-0.484,0.164-0.661c0.11-0.177,0.252-0.317,0.426-0.422
		c0.174-0.105,0.37-0.179,0.586-0.224c0.217-0.045,0.432-0.068,0.646-0.068c0.264,0,0.507,0.029,0.728,0.086
		c0.222,0.058,0.416,0.149,0.583,0.275c0.167,0.129,0.3,0.296,0.4,0.502c0.099,0.206,0.157,0.459,0.171,0.757h-0.149
		C17.868,66.59,17.817,66.358,17.725,66.172"/>
	<path clip-path="url(#SVGID_2_)" fill="none" stroke="#098943" stroke-width="0.2" d="M17.725,66.172
		c-0.092-0.188-0.214-0.339-0.366-0.455c-0.152-0.117-0.332-0.2-0.542-0.251c-0.209-0.049-0.433-0.074-0.672-0.074
		c-0.184,0-0.376,0.02-0.575,0.057c-0.199,0.036-0.38,0.104-0.541,0.198c-0.162,0.094-0.295,0.22-0.4,0.376
		c-0.104,0.157-0.157,0.355-0.157,0.595s0.054,0.43,0.161,0.574c0.107,0.146,0.246,0.263,0.418,0.352
		c0.172,0.09,0.367,0.16,0.586,0.208c0.22,0.051,0.443,0.104,0.673,0.158c0.248,0.063,0.484,0.126,0.706,0.187
		c0.221,0.061,0.414,0.139,0.578,0.239c0.164,0.099,0.295,0.231,0.392,0.395c0.098,0.165,0.146,0.387,0.146,0.665
		c0,0.255-0.054,0.471-0.164,0.65c-0.11,0.179-0.254,0.328-0.433,0.445c-0.18,0.116-0.381,0.2-0.606,0.253
		c-0.224,0.052-0.45,0.079-0.679,0.079c-0.304,0-0.584-0.035-0.84-0.104c-0.257-0.07-0.478-0.182-0.665-0.333
		s-0.331-0.348-0.433-0.585c-0.102-0.239-0.151-0.529-0.146-0.868h0.149c0,0.319,0.048,0.59,0.142,0.812
		c0.095,0.222,0.228,0.402,0.4,0.541c0.172,0.14,0.376,0.24,0.613,0.303c0.236,0.062,0.496,0.094,0.78,0.094
		c0.209,0,0.417-0.023,0.623-0.072c0.207-0.047,0.393-0.122,0.557-0.228c0.164-0.104,0.297-0.239,0.399-0.402
		c0.103-0.165,0.153-0.362,0.153-0.592c0-0.269-0.058-0.48-0.175-0.638s-0.267-0.282-0.448-0.373
		c-0.182-0.092-0.384-0.162-0.605-0.208c-0.221-0.049-0.434-0.098-0.639-0.146c-0.214-0.051-0.428-0.103-0.642-0.157
		s-0.407-0.131-0.579-0.228c-0.171-0.098-0.31-0.228-0.415-0.39c-0.104-0.161-0.156-0.371-0.156-0.63
		c0-0.265,0.054-0.484,0.164-0.661c0.11-0.177,0.252-0.317,0.426-0.422c0.174-0.105,0.37-0.179,0.586-0.224
		c0.217-0.045,0.432-0.068,0.646-0.068c0.264,0,0.507,0.029,0.728,0.086c0.222,0.058,0.416,0.149,0.583,0.275
		c0.167,0.129,0.3,0.296,0.4,0.502c0.099,0.206,0.157,0.459,0.171,0.757h-0.149C17.868,66.59,17.817,66.358,17.725,66.172z"/>
	<path clip-path="url(#SVGID_2_)" d="M19.062,66.96c0.107-0.339,0.264-0.635,0.47-0.89c0.208-0.252,0.464-0.455,0.77-0.604
		c0.306-0.147,0.659-0.224,1.057-0.224s0.751,0.076,1.057,0.224c0.306,0.149,0.562,0.353,0.769,0.604
		c0.206,0.255,0.364,0.551,0.471,0.89c0.106,0.34,0.16,0.698,0.16,1.074c0,0.38-0.054,0.738-0.16,1.077
		c-0.107,0.338-0.265,0.636-0.471,0.889c-0.207,0.255-0.463,0.455-0.769,0.601c-0.306,0.148-0.659,0.222-1.057,0.222
		s-0.751-0.073-1.057-0.222c-0.306-0.146-0.562-0.346-0.77-0.601c-0.206-0.253-0.363-0.551-0.47-0.889
		c-0.107-0.339-0.16-0.697-0.16-1.077C18.902,67.658,18.955,67.3,19.062,66.96 M19.219,69.098c0.107,0.322,0.259,0.601,0.456,0.836
		c0.196,0.233,0.437,0.416,0.721,0.549c0.283,0.132,0.605,0.198,0.963,0.198c0.359,0,0.68-0.066,0.963-0.198
		c0.284-0.133,0.524-0.315,0.721-0.549c0.197-0.235,0.348-0.514,0.456-0.836c0.107-0.325,0.163-0.678,0.168-1.063
		c-0.005-0.382-0.061-0.734-0.168-1.059c-0.108-0.323-0.259-0.604-0.456-0.837c-0.197-0.233-0.437-0.416-0.721-0.548
		c-0.283-0.133-0.604-0.199-0.963-0.199c-0.358,0-0.68,0.066-0.963,0.199c-0.284,0.132-0.525,0.314-0.721,0.548
		c-0.197,0.233-0.349,0.514-0.456,0.837c-0.107,0.324-0.163,0.677-0.168,1.059C19.056,68.42,19.112,68.772,19.219,69.098"/>
	<path clip-path="url(#SVGID_2_)" fill="none" stroke="#098943" stroke-width="0.2" d="M19.062,66.96
		c0.107-0.339,0.264-0.635,0.47-0.89c0.208-0.252,0.464-0.455,0.77-0.604c0.306-0.147,0.659-0.224,1.057-0.224
		s0.751,0.076,1.057,0.224c0.306,0.149,0.562,0.353,0.769,0.604c0.206,0.255,0.364,0.551,0.471,0.89
		c0.106,0.34,0.16,0.698,0.16,1.074c0,0.38-0.054,0.738-0.16,1.077c-0.107,0.338-0.265,0.636-0.471,0.889
		c-0.207,0.255-0.463,0.455-0.769,0.601c-0.306,0.148-0.659,0.222-1.057,0.222s-0.751-0.073-1.057-0.222
		c-0.306-0.146-0.562-0.346-0.77-0.601c-0.206-0.253-0.363-0.551-0.47-0.889c-0.107-0.339-0.16-0.697-0.16-1.077
		C18.902,67.658,18.955,67.3,19.062,66.96z M19.219,69.098c0.107,0.322,0.259,0.601,0.456,0.836
		c0.196,0.233,0.437,0.416,0.721,0.549c0.283,0.132,0.605,0.198,0.963,0.198c0.359,0,0.68-0.066,0.963-0.198
		c0.284-0.133,0.524-0.315,0.721-0.549c0.197-0.235,0.348-0.514,0.456-0.836c0.107-0.325,0.163-0.678,0.168-1.063
		c-0.005-0.382-0.061-0.734-0.168-1.059c-0.108-0.323-0.259-0.604-0.456-0.837c-0.197-0.233-0.437-0.416-0.721-0.548
		c-0.283-0.133-0.604-0.199-0.963-0.199c-0.358,0-0.68,0.066-0.963,0.199c-0.284,0.132-0.525,0.314-0.721,0.548
		c-0.197,0.233-0.349,0.514-0.456,0.837c-0.107,0.324-0.163,0.677-0.168,1.059C19.056,68.42,19.112,68.772,19.219,69.098z"/>
	<path clip-path="url(#SVGID_2_)" d="M28.551,65.368v3.348c0,0.716-0.167,1.247-0.5,1.591c-0.333,0.343-0.819,0.516-1.457,0.516
		c-0.637,0-1.123-0.173-1.456-0.516c-0.334-0.344-0.501-0.875-0.501-1.591v-3.348h0.15v3.348c0,0.642,0.147,1.13,0.441,1.463
		c0.293,0.336,0.749,0.503,1.366,0.503c0.618,0,1.073-0.167,1.367-0.503c0.294-0.333,0.441-0.821,0.441-1.463v-3.348H28.551z"/>
	<path clip-path="url(#SVGID_2_)" fill="none" stroke="#098943" stroke-width="0.2" d="M28.551,65.368v3.348
		c0,0.716-0.167,1.247-0.5,1.591c-0.333,0.343-0.819,0.516-1.457,0.516c-0.637,0-1.123-0.173-1.456-0.516
		c-0.334-0.344-0.501-0.875-0.501-1.591v-3.348h0.15v3.348c0,0.642,0.147,1.13,0.441,1.463c0.293,0.336,0.749,0.503,1.366,0.503
		c0.618,0,1.073-0.167,1.367-0.503c0.294-0.333,0.441-0.821,0.441-1.463v-3.348H28.551z"/>
	<path clip-path="url(#SVGID_2_)" d="M29.544,70.702v-5.334h2.181c0.558,0,0.966,0.111,1.225,0.333
		c0.259,0.222,0.393,0.568,0.403,1.035c0.01,0.359-0.084,0.657-0.284,0.893c-0.198,0.237-0.485,0.396-0.859,0.482v0.014
		c0.225,0.031,0.406,0.083,0.546,0.161c0.139,0.077,0.246,0.179,0.321,0.304c0.074,0.124,0.125,0.271,0.15,0.439
		c0.024,0.169,0.037,0.361,0.037,0.575c0,0.074,0.002,0.168,0.007,0.28c0.005,0.111,0.013,0.222,0.022,0.333
		c0.011,0.108,0.023,0.208,0.038,0.298c0.015,0.089,0.034,0.151,0.06,0.187h-0.164c-0.025-0.055-0.045-0.129-0.06-0.22
		c-0.016-0.092-0.027-0.191-0.034-0.296c-0.008-0.104-0.013-0.21-0.015-0.317c-0.003-0.106-0.003-0.202-0.003-0.287
		c0-0.219-0.017-0.415-0.049-0.586c-0.033-0.173-0.099-0.317-0.198-0.434c-0.1-0.117-0.242-0.206-0.426-0.269
		S32.011,68.2,31.703,68.2h-2.009v2.502H29.544z M31.688,68.051c0.199,0,0.389-0.025,0.571-0.074c0.181-0.05,0.343-0.13,0.482-0.239
		c0.139-0.11,0.251-0.249,0.336-0.414c0.085-0.167,0.127-0.367,0.127-0.601c-0.005-0.38-0.12-0.675-0.344-0.888
		c-0.224-0.21-0.589-0.316-1.098-0.316h-2.068v2.532H31.688z"/>
	<path clip-path="url(#SVGID_2_)" fill="none" stroke="#098943" stroke-width="0.2" d="M29.544,70.702v-5.334h2.181
		c0.558,0,0.966,0.111,1.225,0.333c0.259,0.222,0.393,0.568,0.403,1.035c0.01,0.359-0.084,0.657-0.284,0.893
		c-0.198,0.237-0.485,0.396-0.859,0.482v0.014c0.225,0.031,0.406,0.083,0.546,0.161c0.139,0.077,0.246,0.179,0.321,0.304
		c0.074,0.124,0.125,0.271,0.15,0.439c0.024,0.169,0.037,0.361,0.037,0.575c0,0.074,0.002,0.168,0.007,0.28
		c0.005,0.111,0.013,0.222,0.022,0.333c0.011,0.108,0.023,0.208,0.038,0.298c0.015,0.089,0.034,0.151,0.06,0.187h-0.164
		c-0.025-0.055-0.045-0.129-0.06-0.22c-0.016-0.092-0.027-0.191-0.034-0.296c-0.008-0.104-0.013-0.21-0.015-0.317
		c-0.003-0.106-0.003-0.202-0.003-0.287c0-0.219-0.017-0.415-0.049-0.586c-0.033-0.173-0.099-0.317-0.198-0.434
		c-0.1-0.117-0.242-0.206-0.426-0.269S32.011,68.2,31.703,68.2h-2.009v2.502H29.544z M31.688,68.051
		c0.199,0,0.389-0.025,0.571-0.074c0.181-0.05,0.343-0.13,0.482-0.239c0.139-0.11,0.251-0.249,0.336-0.414
		c0.085-0.167,0.127-0.367,0.127-0.601c-0.005-0.38-0.12-0.675-0.344-0.888c-0.224-0.21-0.589-0.316-1.098-0.316h-2.068v2.532
		H31.688z"/>
	<path clip-path="url(#SVGID_2_)" d="M38.582,69.504c-0.125,0.271-0.285,0.504-0.482,0.698c-0.196,0.194-0.429,0.346-0.698,0.455
		c-0.269,0.108-0.572,0.165-0.911,0.165c-0.354,0-0.679-0.069-0.975-0.206c-0.296-0.136-0.55-0.327-0.762-0.567
		c-0.212-0.241-0.377-0.529-0.496-0.866c-0.12-0.336-0.18-0.704-0.18-1.103c0-0.323,0.046-0.653,0.138-0.988
		c0.093-0.336,0.238-0.642,0.437-0.916c0.2-0.275,0.458-0.498,0.777-0.671c0.319-0.175,0.705-0.263,1.158-0.263
		c0.353,0,0.662,0.059,0.926,0.175c0.264,0.119,0.484,0.265,0.661,0.44c0.177,0.179,0.31,0.367,0.4,0.565
		c0.089,0.198,0.136,0.381,0.142,0.545h-0.15c-0.015-0.195-0.072-0.386-0.172-0.572s-0.235-0.354-0.407-0.504
		c-0.172-0.149-0.376-0.271-0.613-0.361c-0.236-0.092-0.499-0.139-0.787-0.139c-0.438,0-0.808,0.088-1.11,0.265
		c-0.301,0.177-0.543,0.399-0.728,0.665c-0.184,0.267-0.317,0.557-0.399,0.869c-0.082,0.315-0.123,0.611-0.123,0.89
		c0,0.34,0.049,0.665,0.149,0.979c0.1,0.314,0.247,0.591,0.441,0.83c0.194,0.239,0.431,0.429,0.713,0.574
		c0.281,0.145,0.601,0.218,0.96,0.218c0.318,0,0.605-0.053,0.859-0.157c0.253-0.105,0.472-0.249,0.657-0.435
		c0.184-0.183,0.333-0.402,0.448-0.657c0.114-0.253,0.191-0.527,0.231-0.82h0.15C38.791,68.934,38.707,69.231,38.582,69.504"/>
	<path clip-path="url(#SVGID_2_)" fill="none" stroke="#098943" stroke-width="0.2" d="M38.582,69.504
		c-0.125,0.271-0.285,0.504-0.482,0.698c-0.196,0.194-0.429,0.346-0.698,0.455c-0.269,0.108-0.572,0.165-0.911,0.165
		c-0.354,0-0.679-0.069-0.975-0.206c-0.296-0.136-0.55-0.327-0.762-0.567c-0.212-0.241-0.377-0.529-0.496-0.866
		c-0.12-0.336-0.18-0.704-0.18-1.103c0-0.323,0.046-0.653,0.138-0.988c0.093-0.336,0.238-0.642,0.437-0.916
		c0.2-0.275,0.458-0.498,0.777-0.671c0.319-0.175,0.705-0.263,1.158-0.263c0.353,0,0.662,0.059,0.926,0.175
		c0.264,0.119,0.484,0.265,0.661,0.44c0.177,0.179,0.31,0.367,0.4,0.565c0.089,0.198,0.136,0.381,0.142,0.545h-0.15
		c-0.015-0.195-0.072-0.386-0.172-0.572s-0.235-0.354-0.407-0.504c-0.172-0.149-0.376-0.271-0.613-0.361
		c-0.236-0.092-0.499-0.139-0.787-0.139c-0.438,0-0.808,0.088-1.11,0.265c-0.301,0.177-0.543,0.399-0.728,0.665
		c-0.184,0.267-0.317,0.557-0.399,0.869c-0.082,0.315-0.123,0.611-0.123,0.89c0,0.34,0.049,0.665,0.149,0.979
		c0.1,0.314,0.247,0.591,0.441,0.83c0.194,0.239,0.431,0.429,0.713,0.574c0.281,0.145,0.601,0.218,0.96,0.218
		c0.318,0,0.605-0.053,0.859-0.157c0.253-0.105,0.472-0.249,0.657-0.435c0.184-0.183,0.333-0.402,0.448-0.657
		c0.114-0.253,0.191-0.527,0.231-0.82h0.15C38.791,68.934,38.707,69.231,38.582,69.504z"/>
	<polygon clip-path="url(#SVGID_2_)" points="43.168,70.552 43.168,70.702 39.597,70.702 39.597,65.368 43.138,65.368 
		43.138,65.519 39.747,65.519 39.747,67.849 42.936,67.849 42.936,67.998 39.747,67.998 39.747,70.552 	"/>
	<polygon clip-path="url(#SVGID_2_)" fill="none" stroke="#098943" stroke-width="0.2" points="43.168,70.552 43.168,70.702 
		39.597,70.702 39.597,65.368 43.138,65.368 43.138,65.519 39.747,65.519 39.747,67.849 42.936,67.849 42.936,67.998 39.747,67.998 
		39.747,70.552 	"/>
	<path clip-path="url(#SVGID_2_)" d="M46.054,66.96c0.107-0.339,0.264-0.635,0.47-0.89c0.207-0.252,0.464-0.455,0.77-0.604
		c0.306-0.147,0.659-0.224,1.057-0.224s0.751,0.076,1.057,0.224c0.306,0.149,0.562,0.353,0.769,0.604
		c0.206,0.255,0.364,0.551,0.471,0.89c0.106,0.34,0.16,0.698,0.16,1.074c0,0.38-0.054,0.738-0.16,1.077
		c-0.107,0.338-0.265,0.636-0.471,0.889c-0.207,0.255-0.463,0.455-0.769,0.601c-0.306,0.148-0.659,0.222-1.057,0.222
		s-0.751-0.073-1.057-0.222c-0.306-0.146-0.563-0.346-0.77-0.601c-0.206-0.253-0.363-0.551-0.47-0.889
		c-0.107-0.339-0.16-0.697-0.16-1.077C45.894,67.658,45.947,67.3,46.054,66.96 M46.211,69.098c0.107,0.322,0.259,0.601,0.456,0.836
		c0.196,0.233,0.437,0.416,0.721,0.549c0.283,0.132,0.605,0.198,0.963,0.198c0.359,0,0.68-0.066,0.963-0.198
		c0.284-0.133,0.524-0.315,0.721-0.549c0.197-0.235,0.348-0.514,0.456-0.836c0.107-0.325,0.163-0.678,0.168-1.063
		c-0.005-0.382-0.061-0.734-0.168-1.059c-0.108-0.323-0.259-0.604-0.456-0.837c-0.197-0.233-0.437-0.416-0.721-0.548
		c-0.283-0.133-0.604-0.199-0.963-0.199c-0.358,0-0.68,0.066-0.963,0.199c-0.284,0.132-0.525,0.314-0.721,0.548
		c-0.197,0.233-0.349,0.514-0.456,0.837c-0.107,0.324-0.163,0.677-0.168,1.059C46.048,68.42,46.104,68.772,46.211,69.098"/>
	<path clip-path="url(#SVGID_2_)" fill="none" stroke="#098943" stroke-width="0.2" d="M46.054,66.96
		c0.107-0.339,0.264-0.635,0.47-0.89c0.207-0.252,0.464-0.455,0.77-0.604c0.306-0.147,0.659-0.224,1.057-0.224
		s0.751,0.076,1.057,0.224c0.306,0.149,0.562,0.353,0.769,0.604c0.206,0.255,0.364,0.551,0.471,0.89
		c0.106,0.34,0.16,0.698,0.16,1.074c0,0.38-0.054,0.738-0.16,1.077c-0.107,0.338-0.265,0.636-0.471,0.889
		c-0.207,0.255-0.463,0.455-0.769,0.601c-0.306,0.148-0.659,0.222-1.057,0.222s-0.751-0.073-1.057-0.222
		c-0.306-0.146-0.563-0.346-0.77-0.601c-0.206-0.253-0.363-0.551-0.47-0.889c-0.107-0.339-0.16-0.697-0.16-1.077
		C45.894,67.658,45.947,67.3,46.054,66.96z M46.211,69.098c0.107,0.322,0.259,0.601,0.456,0.836
		c0.196,0.233,0.437,0.416,0.721,0.549c0.283,0.132,0.605,0.198,0.963,0.198c0.359,0,0.68-0.066,0.963-0.198
		c0.284-0.133,0.524-0.315,0.721-0.549c0.197-0.235,0.348-0.514,0.456-0.836c0.107-0.325,0.163-0.678,0.168-1.063
		c-0.005-0.382-0.061-0.734-0.168-1.059c-0.108-0.323-0.259-0.604-0.456-0.837c-0.197-0.233-0.437-0.416-0.721-0.548
		c-0.283-0.133-0.604-0.199-0.963-0.199c-0.358,0-0.68,0.066-0.963,0.199c-0.284,0.132-0.525,0.314-0.721,0.548
		c-0.197,0.233-0.349,0.514-0.456,0.837c-0.107,0.324-0.163,0.677-0.168,1.059C46.048,68.42,46.104,68.772,46.211,69.098z"/>
	<polygon clip-path="url(#SVGID_2_)" points="54.617,67.849 54.617,67.998 51.779,67.998 51.779,70.702 51.63,70.702 51.63,65.368 
		54.916,65.368 54.916,65.519 51.779,65.519 51.779,67.849 	"/>
	<polygon clip-path="url(#SVGID_2_)" fill="none" stroke="#098943" stroke-width="0.2" points="54.617,67.849 54.617,67.998 
		51.779,67.998 51.779,70.702 51.63,70.702 51.63,65.368 54.916,65.368 54.916,65.519 51.779,65.519 51.779,67.849 	"/>
	<polygon clip-path="url(#SVGID_2_)" points="61.51,65.368 59.353,68.453 59.353,70.702 59.202,70.702 59.202,68.453 57.052,65.368 
		57.239,65.368 59.278,68.298 61.331,65.368 	"/>
	<polygon clip-path="url(#SVGID_2_)" fill="none" stroke="#098943" stroke-width="0.2" points="61.51,65.368 59.353,68.453 
		59.353,70.702 59.202,70.702 59.202,68.453 57.052,65.368 57.239,65.368 59.278,68.298 61.331,65.368 	"/>
	<path clip-path="url(#SVGID_2_)" d="M61.873,66.96c0.107-0.339,0.264-0.635,0.471-0.89c0.207-0.252,0.463-0.455,0.769-0.604
		c0.307-0.147,0.659-0.224,1.057-0.224s0.75,0.076,1.057,0.224c0.306,0.149,0.563,0.353,0.769,0.604
		c0.207,0.255,0.364,0.551,0.471,0.89c0.106,0.34,0.16,0.698,0.16,1.074c0,0.38-0.054,0.738-0.16,1.077
		c-0.107,0.338-0.264,0.636-0.471,0.889c-0.206,0.255-0.463,0.455-0.769,0.601c-0.307,0.148-0.659,0.222-1.057,0.222
		s-0.75-0.073-1.057-0.222c-0.306-0.146-0.562-0.346-0.769-0.601c-0.207-0.253-0.364-0.551-0.471-0.889
		c-0.107-0.339-0.16-0.697-0.16-1.077C61.713,67.658,61.766,67.3,61.873,66.96 M62.03,69.098c0.107,0.322,0.259,0.601,0.456,0.836
		c0.197,0.233,0.437,0.416,0.721,0.549c0.284,0.132,0.605,0.198,0.963,0.198c0.359,0,0.679-0.066,0.964-0.198
		c0.283-0.133,0.523-0.315,0.72-0.549c0.197-0.235,0.349-0.514,0.456-0.836c0.107-0.325,0.162-0.678,0.168-1.063
		c-0.006-0.382-0.061-0.734-0.168-1.059c-0.107-0.323-0.259-0.604-0.456-0.837c-0.197-0.233-0.437-0.416-0.72-0.548
		c-0.285-0.133-0.605-0.199-0.964-0.199c-0.358,0-0.679,0.066-0.963,0.199c-0.284,0.132-0.524,0.314-0.721,0.548
		c-0.197,0.233-0.349,0.514-0.456,0.837c-0.107,0.324-0.164,0.677-0.168,1.059C61.866,68.42,61.923,68.772,62.03,69.098"/>
	<path clip-path="url(#SVGID_2_)" fill="none" stroke="#098943" stroke-width="0.2" d="M61.873,66.96
		c0.107-0.339,0.264-0.635,0.471-0.89c0.207-0.252,0.463-0.455,0.769-0.604c0.307-0.147,0.659-0.224,1.057-0.224
		s0.75,0.076,1.057,0.224c0.306,0.149,0.563,0.353,0.769,0.604c0.207,0.255,0.364,0.551,0.471,0.89
		c0.106,0.34,0.16,0.698,0.16,1.074c0,0.38-0.054,0.738-0.16,1.077c-0.107,0.338-0.264,0.636-0.471,0.889
		c-0.206,0.255-0.463,0.455-0.769,0.601c-0.307,0.148-0.659,0.222-1.057,0.222s-0.75-0.073-1.057-0.222
		c-0.306-0.146-0.562-0.346-0.769-0.601c-0.207-0.253-0.364-0.551-0.471-0.889c-0.107-0.339-0.16-0.697-0.16-1.077
		C61.713,67.658,61.766,67.3,61.873,66.96z M62.03,69.098c0.107,0.322,0.259,0.601,0.456,0.836c0.197,0.233,0.437,0.416,0.721,0.549
		c0.284,0.132,0.605,0.198,0.963,0.198c0.359,0,0.679-0.066,0.964-0.198c0.283-0.133,0.523-0.315,0.72-0.549
		c0.197-0.235,0.349-0.514,0.456-0.836c0.107-0.325,0.162-0.678,0.168-1.063c-0.006-0.382-0.061-0.734-0.168-1.059
		c-0.107-0.323-0.259-0.604-0.456-0.837c-0.197-0.233-0.437-0.416-0.72-0.548c-0.285-0.133-0.605-0.199-0.964-0.199
		c-0.358,0-0.679,0.066-0.963,0.199c-0.284,0.132-0.524,0.314-0.721,0.548c-0.197,0.233-0.349,0.514-0.456,0.837
		c-0.107,0.324-0.164,0.677-0.168,1.059C61.866,68.42,61.923,68.772,62.03,69.098z"/>
	<path clip-path="url(#SVGID_2_)" d="M71.362,65.368v3.348c0,0.716-0.167,1.247-0.501,1.591c-0.333,0.343-0.819,0.516-1.456,0.516
		c-0.638,0-1.123-0.173-1.457-0.516c-0.334-0.344-0.5-0.875-0.5-1.591v-3.348h0.149v3.348c0,0.642,0.147,1.13,0.441,1.463
		c0.293,0.336,0.749,0.503,1.367,0.503s1.073-0.167,1.367-0.503c0.293-0.333,0.44-0.821,0.44-1.463v-3.348H71.362z"/>
	<path clip-path="url(#SVGID_2_)" fill="none" stroke="#098943" stroke-width="0.2" d="M71.362,65.368v3.348
		c0,0.716-0.167,1.247-0.501,1.591c-0.333,0.343-0.819,0.516-1.456,0.516c-0.638,0-1.123-0.173-1.457-0.516
		c-0.334-0.344-0.5-0.875-0.5-1.591v-3.348h0.149v3.348c0,0.642,0.147,1.13,0.441,1.463c0.293,0.336,0.749,0.503,1.367,0.503
		s1.073-0.167,1.367-0.503c0.293-0.333,0.44-0.821,0.44-1.463v-3.348H71.362z"/>
	<path clip-path="url(#SVGID_2_)" d="M72.355,70.702v-5.334h2.181c0.558,0,0.967,0.111,1.226,0.333
		c0.258,0.222,0.393,0.568,0.404,1.035c0.01,0.359-0.086,0.657-0.284,0.893c-0.2,0.237-0.487,0.396-0.859,0.482v0.014
		c0.224,0.031,0.406,0.083,0.544,0.161c0.141,0.077,0.247,0.179,0.321,0.304c0.076,0.124,0.124,0.271,0.149,0.439
		c0.024,0.169,0.037,0.361,0.037,0.575c0,0.074,0.004,0.168,0.008,0.28c0.006,0.111,0.014,0.222,0.023,0.333
		c0.01,0.108,0.021,0.208,0.037,0.298c0.016,0.089,0.035,0.151,0.061,0.187h-0.166c-0.025-0.055-0.044-0.129-0.059-0.22
		c-0.015-0.092-0.026-0.191-0.034-0.296c-0.009-0.104-0.012-0.21-0.014-0.317c-0.004-0.106-0.004-0.202-0.004-0.287
		c0-0.219-0.018-0.415-0.049-0.586c-0.033-0.173-0.1-0.317-0.198-0.434c-0.1-0.117-0.241-0.206-0.426-0.269
		c-0.186-0.062-0.43-0.094-0.739-0.094h-2.01v2.502H72.355z M74.499,68.051c0.2,0,0.389-0.025,0.571-0.074
		c0.182-0.05,0.343-0.13,0.482-0.239c0.139-0.11,0.251-0.249,0.335-0.414c0.086-0.167,0.128-0.367,0.128-0.601
		c-0.006-0.38-0.121-0.675-0.344-0.888c-0.224-0.21-0.59-0.316-1.097-0.316h-2.07v2.532H74.499z"/>
	<path clip-path="url(#SVGID_2_)" fill="none" stroke="#098943" stroke-width="0.2" d="M72.355,70.702v-5.334h2.181
		c0.558,0,0.967,0.111,1.226,0.333c0.258,0.222,0.393,0.568,0.404,1.035c0.01,0.359-0.086,0.657-0.284,0.893
		c-0.2,0.237-0.487,0.396-0.859,0.482v0.014c0.224,0.031,0.406,0.083,0.544,0.161c0.141,0.077,0.247,0.179,0.321,0.304
		c0.076,0.124,0.124,0.271,0.149,0.439c0.024,0.169,0.037,0.361,0.037,0.575c0,0.074,0.004,0.168,0.008,0.28
		c0.006,0.111,0.014,0.222,0.023,0.333c0.01,0.108,0.021,0.208,0.037,0.298c0.016,0.089,0.035,0.151,0.061,0.187h-0.166
		c-0.025-0.055-0.044-0.129-0.059-0.22c-0.015-0.092-0.026-0.191-0.034-0.296c-0.009-0.104-0.012-0.21-0.014-0.317
		c-0.004-0.106-0.004-0.202-0.004-0.287c0-0.219-0.018-0.415-0.049-0.586c-0.033-0.173-0.1-0.317-0.198-0.434
		c-0.1-0.117-0.241-0.206-0.426-0.269c-0.186-0.062-0.43-0.094-0.739-0.094h-2.01v2.502H72.355z M74.499,68.051
		c0.2,0,0.389-0.025,0.571-0.074c0.182-0.05,0.343-0.13,0.482-0.239c0.139-0.11,0.251-0.249,0.335-0.414
		c0.086-0.167,0.128-0.367,0.128-0.601c-0.006-0.38-0.121-0.675-0.344-0.888c-0.224-0.21-0.59-0.316-1.097-0.316h-2.07v2.532H74.499
		z"/>
	<polygon clip-path="url(#SVGID_2_)" points="78.846,65.368 82.827,65.368 82.827,65.519 80.909,65.519 80.909,70.702 
		80.758,70.702 80.758,65.519 78.846,65.519 	"/>
	<polygon clip-path="url(#SVGID_2_)" fill="none" stroke="#098943" stroke-width="0.2" points="78.846,65.368 82.827,65.368 
		82.827,65.519 80.909,65.519 80.909,70.702 80.758,70.702 80.758,65.519 78.846,65.519 	"/>
	<polygon clip-path="url(#SVGID_2_)" points="87.087,70.552 87.087,70.702 83.518,70.702 83.518,65.368 87.058,65.368 
		87.058,65.519 83.666,65.519 83.666,67.849 86.855,67.849 86.855,67.998 83.666,67.998 83.666,70.552 	"/>
	<polygon clip-path="url(#SVGID_2_)" fill="none" stroke="#098943" stroke-width="0.2" points="87.087,70.552 87.087,70.702 
		83.518,70.702 83.518,65.368 87.058,65.368 87.058,65.519 83.666,65.519 83.666,67.849 86.855,67.849 86.855,67.998 83.666,67.998 
		83.666,70.552 	"/>
	<path clip-path="url(#SVGID_2_)" d="M92.143,69.504c-0.125,0.271-0.286,0.504-0.482,0.698s-0.43,0.346-0.698,0.455
		c-0.269,0.108-0.572,0.165-0.91,0.165c-0.354,0-0.679-0.069-0.977-0.206c-0.296-0.136-0.549-0.327-0.761-0.567
		c-0.212-0.241-0.377-0.529-0.498-0.866c-0.118-0.336-0.179-0.704-0.179-1.103c0-0.323,0.047-0.653,0.138-0.988
		c0.094-0.336,0.239-0.642,0.438-0.916c0.199-0.275,0.458-0.498,0.776-0.671c0.319-0.175,0.706-0.263,1.157-0.263
		c0.354,0,0.663,0.059,0.928,0.175c0.263,0.119,0.484,0.265,0.659,0.44c0.178,0.179,0.312,0.367,0.401,0.565
		c0.089,0.198,0.136,0.381,0.142,0.545h-0.149c-0.016-0.195-0.072-0.386-0.171-0.572c-0.1-0.187-0.235-0.354-0.409-0.504
		c-0.171-0.149-0.375-0.271-0.61-0.361c-0.237-0.092-0.5-0.139-0.79-0.139c-0.438,0-0.807,0.088-1.107,0.265
		c-0.303,0.177-0.544,0.399-0.729,0.665c-0.185,0.267-0.317,0.557-0.4,0.869c-0.082,0.315-0.123,0.611-0.123,0.89
		c0,0.34,0.051,0.665,0.15,0.979c0.099,0.314,0.247,0.591,0.439,0.83c0.194,0.239,0.432,0.429,0.714,0.574
		c0.282,0.145,0.601,0.218,0.961,0.218c0.316,0,0.604-0.053,0.857-0.157c0.255-0.105,0.473-0.249,0.657-0.435
		c0.185-0.183,0.335-0.402,0.447-0.657c0.115-0.253,0.192-0.527,0.233-0.82h0.148C92.351,68.934,92.267,69.231,92.143,69.504"/>
	<path clip-path="url(#SVGID_2_)" fill="none" stroke="#098943" stroke-width="0.2" d="M92.143,69.504
		c-0.125,0.271-0.286,0.504-0.482,0.698s-0.43,0.346-0.698,0.455c-0.269,0.108-0.572,0.165-0.91,0.165
		c-0.354,0-0.679-0.069-0.977-0.206c-0.296-0.136-0.549-0.327-0.761-0.567c-0.212-0.241-0.377-0.529-0.498-0.866
		c-0.118-0.336-0.179-0.704-0.179-1.103c0-0.323,0.047-0.653,0.138-0.988c0.094-0.336,0.239-0.642,0.438-0.916
		c0.199-0.275,0.458-0.498,0.776-0.671c0.319-0.175,0.706-0.263,1.157-0.263c0.354,0,0.663,0.059,0.928,0.175
		c0.263,0.119,0.484,0.265,0.659,0.44c0.178,0.179,0.312,0.367,0.401,0.565c0.089,0.198,0.136,0.381,0.142,0.545h-0.149
		c-0.016-0.195-0.072-0.386-0.171-0.572c-0.1-0.187-0.235-0.354-0.409-0.504c-0.171-0.149-0.375-0.271-0.61-0.361
		c-0.237-0.092-0.5-0.139-0.79-0.139c-0.438,0-0.807,0.088-1.107,0.265c-0.303,0.177-0.544,0.399-0.729,0.665
		c-0.185,0.267-0.317,0.557-0.4,0.869c-0.082,0.315-0.123,0.611-0.123,0.89c0,0.34,0.051,0.665,0.15,0.979
		c0.099,0.314,0.247,0.591,0.439,0.83c0.194,0.239,0.432,0.429,0.714,0.574c0.282,0.145,0.601,0.218,0.961,0.218
		c0.316,0,0.604-0.053,0.857-0.157c0.255-0.105,0.473-0.249,0.657-0.435c0.185-0.183,0.335-0.402,0.447-0.657
		c0.115-0.253,0.192-0.527,0.233-0.82h0.148C92.351,68.934,92.267,69.231,92.143,69.504z"/>
	<polygon clip-path="url(#SVGID_2_)" points="93.308,70.702 93.157,70.702 93.157,65.368 93.308,65.368 93.308,67.849 
		97.042,67.849 97.042,65.368 97.191,65.368 97.191,70.702 97.042,70.702 97.042,67.998 93.308,67.998 	"/>
	<polygon clip-path="url(#SVGID_2_)" fill="none" stroke="#098943" stroke-width="0.2" points="93.308,70.702 93.157,70.702 
		93.157,65.368 93.308,65.368 93.308,67.849 97.042,67.849 97.042,65.368 97.191,65.368 97.191,70.702 97.042,70.702 97.042,67.998 
		93.308,67.998 	"/>
	<polygon clip-path="url(#SVGID_2_)" points="98.409,65.368 102.055,70.516 102.067,70.516 102.067,65.368 102.218,65.368 
		102.218,70.702 101.994,70.702 98.349,65.555 98.333,65.555 98.333,70.702 98.186,70.702 98.186,65.368 	"/>
	<polygon clip-path="url(#SVGID_2_)" fill="none" stroke="#098943" stroke-width="0.2" points="98.409,65.368 102.055,70.516 
		102.067,70.516 102.067,65.368 102.218,65.368 102.218,70.702 101.994,70.702 98.349,65.555 98.333,65.555 98.333,70.702 
		98.186,70.702 98.186,65.368 	"/>
	<path clip-path="url(#SVGID_2_)" d="M103.208,66.96c0.106-0.339,0.264-0.635,0.47-0.89c0.207-0.252,0.464-0.455,0.771-0.604
		c0.306-0.147,0.657-0.224,1.057-0.224c0.398,0,0.751,0.076,1.056,0.224c0.308,0.149,0.564,0.353,0.771,0.604
		c0.206,0.255,0.363,0.551,0.471,0.89c0.107,0.34,0.159,0.698,0.159,1.074c0,0.38-0.052,0.738-0.159,1.077
		c-0.107,0.338-0.265,0.636-0.471,0.889c-0.206,0.255-0.463,0.455-0.771,0.601c-0.305,0.148-0.657,0.222-1.056,0.222
		c-0.399,0-0.751-0.073-1.057-0.222c-0.307-0.146-0.563-0.346-0.771-0.601c-0.206-0.253-0.363-0.551-0.47-0.889
		c-0.107-0.339-0.16-0.697-0.16-1.077C103.048,67.658,103.101,67.3,103.208,66.96 M103.365,69.098
		c0.106,0.322,0.259,0.601,0.455,0.836c0.196,0.233,0.438,0.416,0.722,0.549c0.284,0.132,0.604,0.198,0.963,0.198
		c0.357,0,0.679-0.066,0.963-0.198c0.283-0.133,0.524-0.315,0.722-0.549c0.196-0.235,0.348-0.514,0.455-0.836
		c0.106-0.325,0.163-0.678,0.169-1.063c-0.006-0.382-0.062-0.734-0.169-1.059c-0.107-0.323-0.259-0.604-0.455-0.837
		c-0.197-0.233-0.438-0.416-0.722-0.548c-0.284-0.133-0.605-0.199-0.963-0.199c-0.358,0-0.679,0.066-0.963,0.199
		c-0.284,0.132-0.525,0.314-0.722,0.548s-0.349,0.514-0.455,0.837c-0.107,0.324-0.163,0.677-0.169,1.059
		C103.202,68.42,103.258,68.772,103.365,69.098"/>
	<path clip-path="url(#SVGID_2_)" fill="none" stroke="#098943" stroke-width="0.2" d="M103.208,66.96
		c0.106-0.339,0.264-0.635,0.47-0.89c0.207-0.252,0.464-0.455,0.771-0.604c0.306-0.147,0.657-0.224,1.057-0.224
		c0.398,0,0.751,0.076,1.056,0.224c0.308,0.149,0.564,0.353,0.771,0.604c0.206,0.255,0.363,0.551,0.471,0.89
		c0.107,0.34,0.159,0.698,0.159,1.074c0,0.38-0.052,0.738-0.159,1.077c-0.107,0.338-0.265,0.636-0.471,0.889
		c-0.206,0.255-0.463,0.455-0.771,0.601c-0.305,0.148-0.657,0.222-1.056,0.222c-0.399,0-0.751-0.073-1.057-0.222
		c-0.307-0.146-0.563-0.346-0.771-0.601c-0.206-0.253-0.363-0.551-0.47-0.889c-0.107-0.339-0.16-0.697-0.16-1.077
		C103.048,67.658,103.101,67.3,103.208,66.96z M103.365,69.098c0.106,0.322,0.259,0.601,0.455,0.836
		c0.196,0.233,0.438,0.416,0.722,0.549c0.284,0.132,0.604,0.198,0.963,0.198c0.357,0,0.679-0.066,0.963-0.198
		c0.283-0.133,0.524-0.315,0.722-0.549c0.196-0.235,0.348-0.514,0.455-0.836c0.106-0.325,0.163-0.678,0.169-1.063
		c-0.006-0.382-0.062-0.734-0.169-1.059c-0.107-0.323-0.259-0.604-0.455-0.837c-0.197-0.233-0.438-0.416-0.722-0.548
		c-0.284-0.133-0.605-0.199-0.963-0.199c-0.358,0-0.679,0.066-0.963,0.199c-0.284,0.132-0.525,0.314-0.722,0.548
		s-0.349,0.514-0.455,0.837c-0.107,0.324-0.163,0.677-0.169,1.059C103.202,68.42,103.258,68.772,103.365,69.098z"/>
	<polygon clip-path="url(#SVGID_2_)" points="112.048,70.702 108.784,70.702 108.784,65.368 108.932,65.368 108.932,70.552 
		112.048,70.552 	"/>
	<polygon clip-path="url(#SVGID_2_)" fill="none" stroke="#098943" stroke-width="0.2" points="112.048,70.702 108.784,70.702 
		108.784,65.368 108.932,65.368 108.932,70.552 112.048,70.552 	"/>
	<path clip-path="url(#SVGID_2_)" d="M112.56,66.96c0.106-0.339,0.263-0.635,0.471-0.89c0.205-0.252,0.463-0.455,0.768-0.604
		c0.308-0.147,0.66-0.224,1.057-0.224c0.398,0,0.751,0.076,1.058,0.224c0.306,0.149,0.562,0.353,0.769,0.604
		c0.208,0.255,0.364,0.551,0.471,0.89c0.107,0.34,0.161,0.698,0.161,1.074c0,0.38-0.054,0.738-0.161,1.077
		c-0.106,0.338-0.263,0.636-0.471,0.889c-0.206,0.255-0.463,0.455-0.769,0.601c-0.307,0.148-0.659,0.222-1.058,0.222
		c-0.396,0-0.749-0.073-1.057-0.222c-0.305-0.146-0.562-0.346-0.768-0.601c-0.208-0.253-0.364-0.551-0.471-0.889
		c-0.107-0.339-0.162-0.697-0.162-1.077C112.397,67.658,112.452,67.3,112.56,66.96 M112.715,69.098
		c0.107,0.322,0.259,0.601,0.457,0.836c0.196,0.233,0.436,0.416,0.72,0.549c0.284,0.132,0.604,0.198,0.963,0.198
		c0.359,0,0.681-0.066,0.964-0.198c0.285-0.133,0.524-0.315,0.721-0.549c0.197-0.235,0.35-0.514,0.457-0.836
		c0.106-0.325,0.161-0.678,0.167-1.063c-0.006-0.382-0.061-0.734-0.167-1.059c-0.107-0.323-0.26-0.604-0.457-0.837
		c-0.196-0.233-0.436-0.416-0.721-0.548c-0.283-0.133-0.604-0.199-0.964-0.199c-0.358,0-0.679,0.066-0.963,0.199
		c-0.284,0.132-0.523,0.314-0.72,0.548c-0.198,0.233-0.35,0.514-0.457,0.837c-0.106,0.324-0.163,0.677-0.167,1.059
		C112.552,68.42,112.608,68.772,112.715,69.098"/>
	<path clip-path="url(#SVGID_2_)" fill="none" stroke="#098943" stroke-width="0.2" d="M112.56,66.96
		c0.106-0.339,0.263-0.635,0.471-0.89c0.205-0.252,0.463-0.455,0.768-0.604c0.308-0.147,0.66-0.224,1.057-0.224
		c0.398,0,0.751,0.076,1.058,0.224c0.306,0.149,0.562,0.353,0.769,0.604c0.208,0.255,0.364,0.551,0.471,0.89
		c0.107,0.34,0.161,0.698,0.161,1.074c0,0.38-0.054,0.738-0.161,1.077c-0.106,0.338-0.263,0.636-0.471,0.889
		c-0.206,0.255-0.463,0.455-0.769,0.601c-0.307,0.148-0.659,0.222-1.058,0.222c-0.396,0-0.749-0.073-1.057-0.222
		c-0.305-0.146-0.562-0.346-0.768-0.601c-0.208-0.253-0.364-0.551-0.471-0.889c-0.107-0.339-0.162-0.697-0.162-1.077
		C112.397,67.658,112.452,67.3,112.56,66.96z M112.715,69.098c0.107,0.322,0.259,0.601,0.457,0.836
		c0.196,0.233,0.436,0.416,0.72,0.549c0.284,0.132,0.604,0.198,0.963,0.198c0.359,0,0.681-0.066,0.964-0.198
		c0.285-0.133,0.524-0.315,0.721-0.549c0.197-0.235,0.35-0.514,0.457-0.836c0.106-0.325,0.161-0.678,0.167-1.063
		c-0.006-0.382-0.061-0.734-0.167-1.059c-0.107-0.323-0.26-0.604-0.457-0.837c-0.196-0.233-0.436-0.416-0.721-0.548
		c-0.283-0.133-0.604-0.199-0.964-0.199c-0.358,0-0.679,0.066-0.963,0.199c-0.284,0.132-0.523,0.314-0.72,0.548
		c-0.198,0.233-0.35,0.514-0.457,0.837c-0.106,0.324-0.163,0.677-0.167,1.059C112.552,68.42,112.608,68.772,112.715,69.098z"/>
	<path clip-path="url(#SVGID_2_)" d="M120.546,68.208h2.219v2.494h-0.149v-1.321H122.6c-0.144,0.453-0.402,0.806-0.776,1.061
		c-0.373,0.253-0.824,0.381-1.352,0.381c-0.408,0-0.769-0.073-1.083-0.222c-0.313-0.146-0.574-0.344-0.784-0.597
		c-0.208-0.251-0.367-0.547-0.475-0.886c-0.107-0.338-0.159-0.698-0.159-1.083c0-0.387,0.056-0.753,0.171-1.093
		c0.114-0.343,0.278-0.639,0.492-0.889c0.214-0.251,0.477-0.45,0.785-0.594c0.308-0.146,0.66-0.218,1.053-0.218
		c0.3,0,0.574,0.043,0.824,0.126c0.253,0.086,0.475,0.207,0.666,0.364c0.192,0.155,0.348,0.344,0.471,0.564
		c0.122,0.218,0.206,0.465,0.251,0.738h-0.15c-0.045-0.249-0.126-0.475-0.243-0.677c-0.116-0.2-0.266-0.373-0.439-0.52
		c-0.177-0.144-0.381-0.254-0.612-0.33c-0.231-0.078-0.488-0.117-0.767-0.117c-0.373,0-0.706,0.07-0.998,0.21
		c-0.29,0.139-0.536,0.327-0.739,0.566c-0.2,0.239-0.354,0.519-0.459,0.84c-0.104,0.321-0.157,0.666-0.157,1.027
		c0,0.364,0.051,0.706,0.149,1.027c0.1,0.32,0.249,0.601,0.449,0.84c0.199,0.239,0.446,0.43,0.743,0.568
		c0.296,0.14,0.641,0.21,1.035,0.21c0.294,0,0.569-0.051,0.828-0.154c0.259-0.101,0.484-0.242,0.675-0.426
		c0.194-0.181,0.343-0.398,0.454-0.649c0.108-0.251,0.163-0.523,0.163-0.816v-0.278h-2.069V68.208z"/>
	<path clip-path="url(#SVGID_2_)" fill="none" stroke="#098943" stroke-width="0.2" d="M120.546,68.208h2.219v2.494h-0.149v-1.321
		H122.6c-0.144,0.453-0.402,0.806-0.776,1.061c-0.373,0.253-0.824,0.381-1.352,0.381c-0.408,0-0.769-0.073-1.083-0.222
		c-0.313-0.146-0.574-0.344-0.784-0.597c-0.208-0.251-0.367-0.547-0.475-0.886c-0.107-0.338-0.159-0.698-0.159-1.083
		c0-0.387,0.056-0.753,0.171-1.093c0.114-0.343,0.278-0.639,0.492-0.889c0.214-0.251,0.477-0.45,0.785-0.594
		c0.308-0.146,0.66-0.218,1.053-0.218c0.3,0,0.574,0.043,0.824,0.126c0.253,0.086,0.475,0.207,0.666,0.364
		c0.192,0.155,0.348,0.344,0.471,0.564c0.122,0.218,0.206,0.465,0.251,0.738h-0.15c-0.045-0.249-0.126-0.475-0.243-0.677
		c-0.116-0.2-0.266-0.373-0.439-0.52c-0.177-0.144-0.381-0.254-0.612-0.33c-0.231-0.078-0.488-0.117-0.767-0.117
		c-0.373,0-0.706,0.07-0.998,0.21c-0.29,0.139-0.536,0.327-0.739,0.566c-0.2,0.239-0.354,0.519-0.459,0.84
		c-0.104,0.321-0.157,0.666-0.157,1.027c0,0.364,0.051,0.706,0.149,1.027c0.1,0.32,0.249,0.601,0.449,0.84
		c0.199,0.239,0.446,0.43,0.743,0.568c0.296,0.14,0.641,0.21,1.035,0.21c0.294,0,0.569-0.051,0.828-0.154
		c0.259-0.101,0.484-0.242,0.675-0.426c0.194-0.181,0.343-0.398,0.454-0.649c0.108-0.251,0.163-0.523,0.163-0.816v-0.278h-2.069
		V68.208z"/>
	<polygon clip-path="url(#SVGID_2_)" points="127.552,65.368 125.395,68.453 125.395,70.702 125.245,70.702 125.245,68.453 
		123.094,65.368 123.281,65.368 125.318,68.298 127.373,65.368 	"/>
	<polygon clip-path="url(#SVGID_2_)" fill="none" stroke="#098943" stroke-width="0.2" points="127.552,65.368 125.395,68.453 
		125.395,70.702 125.245,70.702 125.245,68.453 123.094,65.368 123.281,65.368 125.318,68.298 127.373,65.368 	"/>
</g>
</svg>
