<svg xmlns="http://www.w3.org/2000/svg" viewBox="0 0 24 19">
  <path fill="#FFFFFF" d="M11.96.22c-.46 0-.95.04-1.4.14-.53.12-1.06.3-1.54.52-1.2.5-2.2 1.3-2.97 2.4-.5.7-.86 1.5-1.14 2.32-.28.87-.44 1.75-.42 2.66 0 .54.06 1.1.18 1.63.16.7.43 1.36.75 2 .23.45.53.88.5 1.42 0 .2 0 .38-.17.52-.28.25-.6.45-1 .47-.35.03-.65-.07-.85-.42-.16-.26-.16-.54-.18-.82-.06-.8-.1-1.62-.2-2.4-.05-.57-.3-1.03-.87-1.25l-.73-.2.42-.2c.5-.28.8-.66.8-1.24 0-.8-.2-1.6-.37-2.36-.1-.5-.22-.97-.14-1.48.1-.48.73-.8 1.1-.5.18.14.32.36.44.57.08.13.18.2.34.23.34.04.8-.3.85-.67.1-.62-.3-1.3-.9-1.47-.83-.25-1.64-.25-2.43.15C1.2 2.67.67 3.38.75 4.3c.06.67.22 1.32.35 1.96.08.47.16.95.22 1.4.02.16-.02.3-.08.44-.14.36-.47.48-.8.58-.25.06-.3.12-.25.37 0 .18.05.34.05.52.02.4.04.42.42.46h.06c.7.08.93.4 1 .93.07.75.05 1.5.1 2.24 0 .42.07.85.2 1.25.17.6.66.9 1.12 1.25.53-.7 1.55-1.07 2.36-.63.7.3.9 1.13 1.52 1.52.5.2 1.15.1 1.53-.32.1-.1.17-.22.2-.34.25-.62.15-.87.1-1.15.35.56.35.7.3 1.06-.15.46-.37.7-.5.83-.16.1-.52.25-.82.3-.36.03-.8 0-1.1-.23-.15-.1-.35-.35-.57-.67-.13-.16-.25-.34-.45-.52s-.5-.36-.83-.36c-1.17-.05-1.62 1.04-1.62 1.04-.18.37-.04.8.32 1 .37.17.8 0 1-.35 0 0 .1-.2.2-.2.08.03.1.13.2.25.2.3.48.77 1.04 1.1.84.47 1.53.4 1.9.4.65 0 1.22-.25 1.66-.6.67 1 1.96 1.48 3.03.9.45-.25.8-.6.95-1.03.15-.47.07-.87-.04-1.2-.1-.36-.4-.68-.7-.78-.3-.12-.54-.1-.74-.06-.4.06-.7.22-.7.22-.37.18-.53.63-.35 1 .2.35.64.5 1 .3 0 0 .12-.07.16 0 .02.07-.06.13-.32.25s-.93-.06-1.15-.58c-.1-.22-.13-.38-.1-.5.1-.25.2-.83.1-1.1.17.15.33.4.58.33.2-.1 1-.45 1.7-.12.68.32 1.2 1.13.86 2.3.5.56 1.3.84 1.9.92.66.1 1.4.06 2.05-.32.5-.32.84-.75 1.14-1.1.1-.1.2-.25.26-.23.02.02.04.12.04.12.1.4.5.63.9.52.4-.1.63-.53.5-.9 0 0-.07-.27-.2-.58-.1-.14-.17-.3-.33-.46-.15-.16-.44-.36-.8-.36-.4.02-.66.2-.9.36-.5.38-.87 1.03-1.26 1.3-.38.23-.88.27-1.2.23-.43-.07-.77-.2-.97-.43-.2-.2-.6-.57-.55-1.35.06-.4.2-.6.45-.7-.27.66-.1 1.24.02 1.44.35.67 1.48.9 2.02.55.55-.36.8-1.04 1.6-1.48.84-.45 1.6-.2 2 .38.03.02.03.04.05.06l.02-.02c.15-.08.17-.1.4-.26.72-.5 1-1.2 1.04-2 .06-.8.06-1.6.08-2.42.02-.36.1-.72.47-.9.2-.13.5-.15.75-.2.16 0 .22-.05.24-.2l.12-1.04c-.15-.04-.25-.06-.35-.1-.58-.2-.86-.5-.8-1.05.08-.66.24-1.3.38-1.97.14-.6.26-1.2.12-1.84-.1-.44-.32-.82-.7-1.1-.5-.37-1.1-.47-1.68-.57-.33-.07-.47-.27-.3-.57l.1-.27c.1-.2 0-.44-.2-.52-.37-.18-.76-.14-1.1.1-.54.4-.58.93-.44 1.45.16.6.58 1.02 1.25 1.14.2.04.4.04.6.1.56.16.7.55.64 1.1-.04.4-.12.78-.2 1.18-.13.63-.27 1.27-.23 1.92.03.44.23.8.62 1.02.18.12.4.2.62.33-.2.03-.36.05-.52.1-.43.13-.8.37-.95.8-.12.36-.18.74-.2 1.1-.08.75-.1 1.5-.18 2.24-.05.46-.42.9-.94.9-.42-.03-.77-.2-1.07-.46-.1-.08-.2-.24-.2-.36.03-.32.07-.64.17-.95.16-.44.4-.84.6-1.3.27-.6.43-1.22.5-1.86.1-.72.1-1.42.03-2.15-.08-.62-.2-1.23-.4-1.8-.28-.8-.67-1.53-1.17-2.2-.6-.78-1.3-1.44-2.16-1.95-.77-.46-1.6-.72-2.48-.88-.4-.06-.78-.1-1.14-.1zM8.68 6.87c.66 0 1.1.38 1.3.74.23.4.27.78.27.78 0 .04-.02.06-.06.06l-.44.04c-.04 0-.06-.02-.06-.06 0 0-.02-.28-.18-.54-.16-.27-.38-.5-.95-.47-.28.03-.46.1-.6.2-.14.12-.22.26-.28.4-.13.28-.1.54-.1.54 0 .04-.03.06-.07.06l-.43.02c-.04 0-.06-.02-.06-.06 0 0-.02-.38.16-.8.2-.4.6-.87 1.35-.9h.13zm6.27 0h.14c.73.04 1.16.48 1.34.9.18.4.16.8.16.8 0 .05-.04.07-.06.07l-.42-.02c-.05 0-.07-.04-.07-.06 0 0 0-.28-.1-.54-.06-.14-.14-.26-.28-.4-.14-.1-.32-.17-.6-.2-.57-.03-.8.2-.95.48-.16.26-.18.54-.18.54 0 .04-.04.06-.06.06l-.43-.04c-.04 0-.06-.04-.06-.06 0 0 0-.38.26-.77.18-.4.62-.76 1.3-.76zm-4.4 3.35h2.7c.04 0 .08.04.06.08-.07.72-.67 1.3-1.4 1.3-.72 0-1.35-.58-1.4-1.3 0-.06 0-.08.05-.08z"/>
</svg>
