<?xml version="1.0" encoding="UTF-8" standalone="no"?>
<!-- Created with Inkscape (http://www.inkscape.org/) -->

<svg
   xmlns:dc="http://purl.org/dc/elements/1.1/"
   xmlns:cc="http://creativecommons.org/ns#"
   xmlns:rdf="http://www.w3.org/1999/02/22-rdf-syntax-ns#"
   xmlns:svg="http://www.w3.org/2000/svg"
   xmlns="http://www.w3.org/2000/svg"
   xmlns:sodipodi="http://sodipodi.sourceforge.net/DTD/sodipodi-0.dtd"
   xmlns:inkscape="http://www.inkscape.org/namespaces/inkscape"
   width="96mm"
   height="34mm"
   viewBox="0 0 340.15729 120.47237"
   id="svg4339"
   version="1.1"
   inkscape:version="0.91 r13725"
   sodipodi:docname="purple-logo-with-text.svg">
  <defs
     id="defs4341" />
  <sodipodi:namedview
     id="base"
     pagecolor="#ffffff"
     bordercolor="#666666"
     borderopacity="1.0"
     inkscape:pageopacity="0.0"
     inkscape:pageshadow="2"
     inkscape:zoom="1.979899"
     inkscape:cx="96.333138"
     inkscape:cy="126.93259"
     inkscape:document-units="px"
     inkscape:current-layer="layer1"
     showgrid="false"
     inkscape:window-width="1920"
     inkscape:window-height="1031"
     inkscape:window-x="0"
     inkscape:window-y="25"
     inkscape:window-maximized="1" />
  <metadata
     id="metadata4344">
    <rdf:RDF>
      <cc:Work
         rdf:about="">
        <dc:format>image/svg+xml</dc:format>
        <dc:type
           rdf:resource="http://purl.org/dc/dcmitype/StillImage" />
        <dc:title></dc:title>
      </cc:Work>
    </rdf:RDF>
  </metadata>
  <g
     inkscape:label="Layer 1"
     inkscape:groupmode="layer"
     id="layer1"
     transform="translate(0,-931.88936)">
    <path
       style="fill:#5915c9;fill-opacity:1"
       d="m 75.974611,933.6022 c -2.920385,-0.0327 -5.822415,0.26526 -8.704854,0.89922 -3.263451,0.7173 -6.454335,1.91446 -9.554404,3.19469 -7.56139,3.12287 -13.6192,8.18557 -18.370413,14.83165 -3.158283,4.41768 -5.338004,9.29817 -7.071511,14.42634 -1.812043,5.35959 -2.728351,10.84749 -2.683667,16.48178 0.02752,3.39581 0.412844,6.75551 1.179818,10.09805 1.005426,4.38153 2.584308,8.50477 4.565007,12.52047 1.36733,2.7722 3.205219,5.3801 3.138211,8.7185 -0.0252,1.2628 -0.168191,2.4042 -1.107306,3.2271 -1.740531,1.5262 -3.722212,2.7414 -6.082904,2.858 -2.193287,0.1072 -4.123028,-0.5573 -5.407782,-2.6092 -1.008661,-1.6113 -1.016686,-3.4022 -1.165269,-5.1472 -0.422389,-4.9621 -0.596585,-9.9476 -1.100281,-14.89998 -0.356382,-3.50358 -1.933012,-6.39535 -5.465747,-7.73087 -1.428297,-0.54014 -2.929644,-0.88725 -4.530618,-1.36143 0.902009,-0.42968 1.768379,-0.79842 2.593585,-1.24347 3.034544,-1.63561 4.907822,-4.00708 4.926643,-7.62756 0.0252,-5.01533 -1.236299,-9.82249 -2.311968,-14.65401 -0.67539,-3.03404 -1.397948,-6.01187 -0.826726,-9.17115 0.544377,-3.01097 4.44604,-4.9588 6.786624,-3.11737 1.127663,0.88744 1.967669,2.22866 2.699771,3.50084 0.525538,0.91383 1.173545,1.43082 2.131266,1.55354 2.146351,0.27458 4.956277,-1.91444 5.309889,-4.07709 0.629204,-3.84695 -1.908901,-7.98655 -5.64795,-9.09811 -5.130688,-1.52546 -10.178818,-1.50762 -15.05302,0.99009 -5.055154,2.59056 -8.2643764,6.95002 -7.7393394,12.80679 0.365157,4.07159 1.38313,8.08343 2.087618,12.12565 0.5082364,2.91706 1.0460714,5.83224 1.4277974,8.76655 0.107957,0.83273 -0.160505,1.77771 -0.471577,2.58935 -0.8683894,2.26941 -2.9266234,3.0403 -5.0207834,3.64568 -1.506101,0.4354 -1.7535611,0.74193 -1.491802,2.29068 0.183168,1.08743 0.367695,2.18397 0.419136,3.28266 0.118144,2.52143 0.220864,2.66889 2.680181,2.84155 0.127975,0 0.255235,0.025 0.382478,0.0304 4.4214454,0.47169 5.7375504,2.50123 6.0849054,5.75996 0.491917,4.6107 0.31647,9.2885 0.64075,13.9228 0.180613,2.602 0.533563,5.2518 1.275693,7.7408 1.104302,3.7042 4.149642,5.619 7.05067,7.7788 3.256927,-4.3746 9.609115,-6.5916 14.579441,-3.9014 4.309503,1.8683 5.51043,7.0472 9.4028,9.3872 3.073454,1.4209 7.175892,0.6461 9.481854,-1.8735 0.581268,-0.6176 1.003675,-1.3248 1.281234,-2.0793 1.503616,-3.8957 0.864635,-5.386 0.483141,-7.1871 2.189998,3.4426 2.267069,4.3688 1.889347,6.6552 -0.81316,2.8344 -2.213109,4.3701 -3.129668,5.1165 -0.881686,0.7178 -3.175101,1.6617 -5.050131,1.8914 -2.21613,0.2715 -4.87372,-0.025 -6.758276,-1.3815 -0.954468,-0.6874 -2.224638,-2.1602 -3.680818,-4.1874 -0.728081,-1.0136 -1.516878,-2.1277 -2.718056,-3.2174 -1.201177,-1.0894 -3.064661,-2.2003 -5.275267,-2.2945 -7.193463,-0.3063 -9.986337,6.5577 -9.986337,6.5577 -1.159246,2.2628 -0.243439,5.0366 2.035427,6.1639 2.278598,1.1274 5.039336,0.1734 6.134863,-2.1214 0,0 0.726812,-1.2683 1.204412,-1.2594 0.450504,0.088 0.6558,0.7299 1.201177,1.4894 1.306578,1.8188 3.052114,4.7149 6.453085,6.721 5.159554,3.0437 9.324245,2.6869 11.565219,2.6437 4.085136,-0.079 7.621875,-1.5679 10.396912,-3.7538 4.099202,6.2793 12.165057,9.1078 18.806618,5.5197 2.819221,-1.5232 5.028308,-3.5897 5.954411,-6.4286 0.926103,-2.8387 0.435687,-5.3558 -0.195752,-7.5523 -0.617407,-2.1463 -2.500981,-4.0932 -4.351167,-4.786 -1.849953,-0.6928 -3.417056,-0.5636 -4.684723,-0.3602 -2.534852,0.407 -4.423966,1.4346 -4.423966,1.4346 -2.291396,1.109 -3.230814,3.8798 -2.085349,6.1533 1.145197,2.2737 3.931781,3.1686 6.186803,1.9875 0,0 0.752425,-0.5487 0.937649,-0.095 0.185725,0.4529 -0.385247,0.9357 -1.970921,1.6272 -1.585406,0.6917 -5.77067,-0.3921 -7.128707,-3.5758 -0.595566,-1.3962 -0.70976,-2.4061 -0.665094,-3.0215 0.750173,-1.6655 1.424043,-5.2448 0.728081,-7.0279 1.060137,1.0172 2.008832,2.4973 3.523458,2.0657 1.270438,-0.5888 6.294975,-2.7292 10.526424,-0.7679 4.2317,1.9615 7.518226,6.9868 5.429374,14.2801 3.166808,3.4922 8.045266,5.2491 11.807898,5.8084 4.113742,0.5834 8.701322,0.3641 12.743042,-2.051 0.0252,0 0.0275,-0.025 0.0427,-0.025 3.17058,-1.9427 5.19244,-4.6713 7.10863,-6.7616 0.62016,-0.6767 1.24434,-1.6796 1.57988,-1.5504 0.17052,0.086 0.2771,0.7134 0.2771,0.7134 0.64475,2.4576 3.17433,3.9138 5.62335,3.2371 2.44903,-0.6767 3.8718,-3.2253 3.16329,-5.6652 0,0 -0.43769,-1.6603 -1.33743,-3.4659 -0.44975,-0.903 -1.00165,-1.8946 -1.97394,-2.9138 -0.97227,-1.0191 -2.70476,-2.2776 -5.0421,-2.1875 -2.44224,0.093 -4.12201,1.2047 -5.47328,2.264 -3.3091,2.3415 -5.49838,6.409 -7.88592,7.94 -2.38777,1.5311 -5.49561,1.6971 -7.54532,1.4413 -2.668114,-0.3331 -4.727134,-1.2808 -6.001824,-2.5895 -1.27496,-1.3092 -3.773421,-3.5012 -3.426834,-8.352 0.330786,-2.4476 1.25991,-3.6735 2.716574,-4.3736 -1.680799,4.0977 -0.54011,7.8079 0.16819,9.0136 2.19604,4.1406 9.232654,5.5637 12.574644,3.3522 3.34199,-2.2113 4.89152,-6.4625 9.97577,-9.2601 5.08452,-2.7978 9.72707,-1.1116 12.4075,2.4186 0.0778,0.1198 0.15568,0.2435 0.23341,0.3661 0.0602,-0.039 0.12047,-0.082 0.18061,-0.1233 0.96902,-0.5378 1.12613,-0.6731 2.58856,-1.6793 4.36122,-3.0013 6.07688,-7.4311 6.4305,-12.4316 0.35187,-4.9738 0.36669,-9.9707 0.56119,-14.9562 0.0903,-2.29014 0.68442,-4.50432 2.83577,-5.60194 1.40623,-0.71763 3.1234,-0.93247 4.73064,-1.11067 0.9507,-0.10545 1.36834,-0.33763 1.46921,-1.28332 0.22841,-2.14751 0.52179,-4.28788 0.80414,-6.55425 -0.8646,-0.23593 -1.53095,-0.37624 -2.16893,-0.59751 -3.57717,-1.2449 -5.40528,-3.16238 -4.99115,-6.50903 0.50722,-4.09896 1.48074,-8.14573 2.36343,-12.19096 0.81918,-3.7531 1.60045,-7.51572 0.80438,-11.3416 -0.57674,-2.77227 -1.94583,-5.11389 -4.34666,-6.84613 -3.13844,-2.2648 -6.80621,-2.83852 -10.43382,-3.52144 -2.06176,-0.38825 -2.84505,-1.60724 -1.92649,-3.49532 0.25851,-0.53208 0.50924,-1.07243 0.70451,-1.62984 0.44271,-1.26216 -0.0878,-2.699 -1.2953,-3.25493 -2.38175,-1.09699 -4.70705,-0.92833 -6.81649,0.66285 -3.3636,2.5371 -3.63766,5.81033 -2.80065,9.02257 0.99086,3.80329 3.66551,6.36325 7.71174,7.14027 1.24936,0.24094 2.55317,0.2663 3.76388,0.62317 3.32166,0.97831 4.22619,3.43562 3.90595,6.79491 -0.23593,2.47839 -0.80791,4.92893 -1.29932,7.37794 -0.78555,3.91598 -1.67226,7.82465 -1.4273,11.85139 0.16569,2.72179 1.36731,4.95671 3.72248,6.42949 1.17306,0.73353 2.44323,1.31228 3.82538,2.04349 -1.21147,0.26185 -2.24599,0.42253 -3.24236,0.71351 -2.66862,0.77929 -4.91611,2.25637 -5.82038,4.9467 -0.7188,2.13929 -1.07268,4.44052 -1.29529,6.69855 -0.45453,4.6147 -0.6696,9.2524 -1.0659,13.8734 -0.24848,2.9014 -2.53762,5.5756 -5.72727,5.4638 -2.57047,-0.091 -4.69977,-1.2296 -6.61146,-2.7692 -0.60785,-0.4894 -1.20466,-1.4887 -1.15247,-2.207 0.14298,-1.9592 0.37196,-3.9908 1.04984,-5.8139 1.01997,-2.7425 2.52933,-5.2988 3.68784,-7.9956 1.59168,-3.7041 2.61943,-7.59018 3.08925,-11.59315 0.52154,-4.44606 0.6784,-8.87603 0.11046,-13.3741 -0.48664,-3.84694 -1.25488,-7.58924 -2.55719,-11.20203 -1.74378,-4.83858 -4.11348,-9.37923 -7.24767,-13.48794 -3.70992,-4.86265 -8.09674,-8.97816 -13.348164,-12.15626 -4.74494,-2.87143 -9.876378,-4.54544 -15.324305,-5.55887 -2.292164,-0.42641 -4.574033,-0.65355 -6.845624,-0.67964 z m -20.376725,41.24381 c 4.163422,0.05 6.839833,2.32589 8.168002,4.58261 1.406974,2.39113 1.579883,4.8105 1.579883,4.8105 0.0252,0.21824 -0.148172,0.40734 -0.364657,0.42468 l -2.654086,0.21323 c -0.215824,0.025 -0.407072,-0.14299 -0.426661,-0.35962 0,0 -0.160505,-1.7164 -1.113329,-3.33575 -0.965496,-1.64079 -2.356151,-3.06836 -5.839429,-2.86406 -1.741783,0.10366 -2.897543,0.56266 -3.719228,1.19413 -0.821703,0.63165 -1.322879,1.4483 -1.696848,2.31714 -0.737858,1.71354 -0.679894,3.43602 -0.679894,3.43602 0,0.21823 -0.160505,0.40126 -0.377455,0.41127 l -2.659591,0.12511 c -0.218344,0 -0.403336,-0.15907 -0.415115,-0.37516 0,0 -0.138163,-2.42241 0.957221,-4.96511 1.102283,-2.56075 3.73501,-5.32294 8.388366,-5.59605 0.290875,-0.025 0.575226,-0.025 0.852821,-0.025 z m 38.89973,0 c 0.27757,0 0.56193,0 0.85282,0.025 4.653334,0.27311 7.285554,3.0353 8.387854,5.59605 1.09476,2.54269 0.95772,4.9651 0.95772,4.9651 0,0.21824 -0.19827,0.38554 -0.41513,0.37517 l -2.65957,-0.12512 c -0.21836,0 -0.38625,-0.19321 -0.37822,-0.41127 0,0 0.0576,-1.72248 -0.67915,-3.43584 -0.37395,-0.86901 -0.875136,-1.68566 -1.696844,-2.31731 -0.82168,-0.63148 -1.97744,-1.09208 -3.71946,-1.19414 -3.483026,-0.2034 -4.873682,1.22327 -5.839195,2.86407 -0.952949,1.61935 -1.113329,3.33575 -1.113329,3.33575 -0.0252,0.21591 -0.210819,0.37695 -0.426661,0.35962 l -2.654068,-0.21324 c -0.218362,-0.025 -0.380243,-0.2059 -0.364675,-0.42467 0,0 0.173195,-2.41937 1.579901,-4.8105 1.327919,-2.25672 4.004562,-4.53203 8.168007,-4.58262 z m -27.22836,20.755 16.743327,0 c 0.248478,0 0.44448,0.21573 0.420637,0.4631 -0.441442,4.55419 -4.24927,8.03779 -8.795688,8.03779 l -2.5e-4,0 c -4.543665,0 -8.347453,-3.4864 -8.788663,-8.03779 -0.0252,-0.24862 0.170514,-0.4631 0.420637,-0.4631 z"
       id="path3383"
       inkscape:connector-curvature="0"
       sodipodi:nodetypes="sccscccccccsccccccscscccccsccccccccccsccccccccsccsccsccssscscssscsccsccccscccccccscssscscscccsscccccsccccccsccccccccccccscccccccccccccccccscsccccssssccccscccssccccssssccccscsscsccscsc" />
    <path
       style="clip-rule:evenodd;fill:#5915c9;fill-opacity:1"
       inkscape:connector-curvature="0"
       id="path3385"
       d="m 194.56247,969.65364 c 3.26481,0 5.98536,-1.08827 7.8509,-2.95383 2.02104,-2.02125 2.83729,-4.46981 2.83729,-8.04539 l 0,-16.75178 -8.86166,0 0,16.90728 c 0,1.90431 -1.01051,3.14808 -2.52629,3.14808 -1.47678,0 -2.48754,-0.89379 -3.53682,-2.37081 l -5.9466,5.01385 c 1.98227,2.95381 4.97484,5.0526 10.18318,5.0526 l 0,0 z m 26.26825,0.0388 c 8.39516,0 14.88601,-6.29636 14.88601,-14.18625 l 0,-0.0776 c 0,-7.8899 -6.4131,-14.10875 -14.80826,-14.10875 -8.39516,0 -14.88601,6.2966 -14.88601,14.1865 l 0,0.0776 c 0,7.88989 6.4131,14.1085 14.80826,14.1085 l 0,0 z m 0.0776,-8.04539 c -3.49804,0 -5.71335,-2.91505 -5.71335,-6.14086 l 0,-0.0776 c 0,-3.18705 2.17654,-6.06335 5.6356,-6.06335 3.49806,0 5.71337,2.91505 5.71337,6.1411 l 0,0.0776 c 0,3.18706 -2.17654,6.06311 -5.63562,6.06311 l 0,0 z m 21.21568,7.46239 9.09491,0 0,-9.75544 10.2607,-17.4513 -10.06645,0 -4.70283,8.93941 -4.66408,-8.93941 -10.18295,0 10.2607,17.56781 0,9.63893 z m -41.77058,39.44996 c 8.39515,0 14.88602,-6.2965 14.88602,-14.18647 l 0,-0.0769 c 0,-7.88994 -6.41312,-14.10853 -14.80827,-14.10853 -8.39538,0 -14.88601,6.29634 -14.88601,14.18628 l 0,0.0769 c 0,7.88992 6.41288,14.10872 14.80826,14.10872 l 0,0 z m 0.0776,-8.0456 c -3.49806,0 -5.7136,-2.91486 -5.7136,-6.14087 l 0,-0.0769 c 0,-3.18704 2.17654,-6.06308 5.63585,-6.06308 3.49783,0 5.71335,2.915 5.71335,6.14083 l 0,0.0769 c 0,3.18705 -2.17654,6.06312 -5.6356,6.06312 l 0,0 z m 15.85206,7.4624 9.09467,0 0,-8.90054 12.70947,0 0,-7.07348 -12.70947,0 0,-3.45943 13.68124,0 0,-7.77341 -22.77591,0 0,27.20686 z m -16.62956,39.4498 c 6.76287,0 10.57191,-3.3037 12.86497,-7.3459 l -7.50137,-4.2364 c -1.12704,2.0212 -2.56506,3.4202 -5.13035,3.4202 -2.99281,0 -5.0916,-2.4873 -5.0916,-6.0243 l 0,-0.077 c 0,-3.2648 2.02104,-5.9464 5.0916,-5.9464 2.48754,0 3.92556,1.3602 4.93608,3.3036 l 7.50137,-4.3921 c -2.29327,-4.1586 -6.33535,-7.0736 -12.32072,-7.0736 -8.12337,0 -14.45851,6.0631 -14.45851,14.1863 l 0,0.077 c 0,8.4342 6.56839,14.1087 14.10853,14.1087 l 0,0 z m 26.57949,0 c 8.39515,0 14.88577,-6.2963 14.88577,-14.1864 l 0,-0.077 c 0,-7.8899 -6.41287,-14.1085 -14.80802,-14.1085 -8.39539,0 -14.88601,6.2963 -14.88601,14.1863 l 0,0.077 c 0,7.8901 6.41287,14.1087 14.80826,14.1087 l 0,0 z m 0.0776,-8.0454 c -3.49806,0 -5.71358,-2.915 -5.71358,-6.141 l 0,-0.077 c 0,-3.187 2.17654,-6.0631 5.63583,-6.0631 3.49782,0 5.71336,2.915 5.71336,6.1409 l 0,0.077 c 0,3.1871 -2.17654,6.0633 -5.63561,6.0633 l 0,0 z m 15.85207,7.4624 10.1052,0 c 10.99943,0 16.51853,-5.7133 16.51853,-13.7589 l 0,-0.077 c 0,-8.0453 -5.40258,-13.37 -16.20753,-13.37 l -10.4162,0 0,27.2067 z m 9.09468,-7.9289 0,-11.3492 1.51577,0 c 4.15883,0 6.84062,1.7103 6.84062,5.6359 l 0,0.077 c 0,3.9256 -2.68179,5.6356 -6.84062,5.6356 l -1.51577,0 z m 18.6506,7.9289 9.09468,0 0,-27.2067 -9.09468,0 0,27.2067 z m 10.83825,0 9.01714,0 0,-12.5539 10.1052,12.5539 8.08439,0 0,-27.2067 -9.01716,0 0,12.0097 -9.67768,-12.0097 -8.51189,0 0,27.2067 z m 43.5253,0.583 c 4.93608,0 9.05591,-1.6712 12.00972,-4.0811 l 0,-12.5928 -13.17574,0 0,5.83 4.66385,0 0,2.7207 c -0.69952,0.3886 -1.55454,0.6218 -3.10931,0.6218 -3.80883,0 -6.49064,-2.6427 -6.49064,-6.4906 l 0,-0.077 c 0,-3.6925 2.56506,-6.4131 6.10212,-6.4131 2.25429,0 4.23633,0.8549 6.02435,2.371 l 5.09137,-6.1411 c -2.95381,-2.565 -6.72389,-4.1198 -11.38797,-4.1198 -8.58941,0 -15.00251,6.0631 -15.00251,14.1863 l 0,0.077 c 0,8.4342 6.80162,14.1087 15.27476,14.1087 l 0,0 z" />
  </g>
</svg>
