<?xml version="1.0" encoding="UTF-8" standalone="no"?>
<svg width="288px" height="53px" viewBox="0 0 288 53" version="1.1" xmlns="http://www.w3.org/2000/svg" xmlns:xlink="http://www.w3.org/1999/xlink" xmlns:sketch="http://www.bohemiancoding.com/sketch/ns">
    <!-- Generator: Sketch 3.4.4 (17249) - http://www.bohemiancoding.com/sketch -->
    <title>Hoppinger logo_oud Copy 2</title>
    <desc>Created with Sketch.</desc>
    <defs></defs>
    <g id="Page-1" stroke="none" stroke-width="1" fill="none" fill-rule="evenodd" sketch:type="MSPage">
        <g id="Hoppinger-logo_oud-Copy-2" sketch:type="MSLayerGroup">
            <path d="M15.9651743,40.9935118 L15.9651743,22.9717405 C15.9651743,20.4761421 14.6216147,19.176476 11.9401101,19.176476 C10.8584587,19.176476 9.66880734,19.4890076 8.84179817,19.9026133 L8.84179817,40.9935118 L0.328293578,40.9935118 L0.328293578,0.216777265 L8.84179817,0.216777265 L8.84179817,13.6715969 C10.3911193,12.996994 12.3014312,12.5281965 14.2117431,12.5281965 C20.8674495,12.5281965 24.4803303,15.9045357 24.4803303,22.0883399 L24.4803303,40.9935118 L15.9651743,40.9935118" id="Fill-1" fill="#28292B" sketch:type="MSShapeGroup"></path>
            <path d="M42.1777982,41.6159153 C33.870055,41.6159153 29.1230092,35.3346943 29.1230092,26.9678233 C29.1230092,18.605607 33.870055,12.3719307 42.1777982,12.3719307 C50.4871927,12.3719307 55.2342385,18.605607 55.2342385,26.9678233 C55.2342385,35.3346943 50.4871927,41.6159153 42.1777982,41.6159153 M42.1777982,19.0202102 C39.1858349,19.0202102 37.6381651,21.7219464 37.6381651,26.8644219 C37.6381651,32.0095571 39.1858349,34.7621629 42.1777982,34.7621629 C45.1714128,34.7621629 46.7204037,32.0095571 46.7204037,26.8644219 C46.7204037,21.7219464 45.1714128,19.0202102 42.1777982,19.0202102" id="Fill-2" fill="#28292B" sketch:type="MSShapeGroup"></path>
            <path d="M71.8480734,41.2535116 C70.6111927,41.2535116 69.1665688,41.0460438 68.3920734,40.786044 L68.3920734,52.1631932 L59.8782385,52.1631932 L59.8782385,14.3987316 C62.0973578,13.2543339 66.2251376,12.3719307 70.7158899,12.3719307 C79.9517064,12.3719307 84.9570275,17.566938 84.9570275,26.9169538 C84.9570275,35.5920342 80.4682569,41.2535116 71.8480734,41.2535116 M70.8691376,18.9184711 C69.8888807,18.9184711 68.9082936,19.1262714 68.3920734,19.3344042 L68.3920734,34.3977643 C68.8561101,34.6048996 69.9410642,34.812035 70.9216514,34.812035 C74.5328807,34.812035 76.4415413,31.5922941 76.4415413,26.9169538 C76.4415413,21.6720744 74.4301651,18.9184711 70.8691376,18.9184711" id="Fill-3" fill="#28292B" sketch:type="MSShapeGroup"></path>
            <path d="M101.572514,41.2535116 C100.333651,41.2535116 98.8893578,41.0460438 98.1165138,40.786044 L98.1165138,52.1631932 L89.6026789,52.1631932 L89.6026789,14.3987316 C91.8217982,13.2543339 95.9479266,12.3719307 100.44033,12.3719307 C109.672514,12.3719307 114.679817,17.566938 114.679817,26.9169538 C114.679817,35.5920342 110.189064,41.2535116 101.572514,41.2535116 M100.593908,18.9184711 C99.6096881,18.9184711 98.6327339,19.1262714 98.1165138,19.3344042 L98.1165138,34.3977643 C98.5802202,34.6048996 99.6622018,34.812035 100.642459,34.812035 C104.25567,34.812035 106.16433,31.5922941 106.16433,26.9169538 C106.16433,21.6720744 104.152624,18.9184711 100.593908,18.9184711" id="Fill-4" fill="#28292B" sketch:type="MSShapeGroup"></path>
            <path d="M123.608477,9.15252234 C121.026385,9.15252234 118.911963,7.17692339 118.911963,4.7375142 C118.911963,2.29544515 121.026385,0.268644219 123.608477,0.268644219 C126.186936,0.268644219 128.353872,2.29544515 128.353872,4.7375142 C128.353872,7.17692339 126.186936,9.15252234 123.608477,9.15252234" id="Fill-5" fill="#28292B" sketch:type="MSShapeGroup"></path>
            <path d="M119.376,12.996994 L127.889505,12.996994 L127.889505,40.9931794 L119.376,40.9931794 L119.376,12.996994 Z" id="Fill-6" fill="#28292B" sketch:type="MSShapeGroup"></path>
            <path d="M149.151303,40.9935118 L149.151303,22.8144773 C149.151303,20.4761421 147.757211,19.0737395 145.229284,19.0737395 C144.042936,19.0737395 142.753541,19.3344042 142.027927,19.6462709 L142.027927,40.9935118 L133.514092,40.9935118 L133.514092,14.3987316 C136.612734,13.2051268 140.276477,12.3719307 145.126239,12.3719307 C153.847817,12.3719307 157.664807,15.7509297 157.664807,21.8266778 L157.664807,40.9935118 L149.151303,40.9935118" id="Fill-7" fill="#28292B" sketch:type="MSShapeGroup"></path>
            <path d="M174.693798,52.6831926 C169.789872,52.6831926 166.12778,51.7469276 163.444624,50.4472615 L165.765138,43.798982 C167.673468,44.7861165 170.564367,45.4610519 173.765725,45.4610519 C177.373321,45.4610519 178.976807,43.6952481 178.976807,40.3724383 L178.976807,39.0202403 C177.687413,39.5911092 175.778752,39.9036409 174.177248,39.9036409 C167.055853,39.9036409 162.308807,34.8648994 162.308807,26.5545501 C162.308807,17.2567338 167.83233,12.3719307 177.066495,12.3719307 C181.298972,12.3719307 185.014899,13.2543339 187.387596,14.3987316 L187.387596,40.3724383 C187.387596,48.5278517 182.331743,52.6831926 174.693798,52.6831926 M178.976807,19.2290079 C178.357541,19.0202102 177.373321,18.8662717 176.241138,18.8662717 C172.940367,18.8662717 170.822642,21.2558088 170.822642,26.2416859 C170.822642,31.177026 172.834018,33.5652332 176.138422,33.5652332 C177.12033,33.5652332 178.357541,33.2553614 178.976807,32.9428298 L178.976807,19.2290079" id="Fill-8" fill="#28292B" sketch:type="MSShapeGroup"></path>
            <path d="M217.677138,28.1105586 L200.341321,30.3986892 C201.011119,33.4628292 203.643743,34.9676358 207.101394,34.9676358 C209.887596,34.9676358 212.87956,34.2950278 214.945101,33.2553614 L217.316147,39.5911092 C214.789872,40.786044 210.61156,41.6159153 206.429945,41.6159153 C196.780294,41.6159153 192.031596,35.2821624 192.031596,26.9678233 C192.031596,18.3994691 196.986055,12.3719307 205.346312,12.3719307 C213.446642,12.3719307 217.783486,17.8266053 217.783486,25.5145512 C217.783486,26.3972868 217.783486,27.2281555 217.677138,28.1105586 M205.14055,18.3994691 C202.146606,18.3994691 199.826422,20.4761421 199.774239,25.0976206 L209.577138,23.8514838 C209.577138,20.3198763 207.874239,18.3994691 205.14055,18.3994691" id="Fill-9" fill="#28292B" sketch:type="MSShapeGroup"></path>
            <path d="M236.979413,19.6462709 C236.152734,19.3344042 234.966055,19.1262714 233.830239,19.1262714 C232.746936,19.1262714 231.714165,19.2825373 230.942972,19.5934065 L230.942972,40.9935118 L222.426165,40.9935118 L222.426165,14.3987316 C225.522826,13.2051268 229.599743,12.3719307 234.502018,12.3719307 C236.152734,12.3719307 237.546495,12.5271991 238.525101,12.6851273 L236.979413,19.6462709" id="Fill-10" fill="#28292B" sketch:type="MSShapeGroup"></path>
            <path d="M241.084404,40.9935118 L287.858972,40.9935118 L264.470862,0.215779824 L241.084404,40.9935118 Z" id="Fill-11" fill="#1CDE56" sketch:type="MSShapeGroup"></path>
        </g>
    </g>
</svg>