<?xml version="1.0" encoding="UTF-8" standalone="no"?>
<svg
   xmlns:dc="http://purl.org/dc/elements/1.1/"
   xmlns:cc="http://creativecommons.org/ns#"
   xmlns:rdf="http://www.w3.org/1999/02/22-rdf-syntax-ns#"
   xmlns:svg="http://www.w3.org/2000/svg"
   xmlns="http://www.w3.org/2000/svg"
   viewBox="0 0 368.37332 150.01334"
   height="150.01334"
   width="368.37332"
   xml:space="preserve"
   id="svg2"
   version="1.1"><metadata
     id="metadata8"><rdf:RDF><cc:Work
         rdf:about=""><dc:format>image/svg+xml</dc:format><dc:type
           rdf:resource="http://purl.org/dc/dcmitype/StillImage" /></cc:Work></rdf:RDF></metadata><defs
     id="defs6" /><g
     transform="matrix(1.3333333,0,0,-1.3333333,0,150.01333)"
     id="g10"><g
       transform="scale(0.1)"
       id="g12"><path
         id="path14"
         style="fill:#54bf36;fill-opacity:1;fill-rule:nonzero;stroke:none"
         d="m 1756.66,292.234 c -5.45,1.356 -10.04,2.293 -13.77,2.801 -3.75,0.508 -8.34,0.762 -13.77,0.762 -21.42,0 -38.59,-6.289 -51.51,-18.867 -12.92,-12.578 -19.38,-33.836 -19.38,-63.75 v -95.879 h -78.03 v 245.82 h 78.03 v -39.785 c 5.77,11.562 15.37,21.758 28.81,30.605 13.43,8.84 28.82,13.262 46.16,13.262 9.18,0 17,-1.367 23.46,-4.082 v -70.887" /><path
         id="path16"
         style="fill:#54bf36;fill-opacity:1;fill-rule:nonzero;stroke:none"
         d="m 1798.99,363.121 h 78.03 v -245.82 h -78.03 z m -11.23,81.602 c 0,13.937 4.77,25.664 14.29,35.187 9.51,9.52 21.42,14.285 35.69,14.285 7.14,0 13.77,-1.277 19.9,-3.828 6.12,-2.547 11.47,-6.043 16.06,-10.457 4.59,-4.426 8.17,-9.687 10.71,-15.812 2.55,-6.114 3.83,-12.578 3.83,-19.375 0,-6.805 -1.28,-13.184 -3.83,-19.129 -2.54,-5.949 -6.12,-11.223 -10.71,-15.813 -4.59,-4.59 -9.94,-8.152 -16.06,-10.703 -6.13,-2.547 -12.76,-3.828 -19.9,-3.828 -7.13,0 -13.69,1.281 -19.62,3.828 -5.96,2.551 -11.22,6.113 -15.81,10.703 -4.59,4.59 -8.17,9.864 -10.72,15.813 -2.55,5.945 -3.83,12.324 -3.83,19.129" /><path
         id="path18"
         style="fill:#54bf36;fill-opacity:1;fill-rule:nonzero;stroke:none"
         d="m 1996.87,363.121 59.66,-154.531 60.18,154.531 h 81.6 l -111.18,-245.82 h -62.22 l -109.65,245.82 h 81.61" /><path
         id="path20"
         style="fill:#54bf36;fill-opacity:1;fill-rule:nonzero;stroke:none"
         d="m 2335.5,317.73 c -15.3,0 -27.88,-4.421 -37.75,-13.261 -9.86,-8.848 -14.78,-21.59 -14.78,-38.25 h 103.02 c 0,15.976 -4.68,28.562 -14.03,37.742 -9.35,9.18 -21.5,13.769 -36.46,13.769 z m -52.53,-96.386 c 0.33,-7.489 1.44,-14.539 3.31,-21.172 1.87,-6.629 4.93,-12.41 9.18,-17.332 4.25,-4.934 9.78,-8.848 16.58,-11.731 6.8,-2.898 15.29,-4.336 25.5,-4.336 13.59,0 23.88,2.715 30.85,8.157 6.97,5.437 11.82,12.066 14.54,19.89 h 76.49 c -1.69,-11.562 -5.69,-22.441 -11.98,-32.636 -6.29,-10.204 -14.62,-19.129 -24.99,-26.778 -10.37,-7.644 -22.62,-13.687 -36.72,-18.105 -14.11,-4.41 -30.01,-6.629 -47.68,-6.629 -21.42,0 -40.38,3.137 -56.87,9.43 -16.49,6.293 -30.34,15.218 -41.56,26.781 -11.22,11.551 -19.73,25.242 -25.5,41.055 -5.79,15.808 -8.67,33.23 -8.67,52.273 0,18.019 2.8,34.844 8.42,50.488 5.6,15.637 13.93,29.328 24.99,41.055 11.04,11.73 24.64,20.996 40.79,27.793 16.15,6.797 34.94,10.207 56.36,10.207 19.38,0 36.79,-3.059 52.27,-9.18 15.47,-6.125 28.73,-14.277 39.79,-24.484 11.04,-10.195 19.54,-22.098 25.5,-35.703 5.94,-13.594 8.92,-27.879 8.92,-42.832 0,-5.106 -0.09,-10.547 -0.25,-16.328 -0.18,-5.782 -0.95,-12.411 -2.3,-19.883 h -176.97" /><path
         id="path22"
         style="fill:#54bf36;fill-opacity:1;fill-rule:nonzero;stroke:none"
         d="M 2515.97,363.121 H 2594 v -35.703 c 6.8,13.262 17.09,23.547 30.86,30.859 13.77,7.305 30.34,10.965 49.72,10.965 15.98,0 29.75,-2.469 41.31,-7.398 11.56,-4.934 20.74,-11.817 27.54,-20.656 7.82,-9.52 13,-20.489 15.56,-32.891 2.55,-12.41 3.82,-27.461 3.82,-45.137 V 117.301 h -78.03 V 243.27 c 0,17.675 -3.14,32.039 -9.43,43.093 -6.3,11.047 -17.6,16.582 -33.92,16.582 -15.99,0 -27.88,-5.617 -35.7,-16.836 -7.82,-11.218 -11.73,-26.347 -11.73,-45.39 V 117.301 h -78.03 v 245.82" /><path
         id="path24"
         style="fill:#54bf36;fill-opacity:1;fill-rule:nonzero;stroke:none"
         d="M 1099.79,294.043 V 89.7188 c 0,-16.629 -6.81,-24.9493 -20.4,-24.9493 -3.06,0 -5.95,0 -8.67,0 -2.73,0 -6.45,0.4219 -11.22,1.2618 V 6.12109 c 4.77,-1.69921 11.81,-3.13281 21.16,-4.33984 C 1090.01,0.601563 1099.28,0 1108.46,0 c 9.51,0 18.44,1.10938 26.78,3.32031 8.33,2.21094 15.63,6.21094 21.93,11.98049 6.28,5.789 11.3,13.8594 15.04,24.2305 3.74,10.3789 5.61,23.5468 5.61,39.5273 V 325.629 l -78.03,-31.586" /><path
         id="path26"
         style="fill:#54bf36;fill-opacity:1;fill-rule:nonzero;stroke:none"
         d="m 1425.42,215.984 c -2.89,-7.648 -6.88,-14.277 -11.99,-19.882 -5.1,-5.618 -11.21,-10.129 -18.36,-13.516 -7.14,-3.41 -15.13,-5.109 -23.97,-5.109 -8.84,0 -16.82,1.699 -23.97,5.109 -7.14,3.387 -13.25,7.898 -18.36,13.516 -5.1,5.605 -9.1,12.234 -11.98,19.882 -2.89,7.657 -4.34,15.723 -4.34,24.227 0,8.496 1.45,16.484 4.34,23.977 2.88,7.468 6.88,14.101 11.98,19.882 5.11,5.782 11.22,10.371 18.36,13.77 7.15,3.398 15.13,5.105 23.97,5.105 8.84,0 16.83,-1.707 23.97,-5.105 7.15,-3.399 13.26,-7.988 18.36,-13.77 5.11,-5.781 9.1,-12.414 11.99,-19.882 2.88,-7.493 4.34,-15.481 4.34,-23.977 0,-8.504 -1.46,-16.57 -4.34,-24.227 z m 4.34,211.602 v -99.648 c -3.07,5.429 -7.14,10.703 -12.25,15.8 -5.1,5.106 -10.97,9.52 -17.59,13.262 -6.63,3.738 -13.85,6.707 -21.68,8.926 -7.82,2.207 -15.64,3.32 -23.45,3.32 -17.69,0 -33.92,-3.32 -48.72,-9.953 -14.78,-6.629 -27.46,-15.645 -37.98,-27.031 -10.55,-11.387 -18.71,-24.989 -24.49,-40.801 -5.79,-15.801 -8.67,-32.891 -8.67,-51.25 0,-18.359 2.88,-35.449 8.67,-51.258 5.78,-15.801 13.94,-29.406 24.49,-40.793 10.52,-11.394 23.2,-20.398 37.98,-27.031 14.8,-6.629 31.03,-9.949 48.72,-9.949 7.81,0 15.63,1.109 23.45,3.32 7.83,2.219 15.05,5.102 21.68,8.672 6.62,3.562 12.49,7.812 17.59,12.742 5.11,4.922 9.18,10.285 12.25,16.066 v -34.679 h 78.02 v 341.867 l -78.02,-31.582" /><path
         id="path28"
         style="fill:#54bf36;fill-opacity:1;fill-rule:nonzero;stroke:none"
         d="M 1183.39,764.422 28.5352,1125.14 534.461,717.148 Z" /><path
         id="path30"
         style="fill:#54bf36;fill-opacity:1;fill-rule:nonzero;stroke:none"
         d="M 0,1110.61 268.809,14.1719 448.27,639.313 Z" /><path
         id="path32"
         style="fill:#54bf36;fill-opacity:1;fill-rule:nonzero;stroke:none"
         d="M 297.402,6.53906 1195.79,735.656 557.742,603.406 Z" /></g></g></svg>